<svg width="71" height="95" viewBox="0 0 71 95" fill="none" xmlns="http://www.w3.org/2000/svg">
<path fill-rule="evenodd" clip-rule="evenodd" d="M0 0H71V95H0V0Z" fill="#0DD35F"/>
<path d="M35.3157 29V52.1443C35.3157 52.2329 35.3157 52.3215 35.3157 52.4101C35.3157 55.9013 32.4228 58.7367 28.8609 58.7367C27.9569 58.7367 27.1071 58.5595 26.3296 58.2228V58.2405C24.0695 57.2481 22.4965 55.0329 22.4965 52.4633C22.4965 48.9722 25.3894 46.1367 28.9513 46.1367C29.7107 46.1367 30.4339 46.2608 31.1029 46.5089L32.9833 41.7595C31.6634 41.2633 30.2531 40.9975 28.7524 40.9975C22.2615 40.9975 17 46.1544 17 52.5165C17 57.3899 20.0737 61.5367 24.4312 63.238V63.2203C25.751 63.7165 27.1794 64 28.6801 64C31.1752 64 33.4896 63.238 35.388 61.9443L37.6843 62.6532L42.096 64V34.2278H54.0473L56 29H35.3157Z" fill="white"/>
<path d="M44.0848 40.962L44.0667 46.5089H49.2739L51.4798 40.962H44.0848Z" fill="white"/>
</svg>
