<?xml version="1.0" standalone="no"?>
<!DOCTYPE svg PUBLIC "-//W3C//DTD SVG 1.1//EN" "http://www.w3.org/Graphics/SVG/1.1/DTD/svg11.dtd" >
<svg xmlns="http://www.w3.org/2000/svg" xmlns:xlink="http://www.w3.org/1999/xlink" version="1.1">
<metadata>
Created by FontForge 20170731 at Mon Apr 16 19:43:25 2018
 By Aleksey,,,
Copyright (c)2015, HK Grotesk Pro Latin by Alfredo Marco Pradil (ammpradil@gmail.com). HK Grotesk Pro is a trademark of Alfredo Marco Pradil.
</metadata>
<defs>
<font id="HKGroteskPro-SemiBold" horiz-adv-x="0" >
  <font-face 
    font-family="HK Grotesk Pro SemiBold"
    font-weight="600"
    font-stretch="normal"
    units-per-em="2048"
    panose-1="0 0 7 0 0 0 0 0 0 0"
    ascent="1434"
    descent="-614"
    x-height="999"
    cap-height="1413"
    bbox="-973 -520 2645 2241"
    underline-thickness="82"
    underline-position="-410"
    unicode-range="U+0020-FB02"
  />
<missing-glyph horiz-adv-x="1136" 
d="M157 0v956h822v-956h-822zM245 89h646v778h-646v-778z" />
    <glyph glyph-name="fi" unicode="fi" horiz-adv-x="1104" 
d="M949 999v-999h-191v825h-358v-825h-206v825h-167v174h167v76q0 167 114.5 262t283.5 95q205 0 360 -101l-97 -146q-110 80 -253 80q-100 0 -151 -50.5t-51 -143.5v-72h549z" />
    <glyph glyph-name="fl" unicode="fl" horiz-adv-x="1194" 
d="M980 -19q-98 0 -149.5 51.5t-51.5 170.5v1020q-82 42 -183 42q-98 0 -148 -50t-50 -144v-72h210l-2 -174h-208v-825h-207v825h-164v174h164v76q0 167 113.5 262t281.5 95q117 0 199 -21t200 -83v-1069q0 -92 90 -92q25 0 72 7l1 -174q-93 -19 -168 -19z" />
    <glyph glyph-name="f_f" unicode="ff" horiz-adv-x="1240" 
d="M194 0v825h-167v174h167v79q0 161 118 257.5t289 96.5q147 0 258 -68q88 68 211 68q85 0 172 -40l-68 -170q-45 26 -85 26q-55 0 -87 -32t-32 -97v-120h260v-174h-260v-825h-213v825h-357v-825h-206zM400 999h359v141q0 47 14 87q-73 38 -162 38q-102 0 -156.5 -51.5
t-54.5 -138.5v-76z" />
    <glyph glyph-name="f_f_i" unicode="ffi" horiz-adv-x="1678" 
d="M1527 999v-999h-206v825h-357v-825h-207v825h-357v-825h-206v825h-167v174h167v79q0 161 118 257.5t289 96.5q164 0 284 -84q110 84 270 84q207 0 359 -101l-96 -146q-110 80 -252 80q-101 0 -151.5 -50t-50.5 -144v-72h563zM757 999v76q0 79 28 144q-80 46 -174 46
q-102 0 -156.5 -51.5t-54.5 -138.5v-76h357z" />
    <glyph glyph-name="f_f_l" unicode="ffl" horiz-adv-x="1739" 
d="M1524 -19q-100 0 -151.5 51.5t-51.5 170.5v1031q-75 31 -155 31q-101 0 -151.5 -50t-50.5 -144v-72h203v-174h-203v-825h-207v825h-357v-825h-206v825h-167v174h167v79q0 161 118 257.5t289 96.5q163 0 284 -83q109 83 270 83q112 0 199 -26t173 -81v-1066q0 -92 92 -92
q25 0 74 7l1 -174q-93 -19 -170 -19zM400 999h357v76q0 80 29 143q-76 47 -175 47q-102 0 -156.5 -51.5t-54.5 -138.5v-76z" />
    <glyph glyph-name="h_d_c_o.liga" unicode="hdco" horiz-adv-x="1745" 
d="M872 -61q-158 0 -301 61t-247 165t-165 247t-61 301t61 301t165 247t247 165t301 61t301.5 -61t247 -165t165 -247t61.5 -301t-61.5 -301t-165 -247t-247 -165t-301.5 -61zM872 10q144 0 274 55.5t224 149.5t149.5 224.5t55.5 273.5t-55.5 273t-149.5 224t-224 149.5
t-274 55.5q-143 0 -273 -55.5t-224 -149.5t-149.5 -224t-55.5 -273t55.5 -273.5t149.5 -224.5t224 -149.5t273 -55.5zM469 410q-14 0 -24.5 9.5t-10.5 24.5v537q0 15 10.5 26t24.5 11q15 0 26 -11t11 -26v-537q0 -15 -11 -24.5t-26 -9.5zM872 410q-15 0 -24.5 9.5t-9.5 24.5
v537q0 15 9.5 26t24.5 11t25 -11t10 -26v-537q0 -15 -9.5 -24.5t-25.5 -9.5zM1274 410q-16 0 -23 10l-270 268q-8 11 -8 25q0 16 8 24l269 267q10 13 25 13q14 0 25 -11t11 -25t-11 -25l-243 -243l243 -244q11 -10 11 -25q0 -13 -11.5 -23.5t-25.5 -10.5zM604 678
q-15 0 -25 9.5t-10 25.5q0 15 10 25t25 10h133q16 0 26.5 -10t10.5 -25q0 -16 -10.5 -25.5t-26.5 -9.5h-133z" />
    <glyph glyph-name=".notdef" horiz-adv-x="1136" 
d="M157 0v956h822v-956h-822zM245 89h646v778h-646v-778z" />
    <glyph glyph-name=".null" 
 />
    <glyph glyph-name="nonmarkingreturn" horiz-adv-x="682" 
 />
    <glyph glyph-name="space" unicode=" " horiz-adv-x="503" 
 />
    <glyph glyph-name="exclam" unicode="!" horiz-adv-x="632" 
d="M238 418l-24 995h204l-23 -995h-157zM203 0v250h226v-250h-226z" />
    <glyph glyph-name="quotedbl" unicode="&#x22;" horiz-adv-x="886" 
d="M187 919v494h174v-494h-174zM525 919v494h174v-494h-174z" />
    <glyph glyph-name="numbersign" unicode="#" horiz-adv-x="1395" 
d="M240 0l89 419h-237v147h268l64 304h-249v153h280l90 390h164l-88 -397h285l84 397h164l-89 -397h240v-146h-271l-66 -304h254v-147h-285l-89 -419h-162l88 419h-285l-86 -419h-163zM524 566h285l62 304h-285z" />
    <glyph glyph-name="dollar" unicode="$" horiz-adv-x="1141" 
d="M1066 404q0 -176 -121 -289t-308 -128v-247l-89 -2v248q-119 7 -219.5 53t-173.5 137.5t-93 214.5l213 54q14 -121 87.5 -188.5t185.5 -78.5v472q-163 64 -232 110q-161 111 -163 292q0 166 112.5 268t282.5 111v228h89v-230q242 -24 362 -238l-178 -110
q-65 124 -184 153v-403q163 -63 228 -100q169 -99 196 -258q5 -33 5 -69zM368 1063q0 -67 46.5 -112t133.5 -83v372q-79 -8 -129.5 -56.5t-50.5 -120.5zM637 179q100 11 157 68t57 138q0 42 -16 77t-47.5 62.5t-66 47.5t-84.5 42v-435z" />
    <glyph glyph-name="percent" unicode="%" horiz-adv-x="1462" 
d="M386 784q-129 0 -207 93t-78 232q0 137 76.5 230t202.5 93q122 0 202 -92.5t80 -232.5q0 -138 -78.5 -230.5t-197.5 -92.5zM241 0l833 1413h147l-833 -1413h-147zM386 924q59 0 97.5 51.5t38.5 131.5q0 81 -38.5 133t-103.5 52q-66 0 -102.5 -51.5t-36.5 -131.5
q0 -81 38 -133t107 -52zM1084 -19q-129 0 -207 93t-78 232q0 137 76.5 230t202.5 93q122 0 202 -92.5t80 -232.5q0 -138 -78.5 -230.5t-197.5 -92.5zM1084 121q59 0 97.5 51.5t38.5 131.5q0 81 -38.5 133t-103.5 52q-66 0 -102.5 -51.5t-36.5 -131.5q0 -81 38 -133t107 -52z
" />
    <glyph glyph-name="ampersand" unicode="&#x26;" horiz-adv-x="1393" 
d="M1314 58l-146 -130l-187 216q-182 -164 -430 -164q-198 0 -325 92t-127 255q0 63 19 119.5t48.5 98.5t76.5 83.5t90 70t101 61.5q-32 33 -54.5 60.5t-54 74t-49 99.5t-17.5 106q0 74 32.5 136.5t86 104t122 64.5t141.5 23q152 0 258.5 -94.5t106.5 -231.5
q0 -64 -21.5 -120.5t-62.5 -103t-86 -82.5t-107 -74l241 -273q49 113 52 244l201 -20q-12 -212 -117 -379zM458 1097q0 -87 137 -248q108 61 164 118t56 131q0 71 -47 119.5t-125 48.5q-79 0 -132 -45.5t-53 -123.5zM546 155q186 0 313 129l-296 341q-62 -37 -102.5 -65.5
t-81 -66t-60.5 -79.5t-20 -90q0 -81 67 -125t180 -44z" />
    <glyph glyph-name="quotesingle" unicode="'" horiz-adv-x="548" 
d="M187 919v494h174v-494h-174z" />
    <glyph glyph-name="parenleft" unicode="(" horiz-adv-x="565" 
d="M338 -151q-102 137 -164 366.5t-62 413.5q0 196 56.5 410t171.5 374h180q-117 -158 -175.5 -373.5t-58.5 -410.5q0 -186 64 -417.5t168 -362.5h-180z" />
    <glyph glyph-name="parenright" unicode=")" horiz-adv-x="565" 
d="M227 -151h-180q104 131 168 362.5t64 417.5q0 195 -58.5 410.5t-175.5 373.5h180q115 -160 171.5 -374t56.5 -410q0 -184 -62 -413.5t-164 -366.5z" />
    <glyph glyph-name="asterisk" unicode="*" horiz-adv-x="913" 
d="M343 837l-144 95l163 169l-234 32l56 156l215 -88l-30 212h177l-31 -212l215 88l55 -156l-234 -32l163 -169l-145 -95l-113 217z" />
    <glyph glyph-name="plus" unicode="+" horiz-adv-x="1220" 
d="M531 109v437h-437v157h437v438h157v-438h438v-157h-438v-437h-157z" />
    <glyph glyph-name="comma" unicode="," horiz-adv-x="641" 
d="M143 -307l160 571h237l-258 -571h-139z" />
    <glyph glyph-name="hyphen" unicode="-" horiz-adv-x="871" 
d="M151 529v157h569v-157h-569z" />
    <glyph glyph-name="period" unicode="." horiz-adv-x="640" 
d="M216 0v250h208v-250h-208z" />
    <glyph glyph-name="slash" unicode="/" horiz-adv-x="890" 
d="M-19 -429l734 1842h194l-734 -1842h-194z" />
    <glyph glyph-name="zero" unicode="0" horiz-adv-x="1174" 
d="M597 -19q-89 0 -162 25t-123.5 66t-88.5 100.5t-60.5 121.5t-36.5 137.5t-18.5 140t-4.5 135.5q0 72 4.5 136.5t18 140t35 137.5t58.5 121.5t86 100.5t120 66t158 25q110 0 196.5 -42.5t141.5 -112t90.5 -166t50 -197t14.5 -212.5q0 -111 -14 -210.5t-48.5 -195.5
t-87.5 -164.5t-137.5 -110.5t-191.5 -42zM592 184q67 0 116 32t76.5 81t43.5 122.5t21 139.5t5 149q0 69 -3.5 125.5t-13.5 119t-29.5 109t-48.5 85.5t-73.5 59.5t-102.5 20.5q-51 0 -91.5 -16.5t-68 -44t-48 -69t-32 -84t-18.5 -98.5t-9 -103t-2 -105t2 -105t9 -103t19 -99
t33 -85t49.5 -69.5t71 -44.5t94.5 -17z" />
    <glyph glyph-name="one" unicode="1" horiz-adv-x="1174" 
d="M584 1413h203v-1413h-211v1026h-338v164h205q141 0 141 125v98z" />
    <glyph glyph-name="two" unicode="2" horiz-adv-x="1174" 
d="M435 195h657v-195h-1002v175q715 437 715 830q0 104 -58 168t-170 64q-70 0 -123 -27t-83.5 -73.5t-46 -102.5t-17.5 -122l-210 14q0 80 20.5 154.5t61 138t97 110.5t133.5 74t166 27q199 0 322 -114t123 -316q0 -96 -37.5 -197.5t-98 -189t-138.5 -169t-156.5 -143.5
t-154.5 -106z" />
    <glyph glyph-name="three" unicode="3" horiz-adv-x="1174" 
d="M575 -19q-107 0 -199.5 29.5t-163 85.5t-111 144t-40.5 198l205 12q0 -126 87 -198.5t226 -72.5q130 0 217.5 65.5t87.5 183.5q0 52 -15 91.5t-45 64t-63 40t-80 22.5t-84 9.5t-87 2.5v166q165 0 231 49t66 154q0 97 -65 151t-168 54q-109 0 -175.5 -60t-67.5 -163
l-203 13q0 125 60.5 219.5t160.5 142.5t222 48q118 0 218 -44.5t162 -132.5t62 -202q0 -102 -54.5 -179t-161.5 -119q142 -34 217 -124t75 -220q0 -102 -41.5 -184.5t-112.5 -135.5t-163.5 -81.5t-196.5 -28.5z" />
    <glyph glyph-name="four" unicode="4" horiz-adv-x="1174" 
d="M911 530h227v-197h-227v-333h-211v333h-672v128l700 952h183v-883zM303 530h397v558z" />
    <glyph glyph-name="five" unicode="5" horiz-adv-x="1174" 
d="M614 962q196 0 334.5 -142t138.5 -342q0 -132 -68.5 -246.5t-186 -182.5t-253.5 -68q-183 0 -321.5 120t-178.5 302l200 55q12 -57 35 -105.5t58.5 -89t88.5 -64t118 -23.5q123 0 206 91.5t83 212.5q0 123 -77.5 206t-207.5 83q-77 0 -148 -38.5t-116 -106.5l-198 51
l135 738h766v-198h-596l-61 -327q119 74 249 74z" />
    <glyph glyph-name="six" unicode="6" horiz-adv-x="1174" 
d="M589 952q136 0 251.5 -65t183 -177t67.5 -243q0 -132 -67.5 -244t-183 -177t-251.5 -65q-137 0 -253 65t-183.5 177t-67.5 244q0 145 83 266l417 680h245l-286 -463q30 2 45 2zM589 181q121 0 206.5 84t85.5 202q0 117 -85.5 201t-206.5 84q-122 0 -208 -84t-86 -201
q0 -118 86 -202t208 -84z" />
    <glyph glyph-name="seven" unicode="7" horiz-adv-x="1174" 
d="M80 1413h1016v-114l-648 -1299h-238l627 1217h-757v196z" />
    <glyph glyph-name="eight" unicode="8" horiz-adv-x="1174" 
d="M585 -19q-79 0 -152.5 16.5t-138 51t-112.5 83.5t-75.5 118.5t-27.5 151.5q0 123 60.5 217t165.5 146q-73 51 -112 126.5t-39 165.5q0 87 36.5 159.5t97 118.5t137.5 71.5t161 25.5q115 0 212.5 -44t158.5 -131t61 -201q0 -91 -40.5 -166.5t-111.5 -124.5
q108 -53 166.5 -146.5t58.5 -214.5q0 -103 -42.5 -185.5t-114 -133.5t-161 -77.5t-188.5 -26.5zM590 827q99 0 161 57.5t62 154.5q0 99 -62.5 156.5t-161.5 57.5q-94 0 -158.5 -54t-64.5 -153t61 -159t163 -60zM584 166q127 0 210.5 66.5t83.5 191.5q0 121 -82 191.5
t-212 70.5q-131 0 -213 -70t-82 -190q0 -126 84.5 -193t210.5 -67z" />
    <glyph glyph-name="nine" unicode="9" horiz-adv-x="1174" 
d="M1094 946q0 -145 -83 -266l-417 -680h-245l286 463q-30 -2 -45 -2q-136 0 -251.5 65t-183 177t-67.5 243q0 132 67.5 244t183 177t251.5 65q137 0 253 -65t183.5 -177t67.5 -244zM298 946q0 -117 85.5 -201t206.5 -84q122 0 208 84t86 201q0 118 -86 202t-208 84
q-121 0 -206.5 -84t-85.5 -202z" />
    <glyph glyph-name="colon" unicode=":" horiz-adv-x="666" 
d="M221 705v249h225v-249h-225zM221 0v250h225v-250h-225z" />
    <glyph glyph-name="semicolon" unicode=";" horiz-adv-x="664" 
d="M267 705v249h226v-249h-226zM109 -307l160 571h237l-259 -571h-138z" />
    <glyph glyph-name="less" unicode="&#x3c;" horiz-adv-x="1299" 
d="M1116 -3l-1055 602l1055 601l78 -135l-815 -466l815 -466z" />
    <glyph glyph-name="equal" unicode="=" horiz-adv-x="1286" 
d="M236 799v176h814v-176h-814zM236 369v176h814v-176h-814z" />
    <glyph glyph-name="greater" unicode="&#x3e;" horiz-adv-x="1299" 
d="M183 -3l-78 136l815 466l-815 466l78 135l1055 -601z" />
    <glyph glyph-name="question" unicode="?" horiz-adv-x="1016" 
d="M412 414v152q0 65 19 114t49 78t66.5 52t73 43t66.5 43t49 60.5t19 88.5q0 107 -68 161t-188 54q-126 0 -188.5 -65.5t-63.5 -188.5h-182q0 199 116 312.5t311 113.5q124 0 223.5 -43.5t160 -133.5t60.5 -213q0 -74 -19 -132t-49.5 -94t-67.5 -64t-74.5 -48t-68 -38.5
t-49.5 -43.5t-19 -57v-151h-176zM390 0v250h225v-250h-225z" />
    <glyph glyph-name="at" unicode="@" horiz-adv-x="2048" 
d="M1016 -350q-147 0 -281.5 38.5t-246 113.5t-194 179t-128.5 242t-46 296q0 255 113.5 463t323 329.5t476.5 121.5q162 0 304.5 -46t250.5 -128t186 -192.5t118 -243t40 -275.5q0 -94 -17.5 -183t-55 -169t-91 -139.5t-130.5 -94.5t-169 -35q-98 0 -160 43.5t-84 123.5
q-14 45 -16 106q-63 -72 -145.5 -112.5t-171.5 -40.5q-158 0 -243 110.5t-85 278.5q0 82 20.5 167.5t62 167t98 145t137 102.5t170.5 39q98 0 166 -44t99 -121l24 115h167q-14 -76 -54 -242t-67 -304t-29 -224q-3 -75 20 -108t86 -33q80 0 141 40.5t96 107.5t52 145t17 162
q0 146 -51.5 277.5t-144.5 230.5t-233 157.5t-306 58.5q-167 0 -309 -58.5t-238.5 -160t-151 -239t-54.5 -294.5q0 -163 58.5 -298t159.5 -223.5t234 -136.5t284 -48q125 0 250 41l58 -155q-148 -53 -310 -53zM905 212q83 0 152.5 44t112 113.5t66 150.5t23.5 159
q0 213 -183 213q-67 0 -126 -29t-100 -76.5t-71 -108t-44 -124.5t-14 -125q0 -217 184 -217z" />
    <glyph glyph-name="A" unicode="A" horiz-adv-x="1329" 
d="M31 0l552 1413h165l550 -1413h-232l-115 318h-568l-117 -318h-235zM450 503h433l-216 597z" />
    <glyph glyph-name="B" unicode="B" horiz-adv-x="1273" 
d="M196 0v1413h469q87 0 163.5 -21t140.5 -63.5t101.5 -117.5t37.5 -173q0 -96 -49 -173.5t-120 -111.5q103 -35 170.5 -135t67.5 -215q0 -187 -131.5 -295t-325.5 -108h-524zM411 827h285q93 0 153.5 48t60.5 151q0 93 -65.5 143t-175.5 50h-258v-392zM411 205h312
q118 0 180.5 55.5t62.5 166.5q0 93 -65 153.5t-173 60.5h-317v-436z" />
    <glyph glyph-name="C" unicode="C" horiz-adv-x="1439" 
d="M768 -19q-132 0 -242 37.5t-188 104t-132.5 157.5t-80.5 199t-26 228q0 121 26 228.5t80 199t132.5 158t189 104t243.5 37.5q211 0 366 -102t238 -296l-202 -80q-83 273 -404 273q-225 0 -340.5 -141.5t-115.5 -371.5q0 -92 16.5 -170.5t52 -145.5t88.5 -114t129 -73.5
t170 -26.5q150 0 249.5 66t158.5 211l200 -82q-84 -194 -241 -297t-367 -103z" />
    <glyph glyph-name="D" unicode="D" horiz-adv-x="1425" 
d="M196 0v1413h400q356 0 543.5 -185.5t187.5 -531.5q0 -332 -190 -514t-543 -182h-398zM411 198h163q261 0 399.5 121t138.5 386q0 267 -123.5 388.5t-395.5 121.5h-182v-1017z" />
    <glyph glyph-name="E" unicode="E" horiz-adv-x="1255" 
d="M196 0v1413h935v-198h-720v-408h662v-198h-662v-406h720v-203h-935z" />
    <glyph glyph-name="F" unicode="F" horiz-adv-x="1243" 
d="M196 0v1413h986v-198h-771v-408h679v-198h-679v-609h-215z" />
    <glyph glyph-name="G" unicode="G" horiz-adv-x="1536" 
d="M768 -19q-132 0 -242 37.5t-188 104t-132.5 157.5t-80.5 199t-26 228q0 121 25.5 228.5t80 199t132.5 158t189 104t244 37.5q209 0 364 -102t238 -296l-191 -80q-51 146 -157 218t-256 72q-114 0 -202.5 -41.5t-143 -114.5t-82.5 -167.5t-28 -206.5q0 -115 27 -211.5
t80.5 -171.5t142.5 -117t206 -42q178 0 287.5 95t122.5 272l5 37h-327v174h539v-752h-171l-19 217q-62 -111 -175.5 -173.5t-261.5 -62.5z" />
    <glyph glyph-name="H" unicode="H" horiz-adv-x="1482" 
d="M196 0v1413h215v-606h660v606h215v-1413h-215v609h-660v-609h-215z" />
    <glyph glyph-name="I" unicode="I" horiz-adv-x="608" 
d="M196 0v1413h215v-1413h-215z" />
    <glyph glyph-name="J" unicode="J" horiz-adv-x="1150" 
d="M515 -19q-204 0 -329 128t-139 322l211 24q10 -123 74.5 -198.5t182.5 -75.5q141 0 196 80t55 247v707h-546v198h761v-901q0 -119 -26.5 -214t-81 -167t-145.5 -111t-213 -39z" />
    <glyph glyph-name="K" unicode="K" horiz-adv-x="1478" 
d="M196 0v1413h215v-774l728 774h288l-557 -572l574 -841h-267l-456 697l-310 -321v-376h-215z" />
    <glyph glyph-name="L" unicode="L" horiz-adv-x="1066" 
d="M196 0v1413h215v-1210h618v-203h-833z" />
    <glyph glyph-name="M" unicode="M" horiz-adv-x="1791" 
d="M1304 1413h291v-1413h-207v1116l-388 -996h-209l-388 996v-1116h-207v1413h291l409 -1052z" />
    <glyph glyph-name="N" unicode="N" horiz-adv-x="1446" 
d="M1043 1413h206v-1413h-217l-629 1060v-1060h-207v1413h216l631 -1056v1056z" />
    <glyph glyph-name="O" unicode="O" horiz-adv-x="1538" 
d="M769 -19q-166 0 -297 59t-211 160.5t-121.5 230.5t-41.5 276q0 117 25.5 223t79.5 198.5t131.5 159.5t189 105.5t245.5 38.5t245.5 -38.5t189 -105.5t131.5 -159.5t79.5 -198.5t25.5 -223q0 -147 -41.5 -276t-121.5 -230.5t-211 -160.5t-297 -59zM769 172
q93 0 168.5 28.5t126.5 77.5t85 117.5t49 146t15 165.5t-15 165.5t-49 145.5t-85 117t-126.5 77.5t-168.5 28.5t-168.5 -28.5t-126.5 -77.5t-85 -117t-49 -145.5t-15 -165.5t15 -165.5t49 -146t85 -117.5t126.5 -77.5t168.5 -28.5z" />
    <glyph glyph-name="P" unicode="P" horiz-adv-x="1172" 
d="M196 0v1413h425q220 0 355.5 -109.5t135.5 -302.5q0 -191 -135 -297.5t-356 -106.5h-211v-597h-214zM410 798h211q278 0 278 203q0 102 -69.5 156.5t-208.5 54.5h-211v-414z" />
    <glyph glyph-name="Q" unicode="Q" horiz-adv-x="1570" 
d="M1333 -66l-173 161q-162 -114 -392 -114q-134 0 -245 38.5t-189 106t-131.5 159.5t-79 198.5t-25.5 223.5t25.5 223t79 198.5t131.5 159.5t189 105.5t245 38.5t245.5 -38.5t189.5 -105.5t131.5 -159.5t79 -198.5t25.5 -223q0 -292 -144 -482l170 -159zM768 172
q140 0 238 65l-212 200l139 127l200 -190q79 133 79 333q0 88 -15 165t-49 145.5t-84.5 117.5t-126 77.5t-169.5 28.5q-93 0 -168 -28.5t-126 -77.5t-85 -117t-49 -145.5t-15 -165.5t15 -165.5t49 -146t85 -117.5t126 -77.5t168 -28.5z" />
    <glyph glyph-name="R" unicode="R" horiz-adv-x="1266" 
d="M196 0v1413h436q135 0 243.5 -47t174 -141t65.5 -220q0 -134 -77.5 -231t-206.5 -136l393 -638h-246l-355 616q-13 0 -42 -0.5t-44 -0.5h-126v-615h-215zM413 791h238q119 4 185 59.5t66 150.5q0 101 -72 160t-196 59h-221v-429z" />
    <glyph glyph-name="S" unicode="S" horiz-adv-x="1141" 
d="M586 -15q-196 0 -344 106.5t-180 299.5l213 54q16 -132 101.5 -200.5t213.5 -68.5q121 0 191 59t70 150q0 51 -24 91.5t-64.5 69t-92.5 53t-110 47t-116 46.5t-110 56.5t-92.5 72.5t-64.5 99t-24 132q0 174 122.5 277t303.5 103q135 0 243 -59.5t177 -181.5l-178 -110
q-85 160 -249 160q-88 0 -146 -50t-58 -128q0 -46 24 -83t64.5 -63.5t92.5 -49t110 -44.5t116 -46.5t110 -58.5t92.5 -75.5t64.5 -102.5t24 -136q0 -126 -64.5 -222.5t-173.5 -146.5t-242 -50z" />
    <glyph glyph-name="T" unicode="T" horiz-adv-x="1204" 
d="M495 0v1220h-460v193h1134v-193h-459v-1220h-215z" />
    <glyph glyph-name="U" unicode="U" horiz-adv-x="1387" 
d="M693 -19q-267 0 -397.5 148t-130.5 415v869h215v-845q0 -191 71 -285t242 -94q172 0 243.5 94.5t71.5 286.5v843h215v-859q0 -273 -131.5 -423t-398.5 -150z" />
    <glyph glyph-name="V" unicode="V" horiz-adv-x="1350" 
d="M1084 1413h236l-562 -1413h-164l-564 1413h238l409 -1068z" />
    <glyph glyph-name="W" unicode="W" horiz-adv-x="1995" 
d="M461 0l-418 1413h224l315 -1099l331 1019h169l331 -1019l316 1099h223l-418 -1413h-210l-326 994l-327 -994h-210z" />
    <glyph glyph-name="X" unicode="X" horiz-adv-x="1337" 
d="M42 0l480 709l-476 704h257l366 -567l366 567h256l-475 -704l480 -709h-257l-372 564l-369 -564h-256z" />
    <glyph glyph-name="Y" unicode="Y" horiz-adv-x="1322" 
d="M550 0v547l-533 866h260l382 -659l384 659h262l-532 -866v-547h-223z" />
    <glyph glyph-name="Z" unicode="Z" horiz-adv-x="1283" 
d="M1200 1413v-159l-832 -1059h831v-195h-1129v152l835 1063h-789v198h1084z" />
    <glyph glyph-name="bracketleft" unicode="[" horiz-adv-x="648" 
d="M189 -151v1711h413v-138h-245v-1433h245v-140h-413z" />
    <glyph glyph-name="backslash" unicode="\" horiz-adv-x="926" 
d="M753 -429l-774 1944h194l774 -1944h-194z" />
    <glyph glyph-name="bracketright" unicode="]" horiz-adv-x="648" 
d="M459 -151h-413v140h245v1433h-245v138h413v-1711z" />
    <glyph glyph-name="asciicircum" unicode="^" horiz-adv-x="1208" 
d="M73 432l530 1054l532 -1054h-219l-313 664l-311 -664h-219z" />
    <glyph glyph-name="underscore" unicode="_" horiz-adv-x="1137" 
d="M151 -157v157h835v-157h-835z" />
    <glyph glyph-name="grave" unicode="`" horiz-adv-x="522" 
d="M323 1108l-292 305h221l223 -305h-152z" />
    <glyph glyph-name="a" unicode="a" horiz-adv-x="1057" 
d="M510 1018q198 0 309 -111.5t111 -298.5v-608h-170l-14 156q-48 -84 -138.5 -129.5t-190.5 -45.5q-157 0 -256.5 85.5t-99.5 234.5q0 288 404 288h278q-3 133 -53.5 190.5t-178.5 57.5q-162 0 -253 -148l-158 114q76 105 174.5 160t235.5 55zM458 157q117 0 192.5 72
t92.5 179v31h-266q-100 0 -152.5 -40t-52.5 -104q0 -63 48.5 -100.5t137.5 -37.5z" />
    <glyph glyph-name="b" unicode="b" horiz-adv-x="1183" 
d="M681 -19q-95 0 -177.5 41t-131.5 119v-141h-213v1413h213v-554q49 78 130 118.5t176 40.5q134 0 233.5 -72t148 -188t48.5 -258q0 -105 -28.5 -198.5t-81.5 -165.5t-135 -113.5t-182 -41.5zM630 172q131 0 200 91t69 237q0 145 -69 237.5t-200 92.5t-204 -92.5
t-73 -237.5t72.5 -236.5t204.5 -91.5z" />
    <glyph glyph-name="c" unicode="c" horiz-adv-x="1008" 
d="M543 -19q-114 0 -205.5 42.5t-148.5 114.5t-87.5 164.5t-30.5 195.5q0 101 29.5 192.5t86 165.5t148 118t206.5 44q147 0 257 -73t165 -215l-196 -76q-26 80 -86 128t-140 48q-88 0 -148.5 -49.5t-86 -122t-25.5 -160.5q0 -66 15 -123.5t45 -104.5t81.5 -74t118.5 -27
q81 0 140.5 47t83.5 126l188 -71q-49 -137 -157 -213.5t-253 -76.5z" />
    <glyph glyph-name="d" unicode="d" horiz-adv-x="1186" 
d="M511 -19q-101 0 -184.5 41.5t-138 112.5t-84 165t-29.5 200q0 141 50 257.5t150 188.5t233 72q95 0 177.5 -41t131.5 -118v554h210v-1413h-193l-8 151q-50 -83 -133 -126.5t-182 -43.5zM561 169q131 0 202 92t71 239q0 146 -71 238t-202 92q-132 0 -204 -93t-72 -237
q0 -146 72 -238.5t204 -92.5z" />
    <glyph glyph-name="e" unicode="e" horiz-adv-x="1071" 
d="M564 -19q-120 0 -215.5 41.5t-155.5 113t-91 163.5t-31 196q0 103 30 195.5t87 166.5t149.5 117.5t209.5 43.5q99 0 178.5 -30.5t129.5 -79.5t84 -115t47.5 -131.5t13.5 -133.5q0 -65 -8 -93h-703q14 -126 82.5 -196t193.5 -70q153 0 258 113l142 -125
q-161 -176 -401 -176zM289 585h507q2 33 -6 63q-16 88 -80 142t-165 54q-112 0 -175.5 -70t-80.5 -189z" />
    <glyph glyph-name="f" unicode="f" horiz-adv-x="694" 
d="M218 0v825h-191v174h192v141q0 137 88 214.5t220 77.5q85 0 170 -40l-68 -170q-45 26 -83 26q-53 0 -84 -32t-31 -97v-120h253v-174h-253v-825h-213z" />
    <glyph glyph-name="g" unicode="g" horiz-adv-x="1047" 
d="M586 144q44 -6 73 -11t70 -13.5t68 -19.5t59 -26t52.5 -35.5t39 -47t27 -61t8.5 -75.5q0 -156 -120.5 -239.5t-312.5 -83.5q-223 0 -346.5 96.5t-123.5 253.5q0 21 4 43l128 111q-109 63 -109 194q0 122 98 201q-84 97 -84 228q0 156 116 257.5t283 101.5q135 0 242 -69
l147 127l108 -133l-141 -116q46 -81 46 -178q0 -159 -114 -257.5t-281 -98.5q-108 0 -197 43q-46 -24 -46 -70q0 -30 15.5 -49.5t58 -32.5t74 -18.5t105.5 -14.5q35 -5 53 -7zM523 858q-89 0 -141 -56t-52 -145q0 -88 51.5 -142t141.5 -54q89 0 139.5 54t50.5 142
q0 90 -51 145.5t-139 55.5zM548 -308q111 0 175 36.5t64 104.5q0 64 -62 89.5t-211 42.5q-124 14 -175 25l-74 -107q1 -11 5 -29q17 -81 92 -121.5t186 -40.5z" />
    <glyph glyph-name="h" unicode="h" horiz-adv-x="1156" 
d="M159 0v1413h210v-548q53 76 131 114.5t165 38.5q91 0 162 -33.5t113.5 -91.5t64 -129t22.5 -153v-611h-210v580q0 117 -46 183.5t-156 66.5q-118 0 -182 -83.5t-64 -219.5v-527h-210z" />
    <glyph glyph-name="i" unicode="i" horiz-adv-x="520" 
d="M152 1195v218h216v-218h-216zM157 0v999h206v-999h-206z" />
    <glyph glyph-name="j" unicode="j" horiz-adv-x="527" 
d="M155 1195v218h218v-218h-218zM86 -437q-88 0 -170 33l53 179q58 -24 97 -24q94 0 94 122v1126h208v-1111q0 -145 -71 -235t-211 -90z" />
    <glyph glyph-name="k" unicode="k" horiz-adv-x="1109" 
d="M159 0v1413h206v-872l423 458h269l-371 -382l418 -617h-245l-313 489l-181 -195v-294h-206z" />
    <glyph glyph-name="l" unicode="l" horiz-adv-x="566" 
d="M352 -19q-98 0 -149.5 51.5t-51.5 170.5v1210h206v-1154q0 -92 90 -92q25 0 72 7l1 -174q-93 -19 -168 -19z" />
    <glyph glyph-name="m" unicode="m" horiz-adv-x="1741" 
d="M158 0l-1 999h199v-141q85 160 281 160q101 0 181 -46t118 -145q53 97 137 144t186 47q90 0 159.5 -34t111 -93t62.5 -134t21 -162v-595h-207v569q0 256 -188 256q-104 0 -166.5 -74.5t-62.5 -187.5v-563h-207v584q0 241 -186 241q-105 0 -168 -74.5t-63 -187.5v-563
h-207z" />
    <glyph glyph-name="n" unicode="n" horiz-adv-x="1150" 
d="M157 0v999h206v-134q53 76 133 114.5t167 38.5q91 0 161.5 -33.5t112 -91.5t63 -129t21.5 -153v-611h-206v580q0 113 -54.5 180t-155.5 67q-114 0 -178 -67t-64 -199v-561h-206z" />
    <glyph glyph-name="o" unicode="o" horiz-adv-x="1138" 
d="M568 -19q-147 0 -262.5 71t-177.5 189.5t-62 260.5q0 141 62 258.5t177.5 187.5t262.5 70t263 -70t178 -187.5t62 -258.5q0 -142 -62 -260.5t-178 -189.5t-263 -71zM568 160q71 0 127 27.5t90.5 75t52.5 108.5t18 131q0 145 -74 241t-214 96q-94 0 -160.5 -47
t-96.5 -121.5t-30 -168.5q0 -147 74 -244.5t213 -97.5z" />
    <glyph glyph-name="p" unicode="p" horiz-adv-x="1183" 
d="M159 -414v1413h213v-140q49 77 131.5 118t177.5 41q100 0 182 -41.5t135 -113.5t81.5 -165.5t28.5 -198.5q0 -142 -48.5 -258t-148 -188t-233.5 -72q-95 0 -176 40.5t-130 118.5v-554h-213zM630 169q131 0 200 92.5t69 237.5q0 146 -69 237t-200 91q-132 0 -204.5 -91.5
t-72.5 -236.5t73 -237.5t204 -92.5z" />
    <glyph glyph-name="q" unicode="q" horiz-adv-x="1183" 
d="M1024 -414h-213v554q-49 -78 -130 -118.5t-176 -40.5q-134 0 -233.5 72t-148 188t-48.5 258q0 105 28.5 198.5t81.5 165.5t135 113.5t182 41.5q95 0 177.5 -41t131.5 -118v140h213v-1413zM553 169q131 0 204 92.5t73 237.5t-72.5 236.5t-204.5 91.5q-131 0 -200 -91
t-69 -237q0 -145 69 -237.5t200 -92.5z" />
    <glyph glyph-name="r" unicode="r" horiz-adv-x="808" 
d="M157 0v999h201v-182q32 95 111.5 148t170.5 53q106 0 173 -64l-94 -170q-52 33 -110 33q-47 0 -91 -21.5t-81 -63.5t-59 -115t-22 -166v-451h-199z" />
    <glyph glyph-name="s" unicode="s" horiz-adv-x="915" 
d="M456 -19q-150 0 -263 78t-152 197l166 73q27 -74 85 -124.5t154 -50.5q88 0 136.5 41.5t48.5 98.5q0 41 -29 68.5t-75.5 42.5t-103 28.5t-113 33t-103 48t-75.5 80.5t-29 124q0 143 104 221t257 78q124 0 219 -56t151 -158l-160 -87q-75 137 -217 137q-71 0 -113.5 -30.5
t-42.5 -77.5q0 -32 23 -56t60.5 -37.5t85.5 -28.5t97.5 -28t97.5 -37t85.5 -54.5t60.5 -82t23 -118.5q0 -80 -32 -143.5t-86 -101.5t-120 -58t-140 -20z" />
    <glyph glyph-name="t" unicode="t" horiz-adv-x="737" 
d="M493 -19q-141 0 -219.5 79t-78.5 218v547h-164v174h167v262l203 148v-410h260v-174h-260v-512q0 -149 128 -149q60 0 131 32l1 -187q-75 -28 -168 -28z" />
    <glyph glyph-name="u" unicode="u" horiz-adv-x="1149" 
d="M486 -19q-92 0 -162 33.5t-111.5 91.5t-62.5 129t-21 153v611h205v-580q0 -114 54.5 -180.5t155.5 -66.5q114 0 178.5 67t64.5 199v561h205v-999h-205v134q-53 -76 -133.5 -114.5t-167.5 -38.5z" />
    <glyph glyph-name="v" unicode="v" horiz-adv-x="1000" 
d="M414 0l-408 999h226l268 -733l269 733h225l-408 -999h-172z" />
    <glyph glyph-name="w" unicode="w" horiz-adv-x="1473" 
d="M327 0l-302 999h220l187 -684l215 684h179l215 -683l188 683h221l-304 -999h-188l-221 709l-223 -709h-187z" />
    <glyph glyph-name="x" unicode="x" horiz-adv-x="1022" 
d="M23 0l350 503l-350 496h251l236 -355l235 355h254l-352 -496l352 -503h-254l-235 360l-235 -360h-252z" />
    <glyph glyph-name="y" unicode="y" horiz-adv-x="1028" 
d="M230 -429l180 451l-402 977h227l285 -740l273 740h227l-564 -1428h-226z" />
    <glyph glyph-name="z" unicode="z" horiz-adv-x="995" 
d="M922 999v-151l-580 -674h579v-174h-863v140l600 685h-570v174h834z" />
    <glyph glyph-name="braceleft" unicode="{" horiz-adv-x="621" 
d="M414 -150q-107 0 -162.5 73t-55.5 200v317q0 40 -10 68t-31.5 45.5t-38.5 26t-47 19.5v140q30 10 47.5 19t38.5 26.5t31 47.5t10 72v327q0 129 57 200t164 71h141v-135h-71q-115 0 -115 -140v-327q0 -93 -34.5 -145.5t-101.5 -79.5v-11q67 -30 101.5 -81t34.5 -140v-317
q0 -141 112 -141h73v-135h-143z" />
    <glyph glyph-name="bar" unicode="|" horiz-adv-x="629" 
d="M238 -512v2046h154v-2046h-154z" />
    <glyph glyph-name="braceright" unicode="}" horiz-adv-x="621" 
d="M207 -150h-143v135h73q112 0 112 141v317q0 89 34.5 140t101.5 81v11q-67 27 -101.5 79.5t-34.5 145.5v327q0 140 -115 140h-71v135h141q107 0 164 -71t57 -200v-327q0 -42 10 -72t31 -47.5t38.5 -26.5t47.5 -19v-140q-30 -11 -47 -19.5t-38.5 -26t-31.5 -45.5t-10 -68
v-317q0 -127 -55.5 -200t-162.5 -73z" />
    <glyph glyph-name="asciitilde" unicode="~" horiz-adv-x="1234" 
d="M794 345q-64 0 -111.5 24.5t-74.5 59.5t-49.5 69.5t-52.5 59t-68 24.5q-49 0 -76.5 -49t-27.5 -134h-157q0 146 71.5 234.5t189.5 88.5q56 0 100 -17.5t69 -44t48.5 -57t40.5 -57t42 -44t56 -17.5q48 0 78 57.5t30 147.5h157q0 -154 -73 -249.5t-192 -95.5z" />
    <glyph glyph-name="uni00A0" unicode="&#xa0;" horiz-adv-x="563" 
 />
    <glyph glyph-name="exclamdown" unicode="&#xa1;" horiz-adv-x="632" 
d="M203 1413h226v-250h-226v250zM238 995h157l23 -995h-204z" />
    <glyph glyph-name="cent" unicode="&#xa2;" horiz-adv-x="1138" 
d="M537 -213v199q-129 15 -222.5 90.5t-138 184.5t-44.5 237q0 93 25.5 179t74 157.5t127.5 120t178 60.5v185h106v-184q132 -9 230.5 -81.5t150.5 -204.5l-196 -76q-23 69 -71.5 115t-113.5 56v-651q66 10 114 55t69 113l188 -71q-46 -127 -143 -202t-228 -86v-194z
M537 179v641q-66 -16 -111 -66t-64.5 -115t-19.5 -141q0 -120 49 -208t146 -111z" />
    <glyph glyph-name="sterling" unicode="&#xa3;" horiz-adv-x="1224" 
d="M430 174h757v-174h-1037v182q107 39 181 116t74 161q0 57 -36 169h-214v174h171q-37 100 -37 228q0 177 113.5 293.5t309.5 116.5q142 0 247.5 -85.5t153.5 -220.5l-162 -60q-34 91 -96 141.5t-143 50.5q-117 0 -183 -62t-66 -177q0 -120 43 -225h474v-174h-434
q30 -99 30 -165q0 -184 -146 -289z" />
    <glyph glyph-name="currency" unicode="&#xa4;" horiz-adv-x="1369" 
d="M309 144l-110 115l104 103q-88 120 -87.5 270t87.5 269l-103 101l110 116l105 -107q120 89 270 89.5t269 -87.5l104 103l112 -110l-104 -103q88 -120 88 -271t-88 -272l104 -101l-110 -115l-106 107q-118 -89 -269.5 -89t-271.5 89zM460 411q94 -94 223.5 -94t221.5 94
q91 93 91.5 221.5t-91.5 219.5q-92 92 -221.5 91.5t-221.5 -92.5q-90 -92 -90.5 -221t88.5 -219z" />
    <glyph glyph-name="yen" unicode="&#xa5;" horiz-adv-x="1437" 
d="M607 0v215h-331v168h331v155h-331v167h234l-436 708h261l381 -659l384 659h262l-434 -708h230v-167h-327v-155h327v-168h-327v-215h-224z" />
    <glyph glyph-name="brokenbar" unicode="&#xa6;" horiz-adv-x="646" 
d="M238 731v744h171v-744h-171zM238 -307v727h171v-727h-171z" />
    <glyph glyph-name="section" unicode="&#xa7;" horiz-adv-x="1139" 
d="M575 -17q-160 0 -279.5 72t-155.5 217l197 59q28 -96 88.5 -138.5t163.5 -42.5q99 0 160.5 35t61.5 98q0 45 -34.5 76t-89.5 49t-122 33t-134 36t-122 51t-89.5 84.5t-34.5 129.5q0 115 87 205q-85 72 -85 185q0 93 55 162.5t140.5 103.5t186.5 34q129 0 229 -52
t147 -133l-165 -96q-54 120 -218 120q-94 0 -148.5 -42.5t-54.5 -100.5q0 -37 27 -64.5t71 -42t100 -29.5t115 -27.5t115 -36t100 -53.5t71 -82t27 -120q0 -119 -81 -203q81 -72 81 -187q0 -76 -35 -135t-94 -94t-130.5 -53t-150.5 -18zM727 545q84 37 84 123q0 34 -16.5 61
t-39.5 44t-64 33.5t-74 26t-88 24.5t-87 25q-41 -22 -62 -59t-21 -74q0 -32 16.5 -57.5t40.5 -42t65 -32.5t75.5 -25t86.5 -23t84 -24z" />
    <glyph glyph-name="dieresis" unicode="&#xa8;" horiz-adv-x="863" 
d="M152 1195v218h174v-218h-174zM537 1195v218h174v-218h-174z" />
    <glyph glyph-name="copyright" unicode="&#xa9;" horiz-adv-x="1699" 
d="M850 -26q-153 0 -292.5 58t-240 156t-160 233.5t-59.5 285.5q0 199 100.5 367.5t273.5 266.5t378 98q204 0 377 -98t273.5 -266.5t100.5 -367.5q0 -200 -100.5 -368.5t-273.5 -266.5t-377 -98zM850 106q169 0 312 80.5t226 219t83 301.5t-83 301t-226 218.5t-312 80.5
q-127 0 -242 -47.5t-198.5 -127.5t-132.5 -191.5t-49 -233.5q0 -123 49 -234t132.5 -191.5t198.5 -128t242 -47.5zM871 265q-127 0 -220 62.5t-136.5 160.5t-43.5 217q0 85 25 163t72.5 141t125.5 100.5t175 37.5q125 0 218 -62t141 -182l-162 -63q-23 69 -75.5 111
t-121.5 42q-75 0 -128 -42.5t-75.5 -106t-22.5 -139.5q0 -121 57 -203t169 -82q71 0 122.5 40.5t72.5 109.5l154 -60q-40 -116 -131.5 -180.5t-215.5 -64.5z" />
    <glyph glyph-name="ordfeminine" unicode="&#xaa;" horiz-adv-x="983" 
d="M411 707q-103 0 -174 59.5t-71 156.5q0 109 77 163t207 54h198q0 28 -6 49q-20 127 -165 127q-113 0 -188 -110l-102 69q61 83 129.5 120t164.5 37q136 0 212.5 -77t76.5 -207v-427h-114l-3 101q-93 -115 -242 -115zM433 825q63 0 115.5 34.5t81.5 89.5q15 41 18 77h-190
q-75 0 -115.5 -26.5t-40.5 -76.5q0 -41 39 -69.5t92 -28.5z" />
    <glyph glyph-name="guillemotleft" unicode="&#xab;" horiz-adv-x="1016" 
d="M455 160l-417 350l417 352v-181l-206 -171l206 -169v-181zM870 160l-418 350l418 352v-181l-206 -171l206 -169v-181z" />
    <glyph glyph-name="logicalnot" unicode="&#xac;" horiz-adv-x="1311" 
d="M879 291v321h-735v185h933v-506h-198z" />
    <glyph glyph-name="uni00AD" unicode="&#xad;" horiz-adv-x="1014" 
d="M151 529v157h712v-157h-712z" />
    <glyph glyph-name="registered" unicode="&#xae;" horiz-adv-x="1699" 
d="M850 -26q-153 0 -292.5 58t-240 156t-160 233.5t-59.5 285.5q0 199 100.5 367.5t273.5 266.5t378 98q204 0 377 -98t273.5 -266.5t100.5 -367.5q0 -200 -100.5 -368.5t-273.5 -266.5t-377 -98zM850 106q169 0 312 80.5t226 219t83 301.5t-83 301t-226 218.5t-312 80.5
q-127 0 -242 -47.5t-198.5 -127.5t-132.5 -191.5t-49 -233.5q0 -123 49 -234t132.5 -191.5t198.5 -128t242 -47.5zM605 282v849h262q131 0 211.5 -68t80.5 -179q0 -77 -44 -135.5t-121 -84.5l233 -382h-158l-210 368q-8 0 -23.5 -0.5t-23.5 -0.5h-70v-367h-137zM742 762h137
q69 2 106.5 34t37.5 86q0 59 -41 92.5t-114 33.5h-126v-246z" />
    <glyph glyph-name="macron" unicode="&#xaf;" horiz-adv-x="854" 
d="M149 1171v123h556v-123h-556z" />
    <glyph glyph-name="degree" unicode="&#xb0;" horiz-adv-x="908" 
d="M454 850q-120 0 -205.5 85.5t-85.5 205.5t85.5 205.5t205.5 85.5t205.5 -85t85.5 -206t-85.5 -206t-205.5 -85zM454 990q64 0 108.5 44t44.5 107t-44.5 107t-108.5 44q-63 0 -107 -44t-44 -107t44 -107t107 -44z" />
    <glyph glyph-name="plusminus" unicode="&#xb1;" horiz-adv-x="1330" 
d="M587 188v440h-463v157h463v440h157v-440h463v-157h-463v-440h-157zM124 -157v157h1079v-157h-1079z" />
    <glyph glyph-name="uni00B2" unicode="&#xb2;" horiz-adv-x="713" 
d="M256 1125h410v-126h-637v111q44 27 75.5 47t82.5 55.5t87.5 65.5t78.5 71.5t68.5 79.5t44 83t17.5 88q0 59 -32 95.5t-96 36.5q-78 0 -115 -55t-40 -136l-137 11q0 125 79 215.5t213 90.5q119 0 193.5 -69t74.5 -192q0 -134 -111 -263t-256 -209z" />
    <glyph glyph-name="uni00B3" unicode="&#xb3;" horiz-adv-x="707" 
d="M343 984q-133 0 -222 72t-89 204l133 9q0 -74 50 -115.5t130 -41.5q75 0 126 37t51 108q0 137 -217 137v92q93 0 131.5 28.5t38.5 81.5q0 65 -36.5 96.5t-93.5 31.5q-63 0 -101.5 -34.5t-39.5 -92.5l-132 9q0 114 77.5 181t191.5 67q111 0 190 -63t79 -166
q0 -117 -116 -171q79 -20 120 -77t41 -133q0 -123 -90 -191.5t-222 -68.5z" />
    <glyph glyph-name="acute" unicode="&#xb4;" horiz-adv-x="525" 
d="M46 1125l223 288h221l-291 -288h-153z" />
    <glyph glyph-name="uni00B5" unicode="&#xb5;" horiz-adv-x="1296" 
d="M236 -335v1334h205v-580q0 -114 54.5 -180.5t155.5 -66.5q114 0 178.5 67t64.5 199v561h205v-999h-205v134q-53 -76 -133.5 -114.5t-167.5 -38.5q-120 0 -190 65v-381h-167z" />
    <glyph glyph-name="paragraph" unicode="&#xb6;" horiz-adv-x="1290" 
d="M539 -246v869q-119 0 -221 45.5t-167 137.5t-65 212t65 212t167 137.5t221 45.5h145v-1659h-145zM905 -246v1659h147v-1659h-147z" />
    <glyph glyph-name="periodcentered" unicode="&#xb7;" horiz-adv-x="639" 
d="M319 593q-60 0 -101.5 42t-41.5 102t41.5 101.5t101.5 41.5t102 -41t42 -102q0 -60 -42 -102t-102 -42z" />
    <glyph glyph-name="cedilla" unicode="&#xb8;" horiz-adv-x="580" 
d="M273 -520q-74 0 -130.5 38.5t-73.5 115.5l114 48q11 -35 36 -59t59 -24q43 0 68.5 24.5t25.5 65.5q0 51 -47 83t-125 34q-9 0 -34 0.5t-42 0.5l119 191h123l-78 -109q29 -3 59 -11q148 -42 148 -182q0 -93 -63 -154.5t-159 -61.5z" />
    <glyph glyph-name="uni00B9" unicode="&#xb9;" horiz-adv-x="460" 
d="M203 1847h132v-848h-138v608h-200v107h118q88 0 88 79v54z" />
    <glyph glyph-name="ordmasculine" unicode="&#xba;" horiz-adv-x="999" 
d="M500 712q-154 0 -254 104.5t-100 256.5q0 150 100 254.5t254 104.5q152 0 251.5 -104.5t99.5 -254.5q0 -152 -99 -256.5t-252 -104.5zM500 837q101 0 154.5 66t53.5 170t-53.5 170t-154.5 66q-103 0 -156.5 -65.5t-53.5 -170.5t53.5 -170.5t156.5 -65.5z" />
    <glyph glyph-name="guillemotright" unicode="&#xbb;" horiz-adv-x="1016" 
d="M146 160v181l206 169l-206 171v181l418 -352zM561 160v181l206 169l-206 171v181l417 -352z" />
    <glyph glyph-name="onequarter" unicode="&#xbc;" horiz-adv-x="1463" 
d="M197 573v608h-200v107h118q88 0 88 79v54h132v-848h-138zM960 1413h147l-833 -1413h-147zM1301 329h134v-128h-134v-201h-139v201h-397v81l417 566h119v-519zM945 329h217v305z" />
    <glyph glyph-name="onehalf" unicode="&#xbd;" horiz-adv-x="1487" 
d="M197 573v608h-200v107h118q88 0 88 79v54h132v-848h-138zM960 1413h147l-833 -1413h-147zM1030 126h410v-126h-637v111q44 27 75.5 47t82.5 55.5t87.5 65.5t78.5 71.5t68.5 79.5t44 83t17.5 88q0 59 -32 95.5t-96 36.5q-78 0 -115 -55t-40 -136l-137 11q0 125 79 215.5
t213 90.5q119 0 193.5 -69t74.5 -192q0 -134 -111 -263t-256 -209z" />
    <glyph glyph-name="threequarters" unicode="&#xbe;" horiz-adv-x="1710" 
d="M655 822q0 -123 -90 -191.5t-222 -68.5q-133 0 -222 72t-89 204l133 9q0 -74 50 -115.5t130 -41.5q75 0 126 37t51 108q0 137 -217 137v92q93 0 131.5 28.5t38.5 81.5q0 65 -36.5 96.5t-93.5 31.5q-63 0 -101.5 -34.5t-39.5 -92.5l-132 9q0 114 77.5 181t191.5 67
q111 0 190 -63t79 -166q0 -117 -116 -171q79 -20 120 -77t41 -133zM1207 1413h147l-833 -1413h-147zM1548 329h134v-128h-134v-201h-139v201h-397v81l417 566h119v-519zM1192 329h217v305z" />
    <glyph glyph-name="questiondown" unicode="&#xbf;" horiz-adv-x="1016" 
d="M626 1413v-250h-225v250h225zM604 999v-152q0 -65 -19 -114t-49 -78t-66.5 -52t-73 -43t-66.5 -43t-49 -60.5t-19 -88.5q0 -107 68 -161t188 -54q126 0 188.5 65.5t63.5 188.5h182q0 -199 -116 -312.5t-311 -113.5q-124 0 -223.5 43.5t-160 133.5t-60.5 213q0 74 19 132
t49.5 94t67.5 64t74.5 48t68 38.5t49.5 43.5t19 57v151h176z" />
    <glyph glyph-name="Agrave" unicode="&#xc0;" horiz-adv-x="1329" 
d="M608 1522l-292 305h221l223 -305h-152zM31 0l552 1413h165l550 -1413h-232l-115 318h-568l-117 -318h-235zM450 503h433l-216 597z" />
    <glyph glyph-name="Aacute" unicode="&#xc1;" horiz-adv-x="1329" 
d="M563 1539l223 288h221l-291 -288h-153zM31 0l552 1413h165l550 -1413h-232l-115 318h-568l-117 -318h-235zM450 503h433l-216 597z" />
    <glyph glyph-name="Acircumflex" unicode="&#xc2;" horiz-adv-x="1329" 
d="M351 1517l311 341l312 -341h-162l-150 164l-148 -164h-163zM31 0l552 1413h165l550 -1413h-232l-115 318h-568l-117 -318h-235zM450 503h433l-216 597z" />
    <glyph glyph-name="Atilde" unicode="&#xc3;" horiz-adv-x="1329" 
d="M796 1534q-45 0 -80.5 16t-58.5 39t-42 45.5t-40.5 38.5t-44.5 16q-37 0 -57.5 -38t-20.5 -107h-120q0 130 54.5 201.5t149.5 71.5q40 0 74.5 -16t57.5 -38.5t43 -44.5t41.5 -38t44.5 -16q32 0 52.5 39t20.5 107h125q0 -130 -53.5 -203t-145.5 -73zM31 0l552 1413h165
l550 -1413h-232l-115 318h-568l-117 -318h-235zM450 503h433l-216 597z" />
    <glyph glyph-name="Adieresis" unicode="&#xc4;" horiz-adv-x="1329" 
d="M383 1609v218h174v-218h-174zM768 1609v218h174v-218h-174zM31 0l552 1413h165l550 -1413h-232l-115 318h-568l-117 -318h-235zM450 503h433l-216 597z" />
    <glyph glyph-name="Aring" unicode="&#xc5;" horiz-adv-x="1329" 
d="M662 1492q-91 0 -154.5 64.5t-63.5 154.5t63.5 153.5t154.5 63.5q89 0 154 -63t65 -154t-63.5 -155t-155.5 -64zM662 1604q46 0 76 30.5t30 77.5q0 45 -29 74.5t-77 29.5q-46 0 -75.5 -29.5t-29.5 -74.5q0 -46 30.5 -77t74.5 -31zM31 0l552 1413h165l550 -1413h-232
l-115 318h-568l-117 -318h-235zM450 503h433l-216 597z" />
    <glyph glyph-name="AE" unicode="&#xc6;" horiz-adv-x="1898" 
d="M31 0l547 1413h1196v-189h-726v-426h634v-181h-634v-422h726v-195h-941v318h-454l-113 -318h-235zM447 486h386v746h-121z" />
    <glyph glyph-name="Ccedilla" unicode="&#xc7;" horiz-adv-x="1439" 
d="M1376 381q-76 -176 -213 -277.5t-320 -118.5l-68 -96q29 -3 59 -11q148 -42 148 -182q0 -93 -63 -154.5t-159 -61.5q-74 0 -130.5 38.5t-73.5 115.5l114 48q11 -35 36 -59t59 -24q43 0 68.5 24.5t25.5 65.5q0 51 -47 83t-125 34q-9 0 -34 0.5t-42 0.5l109 175
q-153 8 -273 68.5t-195 159.5t-114 225t-39 272q0 121 26 228.5t80 199t132.5 158t189 104t243.5 37.5q211 0 366 -102t238 -296l-202 -80q-83 273 -404 273q-225 0 -340.5 -141.5t-115.5 -371.5q0 -92 16.5 -170.5t52 -145.5t88.5 -114t129 -73.5t170 -26.5q150 0 249.5 66
t158.5 211z" />
    <glyph glyph-name="Egrave" unicode="&#xc8;" horiz-adv-x="1255" 
d="M609 1522l-292 305h221l223 -305h-152zM196 0v1413h935v-198h-720v-408h662v-198h-662v-406h720v-203h-935z" />
    <glyph glyph-name="Eacute" unicode="&#xc9;" horiz-adv-x="1255" 
d="M564 1539l223 288h221l-291 -288h-153zM196 0v1413h935v-198h-720v-408h662v-198h-662v-406h720v-203h-935z" />
    <glyph glyph-name="Ecircumflex" unicode="&#xca;" horiz-adv-x="1255" 
d="M352 1517l311 341l312 -341h-162l-150 164l-148 -164h-163zM196 0v1413h935v-198h-720v-408h662v-198h-662v-406h720v-203h-935z" />
    <glyph glyph-name="Edieresis" unicode="&#xcb;" horiz-adv-x="1255" 
d="M384 1609v218h174v-218h-174zM769 1609v218h174v-218h-174zM196 0v1413h935v-198h-720v-408h662v-198h-662v-406h720v-203h-935z" />
    <glyph glyph-name="Igrave" unicode="&#xcc;" horiz-adv-x="608" 
d="M247 1522l-292 305h221l223 -305h-152zM196 0v1413h215v-1413h-215z" />
    <glyph glyph-name="Iacute" unicode="&#xcd;" horiz-adv-x="608" 
d="M202 1539l223 288h221l-291 -288h-153zM196 0v1413h215v-1413h-215z" />
    <glyph glyph-name="Icircumflex" unicode="&#xce;" horiz-adv-x="608" 
d="M-10 1517l311 341l312 -341h-162l-150 164l-148 -164h-163zM196 0v1413h215v-1413h-215z" />
    <glyph glyph-name="Idieresis" unicode="&#xcf;" horiz-adv-x="608" 
d="M22 1609v218h174v-218h-174zM407 1609v218h174v-218h-174zM196 0v1413h215v-1413h-215z" />
    <glyph glyph-name="Eth" unicode="&#xd0;" horiz-adv-x="1425" 
d="M596 1413q356 0 543.5 -185.5t187.5 -531.5q0 -332 -190 -514t-543 -182h-398v637h-148v140h148v636h400zM574 198q261 0 399.5 121t138.5 386q0 267 -123.5 388.5t-395.5 121.5h-182v-438h272v-140h-272v-439h163z" />
    <glyph glyph-name="Ntilde" unicode="&#xd1;" horiz-adv-x="1446" 
d="M589 1689q-37 0 -57.5 -38t-20.5 -107h-120q0 130 54.5 201.5t149.5 71.5q40 0 74.5 -16t57.5 -38.5t43 -44.5t41.5 -38t44.5 -16q32 0 52.5 39t20.5 107h125q0 -130 -53.5 -203t-145.5 -73q-45 0 -80.5 16t-58.5 39t-42 45.5t-40.5 38.5t-44.5 16zM1043 1413h206v-1413
h-217l-629 1060v-1060h-207v1413h216l631 -1056v1056z" />
    <glyph glyph-name="Ograve" unicode="&#xd2;" horiz-adv-x="1538" 
d="M713 1522l-292 305h221l223 -305h-152zM769 -19q-166 0 -297 59t-211 160.5t-121.5 230.5t-41.5 276q0 117 25.5 223t79.5 198.5t131.5 159.5t189 105.5t245.5 38.5t245.5 -38.5t189 -105.5t131.5 -159.5t79.5 -198.5t25.5 -223q0 -147 -41.5 -276t-121.5 -230.5
t-211 -160.5t-297 -59zM769 172q93 0 168.5 28.5t126.5 77.5t85 117.5t49 146t15 165.5t-15 165.5t-49 145.5t-85 117t-126.5 77.5t-168.5 28.5t-168.5 -28.5t-126.5 -77.5t-85 -117t-49 -145.5t-15 -165.5t15 -165.5t49 -146t85 -117.5t126.5 -77.5t168.5 -28.5z" />
    <glyph glyph-name="Oacute" unicode="&#xd3;" horiz-adv-x="1538" 
d="M668 1539l223 288h221l-291 -288h-153zM769 -19q-166 0 -297 59t-211 160.5t-121.5 230.5t-41.5 276q0 117 25.5 223t79.5 198.5t131.5 159.5t189 105.5t245.5 38.5t245.5 -38.5t189 -105.5t131.5 -159.5t79.5 -198.5t25.5 -223q0 -147 -41.5 -276t-121.5 -230.5
t-211 -160.5t-297 -59zM769 172q93 0 168.5 28.5t126.5 77.5t85 117.5t49 146t15 165.5t-15 165.5t-49 145.5t-85 117t-126.5 77.5t-168.5 28.5t-168.5 -28.5t-126.5 -77.5t-85 -117t-49 -145.5t-15 -165.5t15 -165.5t49 -146t85 -117.5t126.5 -77.5t168.5 -28.5z" />
    <glyph glyph-name="Ocircumflex" unicode="&#xd4;" horiz-adv-x="1538" 
d="M456 1517l311 341l312 -341h-162l-150 164l-148 -164h-163zM769 -19q-166 0 -297 59t-211 160.5t-121.5 230.5t-41.5 276q0 117 25.5 223t79.5 198.5t131.5 159.5t189 105.5t245.5 38.5t245.5 -38.5t189 -105.5t131.5 -159.5t79.5 -198.5t25.5 -223q0 -147 -41.5 -276
t-121.5 -230.5t-211 -160.5t-297 -59zM769 172q93 0 168.5 28.5t126.5 77.5t85 117.5t49 146t15 165.5t-15 165.5t-49 145.5t-85 117t-126.5 77.5t-168.5 28.5t-168.5 -28.5t-126.5 -77.5t-85 -117t-49 -145.5t-15 -165.5t15 -165.5t49 -146t85 -117.5t126.5 -77.5
t168.5 -28.5z" />
    <glyph glyph-name="Otilde" unicode="&#xd5;" horiz-adv-x="1538" 
d="M901 1534q-45 0 -80.5 16t-58.5 39t-42 45.5t-40.5 38.5t-44.5 16q-37 0 -57.5 -38t-20.5 -107h-120q0 130 54.5 201.5t149.5 71.5q40 0 74.5 -16t57.5 -38.5t43 -44.5t41.5 -38t44.5 -16q32 0 52.5 39t20.5 107h125q0 -130 -53.5 -203t-145.5 -73zM769 -19
q-166 0 -297 59t-211 160.5t-121.5 230.5t-41.5 276q0 117 25.5 223t79.5 198.5t131.5 159.5t189 105.5t245.5 38.5t245.5 -38.5t189 -105.5t131.5 -159.5t79.5 -198.5t25.5 -223q0 -147 -41.5 -276t-121.5 -230.5t-211 -160.5t-297 -59zM769 172q93 0 168.5 28.5
t126.5 77.5t85 117.5t49 146t15 165.5t-15 165.5t-49 145.5t-85 117t-126.5 77.5t-168.5 28.5t-168.5 -28.5t-126.5 -77.5t-85 -117t-49 -145.5t-15 -165.5t15 -165.5t49 -146t85 -117.5t126.5 -77.5t168.5 -28.5z" />
    <glyph glyph-name="Odieresis" unicode="&#xd6;" horiz-adv-x="1538" 
d="M488 1609v218h174v-218h-174zM873 1609v218h174v-218h-174zM769 -19q-166 0 -297 59t-211 160.5t-121.5 230.5t-41.5 276q0 117 25.5 223t79.5 198.5t131.5 159.5t189 105.5t245.5 38.5t245.5 -38.5t189 -105.5t131.5 -159.5t79.5 -198.5t25.5 -223q0 -147 -41.5 -276
t-121.5 -230.5t-211 -160.5t-297 -59zM769 172q93 0 168.5 28.5t126.5 77.5t85 117.5t49 146t15 165.5t-15 165.5t-49 145.5t-85 117t-126.5 77.5t-168.5 28.5t-168.5 -28.5t-126.5 -77.5t-85 -117t-49 -145.5t-15 -165.5t15 -165.5t49 -146t85 -117.5t126.5 -77.5
t168.5 -28.5z" />
    <glyph glyph-name="multiply" unicode="&#xd7;" horiz-adv-x="1085" 
d="M851 195l-309 309l-309 -309l-111 111l309 309l-309 309l111 111l309 -309l310 309l111 -111l-310 -309l309 -309z" />
    <glyph glyph-name="Oslash" unicode="&#xd8;" horiz-adv-x="1538" 
d="M1201 1289q118 -99 178.5 -251t60.5 -331q0 -147 -41.5 -276t-121.5 -230.5t-211 -160.5t-297 -59q-181 0 -323 71l-32 -52h-156l77 126q-117 99 -177 251t-60 330q0 117 25.5 223t79.5 198.5t131.5 159.5t189 105.5t245.5 38.5q182 0 322 -70l31 51h155zM325 707
q0 -256 121 -399l540 883q-92 50 -217 50q-93 0 -168.5 -28.5t-126.5 -77.5t-85 -117t-49 -145.5t-15 -165.5zM769 172q93 0 168.5 28.5t126.5 77.5t85 117.5t49 146t15 165.5q0 258 -123 400l-540 -884q93 -51 219 -51z" />
    <glyph glyph-name="Ugrave" unicode="&#xd9;" horiz-adv-x="1387" 
d="M635 1522l-292 305h221l223 -305h-152zM693 -19q-267 0 -397.5 148t-130.5 415v869h215v-845q0 -191 71 -285t242 -94q172 0 243.5 94.5t71.5 286.5v843h215v-859q0 -273 -131.5 -423t-398.5 -150z" />
    <glyph glyph-name="Uacute" unicode="&#xda;" horiz-adv-x="1387" 
d="M590 1539l223 288h221l-291 -288h-153zM693 -19q-267 0 -397.5 148t-130.5 415v869h215v-845q0 -191 71 -285t242 -94q172 0 243.5 94.5t71.5 286.5v843h215v-859q0 -273 -131.5 -423t-398.5 -150z" />
    <glyph glyph-name="Ucircumflex" unicode="&#xdb;" horiz-adv-x="1387" 
d="M378 1517l311 341l312 -341h-162l-150 164l-148 -164h-163zM693 -19q-267 0 -397.5 148t-130.5 415v869h215v-845q0 -191 71 -285t242 -94q172 0 243.5 94.5t71.5 286.5v843h215v-859q0 -273 -131.5 -423t-398.5 -150z" />
    <glyph glyph-name="Udieresis" unicode="&#xdc;" horiz-adv-x="1387" 
d="M410 1609v218h174v-218h-174zM795 1609v218h174v-218h-174zM693 -19q-267 0 -397.5 148t-130.5 415v869h215v-845q0 -191 71 -285t242 -94q172 0 243.5 94.5t71.5 286.5v843h215v-859q0 -273 -131.5 -423t-398.5 -150z" />
    <glyph glyph-name="Yacute" unicode="&#xdd;" horiz-adv-x="1322" 
d="M558 1539l223 288h221l-291 -288h-153zM550 0v547l-533 866h260l382 -659l384 659h262l-532 -866v-547h-223z" />
    <glyph glyph-name="Thorn" unicode="&#xde;" horiz-adv-x="1172" 
d="M196 0v1413h215v-247h210q220 0 355.5 -109.5t135.5 -302.5q0 -191 -135 -297.5t-356 -106.5h-210v-350h-215zM411 551h210q278 0 278 203q0 102 -69.5 156.5t-208.5 54.5h-210v-414z" />
    <glyph glyph-name="germandbls" unicode="&#xdf;" horiz-adv-x="1147" 
d="M685 -19q-87 0 -205 35l61 177q82 -38 145 -38q75 0 117.5 45.5t42.5 126.5q0 21 -2.5 40t-9.5 37t-11.5 30.5t-18.5 29t-19 23.5t-24.5 23.5t-23.5 20t-27.5 21t-25.5 19.5q-57 44 -88.5 89.5t-31.5 112.5q0 42 16.5 77.5t34.5 55.5t55 53q75 68 75 149q0 71 -41 111.5
t-112 40.5q-232 0 -232 -455v-805h-203v805q0 303 110.5 466t314.5 163q159 0 260.5 -93t101.5 -232q0 -128 -103 -231q-9 -10 -25 -25t-24 -23.5t-17.5 -19.5t-13.5 -20t-4 -17q0 -5 1.5 -10.5t5.5 -11.5t8 -11.5t11.5 -12.5t13 -12t15.5 -13t16.5 -13t18.5 -14.5t19 -14.5
q38 -29 65 -54.5t57.5 -66t46.5 -93t16 -114.5q0 -156 -99.5 -253.5t-266.5 -97.5z" />
    <glyph glyph-name="agrave" unicode="&#xe0;" horiz-adv-x="1057" 
d="M599 1108h-152l-292 305h221zM510 1018q198 0 309 -111.5t111 -298.5v-608h-170l-14 156q-48 -84 -138.5 -129.5t-190.5 -45.5q-157 0 -256.5 85.5t-99.5 234.5q0 288 404 288h278q-3 133 -53.5 190.5t-178.5 57.5q-162 0 -253 -148l-158 114q76 105 174.5 160t235.5 55z
M458 157q117 0 192.5 72t92.5 179v31h-266q-100 0 -152.5 -40t-52.5 -104q0 -63 48.5 -100.5t137.5 -37.5z" />
    <glyph glyph-name="aacute" unicode="&#xe1;" horiz-adv-x="1057" 
d="M846 1413l-291 -288h-153l223 288h221zM510 1018q198 0 309 -111.5t111 -298.5v-608h-170l-14 156q-48 -84 -138.5 -129.5t-190.5 -45.5q-157 0 -256.5 85.5t-99.5 234.5q0 288 404 288h278q-3 133 -53.5 190.5t-178.5 57.5q-162 0 -253 -148l-158 114q76 105 174.5 160
t235.5 55zM458 157q117 0 192.5 72t92.5 179v31h-266q-100 0 -152.5 -40t-52.5 -104q0 -63 48.5 -100.5t137.5 -37.5z" />
    <glyph glyph-name="acircumflex" unicode="&#xe2;" horiz-adv-x="1057" 
d="M501 1267l-148 -164h-163l311 341l312 -341h-162zM510 1018q198 0 309 -111.5t111 -298.5v-608h-170l-14 156q-48 -84 -138.5 -129.5t-190.5 -45.5q-157 0 -256.5 85.5t-99.5 234.5q0 288 404 288h278q-3 133 -53.5 190.5t-178.5 57.5q-162 0 -253 -148l-158 114
q76 105 174.5 160t235.5 55zM458 157q117 0 192.5 72t92.5 179v31h-266q-100 0 -152.5 -40t-52.5 -104q0 -63 48.5 -100.5t137.5 -37.5z" />
    <glyph glyph-name="atilde" unicode="&#xe3;" horiz-adv-x="1057" 
d="M369 1275q-37 0 -57.5 -38t-20.5 -107h-120q0 130 54.5 201.5t149.5 71.5q40 0 74.5 -16t57.5 -38.5t43 -44.5t41.5 -38t44.5 -16q32 0 52.5 39t20.5 107h125q0 -130 -53.5 -203t-145.5 -73q-45 0 -80.5 16t-58.5 39t-42 45.5t-40.5 38.5t-44.5 16zM510 1018
q198 0 309 -111.5t111 -298.5v-608h-170l-14 156q-48 -84 -138.5 -129.5t-190.5 -45.5q-157 0 -256.5 85.5t-99.5 234.5q0 288 404 288h278q-3 133 -53.5 190.5t-178.5 57.5q-162 0 -253 -148l-158 114q76 105 174.5 160t235.5 55zM458 157q117 0 192.5 72t92.5 179v31h-266
q-100 0 -152.5 -40t-52.5 -104q0 -63 48.5 -100.5t137.5 -37.5z" />
    <glyph glyph-name="adieresis" unicode="&#xe4;" horiz-adv-x="1057" 
d="M396 1413v-218h-174v218h174zM781 1413v-218h-174v218h174zM510 1018q198 0 309 -111.5t111 -298.5v-608h-170l-14 156q-48 -84 -138.5 -129.5t-190.5 -45.5q-157 0 -256.5 85.5t-99.5 234.5q0 288 404 288h278q-3 133 -53.5 190.5t-178.5 57.5q-162 0 -253 -148
l-158 114q76 105 174.5 160t235.5 55zM458 157q117 0 192.5 72t92.5 179v31h-266q-100 0 -152.5 -40t-52.5 -104q0 -63 48.5 -100.5t137.5 -37.5z" />
    <glyph glyph-name="aring" unicode="&#xe5;" horiz-adv-x="1057" 
d="M501 1078q-91 0 -154.5 64.5t-63.5 154.5t63.5 153.5t154.5 63.5q89 0 154 -63t65 -154t-64 -155t-155 -64zM501 1402q-46 0 -75.5 -29.5t-29.5 -74.5q0 -46 30.5 -77t74.5 -31q46 0 76 30.5t30 77.5q0 45 -29 74.5t-77 29.5zM510 1018q198 0 309 -111.5t111 -298.5v-608
h-170l-14 156q-48 -84 -138.5 -129.5t-190.5 -45.5q-157 0 -256.5 85.5t-99.5 234.5q0 288 404 288h278q-3 133 -53.5 190.5t-178.5 57.5q-162 0 -253 -148l-158 114q76 105 174.5 160t235.5 55zM458 157q117 0 192.5 72t92.5 179v31h-266q-100 0 -152.5 -40t-52.5 -104
q0 -63 48.5 -100.5t137.5 -37.5z" />
    <glyph glyph-name="ae" unicode="&#xe6;" horiz-adv-x="1698" 
d="M407 -19q-147 0 -248.5 85t-101.5 223q0 296 407 296h275q0 44 -8 82q-14 88 -70 130t-160 42q-80 0 -145.5 -37.5t-108.5 -99.5l-146 107q76 105 174.5 155.5t232.5 50.5q121 0 211 -51.5t134 -144.5q118 192 332 192q97 0 174 -29t126.5 -76.5t82 -113.5t46 -135
t13.5 -146q0 -14 -2 -32.5t-4 -30.5t-3 -13h-682q8 -122 69.5 -192.5t178.5 -70.5q86 0 146.5 25t117.5 85l145 -125q-88 -91 -184.5 -130t-222.5 -39q-130 0 -223 50t-143 140q-73 -95 -167 -146t-246 -51zM934 585h490q0 35 -8 70q-17 81 -80.5 131.5t-167.5 50.5
q-109 0 -170.5 -73.5t-63.5 -178.5zM440 135q106 0 181.5 44.5t135.5 133.5q-15 51 -18 122h-264q-106 0 -164.5 -38.5t-58.5 -105.5q0 -69 51.5 -112.5t136.5 -43.5z" />
    <glyph glyph-name="ccedilla" unicode="&#xe7;" horiz-adv-x="1008" 
d="M541 169q81 0 140.5 47t83.5 126l188 -71q-44 -125 -138.5 -200t-221.5 -88l-68 -94q29 -3 59 -11q148 -42 148 -182q0 -93 -63 -154.5t-159 -61.5q-74 0 -130.5 38.5t-73.5 115.5l114 48q11 -35 36 -59t59 -24q43 0 68.5 24.5t25.5 65.5q0 51 -47 83t-125 34
q-9 0 -34 0.5t-42 0.5l111 178q-128 17 -221 93t-136.5 184t-43.5 236q0 101 29.5 192.5t86 165.5t148 118t206.5 44q147 0 257 -73t165 -215l-196 -76q-26 80 -86 128t-140 48q-88 0 -148.5 -49.5t-86 -122t-25.5 -160.5q0 -66 15 -123.5t45 -104.5t81.5 -74t118.5 -27z
" />
    <glyph glyph-name="egrave" unicode="&#xe8;" horiz-adv-x="1071" 
d="M474 1108l-292 305h221l223 -305h-152zM564 -19q-120 0 -215.5 41.5t-155.5 113t-91 163.5t-31 196q0 103 30 195.5t87 166.5t149.5 117.5t209.5 43.5q99 0 178.5 -30.5t129.5 -79.5t84 -115t47.5 -131.5t13.5 -133.5q0 -65 -8 -93h-703q14 -126 82.5 -196t193.5 -70
q153 0 258 113l142 -125q-161 -176 -401 -176zM289 585h507q2 33 -6 63q-16 88 -80 142t-165 54q-112 0 -175.5 -70t-80.5 -189z" />
    <glyph glyph-name="eacute" unicode="&#xe9;" horiz-adv-x="1071" 
d="M429 1125l223 288h221l-291 -288h-153zM564 -19q-120 0 -215.5 41.5t-155.5 113t-91 163.5t-31 196q0 103 30 195.5t87 166.5t149.5 117.5t209.5 43.5q99 0 178.5 -30.5t129.5 -79.5t84 -115t47.5 -131.5t13.5 -133.5q0 -65 -8 -93h-703q14 -126 82.5 -196t193.5 -70
q153 0 258 113l142 -125q-161 -176 -401 -176zM289 585h507q2 33 -6 63q-16 88 -80 142t-165 54q-112 0 -175.5 -70t-80.5 -189z" />
    <glyph glyph-name="ecircumflex" unicode="&#xea;" horiz-adv-x="1071" 
d="M217 1103l311 341l312 -341h-162l-150 164l-148 -164h-163zM564 -19q-120 0 -215.5 41.5t-155.5 113t-91 163.5t-31 196q0 103 30 195.5t87 166.5t149.5 117.5t209.5 43.5q99 0 178.5 -30.5t129.5 -79.5t84 -115t47.5 -131.5t13.5 -133.5q0 -65 -8 -93h-703
q14 -126 82.5 -196t193.5 -70q153 0 258 113l142 -125q-161 -176 -401 -176zM289 585h507q2 33 -6 63q-16 88 -80 142t-165 54q-112 0 -175.5 -70t-80.5 -189z" />
    <glyph glyph-name="edieresis" unicode="&#xeb;" horiz-adv-x="1071" 
d="M249 1195v218h174v-218h-174zM634 1195v218h174v-218h-174zM564 -19q-120 0 -215.5 41.5t-155.5 113t-91 163.5t-31 196q0 103 30 195.5t87 166.5t149.5 117.5t209.5 43.5q99 0 178.5 -30.5t129.5 -79.5t84 -115t47.5 -131.5t13.5 -133.5q0 -65 -8 -93h-703
q14 -126 82.5 -196t193.5 -70q153 0 258 113l142 -125q-161 -176 -401 -176zM289 585h507q2 33 -6 63q-16 88 -80 142t-165 54q-112 0 -175.5 -70t-80.5 -189z" />
    <glyph glyph-name="igrave" unicode="&#xec;" horiz-adv-x="520" 
d="M204 1108l-292 305h221l223 -305h-152zM157 0v999h206v-999h-206z" />
    <glyph glyph-name="iacute" unicode="&#xed;" horiz-adv-x="520" 
d="M159 1125l223 288h221l-291 -288h-153zM157 0v999h206v-999h-206z" />
    <glyph glyph-name="icircumflex" unicode="&#xee;" horiz-adv-x="520" 
d="M-53 1103l311 341l312 -341h-162l-150 164l-148 -164h-163zM157 0v999h206v-999h-206z" />
    <glyph glyph-name="idieresis" unicode="&#xef;" horiz-adv-x="520" 
d="M-21 1195v218h174v-218h-174zM364 1195v218h174v-218h-174zM157 0v999h206v-999h-206z" />
    <glyph glyph-name="eth" unicode="&#xf0;" horiz-adv-x="1121" 
d="M561 -19q-106 0 -200.5 40t-160.5 106.5t-104.5 155.5t-38.5 185q0 199 147 333.5t355 134.5q41 0 76 -19l-122 194l-119 -95h-148l221 166l-149 231h229l78 -124l167 124h147l-270 -194l320 -511q74 -120 74 -247q0 -131 -67 -241.5t-182.5 -174.5t-252.5 -64zM559 183
q122 0 208 83t86 201q0 117 -86 200t-208 83q-120 0 -206 -83t-86 -200t86 -200.5t206 -83.5z" />
    <glyph glyph-name="ntilde" unicode="&#xf1;" horiz-adv-x="1150" 
d="M713 1120q-45 0 -80.5 16t-58.5 39t-42 45.5t-40.5 38.5t-44.5 16q-37 0 -57.5 -38t-20.5 -107h-120q0 130 54.5 201.5t149.5 71.5q40 0 74.5 -16t57.5 -38.5t43 -44.5t41.5 -38t44.5 -16q32 0 52.5 39t20.5 107h125q0 -130 -53.5 -203t-145.5 -73zM157 0v999h206v-134
q53 76 133 114.5t167 38.5q91 0 161.5 -33.5t112 -91.5t63 -129t21.5 -153v-611h-206v580q0 113 -54.5 180t-155.5 67q-114 0 -178 -67t-64 -199v-561h-206z" />
    <glyph glyph-name="ograve" unicode="&#xf2;" horiz-adv-x="1138" 
d="M513 1108l-292 305h221l223 -305h-152zM568 -19q-147 0 -262.5 71t-177.5 189.5t-62 260.5q0 141 62 258.5t177.5 187.5t262.5 70t263 -70t178 -187.5t62 -258.5q0 -142 -62 -260.5t-178 -189.5t-263 -71zM568 160q71 0 127 27.5t90.5 75t52.5 108.5t18 131
q0 145 -74 241t-214 96q-94 0 -160.5 -47t-96.5 -121.5t-30 -168.5q0 -147 74 -244.5t213 -97.5z" />
    <glyph glyph-name="oacute" unicode="&#xf3;" horiz-adv-x="1138" 
d="M468 1125l223 288h221l-291 -288h-153zM568 -19q-147 0 -262.5 71t-177.5 189.5t-62 260.5q0 141 62 258.5t177.5 187.5t262.5 70t263 -70t178 -187.5t62 -258.5q0 -142 -62 -260.5t-178 -189.5t-263 -71zM568 160q71 0 127 27.5t90.5 75t52.5 108.5t18 131
q0 145 -74 241t-214 96q-94 0 -160.5 -47t-96.5 -121.5t-30 -168.5q0 -147 74 -244.5t213 -97.5z" />
    <glyph glyph-name="ocircumflex" unicode="&#xf4;" horiz-adv-x="1138" 
d="M256 1103l311 341l312 -341h-162l-150 164l-148 -164h-163zM568 -19q-147 0 -262.5 71t-177.5 189.5t-62 260.5q0 141 62 258.5t177.5 187.5t262.5 70t263 -70t178 -187.5t62 -258.5q0 -142 -62 -260.5t-178 -189.5t-263 -71zM568 160q71 0 127 27.5t90.5 75t52.5 108.5
t18 131q0 145 -74 241t-214 96q-94 0 -160.5 -47t-96.5 -121.5t-30 -168.5q0 -147 74 -244.5t213 -97.5z" />
    <glyph glyph-name="otilde" unicode="&#xf5;" horiz-adv-x="1138" 
d="M701 1120q-45 0 -80.5 16t-58.5 39t-42 45.5t-40.5 38.5t-44.5 16q-37 0 -57.5 -38t-20.5 -107h-120q0 130 54.5 201.5t149.5 71.5q40 0 74.5 -16t57.5 -38.5t43 -44.5t41.5 -38t44.5 -16q32 0 52.5 39t20.5 107h125q0 -130 -53.5 -203t-145.5 -73zM568 -19
q-147 0 -262.5 71t-177.5 189.5t-62 260.5q0 141 62 258.5t177.5 187.5t262.5 70t263 -70t178 -187.5t62 -258.5q0 -142 -62 -260.5t-178 -189.5t-263 -71zM568 160q71 0 127 27.5t90.5 75t52.5 108.5t18 131q0 145 -74 241t-214 96q-94 0 -160.5 -47t-96.5 -121.5
t-30 -168.5q0 -147 74 -244.5t213 -97.5z" />
    <glyph glyph-name="odieresis" unicode="&#xf6;" horiz-adv-x="1138" 
d="M288 1195v218h174v-218h-174zM673 1195v218h174v-218h-174zM568 -19q-147 0 -262.5 71t-177.5 189.5t-62 260.5q0 141 62 258.5t177.5 187.5t262.5 70t263 -70t178 -187.5t62 -258.5q0 -142 -62 -260.5t-178 -189.5t-263 -71zM568 160q71 0 127 27.5t90.5 75t52.5 108.5
t18 131q0 145 -74 241t-214 96q-94 0 -160.5 -47t-96.5 -121.5t-30 -168.5q0 -147 74 -244.5t213 -97.5z" />
    <glyph glyph-name="divide" unicode="&#xf7;" horiz-adv-x="1012" 
d="M392 848v249h225v-249h-225zM99 550v157h810v-157h-810zM392 143v250h225v-250h-225z" />
    <glyph glyph-name="oslash" unicode="&#xf8;" horiz-adv-x="1138" 
d="M878 916q91 -71 142 -179.5t51 -234.5q0 -142 -62 -260.5t-178 -189.5t-263 -71q-126 0 -229 53l-21 -34h-110l51 84q-91 72 -142 181.5t-51 236.5q0 141 62 258.5t177.5 187.5t262.5 70q124 0 230 -52l21 34h110zM281 502q0 -159 80 -252l341 559q-58 30 -134 30
q-94 0 -160.5 -47t-96.5 -121.5t-30 -168.5zM568 160q71 0 127 27.5t90.5 75t52.5 108.5t18 131q0 156 -80 248l-341 -559q57 -31 133 -31z" />
    <glyph glyph-name="ugrave" unicode="&#xf9;" horiz-adv-x="1149" 
d="M518 1108l-292 305h221l223 -305h-152zM486 -19q-92 0 -162 33.5t-111.5 91.5t-62.5 129t-21 153v611h205v-580q0 -114 54.5 -180.5t155.5 -66.5q114 0 178.5 67t64.5 199v561h205v-999h-205v134q-53 -76 -133.5 -114.5t-167.5 -38.5z" />
    <glyph glyph-name="uacute" unicode="&#xfa;" horiz-adv-x="1149" 
d="M473 1125l223 288h221l-291 -288h-153zM486 -19q-92 0 -162 33.5t-111.5 91.5t-62.5 129t-21 153v611h205v-580q0 -114 54.5 -180.5t155.5 -66.5q114 0 178.5 67t64.5 199v561h205v-999h-205v134q-53 -76 -133.5 -114.5t-167.5 -38.5z" />
    <glyph glyph-name="ucircumflex" unicode="&#xfb;" horiz-adv-x="1149" 
d="M261 1103l311 341l312 -341h-162l-150 164l-148 -164h-163zM486 -19q-92 0 -162 33.5t-111.5 91.5t-62.5 129t-21 153v611h205v-580q0 -114 54.5 -180.5t155.5 -66.5q114 0 178.5 67t64.5 199v561h205v-999h-205v134q-53 -76 -133.5 -114.5t-167.5 -38.5z" />
    <glyph glyph-name="udieresis" unicode="&#xfc;" horiz-adv-x="1149" 
d="M293 1195v218h174v-218h-174zM678 1195v218h174v-218h-174zM486 -19q-92 0 -162 33.5t-111.5 91.5t-62.5 129t-21 153v611h205v-580q0 -114 54.5 -180.5t155.5 -66.5q114 0 178.5 67t64.5 199v561h205v-999h-205v134q-53 -76 -133.5 -114.5t-167.5 -38.5z" />
    <glyph glyph-name="yacute" unicode="&#xfd;" horiz-adv-x="1028" 
d="M412 1125l223 288h221l-291 -288h-153zM230 -429l180 451l-402 977h227l285 -740l273 740h227l-564 -1428h-226z" />
    <glyph glyph-name="thorn" unicode="&#xfe;" horiz-adv-x="1183" 
d="M681 1018q100 0 182 -41.5t135 -113.5t81.5 -165.5t28.5 -198.5q0 -142 -48.5 -258t-148 -188t-233.5 -72q-95 0 -176 40.5t-130 118.5v-554h-213v1827h213v-554q49 77 131.5 118t177.5 41zM630 827q-132 0 -204.5 -91.5t-72.5 -236.5t73 -237.5t204 -92.5t200 92.5
t69 237.5q0 146 -69 237t-200 91z" />
    <glyph glyph-name="ydieresis" unicode="&#xff;" horiz-adv-x="1028" 
d="M232 1195v218h174v-218h-174zM617 1195v218h174v-218h-174zM230 -429l180 451l-402 977h227l285 -740l273 740h227l-564 -1428h-226z" />
    <glyph glyph-name="Amacron" unicode="&#x100;" horiz-adv-x="1329" 
d="M386 1585v123h556v-123h-556zM31 0l552 1413h165l550 -1413h-232l-115 318h-568l-117 -318h-235zM450 503h433l-216 597z" />
    <glyph glyph-name="amacron" unicode="&#x101;" horiz-adv-x="1057" 
d="M781 1294v-123h-556v123h556zM510 1018q198 0 309 -111.5t111 -298.5v-608h-170l-14 156q-48 -84 -138.5 -129.5t-190.5 -45.5q-157 0 -256.5 85.5t-99.5 234.5q0 288 404 288h278q-3 133 -53.5 190.5t-178.5 57.5q-162 0 -253 -148l-158 114q76 105 174.5 160t235.5 55z
M458 157q117 0 192.5 72t92.5 179v31h-266q-100 0 -152.5 -40t-52.5 -104q0 -63 48.5 -100.5t137.5 -37.5z" />
    <glyph glyph-name="Abreve" unicode="&#x102;" horiz-adv-x="1329" 
d="M664 1558q-312 0 -312 269h147q0 -72 45 -109t120 -37q77 0 121 37.5t44 108.5h147q0 -269 -312 -269zM31 0l552 1413h165l550 -1413h-232l-115 318h-568l-117 -318h-235zM450 503h433l-216 597z" />
    <glyph glyph-name="abreve" unicode="&#x103;" horiz-adv-x="1057" 
d="M503 1144q-312 0 -312 269h147q0 -72 45 -109t120 -37q77 0 121 37.5t44 108.5h147q0 -269 -312 -269zM510 1018q198 0 309 -111.5t111 -298.5v-608h-170l-14 156q-48 -84 -138.5 -129.5t-190.5 -45.5q-157 0 -256.5 85.5t-99.5 234.5q0 288 404 288h278
q-3 133 -53.5 190.5t-178.5 57.5q-162 0 -253 -148l-158 114q76 105 174.5 160t235.5 55zM458 157q117 0 192.5 72t92.5 179v31h-266q-100 0 -152.5 -40t-52.5 -104q0 -63 48.5 -100.5t137.5 -37.5z" />
    <glyph glyph-name="Aogonek" unicode="&#x104;" horiz-adv-x="1329" 
d="M1281 -259l105 -72q-80 -121 -218 -121q-96 0 -157.5 55t-61.5 144q0 53 23 101t55.5 79t60 49t44.5 24h-66l-115 318h-568l-117 -318h-235l552 1413h165l550 -1413q-23 -6 -56.5 -23.5t-73.5 -45.5t-67 -69.5t-27 -86.5q0 -99 89 -99q71 0 118 65zM450 503h433l-216 597
z" />
    <glyph glyph-name="aogonek" unicode="&#x105;" horiz-adv-x="1057" 
d="M913 -259l105 -72q-80 -121 -218 -121q-96 0 -157.5 55t-61.5 144q0 53 23 101t55.5 79t60 49t44.5 24h-4l-14 156q-48 -84 -138.5 -129.5t-190.5 -45.5q-157 0 -256.5 85.5t-99.5 234.5q0 288 404 288h278q-3 133 -53.5 190.5t-178.5 57.5q-162 0 -253 -148l-158 114
q76 105 174.5 160t235.5 55q198 0 309 -111.5t111 -298.5v-608q-23 -6 -56.5 -23.5t-73.5 -45.5t-67 -69.5t-27 -86.5q0 -99 89 -99q71 0 118 65zM458 157q117 0 192.5 72t92.5 179v31h-266q-100 0 -152.5 -40t-52.5 -104q0 -63 48.5 -100.5t137.5 -37.5z" />
    <glyph glyph-name="Cacute" unicode="&#x106;" horiz-adv-x="1439" 
d="M655 1539l223 288h221l-291 -288h-153zM768 -19q-132 0 -242 37.5t-188 104t-132.5 157.5t-80.5 199t-26 228q0 121 26 228.5t80 199t132.5 158t189 104t243.5 37.5q211 0 366 -102t238 -296l-202 -80q-83 273 -404 273q-225 0 -340.5 -141.5t-115.5 -371.5
q0 -92 16.5 -170.5t52 -145.5t88.5 -114t129 -73.5t170 -26.5q150 0 249.5 66t158.5 211l200 -82q-84 -194 -241 -297t-367 -103z" />
    <glyph glyph-name="cacute" unicode="&#x107;" horiz-adv-x="1008" 
d="M440 1125l223 288h221l-291 -288h-153zM543 -19q-114 0 -205.5 42.5t-148.5 114.5t-87.5 164.5t-30.5 195.5q0 101 29.5 192.5t86 165.5t148 118t206.5 44q147 0 257 -73t165 -215l-196 -76q-26 80 -86 128t-140 48q-88 0 -148.5 -49.5t-86 -122t-25.5 -160.5
q0 -66 15 -123.5t45 -104.5t81.5 -74t118.5 -27q81 0 140.5 47t83.5 126l188 -71q-49 -137 -157 -213.5t-253 -76.5z" />
    <glyph glyph-name="Cdotaccent" unicode="&#x10a;" horiz-adv-x="1439" 
d="M647 1609v218h217v-218h-217zM768 -19q-132 0 -242 37.5t-188 104t-132.5 157.5t-80.5 199t-26 228q0 121 26 228.5t80 199t132.5 158t189 104t243.5 37.5q211 0 366 -102t238 -296l-202 -80q-83 273 -404 273q-225 0 -340.5 -141.5t-115.5 -371.5q0 -92 16.5 -170.5
t52 -145.5t88.5 -114t129 -73.5t170 -26.5q150 0 249.5 66t158.5 211l200 -82q-84 -194 -241 -297t-367 -103z" />
    <glyph glyph-name="cdotaccent" unicode="&#x10b;" horiz-adv-x="1008" 
d="M432 1195v218h217v-218h-217zM543 -19q-114 0 -205.5 42.5t-148.5 114.5t-87.5 164.5t-30.5 195.5q0 101 29.5 192.5t86 165.5t148 118t206.5 44q147 0 257 -73t165 -215l-196 -76q-26 80 -86 128t-140 48q-88 0 -148.5 -49.5t-86 -122t-25.5 -160.5q0 -66 15 -123.5
t45 -104.5t81.5 -74t118.5 -27q81 0 140.5 47t83.5 126l188 -71q-49 -137 -157 -213.5t-253 -76.5z" />
    <glyph glyph-name="Ccaron" unicode="&#x10c;" horiz-adv-x="1439" 
d="M755 1503l-311 324h162l149 -155l149 155h163zM768 -19q-132 0 -242 37.5t-188 104t-132.5 157.5t-80.5 199t-26 228q0 121 26 228.5t80 199t132.5 158t189 104t243.5 37.5q211 0 366 -102t238 -296l-202 -80q-83 273 -404 273q-225 0 -340.5 -141.5t-115.5 -371.5
q0 -92 16.5 -170.5t52 -145.5t88.5 -114t129 -73.5t170 -26.5q150 0 249.5 66t158.5 211l200 -82q-84 -194 -241 -297t-367 -103z" />
    <glyph glyph-name="ccaron" unicode="&#x10d;" horiz-adv-x="1008" 
d="M540 1089l-311 324h162l149 -155l149 155h163zM543 -19q-114 0 -205.5 42.5t-148.5 114.5t-87.5 164.5t-30.5 195.5q0 101 29.5 192.5t86 165.5t148 118t206.5 44q147 0 257 -73t165 -215l-196 -76q-26 80 -86 128t-140 48q-88 0 -148.5 -49.5t-86 -122t-25.5 -160.5
q0 -66 15 -123.5t45 -104.5t81.5 -74t118.5 -27q81 0 140.5 47t83.5 126l188 -71q-49 -137 -157 -213.5t-253 -76.5z" />
    <glyph glyph-name="Dcaron" unicode="&#x10e;" horiz-adv-x="1425" 
d="M728 1503l-311 324h162l149 -155l149 155h163zM196 0v1413h400q356 0 543.5 -185.5t187.5 -531.5q0 -332 -190 -514t-543 -182h-398zM411 198h163q261 0 399.5 121t138.5 386q0 267 -123.5 388.5t-395.5 121.5h-182v-1017z" />
    <glyph glyph-name="dcaron" unicode="&#x10f;" horiz-adv-x="1186" 
d="M511 -19q-101 0 -184.5 41.5t-138 112.5t-84 165t-29.5 200q0 141 50 257.5t150 188.5t233 72q95 0 177.5 -41t131.5 -118v554h210v-1413h-193l-8 151q-50 -83 -133 -126.5t-182 -43.5zM1121 970l115 443h217l-209 -443h-123zM561 169q131 0 202 92t71 239q0 146 -71 238
t-202 92q-132 0 -204 -93t-72 -237q0 -146 72 -238.5t204 -92.5z" />
    <glyph glyph-name="Dcroat" unicode="&#x110;" horiz-adv-x="1425" 
d="M596 1413q356 0 543.5 -185.5t187.5 -531.5q0 -332 -190 -514t-543 -182h-398v637h-148v140h148v636h400zM574 198q261 0 399.5 121t138.5 386q0 267 -123.5 388.5t-395.5 121.5h-182v-438h272v-140h-272v-439h163z" />
    <glyph glyph-name="dcroat" unicode="&#x111;" horiz-adv-x="1186" 
d="M1159 1290v-140h-132v-1150h-193l-8 151q-50 -83 -133 -126.5t-182 -43.5q-101 0 -184.5 41.5t-138 112.5t-84 165t-29.5 200q0 141 50 257.5t150 188.5t233 72q95 0 177.5 -41t131.5 -118v291h-293v140h293v123h210v-123h132zM561 169q131 0 202 92t71 239
q0 146 -71 238t-202 92q-132 0 -204 -93t-72 -237q0 -146 72 -238.5t204 -92.5z" />
    <glyph glyph-name="Emacron" unicode="&#x112;" horiz-adv-x="1255" 
d="M387 1585v123h556v-123h-556zM196 0v1413h935v-198h-720v-408h662v-198h-662v-406h720v-203h-935z" />
    <glyph glyph-name="emacron" unicode="&#x113;" horiz-adv-x="1071" 
d="M252 1171v123h556v-123h-556zM564 -19q-120 0 -215.5 41.5t-155.5 113t-91 163.5t-31 196q0 103 30 195.5t87 166.5t149.5 117.5t209.5 43.5q99 0 178.5 -30.5t129.5 -79.5t84 -115t47.5 -131.5t13.5 -133.5q0 -65 -8 -93h-703q14 -126 82.5 -196t193.5 -70
q153 0 258 113l142 -125q-161 -176 -401 -176zM289 585h507q2 33 -6 63q-16 88 -80 142t-165 54q-112 0 -175.5 -70t-80.5 -189z" />
    <glyph glyph-name="Edotaccent" unicode="&#x116;" horiz-adv-x="1255" 
d="M556 1609v218h217v-218h-217zM196 0v1413h935v-198h-720v-408h662v-198h-662v-406h720v-203h-935z" />
    <glyph glyph-name="edotaccent" unicode="&#x117;" horiz-adv-x="1071" 
d="M421 1195v218h217v-218h-217zM564 -19q-120 0 -215.5 41.5t-155.5 113t-91 163.5t-31 196q0 103 30 195.5t87 166.5t149.5 117.5t209.5 43.5q99 0 178.5 -30.5t129.5 -79.5t84 -115t47.5 -131.5t13.5 -133.5q0 -65 -8 -93h-703q14 -126 82.5 -196t193.5 -70
q153 0 258 113l142 -125q-161 -176 -401 -176zM289 585h507q2 33 -6 63q-16 88 -80 142t-165 54q-112 0 -175.5 -70t-80.5 -189z" />
    <glyph glyph-name="Eogonek" unicode="&#x118;" horiz-adv-x="1255" 
d="M1114 -259l105 -72q-80 -121 -218 -121q-96 0 -157.5 55t-61.5 144q0 53 23 101t55.5 79t60 49t44.5 24h-769v1413h935v-198h-720v-408h662v-198h-662v-406h720v-203q-23 -6 -56.5 -23.5t-73.5 -45.5t-67 -69.5t-27 -86.5q0 -99 89 -99q71 0 118 65z" />
    <glyph glyph-name="eogonek" unicode="&#x119;" horiz-adv-x="1071" 
d="M1000 528q0 -65 -8 -93h-703q14 -126 82.5 -196t193.5 -70q153 0 258 113l142 -125q-106 -115 -236 -153q-131 -81 -131 -182q0 -99 89 -99q71 0 118 65l105 -72q-80 -121 -218 -121q-96 0 -157.5 55t-61.5 144q0 105 86 187q-119 1 -213.5 43t-153.5 113t-90 162.5
t-31 195.5q0 103 30 195.5t87 166.5t149.5 117.5t209.5 43.5q99 0 178.5 -30.5t129.5 -79.5t84 -115t47.5 -131.5t13.5 -133.5zM796 585q2 33 -6 63q-16 88 -80 142t-165 54q-112 0 -175.5 -70t-80.5 -189h507z" />
    <glyph glyph-name="Ecaron" unicode="&#x11a;" horiz-adv-x="1255" 
d="M664 1503l-311 324h162l149 -155l149 155h163zM196 0v1413h935v-198h-720v-408h662v-198h-662v-406h720v-203h-935z" />
    <glyph glyph-name="ecaron" unicode="&#x11b;" horiz-adv-x="1071" 
d="M529 1089l-311 324h162l149 -155l149 155h163zM564 -19q-120 0 -215.5 41.5t-155.5 113t-91 163.5t-31 196q0 103 30 195.5t87 166.5t149.5 117.5t209.5 43.5q99 0 178.5 -30.5t129.5 -79.5t84 -115t47.5 -131.5t13.5 -133.5q0 -65 -8 -93h-703q14 -126 82.5 -196
t193.5 -70q153 0 258 113l142 -125q-161 -176 -401 -176zM289 585h507q2 33 -6 63q-16 88 -80 142t-165 54q-112 0 -175.5 -70t-80.5 -189z" />
    <glyph glyph-name="Gbreve" unicode="&#x11e;" horiz-adv-x="1536" 
d="M767 1558q-312 0 -312 269h147q0 -72 45 -109t120 -37q77 0 121 37.5t44 108.5h147q0 -269 -312 -269zM768 -19q-132 0 -242 37.5t-188 104t-132.5 157.5t-80.5 199t-26 228q0 121 25.5 228.5t80 199t132.5 158t189 104t244 37.5q209 0 364 -102t238 -296l-191 -80
q-51 146 -157 218t-256 72q-114 0 -202.5 -41.5t-143 -114.5t-82.5 -167.5t-28 -206.5q0 -115 27 -211.5t80.5 -171.5t142.5 -117t206 -42q178 0 287.5 95t122.5 272l5 37h-327v174h539v-752h-171l-19 217q-62 -111 -175.5 -173.5t-261.5 -62.5z" />
    <glyph glyph-name="gbreve" unicode="&#x11f;" horiz-adv-x="1051" 
d="M527 1144q-312 0 -312 269h147q0 -72 45 -109t120 -37q77 0 121 37.5t44 108.5h147q0 -269 -312 -269zM586 144q44 -6 73 -11t70 -13.5t68 -19.5t59 -26t52.5 -35.5t39 -47t27 -61t8.5 -75.5q0 -156 -120.5 -239.5t-312.5 -83.5q-223 0 -346.5 96.5t-123.5 253.5
q0 21 4 43l128 111q-109 63 -109 194q0 122 98 201q-84 97 -84 228q0 156 116 257.5t283 101.5q135 0 242 -69l147 127l108 -133l-141 -116q46 -81 46 -178q0 -159 -114 -257.5t-281 -98.5q-108 0 -197 43q-46 -24 -46 -70q0 -30 15.5 -49.5t58 -32.5t74 -18.5t105.5 -14.5
q35 -5 53 -7zM523 858q-89 0 -141 -56t-52 -145q0 -88 51.5 -142t141.5 -54q89 0 139.5 54t50.5 142q0 90 -51 145.5t-139 55.5zM548 -308q111 0 175 36.5t64 104.5q0 64 -62 89.5t-211 42.5q-124 14 -175 25l-74 -107q1 -11 5 -29q17 -81 92 -121.5t186 -40.5z" />
    <glyph glyph-name="Gdotaccent" unicode="&#x120;" horiz-adv-x="1536" 
d="M658 1609v218h217v-218h-217zM768 -19q-132 0 -242 37.5t-188 104t-132.5 157.5t-80.5 199t-26 228q0 121 25.5 228.5t80 199t132.5 158t189 104t244 37.5q209 0 364 -102t238 -296l-191 -80q-51 146 -157 218t-256 72q-114 0 -202.5 -41.5t-143 -114.5t-82.5 -167.5
t-28 -206.5q0 -115 27 -211.5t80.5 -171.5t142.5 -117t206 -42q178 0 287.5 95t122.5 272l5 37h-327v174h539v-752h-171l-19 217q-62 -111 -175.5 -173.5t-261.5 -62.5z" />
    <glyph glyph-name="gdotaccent" unicode="&#x121;" horiz-adv-x="1051" 
d="M635 1413v-218h-217v218h217zM586 144q44 -6 73 -11t70 -13.5t68 -19.5t59 -26t52.5 -35.5t39 -47t27 -61t8.5 -75.5q0 -156 -120.5 -239.5t-312.5 -83.5q-223 0 -346.5 96.5t-123.5 253.5q0 21 4 43l128 111q-109 63 -109 194q0 122 98 201q-84 97 -84 228
q0 156 116 257.5t283 101.5q135 0 242 -69l147 127l108 -133l-141 -116q46 -81 46 -178q0 -159 -114 -257.5t-281 -98.5q-108 0 -197 43q-46 -24 -46 -70q0 -30 15.5 -49.5t58 -32.5t74 -18.5t105.5 -14.5q35 -5 53 -7zM523 858q-89 0 -141 -56t-52 -145q0 -88 51.5 -142
t141.5 -54q89 0 139.5 54t50.5 142q0 90 -51 145.5t-139 55.5zM548 -308q111 0 175 36.5t64 104.5q0 64 -62 89.5t-211 42.5q-124 14 -175 25l-74 -107q1 -11 5 -29q17 -81 92 -121.5t186 -40.5z" />
    <glyph glyph-name="uni0122" unicode="&#x122;" horiz-adv-x="1536" 
d="M768 -19q-132 0 -242 37.5t-188 104t-132.5 157.5t-80.5 199t-26 228q0 121 25.5 228.5t80 199t132.5 158t189 104t244 37.5q209 0 364 -102t238 -296l-191 -80q-51 146 -157 218t-256 72q-114 0 -202.5 -41.5t-143 -114.5t-82.5 -167.5t-28 -206.5q0 -115 27 -211.5
t80.5 -171.5t142.5 -117t206 -42q178 0 287.5 95t122.5 272l5 37h-327v174h539v-752h-171l-19 217q-62 -111 -175.5 -173.5t-261.5 -62.5zM530 -455l150 346h217l-245 -346h-122z" />
    <glyph glyph-name="uni0123" unicode="&#x123;" horiz-adv-x="1047" 
d="M749 1431l-150 -310h-217l245 310h122zM586 144q44 -6 73 -11t70 -13.5t68 -19.5t59 -26t52.5 -35.5t39 -47t27 -61t8.5 -75.5q0 -156 -120.5 -239.5t-312.5 -83.5q-223 0 -346.5 96.5t-123.5 253.5q0 21 4 43l128 111q-109 63 -109 194q0 122 98 201q-84 97 -84 228
q0 156 116 257.5t283 101.5q135 0 242 -69l147 127l108 -133l-141 -116q46 -81 46 -178q0 -159 -114 -257.5t-281 -98.5q-108 0 -197 43q-46 -24 -46 -70q0 -30 15.5 -49.5t58 -32.5t74 -18.5t105.5 -14.5q35 -5 53 -7zM523 858q-89 0 -141 -56t-52 -145q0 -88 51.5 -142
t141.5 -54q89 0 139.5 54t50.5 142q0 90 -51 145.5t-139 55.5zM548 -308q111 0 175 36.5t64 104.5q0 64 -62 89.5t-211 42.5q-124 14 -175 25l-74 -107q1 -11 5 -29q17 -81 92 -121.5t186 -40.5z" />
    <glyph glyph-name="Hbar" unicode="&#x126;" horiz-adv-x="1482" 
d="M1399 1176v-123h-113v-1053h-215v609h-660v-609h-215v1053h-113v123h113v237h215v-237h660v237h215v-237h113zM1071 807v246h-660v-246h660z" />
    <glyph glyph-name="hbar" unicode="&#x127;" horiz-adv-x="1156" 
d="M665 1018q91 0 162 -33.5t113.5 -91.5t64 -129t22.5 -153v-611h-210v580q0 117 -46 183.5t-156 66.5q-118 0 -182 -83.5t-64 -219.5v-527h-210v1119h-159v140h159v154h210v-154h266v-140h-266v-254q53 76 131 114.5t165 38.5z" />
    <glyph glyph-name="Itilde" unicode="&#x128;" horiz-adv-x="608" 
d="M435 1534q-45 0 -80.5 16t-58.5 39t-42 45.5t-40.5 38.5t-44.5 16q-37 0 -57.5 -38t-20.5 -107h-120q0 130 54.5 201.5t149.5 71.5q40 0 74.5 -16t57.5 -38.5t43 -44.5t41.5 -38t44.5 -16q32 0 52.5 39t20.5 107h125q0 -130 -53.5 -203t-145.5 -73zM196 0v1413h215v-1413
h-215z" />
    <glyph glyph-name="itilde" unicode="&#x129;" horiz-adv-x="520" 
d="M392 1120q-45 0 -80.5 16t-58.5 39t-42 45.5t-40.5 38.5t-44.5 16q-37 0 -57.5 -38t-20.5 -107h-120q0 130 54.5 201.5t149.5 71.5q40 0 74.5 -16t57.5 -38.5t43 -44.5t41.5 -38t44.5 -16q32 0 52.5 39t20.5 107h125q0 -130 -53.5 -203t-145.5 -73zM157 0v999h206v-999
h-206z" />
    <glyph glyph-name="Imacron" unicode="&#x12a;" horiz-adv-x="608" 
d="M25 1585v123h556v-123h-556zM196 0v1413h215v-1413h-215z" />
    <glyph glyph-name="imacron" unicode="&#x12b;" horiz-adv-x="520" 
d="M-18 1171v123h556v-123h-556zM157 0v999h206v-999h-206z" />
    <glyph glyph-name="Iogonek" unicode="&#x12e;" horiz-adv-x="608" 
d="M394 -259l105 -72q-80 -121 -218 -121q-96 0 -157.5 55t-61.5 144q0 53 23 101t55.5 79t60 49t44.5 24h-49v1413h215v-1413q-23 -6 -56.5 -23.5t-73.5 -45.5t-67 -69.5t-27 -86.5q0 -99 89 -99q71 0 118 65z" />
    <glyph glyph-name="iogonek" unicode="&#x12f;" horiz-adv-x="520" 
d="M368 1413v-218h-217v218h217zM346 -259l105 -72q-80 -121 -218 -121q-96 0 -157.5 55t-61.5 144q0 53 23 101t55.5 79t60 49t44.5 24h-40v999h206v-999q-23 -6 -56.5 -23.5t-73.5 -45.5t-67 -69.5t-27 -86.5q0 -99 89 -99q71 0 118 65z" />
    <glyph glyph-name="Idotaccent" unicode="&#x130;" horiz-adv-x="608" 
d="M194 1609v218h217v-218h-217zM196 0v1413h215v-1413h-215z" />
    <glyph glyph-name="dotlessi" unicode="&#x131;" horiz-adv-x="520" 
d="M157 0v999h206v-999h-206z" />
    <glyph glyph-name="IJ" unicode="&#x132;" horiz-adv-x="1758" 
d="M196 0v1413h215v-1413h-215zM1123 -19q-204 0 -329 128t-139 322l211 24q10 -123 74.5 -198.5t182.5 -75.5q141 0 196 80t55 247v707h-546v198h761v-901q0 -119 -26.5 -214t-81 -167t-145.5 -111t-213 -39z" />
    <glyph glyph-name="uni0136" unicode="&#x136;" horiz-adv-x="1478" 
d="M196 0v1413h215v-774l728 774h288l-557 -572l574 -841h-267l-456 697l-310 -321v-376h-215zM488 -455l150 346h217l-245 -346h-122z" />
    <glyph glyph-name="uni0137" unicode="&#x137;" horiz-adv-x="1109" 
d="M159 0v1413h206v-872l423 458h269l-371 -382l418 -617h-245l-313 489l-181 -195v-294h-206zM372 -455l150 346h217l-245 -346h-122z" />
    <glyph glyph-name="kgreenlandic" unicode="&#x138;" horiz-adv-x="1107" 
d="M157 0v999h206v-458l423 458h269l-371 -382l418 -617h-245l-313 489l-181 -195v-294h-206z" />
    <glyph glyph-name="Lacute" unicode="&#x139;" horiz-adv-x="1066" 
d="M204 1539l223 288h221l-291 -288h-153zM196 0v1413h215v-1210h618v-203h-833z" />
    <glyph glyph-name="lacute" unicode="&#x13a;" horiz-adv-x="566" 
d="M173 1537l223 288h221l-291 -288h-153zM352 -19q-98 0 -149.5 51.5t-51.5 170.5v1210h206v-1154q0 -92 90 -92q25 0 72 7l1 -174q-93 -19 -168 -19z" />
    <glyph glyph-name="uni013B" unicode="&#x13b;" horiz-adv-x="1066" 
d="M196 0v1413h215v-1210h618v-203h-833zM373 -455l150 346h217l-245 -346h-122z" />
    <glyph glyph-name="uni013C" unicode="&#x13c;" horiz-adv-x="566" 
d="M352 -19q-98 0 -149.5 51.5t-51.5 170.5v1210h206v-1154q0 -92 90 -92q25 0 72 7l1 -174q-93 -19 -168 -19zM118 -455l150 346h217l-245 -346h-122z" />
    <glyph glyph-name="Lcaron" unicode="&#x13d;" horiz-adv-x="1066" 
d="M196 0v1413h215v-1210h618v-203h-833zM637 970l115 443h217l-209 -443h-123z" />
    <glyph glyph-name="lcaron" unicode="&#x13e;" horiz-adv-x="566" 
d="M352 -19q-98 0 -149.5 51.5t-51.5 170.5v1210h206v-1154q0 -92 90 -92q25 0 72 7l1 -174q-93 -19 -168 -19zM446 970l115 443h217l-209 -443h-123z" />
    <glyph glyph-name="Lslash" unicode="&#x141;" horiz-adv-x="1066" 
d="M411 203h618v-203h-833v347l-142 -161v230l142 160v837h215v-594l245 277v-229l-245 -277v-387z" />
    <glyph glyph-name="lslash" unicode="&#x142;" horiz-adv-x="571" 
d="M521 174l1 -174q-93 -19 -168 -19q-98 0 -149.5 51.5t-51.5 170.5v231l-90 -90v196l90 89v784h206v-579l155 154v-195l-155 -154v-380q0 -92 90 -92q25 0 72 7z" />
    <glyph glyph-name="Nacute" unicode="&#x143;" horiz-adv-x="1446" 
d="M1066 1827l-291 -288h-153l223 288h221zM1043 1413h206v-1413h-217l-629 1060v-1060h-207v1413h216l631 -1056v1056z" />
    <glyph glyph-name="nacute" unicode="&#x144;" horiz-adv-x="1150" 
d="M480 1125l223 288h221l-291 -288h-153zM157 0v999h206v-134q53 76 133 114.5t167 38.5q91 0 161.5 -33.5t112 -91.5t63 -129t21.5 -153v-611h-206v580q0 113 -54.5 180t-155.5 67q-114 0 -178 -67t-64 -199v-561h-206z" />
    <glyph glyph-name="uni0145" unicode="&#x145;" horiz-adv-x="1446" 
d="M1043 1413h206v-1413h-217l-629 1060v-1060h-207v1413h216l631 -1056v1056zM482 -455l150 346h217l-245 -346h-122z" />
    <glyph glyph-name="uni0146" unicode="&#x146;" horiz-adv-x="1150" 
d="M157 0v999h206v-134q53 76 133 114.5t167 38.5q91 0 161.5 -33.5t112 -91.5t63 -129t21.5 -153v-611h-206v580q0 113 -54.5 180t-155.5 67q-114 0 -178 -67t-64 -199v-561h-206zM340 -455l150 346h217l-245 -346h-122z" />
    <glyph glyph-name="Ncaron" unicode="&#x147;" horiz-adv-x="1446" 
d="M1034 1827l-312 -324l-311 324h162l149 -155l149 155h163zM1043 1413h206v-1413h-217l-629 1060v-1060h-207v1413h216l631 -1056v1056z" />
    <glyph glyph-name="ncaron" unicode="&#x148;" horiz-adv-x="1150" 
d="M580 1089l-311 324h162l149 -155l149 155h163zM157 0v999h206v-134q53 76 133 114.5t167 38.5q91 0 161.5 -33.5t112 -91.5t63 -129t21.5 -153v-611h-206v580q0 113 -54.5 180t-155.5 67q-114 0 -178 -67t-64 -199v-561h-206z" />
    <glyph glyph-name="Eng" unicode="&#x14a;" horiz-adv-x="1446" 
d="M1043 1413h205v-1423q0 -58 -9 -107.5t-31 -95t-56.5 -77.5t-89.5 -51t-125 -19q-72 0 -143 15l1 136q50 -10 87 -10q83 0 131.5 34.5t48.5 95.5q0 31 -12 50l-647 1104v-1065h-207v1413h216l631 -1066v1066z" />
    <glyph glyph-name="eng" unicode="&#x14b;" horiz-adv-x="1205" 
d="M730 -437q-68 0 -159 31l47 154q62 -16 107 -16q52 0 71 30t19 95v723q0 113 -54.5 180t-155.5 67q-114 0 -179 -67t-65 -199v-561h-204v999h204v-134q54 76 134.5 114.5t167.5 38.5q91 0 161 -33.5t111.5 -91.5t62.5 -129t22 -153v-730q0 -142 -74 -230t-216 -88z" />
    <glyph glyph-name="Omacron" unicode="&#x14c;" horiz-adv-x="1538" 
d="M491 1585v123h556v-123h-556zM769 -19q-166 0 -297 59t-211 160.5t-121.5 230.5t-41.5 276q0 117 25.5 223t79.5 198.5t131.5 159.5t189 105.5t245.5 38.5t245.5 -38.5t189 -105.5t131.5 -159.5t79.5 -198.5t25.5 -223q0 -147 -41.5 -276t-121.5 -230.5t-211 -160.5
t-297 -59zM769 172q93 0 168.5 28.5t126.5 77.5t85 117.5t49 146t15 165.5t-15 165.5t-49 145.5t-85 117t-126.5 77.5t-168.5 28.5t-168.5 -28.5t-126.5 -77.5t-85 -117t-49 -145.5t-15 -165.5t15 -165.5t49 -146t85 -117.5t126.5 -77.5t168.5 -28.5z" />
    <glyph glyph-name="omacron" unicode="&#x14d;" horiz-adv-x="1138" 
d="M291 1171v123h556v-123h-556zM568 -19q-147 0 -262.5 71t-177.5 189.5t-62 260.5q0 141 62 258.5t177.5 187.5t262.5 70t263 -70t178 -187.5t62 -258.5q0 -142 -62 -260.5t-178 -189.5t-263 -71zM568 160q71 0 127 27.5t90.5 75t52.5 108.5t18 131q0 145 -74 241t-214 96
q-94 0 -160.5 -47t-96.5 -121.5t-30 -168.5q0 -147 74 -244.5t213 -97.5z" />
    <glyph glyph-name="Ohungarumlaut" unicode="&#x150;" horiz-adv-x="1538" 
d="M474 1505l223 322h187l-257 -322h-153zM848 1505l222 322h221l-291 -322h-152zM769 -19q-166 0 -297 59t-211 160.5t-121.5 230.5t-41.5 276q0 117 25.5 223t79.5 198.5t131.5 159.5t189 105.5t245.5 38.5t245.5 -38.5t189 -105.5t131.5 -159.5t79.5 -198.5t25.5 -223
q0 -147 -41.5 -276t-121.5 -230.5t-211 -160.5t-297 -59zM769 172q93 0 168.5 28.5t126.5 77.5t85 117.5t49 146t15 165.5t-15 165.5t-49 145.5t-85 117t-126.5 77.5t-168.5 28.5t-168.5 -28.5t-126.5 -77.5t-85 -117t-49 -145.5t-15 -165.5t15 -165.5t49 -146t85 -117.5
t126.5 -77.5t168.5 -28.5z" />
    <glyph glyph-name="ohungarumlaut" unicode="&#x151;" horiz-adv-x="1138" 
d="M274 1091l223 322h187l-257 -322h-153zM648 1091l222 322h221l-291 -322h-152zM568 -19q-147 0 -262.5 71t-177.5 189.5t-62 260.5q0 141 62 258.5t177.5 187.5t262.5 70t263 -70t178 -187.5t62 -258.5q0 -142 -62 -260.5t-178 -189.5t-263 -71zM568 160q71 0 127 27.5
t90.5 75t52.5 108.5t18 131q0 145 -74 241t-214 96q-94 0 -160.5 -47t-96.5 -121.5t-30 -168.5q0 -147 74 -244.5t213 -97.5z" />
    <glyph glyph-name="OE" unicode="&#x152;" horiz-adv-x="2281" 
d="M2157 1215h-720v-408h662v-198h-662v-406h720v-203h-935v142q-175 -161 -453 -161q-166 0 -297 59t-211 160.5t-121.5 230.5t-41.5 276q0 117 25.5 223t79.5 198.5t131.5 159.5t189 105.5t245.5 38.5q278 0 453 -161v142h935v-198zM769 172q93 0 168.5 28.5t126.5 77.5
t85 117.5t49 146t15 165.5t-15 165.5t-49 145.5t-85 117t-126.5 77.5t-168.5 28.5t-168.5 -28.5t-126.5 -77.5t-85 -117t-49 -145.5t-15 -165.5t15 -165.5t49 -146t85 -117.5t126.5 -77.5t168.5 -28.5z" />
    <glyph glyph-name="oe" unicode="&#x153;" horiz-adv-x="1855" 
d="M1784 528q0 -65 -8 -93h-703q14 -126 82.5 -196t193.5 -70q153 0 258 113l142 -125q-161 -176 -401 -176q-257 0 -392 181q-69 -85 -168.5 -133t-219.5 -48q-147 0 -262.5 71t-177.5 189.5t-62 260.5q0 141 62 258.5t177.5 187.5t262.5 70q121 0 221 -48t168 -133
q131 181 374 181q99 0 178.5 -30.5t129.5 -79.5t84 -115t47.5 -131.5t13.5 -133.5zM1580 585q2 33 -6 63q-16 88 -80 142t-165 54q-112 0 -175.5 -70t-80.5 -189h507zM568 160q133 0 206.5 89t80.5 226v20q0 19 1 28q-6 138 -79.5 227t-208.5 89q-94 0 -160.5 -47
t-96.5 -121.5t-30 -168.5q0 -147 74 -244.5t213 -97.5z" />
    <glyph glyph-name="Racute" unicode="&#x154;" horiz-adv-x="1266" 
d="M522 1539l223 288h221l-291 -288h-153zM196 0v1413h436q135 0 243.5 -47t174 -141t65.5 -220q0 -134 -77.5 -231t-206.5 -136l393 -638h-246l-355 616q-13 0 -42 -0.5t-44 -0.5h-126v-615h-215zM413 791h238q119 4 185 59.5t66 150.5q0 101 -72 160t-196 59h-221v-429z
" />
    <glyph glyph-name="racute" unicode="&#x155;" horiz-adv-x="808" 
d="M349 1125l223 288h221l-291 -288h-153zM157 0v999h201v-182q32 95 111.5 148t170.5 53q106 0 173 -64l-94 -170q-52 33 -110 33q-47 0 -91 -21.5t-81 -63.5t-59 -115t-22 -166v-451h-199z" />
    <glyph glyph-name="uni0156" unicode="&#x156;" horiz-adv-x="1266" 
d="M196 0v1413h436q135 0 243.5 -47t174 -141t65.5 -220q0 -134 -77.5 -231t-206.5 -136l393 -638h-246l-355 616q-13 0 -42 -0.5t-44 -0.5h-126v-615h-215zM413 791h238q119 4 185 59.5t66 150.5q0 101 -72 160t-196 59h-221v-429zM450 -455l150 346h217l-245 -346h-122z
" />
    <glyph glyph-name="uni0157" unicode="&#x157;" horiz-adv-x="808" 
d="M157 0v999h201v-182q32 95 111.5 148t170.5 53q106 0 173 -64l-94 -170q-52 33 -110 33q-47 0 -91 -21.5t-81 -63.5t-59 -115t-22 -166v-451h-199zM163 -455l150 346h217l-245 -346h-122z" />
    <glyph glyph-name="Rcaron" unicode="&#x158;" horiz-adv-x="1266" 
d="M622 1503l-311 324h162l149 -155l149 155h163zM196 0v1413h436q135 0 243.5 -47t174 -141t65.5 -220q0 -134 -77.5 -231t-206.5 -136l393 -638h-246l-355 616q-13 0 -42 -0.5t-44 -0.5h-126v-615h-215zM413 791h238q119 4 185 59.5t66 150.5q0 101 -72 160t-196 59h-221
v-429z" />
    <glyph glyph-name="rcaron" unicode="&#x159;" horiz-adv-x="808" 
d="M449 1089l-311 324h162l149 -155l149 155h163zM157 0v999h201v-182q32 95 111.5 148t170.5 53q106 0 173 -64l-94 -170q-52 33 -110 33q-47 0 -91 -21.5t-81 -63.5t-59 -115t-22 -166v-451h-199z" />
    <glyph glyph-name="Sacute" unicode="&#x15a;" horiz-adv-x="1141" 
d="M475 1539l223 288h221l-291 -288h-153zM586 -15q-196 0 -344 106.5t-180 299.5l213 54q16 -132 101.5 -200.5t213.5 -68.5q121 0 191 59t70 150q0 51 -24 91.5t-64.5 69t-92.5 53t-110 47t-116 46.5t-110 56.5t-92.5 72.5t-64.5 99t-24 132q0 174 122.5 277t303.5 103
q135 0 243 -59.5t177 -181.5l-178 -110q-85 160 -249 160q-88 0 -146 -50t-58 -128q0 -46 24 -83t64.5 -63.5t92.5 -49t110 -44.5t116 -46.5t110 -58.5t92.5 -75.5t64.5 -102.5t24 -136q0 -126 -64.5 -222.5t-173.5 -146.5t-242 -50z" />
    <glyph glyph-name="sacute" unicode="&#x15b;" horiz-adv-x="915" 
d="M336 1125l223 288h221l-291 -288h-153zM456 -19q-150 0 -263 78t-152 197l166 73q27 -74 85 -124.5t154 -50.5q88 0 136.5 41.5t48.5 98.5q0 41 -29 68.5t-75.5 42.5t-103 28.5t-113 33t-103 48t-75.5 80.5t-29 124q0 143 104 221t257 78q124 0 219 -56t151 -158
l-160 -87q-75 137 -217 137q-71 0 -113.5 -30.5t-42.5 -77.5q0 -32 23 -56t60.5 -37.5t85.5 -28.5t97.5 -28t97.5 -37t85.5 -54.5t60.5 -82t23 -118.5q0 -80 -32 -143.5t-86 -101.5t-120 -58t-140 -20z" />
    <glyph glyph-name="Scedilla" unicode="&#x15e;" horiz-adv-x="1141" 
d="M1066 404q0 -181 -127 -294.5t-320 -123.5l-69 -97q29 -3 59 -11q148 -42 148 -182q0 -93 -63 -154.5t-159 -61.5q-74 0 -130.5 38.5t-73.5 115.5l114 48q11 -35 36 -59t59 -24q43 0 68.5 24.5t25.5 65.5q0 51 -47 83t-125 34q-9 0 -34 0.5t-42 0.5l114 184
q-168 22 -289 125.5t-149 274.5l213 54q16 -132 101.5 -200.5t213.5 -68.5q121 0 191 59t70 150q0 51 -24 91.5t-64.5 69t-92.5 53t-110 47t-116 46.5t-110 56.5t-92.5 72.5t-64.5 99t-24 132q0 174 122.5 277t303.5 103q135 0 243 -59.5t177 -181.5l-178 -110
q-85 160 -249 160q-88 0 -146 -50t-58 -128q0 -46 24 -83t64.5 -63.5t92.5 -49t110 -44.5t116 -46.5t110 -58.5t92.5 -75.5t64.5 -102.5t24 -136z" />
    <glyph glyph-name="scedilla" unicode="&#x15f;" horiz-adv-x="915" 
d="M301 746q0 -32 23 -56t60.5 -37.5t85.5 -28.5t97.5 -28t97.5 -37t85.5 -54.5t60.5 -82t23 -118.5q0 -131 -80 -211.5t-205 -103.5l-72 -100q29 -3 59 -11q148 -42 148 -182q0 -93 -63 -154.5t-159 -61.5q-74 0 -130.5 38.5t-73.5 115.5l114 48q11 -35 36 -59t59 -24
q43 0 68.5 24.5t25.5 65.5q0 51 -47 83t-125 34q-9 0 -34 0.5t-42 0.5l109 175q-138 10 -241.5 86.5t-139.5 187.5l166 73q27 -74 85 -124.5t154 -50.5q88 0 136.5 41.5t48.5 98.5q0 41 -29 68.5t-75.5 42.5t-103 28.5t-113 33t-103 48t-75.5 80.5t-29 124q0 143 104 221
t257 78q124 0 219 -56t151 -158l-160 -87q-75 137 -217 137q-71 0 -113.5 -30.5t-42.5 -77.5z" />
    <glyph glyph-name="Scaron" unicode="&#x160;" horiz-adv-x="1141" 
d="M575 1503l-311 324h162l149 -155l149 155h163zM586 -15q-196 0 -344 106.5t-180 299.5l213 54q16 -132 101.5 -200.5t213.5 -68.5q121 0 191 59t70 150q0 51 -24 91.5t-64.5 69t-92.5 53t-110 47t-116 46.5t-110 56.5t-92.5 72.5t-64.5 99t-24 132q0 174 122.5 277
t303.5 103q135 0 243 -59.5t177 -181.5l-178 -110q-85 160 -249 160q-88 0 -146 -50t-58 -128q0 -46 24 -83t64.5 -63.5t92.5 -49t110 -44.5t116 -46.5t110 -58.5t92.5 -75.5t64.5 -102.5t24 -136q0 -126 -64.5 -222.5t-173.5 -146.5t-242 -50z" />
    <glyph glyph-name="scaron" unicode="&#x161;" horiz-adv-x="915" 
d="M436 1089l-311 324h162l149 -155l149 155h163zM456 -19q-150 0 -263 78t-152 197l166 73q27 -74 85 -124.5t154 -50.5q88 0 136.5 41.5t48.5 98.5q0 41 -29 68.5t-75.5 42.5t-103 28.5t-113 33t-103 48t-75.5 80.5t-29 124q0 143 104 221t257 78q124 0 219 -56t151 -158
l-160 -87q-75 137 -217 137q-71 0 -113.5 -30.5t-42.5 -77.5q0 -32 23 -56t60.5 -37.5t85.5 -28.5t97.5 -28t97.5 -37t85.5 -54.5t60.5 -82t23 -118.5q0 -80 -32 -143.5t-86 -101.5t-120 -58t-140 -20z" />
    <glyph glyph-name="uni0162" unicode="&#x162;" horiz-adv-x="1204" 
d="M495 0v1220h-460v193h1134v-193h-459v-1220h-215zM572 -520q-74 0 -130.5 38.5t-73.5 115.5l114 48q11 -35 36 -59t59 -24q43 0 68.5 24.5t25.5 65.5q0 51 -47 83t-125 34q-9 0 -34 0.5t-42 0.5l119 191h123l-78 -109q29 -3 59 -11q148 -42 148 -182q0 -93 -63 -154.5
t-159 -61.5z" />
    <glyph glyph-name="uni0163" unicode="&#x163;" horiz-adv-x="737" 
d="M532 -122q148 -42 148 -182q0 -93 -63 -154.5t-159 -61.5q-74 0 -130.5 38.5t-73.5 115.5l114 48q11 -35 36 -59t59 -24q43 0 68.5 24.5t25.5 65.5q0 51 -47 83t-125 34q-9 0 -34 0.5t-42 0.5l112 180q-108 19 -167 95t-59 196v547h-164v174h167v262l203 148v-410h260
v-174h-260v-512q0 -149 128 -149q60 0 131 32l1 -187q-51 -19 -120 -26l-68 -94q29 -3 59 -11z" />
    <glyph glyph-name="Tcaron" unicode="&#x164;" horiz-adv-x="1204" 
d="M602 1503l-311 324h162l149 -155l149 155h163zM495 0v1220h-460v193h1134v-193h-459v-1220h-215z" />
    <glyph glyph-name="tcaron" unicode="&#x165;" horiz-adv-x="737" 
d="M517 1120l115 443h217l-209 -443h-123zM493 -19q-141 0 -219.5 79t-78.5 218v547h-164v174h167v262l203 148v-410h260v-174h-260v-512q0 -149 128 -149q60 0 131 32l1 -187q-75 -28 -168 -28z" />
    <glyph glyph-name="Tbar" unicode="&#x166;" horiz-adv-x="1204" 
d="M1169 1220h-459v-443h210v-140h-210v-637h-215v637h-210v140h210v443h-460v193h1134v-193z" />
    <glyph glyph-name="tbar" unicode="&#x167;" horiz-adv-x="737" 
d="M670 430h-269v-117q0 -149 128 -149q60 0 131 32l1 -187q-75 -28 -168 -28q-141 0 -219.5 79t-78.5 218v152h-160v140h160v255h-164v174h167v262l203 148v-410h260v-174h-260v-255h269v-140z" />
    <glyph glyph-name="Utilde" unicode="&#x168;" horiz-adv-x="1387" 
d="M823 1534q-45 0 -80.5 16t-58.5 39t-42 45.5t-40.5 38.5t-44.5 16q-37 0 -57.5 -38t-20.5 -107h-120q0 130 54.5 201.5t149.5 71.5q40 0 74.5 -16t57.5 -38.5t43 -44.5t41.5 -38t44.5 -16q32 0 52.5 39t20.5 107h125q0 -130 -53.5 -203t-145.5 -73zM693 -19
q-267 0 -397.5 148t-130.5 415v869h215v-845q0 -191 71 -285t242 -94q172 0 243.5 94.5t71.5 286.5v843h215v-859q0 -273 -131.5 -423t-398.5 -150z" />
    <glyph glyph-name="utilde" unicode="&#x169;" horiz-adv-x="1149" 
d="M706 1120q-45 0 -80.5 16t-58.5 39t-42 45.5t-40.5 38.5t-44.5 16q-37 0 -57.5 -38t-20.5 -107h-120q0 130 54.5 201.5t149.5 71.5q40 0 74.5 -16t57.5 -38.5t43 -44.5t41.5 -38t44.5 -16q32 0 52.5 39t20.5 107h125q0 -130 -53.5 -203t-145.5 -73zM486 -19
q-92 0 -162 33.5t-111.5 91.5t-62.5 129t-21 153v611h205v-580q0 -114 54.5 -180.5t155.5 -66.5q114 0 178.5 67t64.5 199v561h205v-999h-205v134q-53 -76 -133.5 -114.5t-167.5 -38.5z" />
    <glyph glyph-name="Umacron" unicode="&#x16a;" horiz-adv-x="1387" 
d="M413 1585v123h556v-123h-556zM693 -19q-267 0 -397.5 148t-130.5 415v869h215v-845q0 -191 71 -285t242 -94q172 0 243.5 94.5t71.5 286.5v843h215v-859q0 -273 -131.5 -423t-398.5 -150z" />
    <glyph glyph-name="umacron" unicode="&#x16b;" horiz-adv-x="1149" 
d="M296 1171v123h556v-123h-556zM486 -19q-92 0 -162 33.5t-111.5 91.5t-62.5 129t-21 153v611h205v-580q0 -114 54.5 -180.5t155.5 -66.5q114 0 178.5 67t64.5 199v561h205v-999h-205v134q-53 -76 -133.5 -114.5t-167.5 -38.5z" />
    <glyph glyph-name="Uring" unicode="&#x16e;" horiz-adv-x="1387" 
d="M689 1492q-91 0 -154.5 64.5t-63.5 154.5t63.5 153.5t154.5 63.5q89 0 154 -63t65 -154t-64 -155t-155 -64zM689 1604q46 0 76 30.5t30 77.5q0 45 -29 74.5t-77 29.5q-46 0 -75.5 -29.5t-29.5 -74.5q0 -46 30.5 -77t74.5 -31zM693 -19q-267 0 -397.5 148t-130.5 415v869
h215v-845q0 -191 71 -285t242 -94q172 0 243.5 94.5t71.5 286.5v843h215v-859q0 -273 -131.5 -423t-398.5 -150z" />
    <glyph glyph-name="uring" unicode="&#x16f;" horiz-adv-x="1149" 
d="M572 1078q-91 0 -154.5 64.5t-63.5 154.5t63.5 153.5t154.5 63.5q89 0 154 -63t65 -154t-63.5 -155t-155.5 -64zM572 1190q46 0 76 30.5t30 77.5q0 45 -29 74.5t-77 29.5q-46 0 -75.5 -29.5t-29.5 -74.5q0 -46 30.5 -77t74.5 -31zM486 -19q-92 0 -162 33.5t-111.5 91.5
t-62.5 129t-21 153v611h205v-580q0 -114 54.5 -180.5t155.5 -66.5q114 0 178.5 67t64.5 199v561h205v-999h-205v134q-53 -76 -133.5 -114.5t-167.5 -38.5z" />
    <glyph glyph-name="Uhungarumlaut" unicode="&#x170;" horiz-adv-x="1387" 
d="M396 1505l223 322h187l-257 -322h-153zM770 1505l222 322h221l-291 -322h-152zM693 -19q-267 0 -397.5 148t-130.5 415v869h215v-845q0 -191 71 -285t242 -94q172 0 243.5 94.5t71.5 286.5v843h215v-859q0 -273 -131.5 -423t-398.5 -150z" />
    <glyph glyph-name="uhungarumlaut" unicode="&#x171;" horiz-adv-x="1149" 
d="M279 1091l223 322h187l-257 -322h-153zM653 1091l222 322h221l-291 -322h-152zM486 -19q-92 0 -162 33.5t-111.5 91.5t-62.5 129t-21 153v611h205v-580q0 -114 54.5 -180.5t155.5 -66.5q114 0 178.5 67t64.5 199v561h205v-999h-205v134q-53 -76 -133.5 -114.5
t-167.5 -38.5z" />
    <glyph glyph-name="Uogonek" unicode="&#x172;" horiz-adv-x="1387" 
d="M1008 1413h215v-859q0 -213 -80.5 -353t-243.5 -191q-142 -84 -142 -188q0 -99 89 -99q71 0 118 65l105 -72q-80 -121 -218 -121q-96 0 -157.5 55t-61.5 144q0 103 86 187h-25q-267 0 -397.5 148t-130.5 415v869h215v-845q0 -191 71 -285t242 -94q172 0 243.5 94.5
t71.5 286.5v843z" />
    <glyph glyph-name="uogonek" unicode="&#x173;" horiz-adv-x="1149" 
d="M975 -259l105 -72q-80 -121 -218 -121q-96 0 -157.5 55t-61.5 144q0 53 23 101t55.5 79t60 49t44.5 24h-39v134q-53 -76 -133.5 -114.5t-167.5 -38.5q-92 0 -162 33.5t-111.5 91.5t-62.5 129t-21 153v611h205v-580q0 -114 54.5 -180.5t155.5 -66.5q114 0 178.5 67
t64.5 199v561h205v-999q-23 -6 -56.5 -23.5t-73.5 -45.5t-67 -69.5t-27 -86.5q0 -99 89 -99q71 0 118 65z" />
    <glyph glyph-name="Wcircumflex" unicode="&#x174;" horiz-adv-x="1995" 
d="M686 1512l311 341l312 -341h-162l-150 164l-148 -164h-163zM461 0l-418 1413h224l315 -1099l331 1019h169l331 -1019l316 1099h223l-418 -1413h-210l-326 994l-327 -994h-210z" />
    <glyph glyph-name="wcircumflex" unicode="&#x175;" horiz-adv-x="1473" 
d="M426 1103l311 341l312 -341h-162l-150 164l-148 -164h-163zM327 0l-302 999h220l187 -684l215 684h179l215 -683l188 683h221l-304 -999h-188l-221 709l-223 -709h-187z" />
    <glyph glyph-name="Ycircumflex" unicode="&#x176;" horiz-adv-x="1322" 
d="M346 1517l311 341l312 -341h-162l-150 164l-148 -164h-163zM550 0v547l-533 866h260l382 -659l384 659h262l-532 -866v-547h-223z" />
    <glyph glyph-name="ycircumflex" unicode="&#x177;" horiz-adv-x="1028" 
d="M200 1103l311 341l312 -341h-162l-150 164l-148 -164h-163zM230 -429l180 451l-402 977h227l285 -740l273 740h227l-564 -1428h-226z" />
    <glyph glyph-name="Ydieresis" unicode="&#x178;" horiz-adv-x="1322" 
d="M378 1609v218h174v-218h-174zM763 1609v218h174v-218h-174zM550 0v547l-533 866h260l382 -659l384 659h262l-532 -866v-547h-223z" />
    <glyph glyph-name="Zacute" unicode="&#x179;" horiz-adv-x="1283" 
d="M980 1827l-291 -288h-153l223 288h221zM1200 1413v-159l-832 -1059h831v-195h-1129v152l835 1063h-789v198h1084z" />
    <glyph glyph-name="zacute" unicode="&#x17a;" horiz-adv-x="995" 
d="M833 1413l-291 -288h-153l223 288h221zM922 999v-151l-580 -674h579v-174h-863v140l600 685h-570v174h834z" />
    <glyph glyph-name="Zdotaccent" unicode="&#x17b;" horiz-adv-x="1283" 
d="M745 1827v-218h-217v218h217zM1200 1413v-159l-832 -1059h831v-195h-1129v152l835 1063h-789v198h1084z" />
    <glyph glyph-name="zdotaccent" unicode="&#x17c;" horiz-adv-x="995" 
d="M598 1413v-218h-217v218h217zM922 999v-151l-580 -674h579v-174h-863v140l600 685h-570v174h834z" />
    <glyph glyph-name="Zcaron" unicode="&#x17d;" horiz-adv-x="1283" 
d="M948 1827l-312 -324l-311 324h162l149 -155l149 155h163zM1200 1413v-159l-832 -1059h831v-195h-1129v152l835 1063h-789v198h1084z" />
    <glyph glyph-name="zcaron" unicode="&#x17e;" horiz-adv-x="995" 
d="M801 1413l-312 -324l-311 324h162l149 -155l149 155h163zM922 999v-151l-580 -674h579v-174h-863v140l600 685h-570v174h834z" />
    <glyph glyph-name="florin" unicode="&#x192;" horiz-adv-x="970" 
d="M95 -442v157q150 0 208.5 62t58.5 226v841h-176v155h176v127q0 139 83 228.5t206 89.5q121 0 239 -101l-113 -132q-38 33 -64.5 46t-61.5 13q-49 0 -81.5 -36.5t-32.5 -107.5v-127h243v-155h-243v-858q0 -220 -112 -324t-330 -104z" />
    <glyph glyph-name="uni01C3" unicode="&#x1c3;" horiz-adv-x="587" 
d="M215 418l-24 995h205l-24 -995h-157zM181 0v249h225v-249h-225z" />
    <glyph glyph-name="uni01C4" unicode="&#x1c4;" horiz-adv-x="2688" 
d="M2353 1827l-312 -324l-311 324h162l149 -155l149 155h163zM596 1413q356 0 543.5 -185.5t187.5 -531.5q0 -332 -190 -514t-543 -182h-398v1413h400zM2605 1413v-159l-832 -1059h831v-195h-1129v152l835 1063h-789v198h1084zM574 198q261 0 399.5 121t138.5 386
q0 267 -123.5 388.5t-395.5 121.5h-182v-1017h163z" />
    <glyph glyph-name="uni01C5" unicode="&#x1c5;" horiz-adv-x="2426" 
d="M596 1413q356 0 543.5 -185.5t187.5 -531.5q0 -332 -190 -514t-543 -182h-398v1413h400zM2232 1413l-312 -324l-311 324h162l149 -155l149 155h163zM574 198q261 0 399.5 121t138.5 386q0 267 -123.5 388.5t-395.5 121.5h-182v-1017h163zM2353 999v-151l-580 -674h579
v-174h-863v140l600 685h-570v174h834z" />
    <glyph glyph-name="uni01C6" unicode="&#x1c6;" horiz-adv-x="2181" 
d="M817 859v554h210v-1413h-193l-8 151q-50 -83 -133 -126.5t-182 -43.5q-101 0 -184.5 41.5t-138 112.5t-84 165t-29.5 200q0 141 50 257.5t150 188.5t233 72q95 0 177.5 -41t131.5 -118zM1987 1413l-312 -324l-311 324h162l149 -155l149 155h163zM2108 999v-151l-580 -674
h579v-174h-863v140l600 685h-570v174h834zM561 169q131 0 202 92t71 239q0 146 -71 238t-202 92q-132 0 -204 -93t-72 -237q0 -146 72 -238.5t204 -92.5z" />
    <glyph glyph-name="uni01C7" unicode="&#x1c7;" horiz-adv-x="2253" 
d="M196 0v1413h215v-1210h618v-203h-833zM1618 -19q-204 0 -329 128t-139 322l211 24q10 -123 74.5 -198.5t182.5 -75.5q141 0 196 80t55 247v707h-546v198h761v-901q0 -119 -26.5 -214t-81 -167t-145.5 -111t-213 -39z" />
    <glyph glyph-name="uni01C8" unicode="&#x1c8;" horiz-adv-x="1603" 
d="M196 0v1413h215v-1210h618v-203h-833zM1231 1195v218h218v-218h-218zM1162 -437q-88 0 -170 33l53 179q58 -24 97 -24q94 0 94 122v1126h208v-1111q0 -145 -71 -235t-211 -90z" />
    <glyph glyph-name="uni01C9" unicode="&#x1c9;" horiz-adv-x="1093" 
d="M352 -19q-98 0 -149.5 51.5t-51.5 170.5v1210h206v-1154q0 -92 90 -92q25 0 72 7l1 -174q-93 -19 -168 -19zM721 1195v218h218v-218h-218zM652 -437q-88 0 -170 33l53 179q58 -24 97 -24q94 0 94 122v1126h208v-1111q0 -145 -71 -235t-211 -90z" />
    <glyph glyph-name="uni01CA" unicode="&#x1ca;" horiz-adv-x="2596" 
d="M1043 357v1056h206v-1413h-217l-629 1060v-1060h-207v1413h216zM1666 1413h761v-901q0 -119 -26.5 -214t-81 -167t-145.5 -111t-213 -39q-204 0 -329 128t-139 322l211 24q10 -123 74.5 -198.5t182.5 -75.5q141 0 196 80t55 247v707h-546v198z" />
    <glyph glyph-name="uni01CB" unicode="&#x1cb;" horiz-adv-x="1973" 
d="M1043 357v1056h206v-1413h-217l-629 1060v-1060h-207v1413h216zM1601 1413h218v-218h-218v218zM1606 -127v1126h208v-1111q0 -145 -71 -235t-211 -90q-88 0 -170 33l53 179q58 -24 97 -24q94 0 94 122z" />
    <glyph glyph-name="uni01CC" unicode="&#x1cc;" horiz-adv-x="1677" 
d="M1305 1195v218h218v-218h-218zM157 0v999h206v-134q53 76 133 114.5t167 38.5q91 0 161.5 -33.5t112 -91.5t63 -129t21.5 -153v-611h-206v580q0 113 -54.5 180t-155.5 67q-114 0 -178 -67t-64 -199v-561h-206zM1236 -437q-88 0 -170 33l53 179q58 -24 97 -24q94 0 94 122
v1126h208v-1111q0 -145 -71 -235t-211 -90z" />
    <glyph glyph-name="uni01CD" unicode="&#x1cd;" horiz-adv-x="1329" 
d="M663 1503l-311 324h162l149 -155l149 155h163zM31 0l552 1413h165l550 -1413h-232l-115 318h-568l-117 -318h-235zM450 503h433l-216 597z" />
    <glyph glyph-name="uni01CE" unicode="&#x1ce;" horiz-adv-x="1057" 
d="M814 1413l-312 -324l-311 324h162l149 -155l149 155h163zM510 1018q198 0 309 -111.5t111 -298.5v-608h-170l-14 156q-48 -84 -138.5 -129.5t-190.5 -45.5q-157 0 -256.5 85.5t-99.5 234.5q0 288 404 288h278q-3 133 -53.5 190.5t-178.5 57.5q-162 0 -253 -148l-158 114
q76 105 174.5 160t235.5 55zM458 157q117 0 192.5 72t92.5 179v31h-266q-100 0 -152.5 -40t-52.5 -104q0 -63 48.5 -100.5t137.5 -37.5z" />
    <glyph glyph-name="uni01CF" unicode="&#x1cf;" horiz-adv-x="608" 
d="M302 1503l-311 324h162l149 -155l149 155h163zM196 0v1413h215v-1413h-215z" />
    <glyph glyph-name="uni01D0" unicode="&#x1d0;" horiz-adv-x="520" 
d="M259 1089l-311 324h162l149 -155l149 155h163zM157 0v999h206v-999h-206z" />
    <glyph glyph-name="uni01D1" unicode="&#x1d1;" horiz-adv-x="1538" 
d="M768 1503l-311 324h162l149 -155l149 155h163zM769 -19q-166 0 -297 59t-211 160.5t-121.5 230.5t-41.5 276q0 117 25.5 223t79.5 198.5t131.5 159.5t189 105.5t245.5 38.5t245.5 -38.5t189 -105.5t131.5 -159.5t79.5 -198.5t25.5 -223q0 -147 -41.5 -276t-121.5 -230.5
t-211 -160.5t-297 -59zM769 172q93 0 168.5 28.5t126.5 77.5t85 117.5t49 146t15 165.5t-15 165.5t-49 145.5t-85 117t-126.5 77.5t-168.5 28.5t-168.5 -28.5t-126.5 -77.5t-85 -117t-49 -145.5t-15 -165.5t15 -165.5t49 -146t85 -117.5t126.5 -77.5t168.5 -28.5z" />
    <glyph glyph-name="uni01D2" unicode="&#x1d2;" horiz-adv-x="1138" 
d="M568 1089l-311 324h162l149 -155l149 155h163zM568 -19q-147 0 -262.5 71t-177.5 189.5t-62 260.5q0 141 62 258.5t177.5 187.5t262.5 70t263 -70t178 -187.5t62 -258.5q0 -142 -62 -260.5t-178 -189.5t-263 -71zM568 160q71 0 127 27.5t90.5 75t52.5 108.5t18 131
q0 145 -74 241t-214 96q-94 0 -160.5 -47t-96.5 -121.5t-30 -168.5q0 -147 74 -244.5t213 -97.5z" />
    <glyph glyph-name="uni01D3" unicode="&#x1d3;" horiz-adv-x="1387" 
d="M690 1503l-311 324h162l149 -155l149 155h163zM693 -19q-267 0 -397.5 148t-130.5 415v869h215v-845q0 -191 71 -285t242 -94q172 0 243.5 94.5t71.5 286.5v843h215v-859q0 -273 -131.5 -423t-398.5 -150z" />
    <glyph glyph-name="uni01D4" unicode="&#x1d4;" horiz-adv-x="1149" 
d="M573 1089l-311 324h162l149 -155l149 155h163zM486 -19q-92 0 -162 33.5t-111.5 91.5t-62.5 129t-21 153v611h205v-580q0 -114 54.5 -180.5t155.5 -66.5q114 0 178.5 67t64.5 199v561h205v-999h-205v134q-53 -76 -133.5 -114.5t-167.5 -38.5z" />
    <glyph glyph-name="uni01D5" unicode="&#x1d5;" horiz-adv-x="1387" 
d="M413 1999v123h556v-123h-556zM410 1609v218h174v-218h-174zM795 1609v218h174v-218h-174zM693 -19q-267 0 -397.5 148t-130.5 415v869h215v-845q0 -191 71 -285t242 -94q172 0 243.5 94.5t71.5 286.5v843h215v-859q0 -273 -131.5 -423t-398.5 -150z" />
    <glyph glyph-name="uni01D6" unicode="&#x1d6;" horiz-adv-x="1149" 
d="M296 1585v123h556v-123h-556zM293 1195v218h174v-218h-174zM678 1195v218h174v-218h-174zM486 -19q-92 0 -162 33.5t-111.5 91.5t-62.5 129t-21 153v611h205v-580q0 -114 54.5 -180.5t155.5 -66.5q114 0 178.5 67t64.5 199v561h205v-999h-205v134q-53 -76 -133.5 -114.5
t-167.5 -38.5z" />
    <glyph glyph-name="uni01D7" unicode="&#x1d7;" horiz-adv-x="1387" 
d="M590 1953l223 288h221l-291 -288h-153zM410 1609v218h174v-218h-174zM795 1609v218h174v-218h-174zM693 -19q-267 0 -397.5 148t-130.5 415v869h215v-845q0 -191 71 -285t242 -94q172 0 243.5 94.5t71.5 286.5v843h215v-859q0 -273 -131.5 -423t-398.5 -150z" />
    <glyph glyph-name="uni01D8" unicode="&#x1d8;" horiz-adv-x="1149" 
d="M473 1539l223 288h221l-291 -288h-153zM293 1195v218h174v-218h-174zM678 1195v218h174v-218h-174zM486 -19q-92 0 -162 33.5t-111.5 91.5t-62.5 129t-21 153v611h205v-580q0 -114 54.5 -180.5t155.5 -66.5q114 0 178.5 67t64.5 199v561h205v-999h-205v134
q-53 -76 -133.5 -114.5t-167.5 -38.5z" />
    <glyph glyph-name="uni01D9" unicode="&#x1d9;" horiz-adv-x="1387" 
d="M690 1917l-311 324h162l149 -155l149 155h163zM410 1609v218h174v-218h-174zM795 1609v218h174v-218h-174zM693 -19q-267 0 -397.5 148t-130.5 415v869h215v-845q0 -191 71 -285t242 -94q172 0 243.5 94.5t71.5 286.5v843h215v-859q0 -273 -131.5 -423t-398.5 -150z" />
    <glyph glyph-name="uni01DA" unicode="&#x1da;" horiz-adv-x="1149" 
d="M573 1503l-311 324h162l149 -155l149 155h163zM293 1195v218h174v-218h-174zM678 1195v218h174v-218h-174zM486 -19q-92 0 -162 33.5t-111.5 91.5t-62.5 129t-21 153v611h205v-580q0 -114 54.5 -180.5t155.5 -66.5q114 0 178.5 67t64.5 199v561h205v-999h-205v134
q-53 -76 -133.5 -114.5t-167.5 -38.5z" />
    <glyph glyph-name="uni01DB" unicode="&#x1db;" horiz-adv-x="1387" 
d="M635 1936l-292 305h221l223 -305h-152zM410 1609v218h174v-218h-174zM795 1609v218h174v-218h-174zM693 -19q-267 0 -397.5 148t-130.5 415v869h215v-845q0 -191 71 -285t242 -94q172 0 243.5 94.5t71.5 286.5v843h215v-859q0 -273 -131.5 -423t-398.5 -150z" />
    <glyph glyph-name="uni01DC" unicode="&#x1dc;" horiz-adv-x="1149" 
d="M518 1522l-292 305h221l223 -305h-152zM293 1195v218h174v-218h-174zM678 1195v218h174v-218h-174zM486 -19q-92 0 -162 33.5t-111.5 91.5t-62.5 129t-21 153v611h205v-580q0 -114 54.5 -180.5t155.5 -66.5q114 0 178.5 67t64.5 199v561h205v-999h-205v134
q-53 -76 -133.5 -114.5t-167.5 -38.5z" />
    <glyph glyph-name="uni01DD" unicode="&#x1dd;" horiz-adv-x="1071" 
d="M507 1018q120 0 215.5 -41.5t155.5 -113t91 -163.5t31 -196q0 -103 -30 -195.5t-87 -166.5t-149.5 -117.5t-209.5 -43.5q-99 0 -178.5 30.5t-129.5 79.5t-84 115t-47.5 131.5t-13.5 133.5q0 65 8 93h703q-14 126 -82.5 196t-193.5 70q-153 0 -258 -113l-142 125
q161 176 401 176zM782 414h-507q-1 -33 6 -63q16 -88 80 -142t165 -54q112 0 175.5 70t80.5 189z" />
    <glyph glyph-name="uni01EB" unicode="&#x1eb;" horiz-adv-x="1138" 
d="M683 -7q-29 -11 -60 -29t-65.5 -45.5t-56.5 -65.5t-22 -78q0 -99 89 -99q71 0 118 65l105 -72q-80 -121 -218 -121q-96 0 -157.5 55t-61.5 144q0 82 47 142.5t104 95.5q-130 15 -231 88t-154.5 185t-53.5 244q0 141 62 258.5t177.5 187.5t262.5 70t263 -70t178 -187.5
t62 -258.5q0 -187 -106 -328.5t-282 -180.5zM281 502q0 -147 74 -244.5t213 -97.5q71 0 127 27.5t90.5 75t52.5 108.5t18 131q0 145 -74 241t-214 96q-94 0 -160.5 -47t-96.5 -121.5t-30 -168.5z" />
    <glyph glyph-name="uni01F1" unicode="&#x1f1;" horiz-adv-x="2688" 
d="M596 1413q356 0 543.5 -185.5t187.5 -531.5q0 -332 -190 -514t-543 -182h-398v1413h400zM2605 1413v-159l-832 -1059h831v-195h-1129v152l835 1063h-789v198h1084zM574 198q261 0 399.5 121t138.5 386q0 267 -123.5 388.5t-395.5 121.5h-182v-1017h163z" />
    <glyph glyph-name="uni01F2" unicode="&#x1f2;" horiz-adv-x="2426" 
d="M596 1413q356 0 543.5 -185.5t187.5 -531.5q0 -332 -190 -514t-543 -182h-398v1413h400zM574 198q261 0 399.5 121t138.5 386q0 267 -123.5 388.5t-395.5 121.5h-182v-1017h163zM2353 999v-151l-580 -674h579v-174h-863v140l600 685h-570v174h834z" />
    <glyph glyph-name="uni01F3" unicode="&#x1f3;" horiz-adv-x="2181" 
d="M817 859v554h210v-1413h-193l-8 151q-50 -83 -133 -126.5t-182 -43.5q-101 0 -184.5 41.5t-138 112.5t-84 165t-29.5 200q0 141 50 257.5t150 188.5t233 72q95 0 177.5 -41t131.5 -118zM2108 999v-151l-580 -674h579v-174h-863v140l600 685h-570v174h834zM561 169
q131 0 202 92t71 239q0 146 -71 238t-202 92q-132 0 -204 -93t-72 -237q0 -146 72 -238.5t204 -92.5z" />
    <glyph glyph-name="Oslashacute" unicode="&#x1fe;" horiz-adv-x="1538" 
d="M1112 1827l-291 -288h-153l223 288h221zM1201 1289q118 -99 178.5 -251t60.5 -331q0 -147 -41.5 -276t-121.5 -230.5t-211 -160.5t-297 -59q-181 0 -323 71l-32 -52h-156l77 126q-117 99 -177 251t-60 330q0 117 25.5 223t79.5 198.5t131.5 159.5t189 105.5t245.5 38.5
q182 0 322 -70l31 51h155zM325 707q0 -256 121 -399l540 883q-92 50 -217 50q-93 0 -168.5 -28.5t-126.5 -77.5t-85 -117t-49 -145.5t-15 -165.5zM769 172q93 0 168.5 28.5t126.5 77.5t85 117.5t49 146t15 165.5q0 258 -123 400l-540 -884q93 -51 219 -51z" />
    <glyph glyph-name="oslashacute" unicode="&#x1ff;" horiz-adv-x="1138" 
d="M912 1413l-291 -288h-153l223 288h221zM878 916q91 -71 142 -179.5t51 -234.5q0 -142 -62 -260.5t-178 -189.5t-263 -71q-126 0 -229 53l-21 -34h-110l51 84q-91 72 -142 181.5t-51 236.5q0 141 62 258.5t177.5 187.5t262.5 70q124 0 230 -52l21 34h110zM281 502
q0 -159 80 -252l341 559q-58 30 -134 30q-94 0 -160.5 -47t-96.5 -121.5t-30 -168.5zM568 160q71 0 127 27.5t90.5 75t52.5 108.5t18 131q0 156 -80 248l-341 -559q57 -31 133 -31z" />
    <glyph glyph-name="uni0218" unicode="&#x218;" horiz-adv-x="1141" 
d="M586 -15q-196 0 -344 106.5t-180 299.5l213 54q16 -132 101.5 -200.5t213.5 -68.5q121 0 191 59t70 150q0 51 -24 91.5t-64.5 69t-92.5 53t-110 47t-116 46.5t-110 56.5t-92.5 72.5t-64.5 99t-24 132q0 174 122.5 277t303.5 103q135 0 243 -59.5t177 -181.5l-178 -110
q-85 160 -249 160q-88 0 -146 -50t-58 -128q0 -46 24 -83t64.5 -63.5t92.5 -49t110 -44.5t116 -46.5t110 -58.5t92.5 -75.5t64.5 -102.5t24 -136q0 -126 -64.5 -222.5t-173.5 -146.5t-242 -50zM325 -455l150 346h217l-245 -346h-122z" />
    <glyph glyph-name="uni0219" unicode="&#x219;" horiz-adv-x="915" 
d="M456 -19q-150 0 -263 78t-152 197l166 73q27 -74 85 -124.5t154 -50.5q88 0 136.5 41.5t48.5 98.5q0 41 -29 68.5t-75.5 42.5t-103 28.5t-113 33t-103 48t-75.5 80.5t-29 124q0 143 104 221t257 78q124 0 219 -56t151 -158l-160 -87q-75 137 -217 137q-71 0 -113.5 -30.5
t-42.5 -77.5q0 -32 23 -56t60.5 -37.5t85.5 -28.5t97.5 -28t97.5 -37t85.5 -54.5t60.5 -82t23 -118.5q0 -80 -32 -143.5t-86 -101.5t-120 -58t-140 -20zM252 -455l150 346h217l-245 -346h-122z" />
    <glyph glyph-name="uni021A" unicode="&#x21a;" horiz-adv-x="1204" 
d="M495 0v1220h-460v193h1134v-193h-459v-1220h-215zM362 -455l150 346h217l-245 -346h-122z" />
    <glyph glyph-name="uni021B" unicode="&#x21b;" horiz-adv-x="737" 
d="M493 -19q-141 0 -219.5 79t-78.5 218v547h-164v174h167v262l203 148v-410h260v-174h-260v-512q0 -149 128 -149q60 0 131 32l1 -187q-75 -28 -168 -28zM248 -455l150 346h217l-245 -346h-122z" />
    <glyph glyph-name="uni0237" unicode="&#x237;" horiz-adv-x="527" 
d="M86 -437q-88 0 -170 33l53 179q58 -24 97 -24q94 0 94 122v1126h208v-1111q0 -145 -71 -235t-211 -90z" />
    <glyph glyph-name="uni0250" unicode="&#x250;" horiz-adv-x="1057" 
d="M546 162q162 0 253 148l158 -114q-76 -105 -174.5 -160t-235.5 -55q-198 0 -309 111.5t-111 298.5v608h170l14 -156q48 84 138.5 129.5t190.5 45.5q157 0 256.5 -85.5t99.5 -234.5q0 -288 -404 -288h-278q3 -133 53.5 -190.5t178.5 -57.5zM599 842q-117 0 -192.5 -72
t-92.5 -179v-31h266q100 0 152.5 40t52.5 104q0 63 -48.5 100.5t-137.5 37.5z" />
    <glyph glyph-name="uni0254" unicode="&#x254;" horiz-adv-x="1008" 
d="M465 -19q-145 0 -253 76.5t-157 213.5l188 71q24 -79 83.5 -126t140.5 -47q67 0 118.5 27t81.5 74t45 104.5t15 123.5q0 88 -25.5 160.5t-86 122t-148.5 49.5q-80 0 -140 -48t-86 -128l-196 76q55 142 165 215t257 73q115 0 206.5 -44t148 -118t86 -165.5t29.5 -192.5
q0 -103 -30.5 -195.5t-87.5 -164.5t-148.5 -114.5t-205.5 -42.5z" />
    <glyph glyph-name="uni0258" unicode="&#x258;" horiz-adv-x="1071" 
d="M507 -19q-240 0 -401 176l142 125q105 -113 258 -113q125 0 193.5 70t82.5 196h-703q-8 28 -8 93q0 68 13.5 133.5t47.5 131.5t84 115t129.5 79.5t178.5 30.5q117 0 209.5 -43.5t149.5 -117.5t87 -166.5t30 -195.5q0 -104 -31 -196t-91 -163.5t-155.5 -113t-215.5 -41.5z
M782 585q-17 119 -80.5 189t-175.5 70q-101 0 -165 -54t-80 -142q-7 -30 -6 -63h507z" />
    <glyph glyph-name="uni0259" unicode="&#x259;" horiz-adv-x="1071" 
d="M507 1018q120 0 215.5 -41.5t155.5 -113t91 -163.5t31 -196q0 -103 -30 -195.5t-87 -166.5t-149.5 -117.5t-209.5 -43.5q-99 0 -178.5 30.5t-129.5 79.5t-84 115t-47.5 131.5t-13.5 133.5q0 65 8 93h703q-14 126 -82.5 196t-193.5 70q-153 0 -258 -113l-142 125
q161 176 401 176zM782 414h-507q-1 -33 6 -63q16 -88 80 -142t165 -54q112 0 175.5 70t80.5 189z" />
    <glyph glyph-name="uni0261" unicode="&#x261;" horiz-adv-x="1174" 
d="M550 -474q-294 0 -440 227l158 115q36 -70 110 -116t175 -46q122 0 189 75.5t67 228.5v148q-50 -78 -130.5 -119t-175.5 -41q-134 0 -235 71.5t-151.5 186.5t-50.5 253q0 102 29.5 193.5t84 162t137.5 112t182 41.5q95 0 177.5 -41t132.5 -118v140h208v-989
q0 -230 -124 -357t-343 -127zM552 189q132 0 203 89.5t71 230.5q0 140 -71.5 230.5t-202.5 90.5t-203.5 -91.5t-72.5 -229.5q0 -139 72.5 -229.5t203.5 -90.5z" />
    <glyph glyph-name="circumflex" unicode="&#x2c6;" horiz-adv-x="673" 
d="M25 1103l311 341l312 -341h-162l-150 164l-148 -164h-163z" />
    <glyph glyph-name="caron" unicode="&#x2c7;" horiz-adv-x="679" 
d="M340 1089l-311 324h162l149 -155l149 155h163z" />
    <glyph glyph-name="uni02D0" unicode="&#x2d0;" horiz-adv-x="567" 
d="M288 546l-248 453l483 8zM44 -8l236 461l247 -453z" />
    <glyph glyph-name="uni02D1" unicode="&#x2d1;" horiz-adv-x="572" 
d="M290 222l-247 455l483 8z" />
    <glyph glyph-name="breve" unicode="&#x2d8;" horiz-adv-x="826" 
d="M413 1144q-312 0 -312 269h147q0 -72 45 -109t120 -37q77 0 121 37.5t44 108.5h147q0 -269 -312 -269z" />
    <glyph glyph-name="dotaccent" unicode="&#x2d9;" horiz-adv-x="521" 
d="M152 1195v218h217v-218h-217z" />
    <glyph glyph-name="ring" unicode="&#x2da;" horiz-adv-x="635" 
d="M317 1078q-91 0 -154.5 64.5t-63.5 154.5t63.5 153.5t154.5 63.5q89 0 154 -63t65 -154t-64 -155t-155 -64zM317 1190q46 0 76 30.5t30 77.5q0 45 -29 74.5t-77 29.5q-46 0 -75.5 -29.5t-29.5 -74.5q0 -46 30.5 -77t74.5 -31z" />
    <glyph glyph-name="ogonek" unicode="&#x2db;" horiz-adv-x="588" 
d="M315 -452q-96 0 -157.5 55t-61.5 144q0 55 24.5 104.5t58.5 80t62 48.5t42 21l162 -1q-23 -6 -56.5 -23.5t-73.5 -45.5t-67 -69.5t-27 -86.5q0 -99 89 -99q71 0 118 65l105 -72q-80 -121 -218 -121z" />
    <glyph glyph-name="tilde" unicode="&#x2dc;" horiz-adv-x="885" 
d="M574 1137q-45 0 -80.5 16t-58.5 38.5t-42 45.5t-40.5 39t-44.5 16q-37 0 -57.5 -38t-20.5 -107h-120q0 130 54.5 201.5t149.5 71.5q40 0 74.5 -16t57.5 -38t43 -44.5t41.5 -38.5t44.5 -16q32 0 52.5 39t20.5 107h125q0 -130 -53.5 -203t-145.5 -73z" />
    <glyph glyph-name="hungarumlaut" unicode="&#x2dd;" horiz-adv-x="897" 
d="M48 1091l223 322h187l-257 -322h-153zM422 1091l222 322h221l-291 -322h-152z" />
    <glyph glyph-name="uni02F5" unicode="&#x2f5;" horiz-adv-x="1109" 
d="M402 679l-292 320h221l224 -320h-153zM831 679l-294 320h221l226 -320h-153z" />
    <glyph glyph-name="uni02F6" unicode="&#x2f6;" horiz-adv-x="1109" 
d="M278 679h-153l226 320h221zM707 679h-153l224 320h221z" />
    <glyph glyph-name="gravecomb" unicode="&#x300;" 
d="M-199 1108l-292 305h221l223 -305h-152z" />
    <glyph glyph-name="acutecomb" unicode="&#x301;" 
d="M-479 1125l223 288h221l-291 -288h-153z" />
    <glyph glyph-name="uni0302" unicode="&#x302;" 
d="M-648 1103l311 341l312 -341h-162l-150 164l-148 -164h-163z" />
    <glyph glyph-name="tildecomb" unicode="&#x303;" 
d="M-311 1137q-45 0 -80.5 16t-58.5 38.5t-42 45.5t-40.5 39t-44.5 16q-37 0 -57.5 -38t-20.5 -107h-120q0 130 54.5 201.5t149.5 71.5q40 0 74.5 -16t57.5 -38t43 -44.5t41.5 -38.5t44.5 -16q32 0 52.5 39t20.5 107h125q0 -130 -53.5 -203t-145.5 -73z" />
    <glyph glyph-name="uni0304" unicode="&#x304;" 
d="M-705 1171v123h556v-123h-556z" />
    <glyph glyph-name="uni0306" unicode="&#x306;" 
d="M-413 1144q-312 0 -312 269h147q0 -72 45 -109t120 -37q77 0 121 37.5t44 108.5h147q0 -269 -312 -269z" />
    <glyph glyph-name="uni0307" unicode="&#x307;" 
d="M-369 1195v218h217v-218h-217z" />
    <glyph glyph-name="uni0308" unicode="&#x308;" 
d="M-711 1195v218h174v-218h-174zM-326 1195v218h174v-218h-174z" />
    <glyph glyph-name="uni030A" unicode="&#x30a;" 
d="M-318 1078q-91 0 -154.5 64.5t-63.5 154.5t63.5 153.5t154.5 63.5q89 0 154 -63t65 -154t-63.5 -155t-155.5 -64zM-318 1190q46 0 76 30.5t30 77.5q0 45 -29 74.5t-77 29.5q-46 0 -75.5 -29.5t-29.5 -74.5q0 -46 30.5 -77t74.5 -31z" />
    <glyph glyph-name="uni030B" unicode="&#x30b;" 
d="M-849 1091l223 322h187l-257 -322h-153zM-475 1091l222 322h221l-291 -322h-152z" />
    <glyph glyph-name="uni030C" unicode="&#x30c;" 
d="M-339 1089l-311 324h162l149 -155l149 155h163z" />
    <glyph glyph-name="uni030F" unicode="&#x30f;" 
d="M-422 1091h-152l-291 322h221zM-48 1091h-153l-257 322h187z" />
    <glyph glyph-name="uni0312" unicode="&#x312;" 
d="M-84 1431l-150 -310h-217l245 310h122z" />
    <glyph glyph-name="uni031B" unicode="&#x31b;" 
d="M-410 1002v137q79 0 112 50t33 123v101h157v-86q0 -147 -74.5 -236t-227.5 -89z" />
    <glyph glyph-name="uni0326" unicode="&#x326;" 
d="M-409 -455l150 346h217l-245 -346h-122z" />
    <glyph glyph-name="uni0327" unicode="&#x327;" 
d="M-307 -520q-74 0 -130.5 38.5t-73.5 115.5l114 48q11 -35 36 -59t59 -24q43 0 68.5 24.5t25.5 65.5q0 51 -47 83t-125 34q-9 0 -34 0.5t-42 0.5l119 191h123l-78 -109q29 -3 59 -11q148 -42 148 -182q0 -93 -63 -154.5t-159 -61.5z" />
    <glyph glyph-name="uni0328" unicode="&#x328;" 
d="M-273 -452q-96 0 -157.5 55t-61.5 144q0 55 24.5 104.5t58.5 80t62 48.5t42 21l162 -1q-23 -6 -56.5 -23.5t-73.5 -45.5t-67 -69.5t-27 -86.5q0 -99 89 -99q71 0 118 65l105 -72q-80 -121 -218 -121z" />
    <glyph glyph-name="uni0337" unicode="&#x337;" 
d="M-631 258v230l602 680v-229z" />
    <glyph glyph-name="tonos" unicode="&#x384;" horiz-adv-x="443" 
d="M126 1125l53 288h170l-122 -288h-101z" />
    <glyph glyph-name="dieresistonos" unicode="&#x385;" horiz-adv-x="688" 
d="M280 1539l53 288h170l-122 -288h-101zM54 1195v218h174v-218h-174zM439 1195v218h174v-218h-174z" />
    <glyph glyph-name="uni03BC" unicode="&#x3bc;" horiz-adv-x="1296" 
d="M236 -335v1334h205v-580q0 -114 54.5 -180.5t155.5 -66.5q114 0 178.5 67t64.5 199v561h205v-999h-205v134q-53 -76 -133.5 -114.5t-167.5 -38.5q-120 0 -190 65v-381h-167z" />
    <glyph glyph-name="pi" unicode="&#x3c0;" horiz-adv-x="1027" 
d="M858 -19q-110 0 -170.5 85.5t-60.5 238.5v520h-275v-825h-174v825h-90v174h804v-174h-91v-493q0 -197 71 -197q26 0 51 15l55 -137q-54 -32 -120 -32z" />
    <glyph glyph-name="uni0483" unicode="&#x483;" 
d="M-973 1571v330h635v132h212v-328h-640v-134h-207z" />
    <glyph glyph-name="Wgrave" unicode="&#x1e80;" horiz-adv-x="1995" 
d="M943 1517l-292 305h221l223 -305h-152zM461 0l-418 1413h224l315 -1099l331 1019h169l331 -1019l316 1099h223l-418 -1413h-210l-326 994l-327 -994h-210z" />
    <glyph glyph-name="wgrave" unicode="&#x1e81;" horiz-adv-x="1473" 
d="M683 1108l-292 305h221l223 -305h-152zM327 0l-302 999h220l187 -684l215 684h179l215 -683l188 683h221l-304 -999h-188l-221 709l-223 -709h-187z" />
    <glyph glyph-name="Wacute" unicode="&#x1e82;" horiz-adv-x="1995" 
d="M898 1534l223 288h221l-291 -288h-153zM461 0l-418 1413h224l315 -1099l331 1019h169l331 -1019l316 1099h223l-418 -1413h-210l-326 994l-327 -994h-210z" />
    <glyph glyph-name="wacute" unicode="&#x1e83;" horiz-adv-x="1473" 
d="M638 1125l223 288h221l-291 -288h-153zM327 0l-302 999h220l187 -684l215 684h179l215 -683l188 683h221l-304 -999h-188l-221 709l-223 -709h-187z" />
    <glyph glyph-name="Wdieresis" unicode="&#x1e84;" horiz-adv-x="1995" 
d="M718 1604v218h174v-218h-174zM1103 1604v218h174v-218h-174zM461 0l-418 1413h224l315 -1099l331 1019h169l331 -1019l316 1099h223l-418 -1413h-210l-326 994l-327 -994h-210z" />
    <glyph glyph-name="wdieresis" unicode="&#x1e85;" horiz-adv-x="1473" 
d="M458 1195v218h174v-218h-174zM843 1195v218h174v-218h-174zM327 0l-302 999h220l187 -684l215 684h179l215 -683l188 683h221l-304 -999h-188l-221 709l-223 -709h-187z" />
    <glyph glyph-name="uni1EA4" unicode="&#x1ea4;" horiz-adv-x="1329" 
d="M563 1951l223 288h221l-291 -288h-153zM351 1517l311 341l312 -341h-162l-150 164l-148 -164h-163zM31 0l552 1413h165l550 -1413h-232l-115 318h-568l-117 -318h-235zM450 503h433l-216 597z" />
    <glyph glyph-name="uni1EA5" unicode="&#x1ea5;" horiz-adv-x="1057" 
d="M846 1825l-291 -288h-153l223 288h221zM501 1267l-148 -164h-163l311 341l312 -341h-162zM510 1018q198 0 309 -111.5t111 -298.5v-608h-170l-14 156q-48 -84 -138.5 -129.5t-190.5 -45.5q-157 0 -256.5 85.5t-99.5 234.5q0 288 404 288h278q-3 133 -53.5 190.5
t-178.5 57.5q-162 0 -253 -148l-158 114q76 105 174.5 160t235.5 55zM458 157q117 0 192.5 72t92.5 179v31h-266q-100 0 -152.5 -40t-52.5 -104q0 -63 48.5 -100.5t137.5 -37.5z" />
    <glyph glyph-name="uni1EA6" unicode="&#x1ea6;" horiz-adv-x="1329" 
d="M608 1934l-292 305h221l223 -305h-152zM351 1517l311 341l312 -341h-162l-150 164l-148 -164h-163zM31 0l552 1413h165l550 -1413h-232l-115 318h-568l-117 -318h-235zM450 503h433l-216 597z" />
    <glyph glyph-name="uni1EA7" unicode="&#x1ea7;" horiz-adv-x="1057" 
d="M599 1520h-152l-292 305h221zM190 1103l311 341l312 -341h-162l-150 164l-148 -164h-163zM510 1018q198 0 309 -111.5t111 -298.5v-608h-170l-14 156q-48 -84 -138.5 -129.5t-190.5 -45.5q-157 0 -256.5 85.5t-99.5 234.5q0 288 404 288h278q-3 133 -53.5 190.5
t-178.5 57.5q-162 0 -253 -148l-158 114q76 105 174.5 160t235.5 55zM458 157q117 0 192.5 72t92.5 179v31h-266q-100 0 -152.5 -40t-52.5 -104q0 -63 48.5 -100.5t137.5 -37.5z" />
    <glyph glyph-name="uni1EAA" unicode="&#x1eaa;" horiz-adv-x="1329" 
d="M796 1946q-45 0 -80.5 16t-58.5 39t-42 45.5t-40.5 38.5t-44.5 16q-37 0 -57.5 -38t-20.5 -107h-120q0 130 54.5 201.5t149.5 71.5q40 0 74.5 -16t57.5 -38.5t43 -44.5t41.5 -38t44.5 -16q32 0 52.5 39t20.5 107h125q0 -130 -53.5 -203t-145.5 -73zM351 1517l311 341
l312 -341h-162l-150 164l-148 -164h-163zM31 0l552 1413h165l550 -1413h-232l-115 318h-568l-117 -318h-235zM450 503h433l-216 597z" />
    <glyph glyph-name="uni1EAB" unicode="&#x1eab;" horiz-adv-x="1057" 
d="M369 1687q-37 0 -57.5 -38t-20.5 -107h-120q0 130 54.5 201.5t149.5 71.5q40 0 74.5 -16t57.5 -38.5t43 -44.5t41.5 -38t44.5 -16q32 0 52.5 39t20.5 107h125q0 -130 -53.5 -203t-145.5 -73q-45 0 -80.5 16t-58.5 39t-42 45.5t-40.5 38.5t-44.5 16zM190 1103l311 341
l312 -341h-162l-150 164l-148 -164h-163zM510 1018q198 0 309 -111.5t111 -298.5v-608h-170l-14 156q-48 -84 -138.5 -129.5t-190.5 -45.5q-157 0 -256.5 85.5t-99.5 234.5q0 288 404 288h278q-3 133 -53.5 190.5t-178.5 57.5q-162 0 -253 -148l-158 114q76 105 174.5 160
t235.5 55zM458 157q117 0 192.5 72t92.5 179v31h-266q-100 0 -152.5 -40t-52.5 -104q0 -63 48.5 -100.5t137.5 -37.5z" />
    <glyph glyph-name="uni1EAE" unicode="&#x1eae;" horiz-adv-x="1329" 
d="M563 1953l223 288h221l-291 -288h-153zM664 1558q-312 0 -312 269h147q0 -72 45 -109t120 -37q77 0 121 37.5t44 108.5h147q0 -269 -312 -269zM31 0l552 1413h165l550 -1413h-232l-115 318h-568l-117 -318h-235zM450 503h433l-216 597z" />
    <glyph glyph-name="uni1EAF" unicode="&#x1eaf;" horiz-adv-x="1057" 
d="M846 1827l-291 -288h-153l223 288h221zM503 1144q-312 0 -312 269h147q0 -72 45 -109t120 -37q77 0 121 37.5t44 108.5h147q0 -269 -312 -269zM510 1018q198 0 309 -111.5t111 -298.5v-608h-170l-14 156q-48 -84 -138.5 -129.5t-190.5 -45.5q-157 0 -256.5 85.5
t-99.5 234.5q0 288 404 288h278q-3 133 -53.5 190.5t-178.5 57.5q-162 0 -253 -148l-158 114q76 105 174.5 160t235.5 55zM458 157q117 0 192.5 72t92.5 179v31h-266q-100 0 -152.5 -40t-52.5 -104q0 -63 48.5 -100.5t137.5 -37.5z" />
    <glyph glyph-name="uni1EB0" unicode="&#x1eb0;" horiz-adv-x="1329" 
d="M608 1936l-292 305h221l223 -305h-152zM664 1558q-312 0 -312 269h147q0 -72 45 -109t120 -37q77 0 121 37.5t44 108.5h147q0 -269 -312 -269zM31 0l552 1413h165l550 -1413h-232l-115 318h-568l-117 -318h-235zM450 503h433l-216 597z" />
    <glyph glyph-name="uni1EB1" unicode="&#x1eb1;" horiz-adv-x="1057" 
d="M599 1522h-152l-292 305h221zM338 1413q0 -72 45 -109t120 -37q77 0 121 37.5t44 108.5h147q0 -269 -312 -269t-312 269h147zM510 1018q198 0 309 -111.5t111 -298.5v-608h-170l-14 156q-48 -84 -138.5 -129.5t-190.5 -45.5q-157 0 -256.5 85.5t-99.5 234.5
q0 288 404 288h278q-3 133 -53.5 190.5t-178.5 57.5q-162 0 -253 -148l-158 114q76 105 174.5 160t235.5 55zM458 157q117 0 192.5 72t92.5 179v31h-266q-100 0 -152.5 -40t-52.5 -104q0 -63 48.5 -100.5t137.5 -37.5z" />
    <glyph glyph-name="uni1EB4" unicode="&#x1eb4;" horiz-adv-x="1329" 
d="M796 1948q-45 0 -80.5 16t-58.5 39t-42 45.5t-40.5 38.5t-44.5 16q-37 0 -57.5 -38t-20.5 -107h-120q0 130 54.5 201.5t149.5 71.5q40 0 74.5 -16t57.5 -38.5t43 -44.5t41.5 -38t44.5 -16q32 0 52.5 39t20.5 107h125q0 -130 -53.5 -203t-145.5 -73zM664 1558
q-312 0 -312 269h147q0 -72 45 -109t120 -37q77 0 121 37.5t44 108.5h147q0 -269 -312 -269zM31 0l552 1413h165l550 -1413h-232l-115 318h-568l-117 -318h-235zM450 503h433l-216 597z" />
    <glyph glyph-name="uni1EB5" unicode="&#x1eb5;" horiz-adv-x="1057" 
d="M369 1689q-37 0 -57.5 -38t-20.5 -107h-120q0 130 54.5 201.5t149.5 71.5q40 0 74.5 -16t57.5 -38.5t43 -44.5t41.5 -38t44.5 -16q32 0 52.5 39t20.5 107h125q0 -130 -53.5 -203t-145.5 -73q-45 0 -80.5 16t-58.5 39t-42 45.5t-40.5 38.5t-44.5 16zM503 1267
q77 0 121 37.5t44 108.5h147q0 -269 -312 -269t-312 269h147q0 -72 45 -109t120 -37zM510 1018q198 0 309 -111.5t111 -298.5v-608h-170l-14 156q-48 -84 -138.5 -129.5t-190.5 -45.5q-157 0 -256.5 85.5t-99.5 234.5q0 288 404 288h278q-3 133 -53.5 190.5t-178.5 57.5
q-162 0 -253 -148l-158 114q76 105 174.5 160t235.5 55zM458 157q117 0 192.5 72t92.5 179v31h-266q-100 0 -152.5 -40t-52.5 -104q0 -63 48.5 -100.5t137.5 -37.5z" />
    <glyph glyph-name="uni1EBC" unicode="&#x1ebc;" horiz-adv-x="1255" 
d="M797 1534q-45 0 -80.5 16t-58.5 39t-42 45.5t-40.5 38.5t-44.5 16q-37 0 -57.5 -38t-20.5 -107h-120q0 130 54.5 201.5t149.5 71.5q40 0 74.5 -16t57.5 -38.5t43 -44.5t41.5 -38t44.5 -16q32 0 52.5 39t20.5 107h125q0 -130 -53.5 -203t-145.5 -73zM196 0v1413h935v-198
h-720v-408h662v-198h-662v-406h720v-203h-935z" />
    <glyph glyph-name="uni1EBD" unicode="&#x1ebd;" horiz-adv-x="1071" 
d="M662 1120q-45 0 -80.5 16t-58.5 39t-42 45.5t-40.5 38.5t-44.5 16q-37 0 -57.5 -38t-20.5 -107h-120q0 130 54.5 201.5t149.5 71.5q40 0 74.5 -16t57.5 -38.5t43 -44.5t41.5 -38t44.5 -16q32 0 52.5 39t20.5 107h125q0 -130 -53.5 -203t-145.5 -73zM564 -19
q-120 0 -215.5 41.5t-155.5 113t-91 163.5t-31 196q0 103 30 195.5t87 166.5t149.5 117.5t209.5 43.5q99 0 178.5 -30.5t129.5 -79.5t84 -115t47.5 -131.5t13.5 -133.5q0 -65 -8 -93h-703q14 -126 82.5 -196t193.5 -70q153 0 258 113l142 -125q-161 -176 -401 -176zM289 585
h507q2 33 -6 63q-16 88 -80 142t-165 54q-112 0 -175.5 -70t-80.5 -189z" />
    <glyph glyph-name="uni1EBE" unicode="&#x1ebe;" horiz-adv-x="1255" 
d="M564 1951l223 288h221l-291 -288h-153zM352 1517l311 341l312 -341h-162l-150 164l-148 -164h-163zM196 0v1413h935v-198h-720v-408h662v-198h-662v-406h720v-203h-935z" />
    <glyph glyph-name="uni1EBF" unicode="&#x1ebf;" horiz-adv-x="1071" 
d="M429 1537l223 288h221l-291 -288h-153zM217 1103l311 341l312 -341h-162l-150 164l-148 -164h-163zM564 -19q-120 0 -215.5 41.5t-155.5 113t-91 163.5t-31 196q0 103 30 195.5t87 166.5t149.5 117.5t209.5 43.5q99 0 178.5 -30.5t129.5 -79.5t84 -115t47.5 -131.5
t13.5 -133.5q0 -65 -8 -93h-703q14 -126 82.5 -196t193.5 -70q153 0 258 113l142 -125q-161 -176 -401 -176zM289 585h507q2 33 -6 63q-16 88 -80 142t-165 54q-112 0 -175.5 -70t-80.5 -189z" />
    <glyph glyph-name="uni1EC0" unicode="&#x1ec0;" horiz-adv-x="1255" 
d="M609 1934l-292 305h221l223 -305h-152zM352 1517l311 341l312 -341h-162l-150 164l-148 -164h-163zM196 0v1413h935v-198h-720v-408h662v-198h-662v-406h720v-203h-935z" />
    <glyph glyph-name="uni1EC1" unicode="&#x1ec1;" horiz-adv-x="1071" 
d="M474 1520l-292 305h221l223 -305h-152zM217 1103l311 341l312 -341h-162l-150 164l-148 -164h-163zM564 -19q-120 0 -215.5 41.5t-155.5 113t-91 163.5t-31 196q0 103 30 195.5t87 166.5t149.5 117.5t209.5 43.5q99 0 178.5 -30.5t129.5 -79.5t84 -115t47.5 -131.5
t13.5 -133.5q0 -65 -8 -93h-703q14 -126 82.5 -196t193.5 -70q153 0 258 113l142 -125q-161 -176 -401 -176zM289 585h507q2 33 -6 63q-16 88 -80 142t-165 54q-112 0 -175.5 -70t-80.5 -189z" />
    <glyph glyph-name="uni1EC4" unicode="&#x1ec4;" horiz-adv-x="1255" 
d="M797 1946q-45 0 -80.5 16t-58.5 39t-42 45.5t-40.5 38.5t-44.5 16q-37 0 -57.5 -38t-20.5 -107h-120q0 130 54.5 201.5t149.5 71.5q40 0 74.5 -16t57.5 -38.5t43 -44.5t41.5 -38t44.5 -16q32 0 52.5 39t20.5 107h125q0 -130 -53.5 -203t-145.5 -73zM352 1517l311 341
l312 -341h-162l-150 164l-148 -164h-163zM196 0v1413h935v-198h-720v-408h662v-198h-662v-406h720v-203h-935z" />
    <glyph glyph-name="uni1EC5" unicode="&#x1ec5;" horiz-adv-x="1071" 
d="M662 1532q-45 0 -80.5 16t-58.5 39t-42 45.5t-40.5 38.5t-44.5 16q-37 0 -57.5 -38t-20.5 -107h-120q0 130 54.5 201.5t149.5 71.5q40 0 74.5 -16t57.5 -38.5t43 -44.5t41.5 -38t44.5 -16q32 0 52.5 39t20.5 107h125q0 -130 -53.5 -203t-145.5 -73zM217 1103l311 341
l312 -341h-162l-150 164l-148 -164h-163zM564 -19q-120 0 -215.5 41.5t-155.5 113t-91 163.5t-31 196q0 103 30 195.5t87 166.5t149.5 117.5t209.5 43.5q99 0 178.5 -30.5t129.5 -79.5t84 -115t47.5 -131.5t13.5 -133.5q0 -65 -8 -93h-703q14 -126 82.5 -196t193.5 -70
q153 0 258 113l142 -125q-161 -176 -401 -176zM289 585h507q2 33 -6 63q-16 88 -80 142t-165 54q-112 0 -175.5 -70t-80.5 -189z" />
    <glyph glyph-name="uni1ED0" unicode="&#x1ed0;" horiz-adv-x="1538" 
d="M668 1951l223 288h221l-291 -288h-153zM456 1517l311 341l312 -341h-162l-150 164l-148 -164h-163zM769 -19q-166 0 -297 59t-211 160.5t-121.5 230.5t-41.5 276q0 117 25.5 223t79.5 198.5t131.5 159.5t189 105.5t245.5 38.5t245.5 -38.5t189 -105.5t131.5 -159.5
t79.5 -198.5t25.5 -223q0 -147 -41.5 -276t-121.5 -230.5t-211 -160.5t-297 -59zM769 172q93 0 168.5 28.5t126.5 77.5t85 117.5t49 146t15 165.5t-15 165.5t-49 145.5t-85 117t-126.5 77.5t-168.5 28.5t-168.5 -28.5t-126.5 -77.5t-85 -117t-49 -145.5t-15 -165.5
t15 -165.5t49 -146t85 -117.5t126.5 -77.5t168.5 -28.5z" />
    <glyph glyph-name="uni1ED1" unicode="&#x1ed1;" horiz-adv-x="1138" 
d="M468 1537l223 288h221l-291 -288h-153zM256 1103l311 341l312 -341h-162l-150 164l-148 -164h-163zM568 -19q-147 0 -262.5 71t-177.5 189.5t-62 260.5q0 141 62 258.5t177.5 187.5t262.5 70t263 -70t178 -187.5t62 -258.5q0 -142 -62 -260.5t-178 -189.5t-263 -71z
M568 160q71 0 127 27.5t90.5 75t52.5 108.5t18 131q0 145 -74 241t-214 96q-94 0 -160.5 -47t-96.5 -121.5t-30 -168.5q0 -147 74 -244.5t213 -97.5z" />
    <glyph glyph-name="uni1ED2" unicode="&#x1ed2;" horiz-adv-x="1538" 
d="M713 1934l-292 305h221l223 -305h-152zM456 1517l311 341l312 -341h-162l-150 164l-148 -164h-163zM769 -19q-166 0 -297 59t-211 160.5t-121.5 230.5t-41.5 276q0 117 25.5 223t79.5 198.5t131.5 159.5t189 105.5t245.5 38.5t245.5 -38.5t189 -105.5t131.5 -159.5
t79.5 -198.5t25.5 -223q0 -147 -41.5 -276t-121.5 -230.5t-211 -160.5t-297 -59zM769 172q93 0 168.5 28.5t126.5 77.5t85 117.5t49 146t15 165.5t-15 165.5t-49 145.5t-85 117t-126.5 77.5t-168.5 28.5t-168.5 -28.5t-126.5 -77.5t-85 -117t-49 -145.5t-15 -165.5
t15 -165.5t49 -146t85 -117.5t126.5 -77.5t168.5 -28.5z" />
    <glyph glyph-name="uni1ED3" unicode="&#x1ed3;" horiz-adv-x="1138" 
d="M513 1520l-292 305h221l223 -305h-152zM256 1103l311 341l312 -341h-162l-150 164l-148 -164h-163zM568 -19q-147 0 -262.5 71t-177.5 189.5t-62 260.5q0 141 62 258.5t177.5 187.5t262.5 70t263 -70t178 -187.5t62 -258.5q0 -142 -62 -260.5t-178 -189.5t-263 -71z
M568 160q71 0 127 27.5t90.5 75t52.5 108.5t18 131q0 145 -74 241t-214 96q-94 0 -160.5 -47t-96.5 -121.5t-30 -168.5q0 -147 74 -244.5t213 -97.5z" />
    <glyph glyph-name="uni1ED6" unicode="&#x1ed6;" horiz-adv-x="1538" 
d="M901 1946q-45 0 -80.5 16t-58.5 39t-42 45.5t-40.5 38.5t-44.5 16q-37 0 -57.5 -38t-20.5 -107h-120q0 130 54.5 201.5t149.5 71.5q40 0 74.5 -16t57.5 -38.5t43 -44.5t41.5 -38t44.5 -16q32 0 52.5 39t20.5 107h125q0 -130 -53.5 -203t-145.5 -73zM456 1517l311 341
l312 -341h-162l-150 164l-148 -164h-163zM769 -19q-166 0 -297 59t-211 160.5t-121.5 230.5t-41.5 276q0 117 25.5 223t79.5 198.5t131.5 159.5t189 105.5t245.5 38.5t245.5 -38.5t189 -105.5t131.5 -159.5t79.5 -198.5t25.5 -223q0 -147 -41.5 -276t-121.5 -230.5
t-211 -160.5t-297 -59zM769 172q93 0 168.5 28.5t126.5 77.5t85 117.5t49 146t15 165.5t-15 165.5t-49 145.5t-85 117t-126.5 77.5t-168.5 28.5t-168.5 -28.5t-126.5 -77.5t-85 -117t-49 -145.5t-15 -165.5t15 -165.5t49 -146t85 -117.5t126.5 -77.5t168.5 -28.5z" />
    <glyph glyph-name="uni1ED7" unicode="&#x1ed7;" horiz-adv-x="1138" 
d="M701 1532q-45 0 -80.5 16t-58.5 39t-42 45.5t-40.5 38.5t-44.5 16q-37 0 -57.5 -38t-20.5 -107h-120q0 130 54.5 201.5t149.5 71.5q40 0 74.5 -16t57.5 -38.5t43 -44.5t41.5 -38t44.5 -16q32 0 52.5 39t20.5 107h125q0 -130 -53.5 -203t-145.5 -73zM256 1103l311 341
l312 -341h-162l-150 164l-148 -164h-163zM568 -19q-147 0 -262.5 71t-177.5 189.5t-62 260.5q0 141 62 258.5t177.5 187.5t262.5 70t263 -70t178 -187.5t62 -258.5q0 -142 -62 -260.5t-178 -189.5t-263 -71zM568 160q71 0 127 27.5t90.5 75t52.5 108.5t18 131q0 145 -74 241
t-214 96q-94 0 -160.5 -47t-96.5 -121.5t-30 -168.5q0 -147 74 -244.5t213 -97.5z" />
    <glyph glyph-name="Ygrave" unicode="&#x1ef2;" horiz-adv-x="1322" 
d="M603 1522l-292 305h221l223 -305h-152zM550 0v547l-533 866h260l382 -659l384 659h262l-532 -866v-547h-223z" />
    <glyph glyph-name="ygrave" unicode="&#x1ef3;" horiz-adv-x="1028" 
d="M457 1108l-292 305h221l223 -305h-152zM230 -429l180 451l-402 977h227l285 -740l273 740h227l-564 -1428h-226z" />
    <glyph glyph-name="uni1EF8" unicode="&#x1ef8;" horiz-adv-x="1322" 
d="M791 1534q-45 0 -80.5 16t-58.5 39t-42 45.5t-40.5 38.5t-44.5 16q-37 0 -57.5 -38t-20.5 -107h-120q0 130 54.5 201.5t149.5 71.5q40 0 74.5 -16t57.5 -38.5t43 -44.5t41.5 -38t44.5 -16q32 0 52.5 39t20.5 107h125q0 -130 -53.5 -203t-145.5 -73zM550 0v547l-533 866
h260l382 -659l384 659h262l-532 -866v-547h-223z" />
    <glyph glyph-name="uni1EF9" unicode="&#x1ef9;" horiz-adv-x="1028" 
d="M645 1120q-45 0 -80.5 16t-58.5 39t-42 45.5t-40.5 38.5t-44.5 16q-37 0 -57.5 -38t-20.5 -107h-120q0 130 54.5 201.5t149.5 71.5q40 0 74.5 -16t57.5 -38.5t43 -44.5t41.5 -38t44.5 -16q32 0 52.5 39t20.5 107h125q0 -130 -53.5 -203t-145.5 -73zM230 -429l180 451
l-402 977h227l285 -740l273 740h227l-564 -1428h-226z" />
    <glyph glyph-name="endash" unicode="&#x2013;" horiz-adv-x="1055" 
d="M151 529v157h753v-157h-753z" />
    <glyph glyph-name="emdash" unicode="&#x2014;" horiz-adv-x="2048" 
d="M0 529v157h2048v-157h-2048z" />
    <glyph glyph-name="uni2015" unicode="&#x2015;" horiz-adv-x="1547" 
d="M151 529v157h1245v-157h-1245z" />
    <glyph glyph-name="quoteleft" unicode="&#x2018;" horiz-adv-x="579" 
d="M467 843h-139l-258 571h237z" />
    <glyph glyph-name="quoteright" unicode="&#x2019;" horiz-adv-x="579" 
d="M112 843l160 571h237l-258 -571h-139z" />
    <glyph glyph-name="quotesinglbase" unicode="&#x201a;" horiz-adv-x="579" 
d="M112 -307l160 571h237l-258 -571h-139z" />
    <glyph glyph-name="quotedblleft" unicode="&#x201c;" horiz-adv-x="951" 
d="M467 843h-139l-258 571h237zM839 843h-139l-258 571h237z" />
    <glyph glyph-name="quotedblright" unicode="&#x201d;" horiz-adv-x="951" 
d="M112 843l160 571h237l-258 -571h-139zM484 843l160 571h237l-258 -571h-139z" />
    <glyph glyph-name="quotedblbase" unicode="&#x201e;" horiz-adv-x="968" 
d="M112 -307l160 571h237l-258 -571h-139zM501 -307l160 571h237l-258 -571h-139z" />
    <glyph glyph-name="dagger" unicode="&#x2020;" horiz-adv-x="799" 
d="M306 -205v1040h-231v188h231v390h188v-390h230v-188h-230v-1040h-188z" />
    <glyph glyph-name="daggerdbl" unicode="&#x2021;" horiz-adv-x="901" 
d="M357 -205v390h-231v188h231v462h-231v188h231v390h187v-390h231v-188h-231v-462h231v-188h-231v-390h-187z" />
    <glyph glyph-name="bullet" unicode="&#x2022;" horiz-adv-x="789" 
d="M395 244q-98 0 -168 69.5t-70 167.5t70 168t168 70t167.5 -70t69.5 -168t-69.5 -167.5t-167.5 -69.5z" />
    <glyph glyph-name="uni2023" unicode="&#x2023;" horiz-adv-x="909" 
d="M220 163v721l620 -360z" />
    <glyph glyph-name="twodotenleader" unicode="&#x2025;" horiz-adv-x="1054" 
d="M216 0v250h208v-250h-208zM630 0v250h208v-250h-208z" />
    <glyph glyph-name="ellipsis" unicode="&#x2026;" horiz-adv-x="1468" 
d="M216 0v250h208v-250h-208zM630 0v250h208v-250h-208zM1043 0v250h209v-250h-209z" />
    <glyph glyph-name="perthousand" unicode="&#x2030;" horiz-adv-x="2104" 
d="M386 784q-129 0 -207 93t-78 232q0 137 76.5 230t202.5 93q122 0 202 -92.5t80 -232.5q0 -138 -78.5 -230.5t-197.5 -92.5zM241 0l833 1413h147l-833 -1413h-147zM386 924q59 0 97.5 51.5t38.5 131.5q0 81 -38.5 133t-103.5 52q-66 0 -102.5 -51.5t-36.5 -131.5
q0 -81 38 -133t107 -52zM1084 -19q-129 0 -207 93t-78 232q0 137 76.5 230t202.5 93q122 0 202 -92.5t80 -232.5q0 -138 -78.5 -230.5t-197.5 -92.5zM1726 -19q-129 0 -206.5 93t-77.5 232q0 137 76.5 230t201.5 93q123 0 203 -92.5t80 -232.5q0 -138 -78.5 -230.5
t-198.5 -92.5zM1084 121q59 0 97.5 51.5t38.5 131.5q0 81 -38.5 133t-103.5 52q-66 0 -102.5 -51.5t-36.5 -131.5q0 -81 38 -133t107 -52zM1726 121q59 0 98 51.5t39 131.5q0 81 -39 133t-104 52t-101.5 -51.5t-36.5 -131.5q0 -81 38 -133t106 -52z" />
    <glyph glyph-name="uni2031" unicode="&#x2031;" horiz-adv-x="2746" 
d="M386 784q-129 0 -207 93t-78 232q0 137 76.5 230t202.5 93q122 0 202 -92.5t80 -232.5q0 -138 -78.5 -230.5t-197.5 -92.5zM241 0l833 1413h147l-833 -1413h-147zM386 924q59 0 97.5 51.5t38.5 131.5q0 81 -38.5 133t-103.5 52q-66 0 -102.5 -51.5t-36.5 -131.5
q0 -81 38 -133t107 -52zM1084 -19q-129 0 -207 93t-78 232q0 137 76.5 230t202.5 93q122 0 202 -92.5t80 -232.5q0 -138 -78.5 -230.5t-197.5 -92.5zM1726 -19q-129 0 -206.5 93t-77.5 232q0 137 76.5 230t201.5 93q123 0 203 -92.5t80 -232.5q0 -138 -78.5 -230.5
t-198.5 -92.5zM2369 -19q-129 0 -207 93t-78 232q0 137 76.5 230t201.5 93q123 0 203 -92.5t80 -232.5q0 -138 -78.5 -230.5t-197.5 -92.5zM1084 121q59 0 97.5 51.5t38.5 131.5q0 81 -38.5 133t-103.5 52q-66 0 -102.5 -51.5t-36.5 -131.5q0 -81 38 -133t107 -52zM1726 121
q59 0 98 51.5t39 131.5q0 81 -39 133t-104 52t-101.5 -51.5t-36.5 -131.5q0 -81 38 -133t106 -52zM2369 121q59 0 97.5 51.5t38.5 131.5q0 81 -38.5 133t-104.5 52q-65 0 -101.5 -51.5t-36.5 -131.5q0 -81 38 -133t107 -52z" />
    <glyph glyph-name="guilsinglleft" unicode="&#x2039;" horiz-adv-x="601" 
d="M455 160l-418 350l418 352v-181l-206 -171l206 -169v-181z" />
    <glyph glyph-name="guilsinglright" unicode="&#x203a;" horiz-adv-x="601" 
d="M146 160v181l206 169l-206 171v181l418 -352z" />
    <glyph glyph-name="fraction" unicode="&#x2044;" horiz-adv-x="314" 
d="M-333 0l833 1413h147l-833 -1413h-147z" />
    <glyph glyph-name="Euro" unicode="&#x20ac;" horiz-adv-x="1307" 
d="M810 -19q-110 0 -201 38t-154 106t-104.5 153.5t-62.5 187.5h-173l68 154h84q-3 30 -3 87q0 11 3 98h-152l68 159h106q22 99 64 182t104.5 148.5t152.5 102.5t198 37q252 0 398 -202l-133 -105q-87 143 -263 143q-137 0 -221 -81.5t-114 -224.5h521l-68 -155h-480
q-5 -52 -5 -89q0 -36 4 -94h549l-68 -153h-453q29 -144 114.5 -233.5t220.5 -89.5q156 0 258 138l126 -123q-145 -184 -384 -184z" />
    <glyph glyph-name="uni20B1" unicode="&#x20b1;" horiz-adv-x="1366" 
d="M1280 1052v-89h-95q-14 -174 -147 -270t-343 -96h-211v-597h-214v963h-124v89h124v361h425q204 0 337 -95.5t151 -265.5h97zM484 1212v-160h484q-33 160 -273 160h-211zM695 798q251 0 275 165h-486v-165h211z" />
    <glyph glyph-name="uni20B3" unicode="&#x20b3;" horiz-adv-x="1637" 
d="M185 0l103 267h-129v185h202l60 156h-262v185h337l241 620h165l241 -620h335v-185h-262l60 -156h202v-185h-129l103 -267h-232l-97 267h-607l-97 -267h-234zM710 793h221l-111 307zM585 452h470l-56 156h-357z" />
    <glyph glyph-name="uni20B4" unicode="&#x20b4;" horiz-adv-x="1464" 
d="M1149 958h170v-150h-1175v150h764q40 46 40 105q0 77 -58.5 127.5t-146.5 50.5q-80 0 -144 -41t-104 -119l-179 110q68 122 177 181.5t243 59.5q181 0 304 -103t123 -277q0 -50 -14 -94zM144 531v150h1175v-150h-777q-77 -62 -77 -155t75 -146.5t196 -53.5
q112 0 190.5 56.5t105.5 162.5l211 -48q-30 -117 -108.5 -200.5t-184 -122.5t-228.5 -39q-130 0 -237 44.5t-171 129t-64 192.5q0 103 64 180h-170z" />
    <glyph glyph-name="uni20B8" unicode="&#x20b8;" horiz-adv-x="1403" 
d="M135 1237v176h1133v-176h-1133zM594 0v897h-459v176h1133v-176h-459v-897h-215z" />
    <glyph glyph-name="uni20BD" unicode="&#x20bd;" horiz-adv-x="1362" 
d="M330 0v280h-179v167h179v167h-179v184h179v615h425q220 0 355.5 -109.5t135.5 -302.5q0 -189 -133.5 -288t-357.5 -99h-211v-167h330v-167h-330v-280h-214zM544 798h211q278 0 278 203q0 102 -69.5 156.5t-208.5 54.5h-211v-414z" />
    <glyph glyph-name="uni2116" unicode="&#x2116;" horiz-adv-x="2374" 
d="M1043 359v1054h206v-1413h-217l-629 1060v-1060h-207v1413h216zM1859 326q-122 0 -218 59t-147 157t-51 216q0 180 116 304t300 124q121 0 217 -58t148 -155.5t52 -214.5q0 -118 -52 -216t-148 -157t-217 -59zM1859 1038q-116 0 -177.5 -79.5t-61.5 -200.5
q0 -122 61.5 -203t177.5 -81t178 81.5t62 202.5q0 120 -62 200t-178 80zM1450 0v157h801v-157h-801z" />
    <glyph glyph-name="trademark" unicode="&#x2122;" horiz-adv-x="1274" 
d="M214 877v417h-149v119h427v-119h-149v-417h-129zM602 877v536h212l93 -336l93 336h208v-536h-130v401l-129 -390h-82l-135 392v-403h-130z" />
    <glyph glyph-name="uni2126" unicode="&#x2126;" horiz-adv-x="1670" 
d="M1209 166h310v-166h-567v180q166 30 264.5 176.5t98.5 364.5q0 97 -30.5 186.5t-83.5 145.5q-69 75 -168.5 119.5t-198.5 44.5q-98 0 -196.5 -44.5t-169.5 -119.5q-53 -55 -84 -144.5t-31 -187.5q0 -214 98.5 -361t264.5 -180v-180h-567v172h328q-139 97 -222 248
t-83 308q0 124 46.5 245.5t125.5 204.5q93 98 225.5 155.5t264.5 57.5t265 -58t226 -156q79 -83 125 -205.5t46 -248.5q0 -166 -77.5 -317t-209.5 -240z" />
    <glyph glyph-name="arrowleft" unicode="&#x2190;" horiz-adv-x="2306" 
d="M1115 52l-1054 587l1054 583l70 -137l-660 -368l1692 -2v-157l-1693 2l661 -371z" />
    <glyph glyph-name="arrowright" unicode="&#x2192;" horiz-adv-x="2306" 
d="M1191 52l-70 137l661 371l-1693 -2v157l1692 2l-660 368l70 137l1054 -583z" />
    <glyph glyph-name="partialdiff" unicode="&#x2202;" horiz-adv-x="1307" 
d="M572 -12q-210 0 -332 127.5t-122 330.5q0 122 44.5 229t118.5 179.5t171.5 114t203.5 41.5q164 0 297 -147q2 83 -16 144q-23 134 -98 202t-187 68q-192 0 -261 -172l-152 48q52 131 165 203t266 72q126 0 221.5 -50t153.5 -141t87 -211t29 -268q0 -222 -67 -394.5
t-202 -274t-320 -101.5zM584 166q83 0 152.5 32.5t115 86t71.5 118.5t30 134q2 57 -13 110t-46.5 97t-86.5 70.5t-126 26.5q-88 0 -160 -33.5t-117.5 -89.5t-70 -125.5t-24.5 -144.5q0 -134 79 -208t196 -74z" />
    <glyph glyph-name="uni2206" unicode="&#x2206;" horiz-adv-x="1315" 
d="M67 0l590 1481l592 -1481h-1182zM321 174h674l-338 883z" />
    <glyph glyph-name="product" unicode="&#x220f;" horiz-adv-x="1345" 
d="M252 0v1239h-90v174h1021v-174h-89v-1239h-174v1239h-494v-1239h-174z" />
    <glyph glyph-name="summation" unicode="&#x2211;" horiz-adv-x="1303" 
d="M1179 1413v-196h-735l504 -510l-504 -511h735v-196h-1079v105l568 602l-568 601v105h1079z" />
    <glyph glyph-name="minus" unicode="&#x2212;" horiz-adv-x="1253" 
d="M230 550v157h793v-157h-793z" />
    <glyph glyph-name="radical" unicode="&#x221a;" horiz-adv-x="1227" 
d="M503 -206l-276 752h-155v175h280l162 -479l462 1171h186z" />
    <glyph glyph-name="infinity" unicode="&#x221e;" horiz-adv-x="1932" 
d="M546 355q-179 0 -285.5 105.5t-106.5 273.5q0 167 106.5 272.5t285.5 105.5q112 0 222 -62.5t196 -174.5q89 113 199.5 175t221.5 62q179 0 285.5 -105.5t106.5 -272.5q0 -168 -106.5 -273.5t-285.5 -105.5q-112 0 -222 62t-199 175q-87 -113 -197 -175t-221 -62z
M572 522q73 0 155 55t144 157q-64 103 -144.5 156.5t-154.5 53.5q-105 0 -169 -56.5t-64 -153.5t64 -154.5t169 -57.5zM1359 522q105 0 169.5 57.5t64.5 154.5t-64.5 153.5t-169.5 56.5q-74 0 -156.5 -55.5t-146.5 -154.5q65 -101 147 -156.5t156 -55.5z" />
    <glyph glyph-name="integral" unicode="&#x222b;" horiz-adv-x="937" 
d="M60 -463v174q171 0 242 63.5t71 217.5v1143q0 132 86 220.5t209 88.5t220 -85l-111 -132q-54 43 -109 43q-51 0 -86 -36.5t-35 -105.5v-1141q0 -219 -129 -334.5t-358 -115.5z" />
    <glyph glyph-name="approxequal" unicode="&#x2248;" horiz-adv-x="1236" 
d="M794 706q-64 0 -111.5 24.5t-74.5 59t-49.5 69t-52.5 59t-68 24.5q-49 0 -76.5 -49t-27.5 -133h-157q0 145 71.5 233.5t189.5 88.5q56 0 100 -17.5t69 -43.5t48.5 -57t40.5 -57t42 -43.5t56 -17.5q48 0 78 57.5t30 147.5h157q0 -154 -73 -249.5t-192 -95.5zM794 229
q-64 0 -111.5 24.5t-74.5 59.5t-49.5 69.5t-52.5 59t-68 24.5q-49 0 -76.5 -49t-27.5 -134h-157q0 146 71.5 234.5t189.5 88.5q56 0 100 -17.5t69 -44t48.5 -57t40.5 -57t42 -44t56 -17.5q48 0 78 57.5t30 147.5h157q0 -154 -73 -249.5t-192 -95.5z" />
    <glyph glyph-name="notequal" unicode="&#x2260;" horiz-adv-x="1191" 
d="M108 0l216 369h-139v176h244l149 254h-393v176h499l257 438h147l-257 -438h169v-176h-275l-149 -254h424v-176h-530l-215 -369h-147z" />
    <glyph glyph-name="lessequal" unicode="&#x2264;" horiz-adv-x="1354" 
d="M1138 181l-1055 602l1055 601l78 -135l-815 -466l815 -466zM173 0h1094v-157h-1094v157z" />
    <glyph glyph-name="greaterequal" unicode="&#x2265;" horiz-adv-x="1354" 
d="M216 181l-78 136l815 466l-815 466l78 135l1055 -601zM1181 0v-157h-1094v157h1094z" />
    <glyph glyph-name="lozenge" unicode="&#x25ca;" horiz-adv-x="1201" 
d="M461 0l-379 707l379 706h280l379 -706l-379 -707h-280zM587 109h27l302 598l-302 597h-27l-301 -597z" />
    <glyph glyph-name="uniF8FF" unicode="&#xf8ff;" horiz-adv-x="1745" 
d="M872 -61q-158 0 -301 61t-247 165t-165 247t-61 301t61 301t165 247t247 165t301 61t301.5 -61t247 -165t165 -247t61.5 -301t-61.5 -301t-165 -247t-247 -165t-301.5 -61zM872 10q144 0 274 55.5t224 149.5t149.5 224.5t55.5 273.5t-55.5 273t-149.5 224t-224 149.5
t-274 55.5q-143 0 -273 -55.5t-224 -149.5t-149.5 -224t-55.5 -273t55.5 -273.5t149.5 -224.5t224 -149.5t273 -55.5zM469 410q-14 0 -24.5 9.5t-10.5 24.5v537q0 15 10.5 26t24.5 11q15 0 26 -11t11 -26v-537q0 -15 -11 -24.5t-26 -9.5zM872 410q-15 0 -24.5 9.5t-9.5 24.5
v537q0 15 9.5 26t24.5 11t25 -11t10 -26v-537q0 -15 -9.5 -24.5t-25.5 -9.5zM1274 410q-16 0 -23 10l-270 268q-8 11 -8 25q0 16 8 24l271 269q8 12 22 12t25.5 -12t11.5 -25q0 -14 -11 -25l-243 -243l243 -244q11 -10 11 -25q0 -13 -11.5 -23.5t-25.5 -10.5zM604 678
q-15 0 -25 9.5t-10 25.5q0 15 10 25t25 10h133q16 0 26.5 -10t10.5 -25q0 -16 -10.5 -25.5t-26.5 -9.5h-133z" />
    <glyph glyph-name="i.loclTRK" horiz-adv-x="520" 
d="M151 1195v218h217v-218h-217zM157 0v999h206v-999h-206z" />
    <glyph glyph-name="g.ss01" horiz-adv-x="1174" 
d="M550 -474q-294 0 -440 227l158 115q36 -70 110 -116t175 -46q122 0 189 75.5t67 228.5v148q-50 -78 -130.5 -119t-175.5 -41q-134 0 -235 71.5t-151.5 186.5t-50.5 253q0 102 29.5 193.5t84 162t137.5 112t182 41.5q95 0 177.5 -41t132.5 -118v140h208v-989
q0 -230 -124 -357t-343 -127zM552 189q132 0 203 89.5t71 230.5q0 140 -71.5 230.5t-202.5 90.5t-203.5 -91.5t-72.5 -229.5q0 -139 72.5 -229.5t203.5 -90.5z" />
    <glyph glyph-name="gbreve.ss01" horiz-adv-x="1174" 
d="M587 1144q-312 0 -312 269h147q0 -72 45 -109t120 -37q77 0 121 37.5t44 108.5h147q0 -269 -312 -269zM550 -474q-294 0 -440 227l158 115q36 -70 110 -116t175 -46q122 0 189 75.5t67 228.5v148q-50 -78 -130.5 -119t-175.5 -41q-134 0 -235 71.5t-151.5 186.5
t-50.5 253q0 102 29.5 193.5t84 162t137.5 112t182 41.5q95 0 177.5 -41t132.5 -118v140h208v-989q0 -230 -124 -357t-343 -127zM552 189q132 0 203 89.5t71 230.5q0 140 -71.5 230.5t-202.5 90.5t-203.5 -91.5t-72.5 -229.5q0 -139 72.5 -229.5t203.5 -90.5z" />
    <glyph glyph-name="uni0123.ss01" horiz-adv-x="1174" 
d="M828 1406l-150 -310h-217l245 310h122zM550 -474q-294 0 -440 227l158 115q36 -70 110 -116t175 -46q122 0 189 75.5t67 228.5v148q-50 -78 -130.5 -119t-175.5 -41q-134 0 -235 71.5t-151.5 186.5t-50.5 253q0 102 29.5 193.5t84 162t137.5 112t182 41.5q95 0 177.5 -41
t132.5 -118v140h208v-989q0 -230 -124 -357t-343 -127zM552 189q132 0 203 89.5t71 230.5q0 140 -71.5 230.5t-202.5 90.5t-203.5 -91.5t-72.5 -229.5q0 -139 72.5 -229.5t203.5 -90.5z" />
    <glyph glyph-name="gdotaccent.ss01" horiz-adv-x="1174" 
d="M478 1195v218h217v-218h-217zM550 -474q-294 0 -440 227l158 115q36 -70 110 -116t175 -46q122 0 189 75.5t67 228.5v148q-50 -78 -130.5 -119t-175.5 -41q-134 0 -235 71.5t-151.5 186.5t-50.5 253q0 102 29.5 193.5t84 162t137.5 112t182 41.5q95 0 177.5 -41
t132.5 -118v140h208v-989q0 -230 -124 -357t-343 -127zM552 189q132 0 203 89.5t71 230.5q0 140 -71.5 230.5t-202.5 90.5t-203.5 -91.5t-72.5 -229.5q0 -139 72.5 -229.5t203.5 -90.5z" />
    <glyph glyph-name="g.ss02" horiz-adv-x="1066" 
d="M657 159q66 0 124.5 -15t109.5 -46.5t81 -89.5t30 -137q0 -152 -113.5 -240.5t-331.5 -88.5q-103 0 -191.5 20t-158 59.5t-109 103t-39.5 144.5q0 44 14 84l145 70q-133 77 -134 217q0 133 119 211q-65 92 -65 208q0 157 113 258t283 101q138 0 240 -70l152 132l107 -132
l-148 -123q42 -79 42 -173q0 -158 -112.5 -256t-280.5 -98q-117 0 -211 50q-48 -33 -46 -88q1 -101 165 -101h215zM537 854q-89 0 -141 -56t-52 -142q0 -85 51.5 -139t141.5 -54q88 0 139.5 53.5t51.5 138.5q0 86 -51.5 142.5t-139.5 56.5zM543 -299q261 0 261 153
q0 40 -18 67t-52.5 40.5t-71.5 18.5t-87 5h-223l-100 -88v-24q0 -172 291 -172z" />
    <glyph glyph-name="gbreve.ss02" horiz-adv-x="1066" 
d="M534 1144q-312 0 -312 269h147q0 -72 45 -109t120 -37q77 0 121 37.5t44 108.5h147q0 -269 -312 -269zM657 159q66 0 124.5 -15t109.5 -46.5t81 -89.5t30 -137q0 -152 -113.5 -240.5t-331.5 -88.5q-103 0 -191.5 20t-158 59.5t-109 103t-39.5 144.5q0 44 14 84l145 70
q-133 77 -134 217q0 133 119 211q-65 92 -65 208q0 157 113 258t283 101q138 0 240 -70l152 132l107 -132l-148 -123q42 -79 42 -173q0 -158 -112.5 -256t-280.5 -98q-117 0 -211 50q-48 -33 -46 -88q1 -101 165 -101h215zM537 854q-89 0 -141 -56t-52 -142q0 -85 51.5 -139
t141.5 -54q88 0 139.5 53.5t51.5 138.5q0 86 -51.5 142.5t-139.5 56.5zM543 -299q261 0 261 153q0 40 -18 67t-52.5 40.5t-71.5 18.5t-87 5h-223l-100 -88v-24q0 -172 291 -172z" />
    <glyph glyph-name="uni0123.ss02" horiz-adv-x="1066" 
d="M755 1431l-150 -310h-217l245 310h122zM657 159q66 0 124.5 -15t109.5 -46.5t81 -89.5t30 -137q0 -152 -113.5 -240.5t-331.5 -88.5q-103 0 -191.5 20t-158 59.5t-109 103t-39.5 144.5q0 44 14 84l145 70q-133 77 -134 217q0 133 119 211q-65 92 -65 208q0 157 113 258
t283 101q138 0 240 -70l152 132l107 -132l-148 -123q42 -79 42 -173q0 -158 -112.5 -256t-280.5 -98q-117 0 -211 50q-48 -33 -46 -88q1 -101 165 -101h215zM537 854q-89 0 -141 -56t-52 -142q0 -85 51.5 -139t141.5 -54q88 0 139.5 53.5t51.5 138.5q0 86 -51.5 142.5
t-139.5 56.5zM543 -299q261 0 261 153q0 40 -18 67t-52.5 40.5t-71.5 18.5t-87 5h-223l-100 -88v-24q0 -172 291 -172z" />
    <glyph glyph-name="gdotaccent.ss02" horiz-adv-x="1066" 
d="M642 1413v-218h-217v218h217zM657 159q66 0 124.5 -15t109.5 -46.5t81 -89.5t30 -137q0 -152 -113.5 -240.5t-331.5 -88.5q-103 0 -191.5 20t-158 59.5t-109 103t-39.5 144.5q0 44 14 84l145 70q-133 77 -134 217q0 133 119 211q-65 92 -65 208q0 157 113 258t283 101
q138 0 240 -70l152 132l107 -132l-148 -123q42 -79 42 -173q0 -158 -112.5 -256t-280.5 -98q-117 0 -211 50q-48 -33 -46 -88q1 -101 165 -101h215zM537 854q-89 0 -141 -56t-52 -142q0 -85 51.5 -139t141.5 -54q88 0 139.5 53.5t51.5 138.5q0 86 -51.5 142.5t-139.5 56.5z
M543 -299q261 0 261 153q0 40 -18 67t-52.5 40.5t-71.5 18.5t-87 5h-223l-100 -88v-24q0 -172 291 -172z" />
    <glyph glyph-name="T_h" horiz-adv-x="2119" 
d="M495 0v1220h-460v193h1297v-548q53 76 131.5 114.5t164.5 38.5q92 0 163 -33.5t113 -91.5t64 -129t22 -153v-611h-210v580q0 117 -45.5 183.5t-155.5 66.5q-119 0 -183 -84t-64 -219v-527h-210v1220h-412v-1220h-215z" />
    <glyph glyph-name="f_t" horiz-adv-x="1271" 
d="M1029 -19q-142 0 -221 79t-79 218v547h-331v-825h-207v825h-164v174h164v76q0 167 113.5 262t281.5 95q209 0 348 -76v-357h262v-174h-262v-512q0 -149 130 -149q60 0 131 32l1 -187q-75 -28 -167 -28zM398 999h335v239q-52 27 -137 27q-98 0 -148 -50t-50 -144v-72z" />
    <glyph glyph-name="t_t" horiz-adv-x="1383" 
d="M508 -19q-146 0 -227 79t-81 218v547h-169v174h173v262l201 148v-410h429v262l201 148v-410h273v-174h-273v-512q0 -149 137 -149q64 0 135 32l1 -187q-78 -28 -170 -28q-146 0 -227 79t-81 218v547h-425v-512q0 -149 137 -149q62 0 135 32l1 -187q-78 -28 -170 -28z" />
    <glyph glyph-name="zero.lf" horiz-adv-x="1198" 
d="M609 -19q-89 0 -162 25t-123.5 66t-88.5 100.5t-60.5 121.5t-36.5 137.5t-18.5 140t-4.5 135.5q0 72 4.5 136.5t18 140t35 137.5t58.5 121.5t86 100.5t120 66t158 25q110 0 196.5 -42.5t141.5 -112t90.5 -166t50 -197t14.5 -212.5q0 -111 -14 -210.5t-48.5 -195.5
t-87.5 -164.5t-137.5 -110.5t-191.5 -42zM604 184q67 0 116 32t76.5 81t43.5 122.5t21 139.5t5 149q0 69 -3.5 125.5t-13.5 119t-29.5 109t-48.5 85.5t-73.5 59.5t-102.5 20.5q-51 0 -91.5 -16.5t-68 -44t-48 -69t-32 -84t-18.5 -98.5t-9 -103t-2 -105t2 -105t9 -103t19 -99
t33 -85t49.5 -69.5t71 -44.5t94.5 -17z" />
    <glyph glyph-name="one.lf" horiz-adv-x="772" 
d="M379 1413h203v-1413h-211v1026h-338v164h205q141 0 141 125v98z" />
    <glyph glyph-name="two.lf" horiz-adv-x="1157" 
d="M426 195h657v-195h-1002v175q715 437 715 830q0 104 -58 168t-170 64q-70 0 -123 -27t-83.5 -73.5t-46 -102.5t-17.5 -122l-210 14q0 80 20.5 154.5t61 138t97 110.5t133.5 74t166 27q199 0 322 -114t123 -316q0 -96 -37.5 -197.5t-98 -189t-138.5 -169t-156.5 -143.5
t-154.5 -106z" />
    <glyph glyph-name="three.lf" horiz-adv-x="1175" 
d="M576 -19q-107 0 -199.5 29.5t-163 85.5t-111 144t-40.5 198l205 12q0 -126 87 -198.5t226 -72.5q130 0 217.5 65.5t87.5 183.5q0 52 -15 91.5t-45 64t-63 40t-80 22.5t-84 9.5t-87 2.5v166q165 0 231 49t66 154q0 97 -65 151t-168 54q-109 0 -175.5 -60t-67.5 -163
l-203 13q0 125 60.5 219.5t160.5 142.5t222 48q118 0 218 -44.5t162 -132.5t62 -202q0 -102 -54.5 -179t-161.5 -119q142 -34 217 -124t75 -220q0 -102 -41.5 -184.5t-112.5 -135.5t-163.5 -81.5t-196.5 -28.5z" />
    <glyph glyph-name="four.lf" horiz-adv-x="1177" 
d="M914 530h227v-197h-227v-333h-211v333h-672v128l700 952h183v-883zM306 530h397v558z" />
    <glyph glyph-name="five.lf" horiz-adv-x="1179" 
d="M616 962q196 0 334.5 -142t138.5 -342q0 -132 -68.5 -246.5t-186 -182.5t-253.5 -68q-183 0 -321.5 120t-178.5 302l200 55q12 -57 35 -105.5t58.5 -89t88.5 -64t118 -23.5q123 0 206 91.5t83 212.5q0 123 -77.5 206t-207.5 83q-77 0 -148 -38.5t-116 -106.5l-198 51
l135 738h766v-198h-596l-61 -327q119 74 249 74z" />
    <glyph glyph-name="six.lf" horiz-adv-x="1124" 
d="M565 952q136 0 251.5 -65t183 -177t67.5 -243q0 -132 -67.5 -244t-183 -177t-251.5 -65q-137 0 -253 65t-183.5 177t-67.5 244q0 145 83 266l417 680h245l-286 -463q30 2 45 2zM565 181q121 0 206.5 84t85.5 202q0 117 -85.5 201t-206.5 84q-122 0 -208 -84t-86 -201
q0 -118 86 -202t208 -84z" />
    <glyph glyph-name="seven.lf" horiz-adv-x="1083" 
d="M35 1413h1016v-114l-648 -1299h-238l627 1217h-757v196z" />
    <glyph glyph-name="eight.lf" horiz-adv-x="1190" 
d="M595 -19q-79 0 -152.5 16.5t-138 51t-112.5 83.5t-75.5 118.5t-27.5 151.5q0 123 60.5 217t165.5 146q-73 51 -112 126.5t-39 165.5q0 87 36.5 159.5t97 118.5t137.5 71.5t161 25.5q115 0 212.5 -44t158.5 -131t61 -201q0 -91 -40.5 -166.5t-111.5 -124.5
q108 -53 166.5 -146.5t58.5 -214.5q0 -103 -42.5 -185.5t-114 -133.5t-161 -77.5t-188.5 -26.5zM600 827q99 0 161 57.5t62 154.5q0 99 -62.5 156.5t-161.5 57.5q-94 0 -158.5 -54t-64.5 -153t61 -159t163 -60zM594 166q127 0 210.5 66.5t83.5 191.5q0 121 -82 191.5
t-212 70.5q-131 0 -213 -70t-82 -190q0 -126 84.5 -193t210.5 -67z" />
    <glyph glyph-name="nine.lf" horiz-adv-x="1124" 
d="M1063 946q0 -145 -83 -266l-417 -680h-245l286 463q-30 -2 -45 -2q-136 0 -251.5 65t-183 177t-67.5 243q0 132 67.5 244t183 177t251.5 65q137 0 253 -65t183.5 -177t67.5 -244zM267 946q0 -117 85.5 -201t206.5 -84q122 0 208 84t86 201q0 118 -86 202t-208 84
q-121 0 -206.5 -84t-85.5 -202z" />
    <glyph glyph-name="zero.dnom" horiz-adv-x="743" 
d="M378 -11q-75 0 -133 28.5t-92.5 72.5t-56.5 103.5t-30 115.5t-8 115q0 60 7.5 116t29 116t55 104t89.5 72.5t129 28.5q83 0 146.5 -38t99.5 -102.5t53.5 -139.5t17.5 -159q0 -83 -17 -157t-52 -137.5t-96 -101t-142 -37.5zM374 120q48 0 82 27t51.5 73.5t25.5 97t8 107.5
q0 59 -8 108.5t-26 95.5t-53.5 72t-85.5 26t-85 -26.5t-53 -72.5t-25.5 -95.5t-7.5 -108.5q0 -58 7.5 -107.5t26 -96t55 -73.5t88.5 -27z" />
    <glyph glyph-name="one.dnom" horiz-adv-x="460" 
d="M203 848h132v-848h-138v608h-200v107h118q88 0 88 79v54z" />
    <glyph glyph-name="two.dnom" horiz-adv-x="713" 
d="M256 126h410v-126h-637v111q44 27 75.5 47t82.5 55.5t87.5 65.5t78.5 71.5t68.5 79.5t44 83t17.5 88q0 59 -32 95.5t-96 36.5q-78 0 -115 -55t-40 -136l-137 11q0 125 79 215.5t213 90.5q119 0 193.5 -69t74.5 -192q0 -134 -111 -263t-256 -209z" />
    <glyph glyph-name="three.dnom" horiz-adv-x="707" 
d="M343 -11q-133 0 -222 72t-89 204l133 9q0 -74 50 -115.5t130 -41.5q75 0 126 37t51 108q0 137 -217 137v92q93 0 131.5 28.5t38.5 81.5q0 65 -36.5 96.5t-93.5 31.5q-63 0 -101.5 -34.5t-39.5 -92.5l-132 9q0 114 77.5 181t191.5 67q111 0 190 -63t79 -166
q0 -117 -116 -171q79 -20 120 -77t41 -133q0 -123 -90 -191.5t-222 -68.5z" />
    <glyph glyph-name="four.dnom" horiz-adv-x="689" 
d="M527 329h134v-128h-134v-201h-139v201h-397v81l417 566h119v-519zM171 329h217v305z" />
    <glyph glyph-name="five.dnom" horiz-adv-x="721" 
d="M378 580q118 0 201.5 -86t83.5 -207t-91 -209.5t-216 -88.5q-111 0 -195 73t-108 182l129 37q15 -71 58 -119t116 -48q70 0 118 53t48 122t-45.5 117t-120.5 48q-44 0 -85 -22t-65 -60l-128 31l80 445h467v-130h-355l-33 -176q67 38 141 38z" />
    <glyph glyph-name="six.dnom" horiz-adv-x="647" 
d="M376 563q103 -11 178 -93t75 -187q0 -119 -88 -206.5t-218 -87.5q-126 0 -215 84.5t-89 205.5q0 76 46 148l254 421h160l-195 -292q46 11 92 7zM325 120q69 0 118.5 47.5t49.5 115.5q0 67 -49.5 114.5t-118.5 47.5q-70 0 -119.5 -47.5t-49.5 -114.5q0 -68 49.5 -115.5
t119.5 -47.5z" />
    <glyph glyph-name="seven.dnom" horiz-adv-x="604" 
d="M5 848h608v-73l-378 -775h-155l365 720h-440v128z" />
    <glyph glyph-name="eight.dnom" horiz-adv-x="726" 
d="M362 -11q-60 0 -115 16t-98.5 46.5t-69 79.5t-25.5 111q0 72 34 128t95 89q-84 64 -84 173q0 105 77.5 166t185.5 61q110 0 188 -62t78 -165q0 -108 -85 -173q129 -71 129 -215q0 -122 -90.5 -188.5t-219.5 -66.5zM366 510q57 0 93 31.5t36 85.5t-36 85t-93 31
q-56 0 -93.5 -29.5t-37.5 -83.5t36 -87t95 -33zM362 108q74 0 122 36.5t48 104.5q0 67 -47.5 105t-122.5 38q-76 0 -124 -37.5t-48 -103.5q0 -69 49 -106t123 -37z" />
    <glyph glyph-name="nine.dnom" horiz-adv-x="651" 
d="M630 565q0 -88 -49 -159l-250 -406h-161l170 273h-16q-125 0 -215 86t-90 206q0 122 89.5 208t215.5 86q127 0 216.5 -86t89.5 -208zM156 565q0 -67 49 -115t119 -48t120 48t50 115q0 68 -49.5 116t-120.5 48q-70 0 -119 -48t-49 -116z" />
    <glyph glyph-name="zero.numr" horiz-adv-x="743" 
d="M378 562q-75 0 -133 28.5t-92.5 72.5t-56.5 103.5t-30 115.5t-8 115q0 60 7.5 116t29 116t55 104t89.5 72.5t129 28.5q83 0 146.5 -38t99.5 -102.5t53.5 -139.5t17.5 -159q0 -83 -17 -157t-52 -137.5t-96 -101t-142 -37.5zM374 693q48 0 82 27t51.5 73.5t25.5 97t8 107.5
q0 59 -8 108.5t-26 95.5t-53.5 72t-85.5 26t-85 -26.5t-53 -72.5t-25.5 -95.5t-7.5 -108.5q0 -58 7.5 -107.5t26 -96t55 -73.5t88.5 -27z" />
    <glyph glyph-name="one.numr" horiz-adv-x="460" 
d="M203 1421h132v-848h-138v608h-200v107h118q88 0 88 79v54z" />
    <glyph glyph-name="two.numr" horiz-adv-x="713" 
d="M256 699h410v-126h-637v111q44 27 75.5 47t82.5 55.5t87.5 65.5t78.5 71.5t68.5 79.5t44 83t17.5 88q0 59 -32 95.5t-96 36.5q-78 0 -115 -55t-40 -136l-137 11q0 125 79 215.5t213 90.5q119 0 193.5 -69t74.5 -192q0 -134 -111 -263t-256 -209z" />
    <glyph glyph-name="three.numr" horiz-adv-x="707" 
d="M343 562q-133 0 -222 72t-89 204l133 9q0 -74 50 -115.5t130 -41.5q75 0 126 37t51 108q0 137 -217 137v92q93 0 131.5 28.5t38.5 81.5q0 65 -36.5 96.5t-93.5 31.5q-63 0 -101.5 -34.5t-39.5 -92.5l-132 9q0 114 77.5 181t191.5 67q111 0 190 -63t79 -166
q0 -117 -116 -171q79 -20 120 -77t41 -133q0 -123 -90 -191.5t-222 -68.5z" />
    <glyph glyph-name="four.numr" horiz-adv-x="689" 
d="M527 894h134v-128h-134v-201h-139v201h-397v81l417 566h119v-519zM171 894h217v305z" />
    <glyph glyph-name="five.numr" horiz-adv-x="721" 
d="M378 1145q118 0 201.5 -86t83.5 -207t-91 -209.5t-216 -88.5q-111 0 -195 73t-108 182l129 37q15 -71 58 -119t116 -48q70 0 118 53t48 122t-45.5 117t-120.5 48q-44 0 -85 -22t-65 -60l-128 31l80 445h467v-130h-355l-33 -176q67 38 141 38z" />
    <glyph glyph-name="six.numr" horiz-adv-x="647" 
d="M376 1128q103 -11 178 -93t75 -187q0 -119 -88 -206.5t-218 -87.5q-126 0 -215 84.5t-89 205.5q0 75 46 149l254 420h160l-195 -291q47 10 92 6zM325 686q69 0 118.5 47t49.5 115q0 67 -49.5 114.5t-118.5 47.5q-70 0 -119.5 -47.5t-49.5 -114.5q0 -68 49.5 -115
t119.5 -47z" />
    <glyph glyph-name="seven.numr" horiz-adv-x="604" 
d="M5 1413h608v-73l-378 -775h-155l365 720h-440v128z" />
    <glyph glyph-name="eight.numr" horiz-adv-x="726" 
d="M362 562q-60 0 -115 16t-98.5 46.5t-69 79.5t-25.5 111q0 72 34 128t95 89q-84 64 -84 173q0 105 77.5 166t185.5 61q110 0 188 -62t78 -165q0 -108 -85 -173q129 -71 129 -215q0 -122 -90.5 -188.5t-219.5 -66.5zM366 1083q57 0 93 31.5t36 85.5t-36 85t-93 31
q-56 0 -93.5 -29.5t-37.5 -83.5t36 -87t95 -33zM362 681q74 0 122 36.5t48 104.5q0 67 -47.5 105t-122.5 38q-76 0 -124 -37.5t-48 -103.5q0 -69 49 -106t123 -37z" />
    <glyph glyph-name="nine.numr" horiz-adv-x="651" 
d="M630 1139q0 -89 -51 -162l-248 -404h-161l170 273h-16q-125 0 -215 86.5t-90 206.5q0 122 89.5 208t215.5 86q127 0 216.5 -86t89.5 -208zM156 1139q0 -68 49 -115.5t119 -47.5t120 47.5t50 115.5t-49.5 116t-120.5 48q-70 0 -119 -48t-49 -116z" />
    <glyph glyph-name="caroncomb.alt" 
d="M-388 970l115 443h217l-209 -443h-123z" />
    </font>
</defs>
</svg>
