<svg version="1" xmlns="http://www.w3.org/2000/svg" width="1360" height="1360" viewBox="0 0 1020.000000 1020.000000"><path d="M0 510v510h1020V0H0v510zm814.7-251.8c-.7 1.8-7.6 18.9-15.3 38L785.5 331H598v217c0 119.3-.1 217-.3 217-.1 0-23.7-6.7-52.5-14.9l-52.3-15-9.8 5.5c-18.6 10.4-41.2 18.1-65 22.1-14.7 2.5-48.6 2.4-62.1-.1-22.7-4.2-37.1-8.7-54.5-17.1-21.4-10.4-36.7-21.5-52.9-38.6-21.3-22.4-35.7-50-41.8-80.2-3.2-15.9-3.2-43.3.1-58.7 7.6-35.6 25.9-67 52.8-90.6 49.9-43.6 120.5-58.4 186.7-39.2 4.3 1.3 7.8 2.7 7.8 3.1 0 .4-6.4 16.1-14.3 34.8-12.9 30.5-14.6 33.9-16.4 33.4-12.1-3.5-21.6-4.7-35.5-4.2-17.9.6-29.6 3.4-44.3 10.6-26.5 13-44.8 35.4-51.4 62.6-2.4 10.3-2.2 28.6.6 39 11.2 42.1 50.4 70.5 97.1 70.5 42.1 0 80.1-23.8 94.9-59.4 6.4-15.5 6.1-4.8 6.1-198.1V255h325l-1.3 3.2zm-69.9 171.7c-.1.5-7.9 18.7-17.3 40.5l-17 39.6H629v-81h58.1c33.1 0 57.9.4 57.7.9z"/></svg>