<?xml version="1.0" standalone="no"?>
<!DOCTYPE svg PUBLIC "-//W3C//DTD SVG 1.1//EN" "http://www.w3.org/Graphics/SVG/1.1/DTD/svg11.dtd" >
<svg xmlns="http://www.w3.org/2000/svg" xmlns:xlink="http://www.w3.org/1999/xlink" version="1.1">
<metadata>
Created by FontForge 20170910 at Sun Apr 15 16:30:35 2018
 By Jimmy Wärting
Copyright \(c\) 2018 by Alfredo Marco Pradil. All rights reserved.
</metadata>
<defs>
<font id="HKGrotesk-Light" horiz-adv-x="1111" >
  <font-face 
    font-family="HK Grotesk Light"
    font-weight="300"
    font-stretch="normal"
    units-per-em="2048"
    panose-1="0 0 4 0 0 0 0 0 0 0"
    ascent="1434"
    descent="-614"
    x-height="999"
    cap-height="1413"
    bbox="-968 -514 2658 2242.01"
    underline-thickness="82"
    underline-position="-246"
    stemh="61"
    stemv="95"
    unicode-range="U+0020-FB02"
  />
<missing-glyph horiz-adv-x="1214" 
d="M190 0v961h833v-961h-833zM238 48h738v865h-738v-865z" />
    <glyph glyph-name="f_f" unicode="ff" horiz-adv-x="1211" 
d="M224 0v918h-178v81h178v101c0 199 156 327 362 327c86 0 163 -21 233 -64c50 42 120 64 206 64c51 0 99 -14 145 -37l-32 -78c-38 19 -70 29 -105 29c-131 0 -199 -60 -199 -188v-154h337v-81h-337v-918h-97v918h-420v-918h-93zM317 999h420v162c0 58 13 105 39 139
c-54 32 -117 48 -186 48c-169 0 -273 -100 -273 -250v-99z" />
    <glyph glyph-name="f_f_i" unicode="ffi" horiz-adv-x="1534" 
d="M1347 999v-999h-94v918h-422v-918h-94v918h-420v-918h-93v918h-178v81h178v101c0 199 156 327 362 327c92 0 178 -24 251 -75c58 51 138 75 227 75c112 0 199 -34 275 -92l-47 -66c-61 50 -136 79 -224 79c-150 0 -237 -73 -237 -263v-86h516zM737 999v87
c0 86 18 154 50 207c-54 33 -119 55 -197 55c-169 0 -273 -100 -273 -250v-99h420z" />
    <glyph glyph-name="f_f_l" unicode="ffl" horiz-adv-x="1625" 
d="M1439 -14c-162 0 -186 99 -186 229v1076c-50 35 -114 57 -185 57c-150 0 -237 -73 -237 -263v-86h241v-81h-241v-918h-94v918h-420v-918h-93v918h-178v81h178v101c0 199 156 327 362 327c93 0 179 -24 252 -74c57 50 136 74 226 74c112 0 199 -34 283 -94v-1095
c0 -87 2 -165 129 -165c27 0 60 3 92 10l3 -82c-43 -9 -91 -15 -132 -15zM317 999h420v87c0 92 20 159 54 205c-57 37 -124 57 -201 57c-169 0 -273 -100 -273 -250v-99z" />
    <glyph glyph-name="fi" unicode="fi" horiz-adv-x="1016" 
d="M828 999v-999h-87v918h-424v-918h-93v918h-178v81h178v87c0 240 142 341 326 341c112 0 199 -34 277 -92l-47 -66c-62 50 -136 79 -226 79c-148 0 -237 -73 -237 -263v-86h511z" />
    <glyph glyph-name="fl" unicode="fl" horiz-adv-x="1070" 
d="M890 -14c-152 0 -177 99 -177 229v1070c-51 41 -114 63 -185 63c-139 0 -220 -73 -220 -263v-86h230l-1 -81h-229v-918h-95v918h-167v81h167v87c0 240 135 341 311 341c110 0 184 -28 284 -94v-1095c0 -87 4 -165 120 -165c24 0 54 3 85 10l3 -82
c-42 -9 -88 -15 -126 -15z" />
    <glyph glyph-name="h_d_c_o.liga" unicode="hdco" horiz-adv-x="1843" 
d="M922 -61c-428 0 -775 346 -775 774s347 774 775 774s774 -346 774 -774s-346 -774 -774 -774zM922 10c389 0 702 314 702 703s-313 702 -702 702c-390 0 -703 -313 -703 -702s313 -703 703 -703zM518 410c-18 0 -35 14 -35 34v537c0 20 17 37 35 37c21 0 37 -17 37 -37
v-537c0 -20 -16 -34 -37 -34zM922 410c-21 0 -35 14 -35 34v537c0 20 14 37 35 37c20 0 34 -17 34 -37v-537c0 -20 -14 -34 -34 -34zM1323 410c-8 0 -16 2 -23 10l-270 268c-6 8 -8 17 -8 25c0 10 2 18 8 24l265 262c10 11 23 15 32 15c19 0 33 -13 33 -33
c0 -8 -2 -16 -10 -25l-244 -243l244 -244c8 -8 10 -16 10 -25c0 -18 -19 -34 -37 -34zM653 678c-20 0 -35 14 -35 35c0 20 15 35 35 35h133c21 0 37 -15 37 -35c0 -21 -16 -35 -37 -35h-133z" />
    <glyph glyph-name=".notdef" horiz-adv-x="1214" 
d="M190 0v961h833v-961h-833zM238 48h738v865h-738v-865z" />
    <glyph glyph-name="A" unicode="A" horiz-adv-x="1288" 
d="M87 0l512 1413h90l511 -1413h-106l-124 352h-650l-124 -352h-109zM351 438h588l-294 843z" />
    <glyph glyph-name="Aacute" unicode="&#xc1;" horiz-adv-x="1288" 
d="M594 1541l216 285h103l-243 -285h-76zM87 0l512 1413h90l511 -1413h-106l-124 352h-650l-124 -352h-109zM351 438h588l-294 843z" />
    <glyph glyph-name="Abreve" unicode="&#x102;" horiz-adv-x="1288" 
d="M642 1563c-200 0 -302 93 -302 263h71c0 -133 85 -202 231 -202c147 0 229 70 229 202h71c0 -173 -105 -263 -300 -263zM87 0l512 1413h90l511 -1413h-106l-124 352h-650l-124 -352h-109zM351 438h588l-294 843z" />
    <glyph glyph-name="uni1EAE" unicode="&#x1eae;" horiz-adv-x="1288" 
d="M594 1955l216 285h103l-243 -285h-76zM642 1563c-200 0 -302 93 -302 263h71c0 -133 85 -202 231 -202c147 0 229 70 229 202h71c0 -173 -105 -263 -300 -263zM87 0l512 1413h90l511 -1413h-106l-124 352h-650l-124 -352h-109zM351 438h588l-294 843z" />
    <glyph glyph-name="uni1EB0" unicode="&#x1eb0;" horiz-adv-x="1288" 
d="M603 1955l-236 285h103l211 -285h-78zM642 1563c-200 0 -302 93 -302 263h71c0 -133 85 -202 231 -202c147 0 229 70 229 202h71c0 -173 -105 -263 -300 -263zM87 0l512 1413h90l511 -1413h-106l-124 352h-650l-124 -352h-109zM351 438h588l-294 843z" />
    <glyph glyph-name="uni1EB4" unicode="&#x1eb4;" horiz-adv-x="1288" 
d="M787 1989c-170 0 -162 191 -285 190c-71 1 -115 -63 -115 -169h-60c0 146 68 233 178 232c159 1 155 -189 282 -189c62 0 107 70 107 180h62c0 -149 -68 -244 -169 -244zM642 1563c-200 0 -302 93 -302 263h71c0 -133 85 -202 231 -202c147 0 229 70 229 202h71
c0 -173 -105 -263 -300 -263zM87 0l512 1413h90l511 -1413h-106l-124 352h-650l-124 -352h-109zM351 438h588l-294 843z" />
    <glyph glyph-name="uni01CD" unicode="&#x1cd;" horiz-adv-x="1288" 
d="M641 1526l-296 300h85l211 -216l213 216h84zM87 0l512 1413h90l511 -1413h-106l-124 352h-650l-124 -352h-109zM351 438h588l-294 843z" />
    <glyph glyph-name="Acircumflex" unicode="&#xc2;" horiz-adv-x="1288" 
d="M345 1531l297 307l297 -307h-85l-212 219l-212 -219h-85zM87 0l512 1413h90l511 -1413h-106l-124 352h-650l-124 -352h-109zM351 438h588l-294 843z" />
    <glyph glyph-name="uni1EA4" unicode="&#x1ea4;" horiz-adv-x="1288" 
d="M594 1954l216 285h103l-243 -285h-76zM345 1531l297 307l297 -307h-85l-212 219l-212 -219h-85zM87 0l512 1413h90l511 -1413h-106l-124 352h-650l-124 -352h-109zM351 438h588l-294 843z" />
    <glyph glyph-name="uni1EA6" unicode="&#x1ea6;" horiz-adv-x="1288" 
d="M603 1954l-236 285h103l211 -285h-78zM345 1531l297 307l297 -307h-85l-212 219l-212 -219h-85zM87 0l512 1413h90l511 -1413h-106l-124 352h-650l-124 -352h-109zM351 438h588l-294 843z" />
    <glyph glyph-name="uni1EAA" unicode="&#x1eaa;" horiz-adv-x="1288" 
d="M787 1988c-170 0 -162 191 -285 190c-71 1 -115 -63 -115 -169h-60c0 146 68 233 178 232c159 1 155 -189 282 -189c62 0 107 70 107 180h62c0 -149 -68 -244 -169 -244zM345 1531l297 307l297 -307h-85l-212 219l-212 -219h-85zM87 0l512 1413h90l511 -1413h-106
l-124 352h-650l-124 -352h-109zM351 438h588l-294 843z" />
    <glyph glyph-name="Adieresis" unicode="&#xc4;" horiz-adv-x="1288" 
d="M423 1628v198h82v-198h-82zM776 1628v198h82v-198h-82zM87 0l512 1413h90l511 -1413h-106l-124 352h-650l-124 -352h-109zM351 438h588l-294 843z" />
    <glyph glyph-name="Agrave" unicode="&#xc0;" horiz-adv-x="1288" 
d="M603 1541l-236 285h103l211 -285h-78zM87 0l512 1413h90l511 -1413h-106l-124 352h-650l-124 -352h-109zM351 438h588l-294 843z" />
    <glyph glyph-name="Amacron" unicode="&#x100;" horiz-adv-x="1288" 
d="M371 1657v61h544v-61h-544zM87 0l512 1413h90l511 -1413h-106l-124 352h-650l-124 -352h-109zM351 438h588l-294 843z" />
    <glyph glyph-name="Aogonek" unicode="&#x104;" horiz-adv-x="1288" 
d="M1231 -304l52 -36c-52 -77 -118 -117 -213 -117c-124 0 -202 69 -202 184c0 136 125 239 236 273h-10l-124 352h-650l-124 -352h-109l512 1413h90l511 -1413c-138 -38 -270 -136 -270 -262c0 -90 52 -132 138 -132c71 0 120 29 163 90zM351 438h588l-294 843z" />
    <glyph glyph-name="Aring" unicode="&#xc5;" horiz-adv-x="1288" 
d="M640 1516c-102 0 -182 82 -182 182c0 101 81 182 182 182c99 0 182 -81 182 -182s-80 -182 -182 -182zM640 1574c70 0 125 55 125 125c0 69 -53 124 -125 124c-70 0 -124 -55 -124 -124c0 -72 54 -125 124 -125zM87 0l512 1413h90l511 -1413h-106l-124 352h-650
l-124 -352h-109zM351 438h588l-294 843z" />
    <glyph glyph-name="Atilde" unicode="&#xc3;" horiz-adv-x="1288" 
d="M787 1575c-170 0 -162 191 -285 190c-71 1 -115 -63 -115 -169h-60c0 146 68 233 178 232c159 1 155 -189 282 -189c62 0 107 70 107 180h62c0 -149 -68 -244 -169 -244zM87 0l512 1413h90l511 -1413h-106l-124 352h-650l-124 -352h-109zM351 438h588l-294 843z" />
    <glyph glyph-name="AE" unicode="&#xc6;" horiz-adv-x="1917" 
d="M87 0l510 1413h1193v-88h-786v-572h683v-85h-683v-578h786v-90h-884v352h-587l-123 -352h-109zM350 431h556v897h-244z" />
    <glyph glyph-name="B" unicode="B" horiz-adv-x="1271" 
d="M238 0v1413h408c244 0 413 -112 413 -358c0 -148 -88 -267 -203 -310c166 -34 271 -172 271 -360c0 -251 -175 -385 -447 -385h-442zM337 777h358c152 0 272 103 272 274c0 180 -113 272 -320 272h-310v-546zM337 94h344c230 0 349 102 349 301c0 180 -110 295 -297 295
h-396v-596z" />
    <glyph glyph-name="C" unicode="C" horiz-adv-x="1463" 
d="M776 -14c-408 0 -626 294 -626 723c0 431 219 718 637 718c279 0 462 -124 561 -374l-93 -37c-76 220 -228 317 -469 317c-355 0 -538 -238 -538 -620c0 -356 156 -632 528 -632c235 0 389 103 482 320l92 -37c-110 -248 -301 -378 -574 -378z" />
    <glyph glyph-name="Cacute" unicode="&#x106;" horiz-adv-x="1463" 
d="M689 1541l216 285h103l-243 -285h-76zM776 -14c-408 0 -626 294 -626 723c0 431 219 718 637 718c279 0 462 -124 561 -374l-93 -37c-76 220 -228 317 -469 317c-355 0 -538 -238 -538 -620c0 -356 156 -632 528 -632c235 0 389 103 482 320l92 -37
c-110 -248 -301 -378 -574 -378z" />
    <glyph glyph-name="Ccaron" unicode="&#x10c;" horiz-adv-x="1463" 
d="M736 1526l-296 300h85l211 -216l213 216h84zM776 -14c-408 0 -626 294 -626 723c0 431 219 718 637 718c279 0 462 -124 561 -374l-93 -37c-76 220 -228 317 -469 317c-355 0 -538 -238 -538 -620c0 -356 156 -632 528 -632c235 0 389 103 482 320l92 -37
c-110 -248 -301 -378 -574 -378z" />
    <glyph glyph-name="Ccedilla" unicode="&#xc7;" horiz-adv-x="1463" 
d="M1350 364c-102 -230 -273 -358 -514 -376l-78 -132c24 -1 47 -3 67 -7c122 -20 187 -82 187 -176c0 -113 -78 -187 -200 -187c-83 0 -162 53 -192 129l59 25c20 -56 74 -94 135 -94c86 0 137 45 137 124c0 77 -66 127 -186 138c-28 2 -57 3 -93 3l100 175
c-406 2 -622 296 -622 723c0 431 219 718 637 718c279 0 462 -124 561 -374l-93 -37c-76 220 -228 317 -469 317c-355 0 -538 -238 -538 -620c0 -356 156 -632 528 -632c235 0 389 103 482 320z" />
    <glyph glyph-name="Cdotaccent" unicode="&#x10a;" horiz-adv-x="1463" 
d="M687 1628v198h99v-198h-99zM776 -14c-408 0 -626 294 -626 723c0 431 219 718 637 718c279 0 462 -124 561 -374l-93 -37c-76 220 -228 317 -469 317c-355 0 -538 -238 -538 -620c0 -356 156 -632 528 -632c235 0 389 103 482 320l92 -37c-110 -248 -301 -378 -574 -378z
" />
    <glyph glyph-name="D" unicode="D" horiz-adv-x="1472" 
d="M238 0v1413h372c463 0 716 -257 716 -717c0 -443 -258 -696 -718 -696h-370zM337 91h262c398 0 628 203 628 609c0 412 -206 622 -619 622h-271v-1231z" />
    <glyph glyph-name="uni01F1" unicode="&#x1f1;" horiz-adv-x="2769" 
d="M610 1413c463 0 716 -257 716 -717c0 -443 -258 -696 -718 -696h-370v1413h372zM2658 1413v-82l-975 -1241h971v-90h-1100v81l975 1241h-927v91h1056zM599 91c398 0 628 203 628 609c0 412 -206 622 -619 622h-271v-1231h262z" />
    <glyph glyph-name="uni01C4" unicode="&#x1c4;" horiz-adv-x="2769" 
d="M2408 1826l-297 -300l-296 300h85l211 -216l213 216h84zM610 1413c463 0 716 -257 716 -717c0 -443 -258 -696 -718 -696h-370v1413h372zM2658 1413v-82l-975 -1241h971v-90h-1100v81l975 1241h-927v91h1056zM599 91c398 0 628 203 628 609c0 412 -206 622 -619 622h-271
v-1231h262z" />
    <glyph glyph-name="Eth" unicode="&#xd0;" horiz-adv-x="1472" 
d="M610 1413c463 0 716 -257 716 -717c0 -443 -258 -696 -718 -696h-370v673h-153v68h153v672h372zM599 91c398 0 628 203 628 609c0 412 -206 622 -619 622h-271v-581h383v-68h-383v-582h262z" />
    <glyph glyph-name="Dcaron" unicode="&#x10e;" horiz-adv-x="1472" 
d="M753 1526l-296 300h85l211 -216l213 216h84zM238 0v1413h372c463 0 716 -257 716 -717c0 -443 -258 -696 -718 -696h-370zM337 91h262c398 0 628 203 628 609c0 412 -206 622 -619 622h-271v-1231z" />
    <glyph glyph-name="Dcroat" unicode="&#x110;" horiz-adv-x="1472" 
d="M610 1413c463 0 716 -257 716 -717c0 -443 -258 -696 -718 -696h-370v673h-153v68h153v672h372zM599 91c398 0 628 203 628 609c0 412 -206 622 -619 622h-271v-581h383v-68h-383v-582h262z" />
    <glyph glyph-name="uni01F2" unicode="&#x1f2;" horiz-adv-x="2445" 
d="M610 1413c463 0 716 -257 716 -717c0 -443 -258 -696 -718 -696h-370v1413h372zM599 91c398 0 628 203 628 609c0 412 -206 622 -619 622h-271v-1231h262zM2361 999v-84l-692 -833h686v-82h-809v76l703 842h-667v81h779z" />
    <glyph glyph-name="uni01C5" unicode="&#x1c5;" horiz-adv-x="2445" 
d="M610 1413c463 0 716 -257 716 -717c0 -443 -258 -696 -718 -696h-370v1413h372zM2249 1413l-297 -300l-296 300h85l211 -216l213 216h84zM599 91c398 0 628 203 628 609c0 412 -206 622 -619 622h-271v-1231h262zM2361 999v-84l-692 -833h686v-82h-809v76l703 842h-667
v81h779z" />
    <glyph glyph-name="E" unicode="E" horiz-adv-x="1283" 
d="M238 0v1413h918v-91h-819v-566h730v-91h-730v-571h819v-94h-918z" />
    <glyph glyph-name="Eacute" unicode="&#xc9;" horiz-adv-x="1283" 
d="M650 1541l216 285h103l-243 -285h-76zM238 0v1413h918v-91h-819v-566h730v-91h-730v-571h819v-94h-918z" />
    <glyph glyph-name="Ecaron" unicode="&#x11a;" horiz-adv-x="1283" 
d="M697 1526l-296 300h85l211 -216l213 216h84zM238 0v1413h918v-91h-819v-566h730v-91h-730v-571h819v-94h-918z" />
    <glyph glyph-name="Ecircumflex" unicode="&#xca;" horiz-adv-x="1283" 
d="M401 1531l297 307l297 -307h-85l-212 219l-212 -219h-85zM238 0v1413h918v-91h-819v-566h730v-91h-730v-571h819v-94h-918z" />
    <glyph glyph-name="uni1EBE" unicode="&#x1ebe;" horiz-adv-x="1283" 
d="M650 1954l216 285h103l-243 -285h-76zM401 1531l297 307l297 -307h-85l-212 219l-212 -219h-85zM238 0v1413h918v-91h-819v-566h730v-91h-730v-571h819v-94h-918z" />
    <glyph glyph-name="uni1EC0" unicode="&#x1ec0;" horiz-adv-x="1283" 
d="M659 1954l-236 285h103l211 -285h-78zM401 1531l297 307l297 -307h-85l-212 219l-212 -219h-85zM238 0v1413h918v-91h-819v-566h730v-91h-730v-571h819v-94h-918z" />
    <glyph glyph-name="uni1EC4" unicode="&#x1ec4;" horiz-adv-x="1283" 
d="M843 1988c-170 0 -162 191 -285 190c-71 1 -115 -63 -115 -169h-60c0 146 68 233 178 232c159 1 155 -189 282 -189c62 0 107 70 107 180h62c0 -149 -68 -244 -169 -244zM401 1531l297 307l297 -307h-85l-212 219l-212 -219h-85zM238 0v1413h918v-91h-819v-566h730v-91
h-730v-571h819v-94h-918z" />
    <glyph glyph-name="Edieresis" unicode="&#xcb;" horiz-adv-x="1283" 
d="M479 1628v198h82v-198h-82zM832 1628v198h82v-198h-82zM238 0v1413h918v-91h-819v-566h730v-91h-730v-571h819v-94h-918z" />
    <glyph glyph-name="Edotaccent" unicode="&#x116;" horiz-adv-x="1283" 
d="M648 1628v198h99v-198h-99zM238 0v1413h918v-91h-819v-566h730v-91h-730v-571h819v-94h-918z" />
    <glyph glyph-name="Egrave" unicode="&#xc8;" horiz-adv-x="1283" 
d="M659 1541l-236 285h103l211 -285h-78zM238 0v1413h918v-91h-819v-566h730v-91h-730v-571h819v-94h-918z" />
    <glyph glyph-name="Emacron" unicode="&#x112;" horiz-adv-x="1283" 
d="M427 1657v61h544v-61h-544zM238 0v1413h918v-91h-819v-566h730v-91h-730v-571h819v-94h-918z" />
    <glyph glyph-name="Eogonek" unicode="&#x118;" horiz-adv-x="1283" 
d="M1187 -304l52 -36c-52 -77 -118 -117 -213 -117c-124 0 -202 69 -202 184c0 136 125 239 236 273h-822v1413h918v-91h-819v-566h730v-91h-730v-571h819v-94c-138 -38 -270 -136 -270 -262c0 -90 52 -132 138 -132c71 0 120 29 163 90z" />
    <glyph glyph-name="uni1EBC" unicode="&#x1ebc;" horiz-adv-x="1283" 
d="M843 1575c-170 0 -162 191 -285 190c-71 1 -115 -63 -115 -169h-60c0 146 68 233 178 232c159 1 155 -189 282 -189c62 0 107 70 107 180h62c0 -149 -68 -244 -169 -244zM238 0v1413h918v-91h-819v-566h730v-91h-730v-571h819v-94h-918z" />
    <glyph glyph-name="F" unicode="F" horiz-adv-x="1268" 
d="M238 0v1413h939v-91h-840v-566h737v-91h-737v-665h-99z" />
    <glyph glyph-name="G" unicode="G" horiz-adv-x="1544" 
d="M776 -14c-408 0 -626 294 -626 723c0 431 218 718 637 718c279 0 461 -124 561 -374l-89 -37c-81 222 -234 324 -473 324c-355 0 -538 -245 -538 -627c0 -356 156 -637 528 -637c250 0 415 122 483 357l2 201h-354v82h451v-716h-81l-7 272c-98 -183 -262 -286 -494 -286z
" />
    <glyph glyph-name="Gbreve" unicode="&#x11e;" horiz-adv-x="1544" 
d="M781 1563c-200 0 -302 93 -302 263h71c0 -133 85 -202 231 -202c147 0 229 70 229 202h71c0 -173 -105 -263 -300 -263zM776 -14c-408 0 -626 294 -626 723c0 431 218 718 637 718c279 0 461 -124 561 -374l-89 -37c-81 222 -234 324 -473 324
c-355 0 -538 -245 -538 -627c0 -356 156 -637 528 -637c250 0 415 122 483 357l2 201h-354v82h451v-716h-81l-7 272c-98 -183 -262 -286 -494 -286z" />
    <glyph glyph-name="uni0122" unicode="&#x122;" horiz-adv-x="1544" 
d="M776 -14c-408 0 -626 294 -626 723c0 431 218 718 637 718c279 0 461 -124 561 -374l-89 -37c-81 222 -234 324 -473 324c-355 0 -538 -245 -538 -627c0 -356 156 -637 528 -637c250 0 415 122 483 357l2 201h-354v82h451v-716h-81l-7 272c-98 -183 -262 -286 -494 -286z
M557 -444l198 329h102l-234 -329h-66z" />
    <glyph glyph-name="Gdotaccent" unicode="&#x120;" horiz-adv-x="1544" 
d="M731 1628v198h99v-198h-99zM776 -14c-408 0 -626 294 -626 723c0 431 218 718 637 718c279 0 461 -124 561 -374l-89 -37c-81 222 -234 324 -473 324c-355 0 -538 -245 -538 -627c0 -356 156 -637 528 -637c250 0 415 122 483 357l2 201h-354v82h451v-716h-81l-7 272
c-98 -183 -262 -286 -494 -286z" />
    <glyph glyph-name="H" unicode="H" horiz-adv-x="1455" 
d="M238 0v1413h99v-655h782v655h98v-1413h-98v666h-782v-666h-99z" />
    <glyph glyph-name="Hbar" unicode="&#x126;" horiz-adv-x="1455" 
d="M1364 1146v-61h-147v-1085h-98v666h-782v-666h-99v1085h-145v61h145v267h99v-267h782v267h98v-267h147zM1119 758v327h-782v-327h782z" />
    <glyph glyph-name="I" unicode="I" horiz-adv-x="575" 
d="M238 0v1413h99v-1413h-99z" />
    <glyph glyph-name="IJ" unicode="&#x132;" horiz-adv-x="1757" 
d="M238 0v1413h99v-1413h-99zM1112 -14c-259 0 -424 172 -442 417l97 10c14 -201 138 -334 345 -334c233 0 335 148 335 436v807h-589v91h687v-896c0 -334 -136 -531 -433 -531z" />
    <glyph glyph-name="Iacute" unicode="&#xcd;" horiz-adv-x="575" 
d="M238 1541l216 285h103l-243 -285h-76zM238 0v1413h99v-1413h-99z" />
    <glyph glyph-name="uni01CF" unicode="&#x1cf;" horiz-adv-x="575" 
d="M285 1526l-296 300h85l211 -216l213 216h84zM238 0v1413h99v-1413h-99z" />
    <glyph glyph-name="Icircumflex" unicode="&#xce;" horiz-adv-x="575" 
d="M-11 1531l297 307l297 -307h-85l-212 219l-212 -219h-85zM238 0v1413h99v-1413h-99z" />
    <glyph glyph-name="Idieresis" unicode="&#xcf;" horiz-adv-x="575" 
d="M67 1628v198h82v-198h-82zM420 1628v198h82v-198h-82zM238 0v1413h99v-1413h-99z" />
    <glyph glyph-name="Idotaccent" unicode="&#x130;" horiz-adv-x="575" 
d="M236 1628v198h99v-198h-99zM238 0v1413h99v-1413h-99z" />
    <glyph glyph-name="Igrave" unicode="&#xcc;" horiz-adv-x="575" 
d="M247 1541l-236 285h103l211 -285h-78zM238 0v1413h99v-1413h-99z" />
    <glyph glyph-name="Imacron" unicode="&#x12a;" horiz-adv-x="575" 
d="M15 1657v61h544v-61h-544zM238 0v1413h99v-1413h-99z" />
    <glyph glyph-name="Iogonek" unicode="&#x12e;" horiz-adv-x="575" 
d="M368 -304l52 -36c-52 -77 -118 -117 -213 -117c-124 0 -202 69 -202 184c0 136 125 239 236 273h-3v1413h99v-1413c-138 -38 -270 -136 -270 -262c0 -90 52 -132 138 -132c71 0 120 29 163 90z" />
    <glyph glyph-name="Itilde" unicode="&#x128;" horiz-adv-x="575" 
d="M431 1575c-170 0 -162 191 -285 190c-71 1 -115 -63 -115 -169h-60c0 146 68 233 178 232c159 1 155 -189 282 -189c62 0 107 70 107 180h62c0 -149 -68 -244 -169 -244zM238 0v1413h99v-1413h-99z" />
    <glyph glyph-name="J" unicode="J" horiz-adv-x="1182" 
d="M537 -14c-259 0 -424 172 -442 417l97 10c14 -201 138 -334 345 -334c233 0 335 148 335 436v807h-589v91h687v-896c0 -334 -136 -531 -433 -531z" />
    <glyph glyph-name="K" unicode="K" horiz-adv-x="1438" 
d="M238 0v1413h99v-886l847 886h133l-533 -549l568 -864h-122l-514 797l-379 -392v-405h-99z" />
    <glyph glyph-name="uni0136" unicode="&#x136;" horiz-adv-x="1438" 
d="M238 0v1413h99v-886l847 886h133l-533 -549l568 -864h-122l-514 797l-379 -392v-405h-99zM461 -444l198 329h102l-234 -329h-66z" />
    <glyph glyph-name="L" unicode="L" horiz-adv-x="1077" 
d="M238 0v1413h99v-1319h660v-94h-759z" />
    <glyph glyph-name="uni01C7" unicode="&#x1c7;" horiz-adv-x="2298" 
d="M238 0v1413h99v-1319h660v-94h-759zM1653 -14c-259 0 -424 172 -442 417l97 10c14 -201 138 -334 345 -334c233 0 335 148 335 436v807h-589v91h687v-896c0 -334 -136 -531 -433 -531z" />
    <glyph glyph-name="Lacute" unicode="&#x139;" horiz-adv-x="1077" 
d="M274 1541l216 285h103l-243 -285h-76zM238 0v1413h99v-1319h660v-94h-759z" />
    <glyph glyph-name="Lcaron" unicode="&#x13d;" horiz-adv-x="1706" 
d="M238 0v1413h99v-1319h660v-94h-759zM1290 1005l119 408h100l-156 -408h-63z" />
    <glyph glyph-name="uni013B" unicode="&#x13b;" horiz-adv-x="1077" 
d="M238 0v1413h99v-1319h660v-94h-759zM376 -444l198 329h102l-234 -329h-66z" />
    <glyph glyph-name="uni01C8" unicode="&#x1c8;" horiz-adv-x="1560" 
d="M238 0v1413h99v-1319h660v-94h-759zM1271 1215v198h99v-198h-99zM1113 -431c-46 0 -114 15 -158 31l26 84c42 -17 93 -28 124 -28c115 0 168 65 168 205v1138h95v-1132c0 -188 -80 -298 -255 -298z" />
    <glyph glyph-name="Lslash" unicode="&#x141;" horiz-adv-x="1077" 
d="M337 94h660v-94h-759v390l-131 -149v111l131 149v912h99v-800l383 435v-110l-383 -435v-409z" />
    <glyph glyph-name="M" unicode="M" horiz-adv-x="1769" 
d="M1393 1413h138v-1413h-95v1289l-503 -1176h-97l-503 1179v-1292h-95v1413h139l508 -1190z" />
    <glyph glyph-name="N" unicode="N" horiz-adv-x="1420" 
d="M1087 1413h95v-1413h-110l-739 1263v-1263h-95v1413h109l740 -1262v1262z" />
    <glyph glyph-name="uni01CA" unicode="&#x1ca;" horiz-adv-x="2602" 
d="M1087 151v1262h95v-1413h-110l-739 1263v-1263h-95v1413h109zM1703 1413h687v-896c0 -334 -136 -531 -433 -531c-259 0 -424 172 -442 417l97 10c14 -201 138 -334 345 -334c233 0 335 148 335 436v807h-589v91z" />
    <glyph glyph-name="Nacute" unicode="&#x143;" horiz-adv-x="1420" 
d="M980 1826l-243 -285h-76l216 285h103zM1087 1413h95v-1413h-110l-739 1263v-1263h-95v1413h109l740 -1262v1262z" />
    <glyph glyph-name="Ncaron" unicode="&#x147;" horiz-adv-x="1420" 
d="M1005 1826l-297 -300l-296 300h85l211 -216l213 216h84zM1087 1413h95v-1413h-110l-739 1263v-1263h-95v1413h109l740 -1262v1262z" />
    <glyph glyph-name="uni0145" unicode="&#x145;" horiz-adv-x="1420" 
d="M1087 1413h95v-1413h-110l-739 1263v-1263h-95v1413h109l740 -1262v1262zM467 -444l198 329h102l-234 -329h-66z" />
    <glyph glyph-name="Eng" unicode="&#x14a;" horiz-adv-x="1421" 
d="M1087 1413h94v-1451c0 -172 -73 -298 -267 -298c-40 0 -99 10 -147 25l6 67c39 -14 89 -23 119 -23c142 0 202 85 202 188c0 30 -7 50 -14 63l-747 1282v-1266h-95v1413h109l740 -1265v1265z" />
    <glyph glyph-name="uni01CB" unicode="&#x1cb;" horiz-adv-x="1899" 
d="M1087 151v1262h95v-1413h-110l-739 1263v-1263h-95v1413h109zM1610 1413h99v-198h-99v198zM1612 -139v1138h95v-1132c0 -188 -80 -298 -255 -298c-46 0 -114 15 -158 31l26 84c42 -17 93 -28 124 -28c115 0 168 65 168 205z" />
    <glyph glyph-name="Ntilde" unicode="&#xd1;" horiz-adv-x="1420" 
d="M569 1765c-71 1 -115 -63 -115 -169h-60c0 146 68 233 178 232c159 1 155 -189 282 -189c62 0 107 70 107 180h62c0 -149 -68 -244 -169 -244c-170 0 -162 191 -285 190zM1087 1413h95v-1413h-110l-739 1263v-1263h-95v1413h109l740 -1262v1262z" />
    <glyph glyph-name="O" unicode="O" horiz-adv-x="1569" 
d="M783 -14c-431 0 -636 336 -636 721s205 720 636 720c434 0 638 -335 638 -720s-204 -721 -638 -721zM783 75c371 0 535 289 535 632c0 342 -164 631 -535 631c-369 0 -532 -289 -532 -631c0 -343 163 -632 532 -632z" />
    <glyph glyph-name="Oacute" unicode="&#xd3;" horiz-adv-x="1569" 
d="M735 1541l216 285h103l-243 -285h-76zM783 -14c-431 0 -636 336 -636 721s205 720 636 720c434 0 638 -335 638 -720s-204 -721 -638 -721zM783 75c371 0 535 289 535 632c0 342 -164 631 -535 631c-369 0 -532 -289 -532 -631c0 -343 163 -632 532 -632z" />
    <glyph glyph-name="uni01D1" unicode="&#x1d1;" horiz-adv-x="1569" 
d="M782 1526l-296 300h85l211 -216l213 216h84zM783 -14c-431 0 -636 336 -636 721s205 720 636 720c434 0 638 -335 638 -720s-204 -721 -638 -721zM783 75c371 0 535 289 535 632c0 342 -164 631 -535 631c-369 0 -532 -289 -532 -631c0 -343 163 -632 532 -632z" />
    <glyph glyph-name="Ocircumflex" unicode="&#xd4;" horiz-adv-x="1569" 
d="M486 1531l297 307l297 -307h-85l-212 219l-212 -219h-85zM783 -14c-431 0 -636 336 -636 721s205 720 636 720c434 0 638 -335 638 -720s-204 -721 -638 -721zM783 75c371 0 535 289 535 632c0 342 -164 631 -535 631c-369 0 -532 -289 -532 -631
c0 -343 163 -632 532 -632z" />
    <glyph glyph-name="uni1ED0" unicode="&#x1ed0;" horiz-adv-x="1569" 
d="M735 1954l216 285h103l-243 -285h-76zM486 1531l297 307l297 -307h-85l-212 219l-212 -219h-85zM783 -14c-431 0 -636 336 -636 721s205 720 636 720c434 0 638 -335 638 -720s-204 -721 -638 -721zM783 75c371 0 535 289 535 632c0 342 -164 631 -535 631
c-369 0 -532 -289 -532 -631c0 -343 163 -632 532 -632z" />
    <glyph glyph-name="uni1ED2" unicode="&#x1ed2;" horiz-adv-x="1569" 
d="M744 1954l-236 285h103l211 -285h-78zM486 1531l297 307l297 -307h-85l-212 219l-212 -219h-85zM783 -14c-431 0 -636 336 -636 721s205 720 636 720c434 0 638 -335 638 -720s-204 -721 -638 -721zM783 75c371 0 535 289 535 632c0 342 -164 631 -535 631
c-369 0 -532 -289 -532 -631c0 -343 163 -632 532 -632z" />
    <glyph glyph-name="uni1ED6" unicode="&#x1ed6;" horiz-adv-x="1569" 
d="M928 1988c-170 0 -162 191 -285 190c-71 1 -115 -63 -115 -169h-60c0 146 68 233 178 232c159 1 155 -189 282 -189c62 0 107 70 107 180h62c0 -149 -68 -244 -169 -244zM486 1531l297 307l297 -307h-85l-212 219l-212 -219h-85zM783 -14c-431 0 -636 336 -636 721
s205 720 636 720c434 0 638 -335 638 -720s-204 -721 -638 -721zM783 75c371 0 535 289 535 632c0 342 -164 631 -535 631c-369 0 -532 -289 -532 -631c0 -343 163 -632 532 -632z" />
    <glyph glyph-name="Odieresis" unicode="&#xd6;" horiz-adv-x="1569" 
d="M564 1628v198h82v-198h-82zM917 1628v198h82v-198h-82zM783 -14c-431 0 -636 336 -636 721s205 720 636 720c434 0 638 -335 638 -720s-204 -721 -638 -721zM783 75c371 0 535 289 535 632c0 342 -164 631 -535 631c-369 0 -532 -289 -532 -631c0 -343 163 -632 532 -632
z" />
    <glyph glyph-name="Ograve" unicode="&#xd2;" horiz-adv-x="1569" 
d="M744 1541l-236 285h103l211 -285h-78zM783 -14c-431 0 -636 336 -636 721s205 720 636 720c434 0 638 -335 638 -720s-204 -721 -638 -721zM783 75c371 0 535 289 535 632c0 342 -164 631 -535 631c-369 0 -532 -289 -532 -631c0 -343 163 -632 532 -632z" />
    <glyph glyph-name="Ohungarumlaut" unicode="&#x150;" horiz-adv-x="1569" 
d="M569 1528l216 298h89l-229 -298h-76zM895 1528l216 298h103l-243 -298h-76zM783 -14c-431 0 -636 336 -636 721s205 720 636 720c434 0 638 -335 638 -720s-204 -721 -638 -721zM783 75c371 0 535 289 535 632c0 342 -164 631 -535 631c-369 0 -532 -289 -532 -631
c0 -343 163 -632 532 -632z" />
    <glyph glyph-name="Omacron" unicode="&#x14c;" horiz-adv-x="1569" 
d="M512 1657v61h544v-61h-544zM783 -14c-431 0 -636 336 -636 721s205 720 636 720c434 0 638 -335 638 -720s-204 -721 -638 -721zM783 75c371 0 535 289 535 632c0 342 -164 631 -535 631c-369 0 -532 -289 -532 -631c0 -343 163 -632 532 -632z" />
    <glyph glyph-name="Oslash" unicode="&#xd8;" horiz-adv-x="1569" 
d="M1187 1292c158 -133 234 -350 234 -585c0 -385 -204 -721 -638 -721c-142 0 -259 36 -353 99l-53 -85h-76l78 124c-156 133 -232 349 -232 583c0 385 205 720 636 720c141 0 259 -36 352 -97l52 83h76zM251 707c0 -202 57 -385 179 -502l656 1046c-80 55 -180 87 -303 87
c-369 0 -532 -289 -532 -631zM783 75c371 0 535 289 535 632c0 203 -58 387 -182 503l-656 -1046c79 -56 179 -89 303 -89z" />
    <glyph glyph-name="Oslashacute" unicode="&#x1fe;" horiz-adv-x="1569" 
d="M1054 1826l-243 -285h-76l216 285h103zM1187 1292c158 -133 234 -350 234 -585c0 -385 -204 -721 -638 -721c-142 0 -259 36 -353 99l-53 -85h-76l78 124c-156 133 -232 349 -232 583c0 385 205 720 636 720c141 0 259 -36 352 -97l52 83h76zM251 707
c0 -202 57 -385 179 -502l656 1046c-80 55 -180 87 -303 87c-369 0 -532 -289 -532 -631zM783 75c371 0 535 289 535 632c0 203 -58 387 -182 503l-656 -1046c79 -56 179 -89 303 -89z" />
    <glyph glyph-name="Otilde" unicode="&#xd5;" horiz-adv-x="1569" 
d="M928 1575c-170 0 -162 191 -285 190c-71 1 -115 -63 -115 -169h-60c0 146 68 233 178 232c159 1 155 -189 282 -189c62 0 107 70 107 180h62c0 -149 -68 -244 -169 -244zM783 -14c-431 0 -636 336 -636 721s205 720 636 720c434 0 638 -335 638 -720s-204 -721 -638 -721
zM783 75c371 0 535 289 535 632c0 342 -164 631 -535 631c-369 0 -532 -289 -532 -631c0 -343 163 -632 532 -632z" />
    <glyph glyph-name="OE" unicode="&#x152;" horiz-adv-x="2371" 
d="M2243 1322h-819v-566h730v-91h-730v-571h819v-94h-918v293c-100 -183 -278 -307 -542 -307c-431 0 -636 336 -636 721s205 720 636 720c264 0 442 -124 542 -307v293h918v-91zM783 75c371 0 535 289 535 632c0 342 -164 631 -535 631c-369 0 -532 -289 -532 -631
c0 -343 163 -632 532 -632z" />
    <glyph glyph-name="P" unicode="P" horiz-adv-x="1186" 
d="M238 0v1413h370c284 0 467 -146 467 -394c0 -250 -179 -390 -467 -390h-272v-629h-98zM336 722h272c243 0 370 106 370 297c0 189 -132 301 -370 301h-272v-598z" />
    <glyph glyph-name="Thorn" unicode="&#xde;" horiz-adv-x="1181" 
d="M238 0v1413h91v-207h294c283 0 445 -148 445 -388c0 -256 -177 -393 -463 -393h-276v-425h-91zM329 509h276c243 0 373 109 373 306c0 196 -134 311 -373 311h-276v-617z" />
    <glyph glyph-name="Q" unicode="Q" horiz-adv-x="1595" 
d="M1384 -76l-202 201c-101 -87 -233 -139 -400 -139c-432 0 -636 336 -636 721s204 720 636 720c434 0 638 -336 638 -721c0 -204 -57 -392 -172 -522l201 -198zM782 80c140 0 250 42 331 112l-250 244l65 61l249 -244c98 116 145 275 145 454c0 342 -169 626 -540 626
c-369 0 -538 -284 -538 -626c0 -343 169 -627 538 -627z" />
    <glyph glyph-name="R" unicode="R" horiz-adv-x="1262" 
d="M238 0v1413h375c275 0 464 -139 464 -387c0 -195 -116 -321 -307 -362l391 -664h-111l-376 653c-30 -2 -64 -4 -99 -4h-238v-649h-99zM337 732h284c229 2 358 104 358 293c0 190 -137 299 -365 299h-277v-592z" />
    <glyph glyph-name="Racute" unicode="&#x154;" horiz-adv-x="1262" 
d="M576 1541l216 285h103l-243 -285h-76zM238 0v1413h375c275 0 464 -139 464 -387c0 -195 -116 -321 -307 -362l391 -664h-111l-376 653c-30 -2 -64 -4 -99 -4h-238v-649h-99zM337 732h284c229 2 358 104 358 293c0 190 -137 299 -365 299h-277v-592z" />
    <glyph glyph-name="Rcaron" unicode="&#x158;" horiz-adv-x="1262" 
d="M623 1526l-296 300h85l211 -216l213 216h84zM238 0v1413h375c275 0 464 -139 464 -387c0 -195 -116 -321 -307 -362l391 -664h-111l-376 653c-30 -2 -64 -4 -99 -4h-238v-649h-99zM337 732h284c229 2 358 104 358 293c0 190 -137 299 -365 299h-277v-592z" />
    <glyph glyph-name="uni0156" unicode="&#x156;" horiz-adv-x="1262" 
d="M238 0v1413h375c275 0 464 -139 464 -387c0 -195 -116 -321 -307 -362l391 -664h-111l-376 653c-30 -2 -64 -4 -99 -4h-238v-649h-99zM337 732h284c229 2 358 104 358 293c0 190 -137 299 -365 299h-277v-592zM457 -444l198 329h102l-234 -329h-66z" />
    <glyph glyph-name="S" unicode="S" horiz-adv-x="1153" 
d="M588 -12c-241 0 -435 137 -476 379l98 23c30 -202 178 -314 380 -314c205 0 343 127 343 297c0 396 -740 268 -740 703c0 210 169 351 385 351c173 0 303 -68 391 -221l-82 -51c-71 125 -170 183 -312 183c-163 0 -284 -109 -284 -258c0 -359 740 -235 740 -700
c0 -233 -191 -392 -443 -392z" />
    <glyph glyph-name="Sacute" unicode="&#x15a;" horiz-adv-x="1153" 
d="M520 1541l216 285h103l-243 -285h-76zM588 -12c-241 0 -435 137 -476 379l98 23c30 -202 178 -314 380 -314c205 0 343 127 343 297c0 396 -740 268 -740 703c0 210 169 351 385 351c173 0 303 -68 391 -221l-82 -51c-71 125 -170 183 -312 183
c-163 0 -284 -109 -284 -258c0 -359 740 -235 740 -700c0 -233 -191 -392 -443 -392z" />
    <glyph glyph-name="Scaron" unicode="&#x160;" horiz-adv-x="1153" 
d="M567 1526l-296 300h85l211 -216l213 216h84zM588 -12c-241 0 -435 137 -476 379l98 23c30 -202 178 -314 380 -314c205 0 343 127 343 297c0 396 -740 268 -740 703c0 210 169 351 385 351c173 0 303 -68 391 -221l-82 -51c-71 125 -170 183 -312 183
c-163 0 -284 -109 -284 -258c0 -359 740 -235 740 -700c0 -233 -191 -392 -443 -392z" />
    <glyph glyph-name="Scedilla" unicode="&#x15e;" horiz-adv-x="1153" 
d="M1031 380c0 -231 -188 -390 -437 -392l-78 -132c24 -1 47 -3 67 -7c122 -20 187 -82 187 -176c0 -113 -78 -187 -200 -187c-83 0 -162 53 -192 129l59 25c20 -56 74 -94 135 -94c86 0 137 45 137 124c0 77 -66 127 -186 138c-28 2 -57 3 -93 3l102 180
c-215 19 -382 153 -420 376l98 23c30 -202 178 -314 380 -314c205 0 343 127 343 297c0 396 -740 268 -740 703c0 210 169 351 385 351c173 0 303 -68 391 -221l-82 -51c-71 125 -170 183 -312 183c-163 0 -284 -109 -284 -258c0 -359 740 -235 740 -700z" />
    <glyph glyph-name="uni0218" unicode="&#x218;" horiz-adv-x="1153" 
d="M588 -12c-241 0 -435 137 -476 379l98 23c30 -202 178 -314 380 -314c205 0 343 127 343 297c0 396 -740 268 -740 703c0 210 169 351 385 351c173 0 303 -68 391 -221l-82 -51c-71 125 -170 183 -312 183c-163 0 -284 -109 -284 -258c0 -359 740 -235 740 -700
c0 -233 -191 -392 -443 -392zM326 -444l198 329h102l-234 -329h-66z" />
    <glyph glyph-name="T" unicode="T" horiz-adv-x="1277" 
d="M590 0v1324h-511v89h1118v-89h-509v-1324h-98z" />
    <glyph glyph-name="Tbar" unicode="&#x166;" horiz-adv-x="1277" 
d="M1197 1324h-509v-583h272v-68h-272v-673h-98v673h-265v68h265v583h-511v89h1118v-89z" />
    <glyph glyph-name="Tcaron" unicode="&#x164;" horiz-adv-x="1277" 
d="M641 1526l-296 300h85l211 -216l213 216h84zM590 0v1324h-511v89h1118v-89h-509v-1324h-98z" />
    <glyph glyph-name="uni0162" unicode="&#x162;" horiz-adv-x="1277" 
d="M590 0v1324h-511v89h1118v-89h-509v-1324h-98zM644 -514c-83 0 -162 53 -192 129l59 25c20 -56 74 -94 135 -94c86 0 137 45 137 124c0 77 -66 127 -186 138c-28 2 -57 3 -93 3l107 188h63l-84 -143c24 -1 47 -3 67 -7c122 -20 187 -82 187 -176
c0 -113 -78 -187 -200 -187z" />
    <glyph glyph-name="uni021A" unicode="&#x21a;" horiz-adv-x="1277" 
d="M590 0v1324h-511v89h1118v-89h-509v-1324h-98zM400 -444l198 329h102l-234 -329h-66z" />
    <glyph glyph-name="U" unicode="U" horiz-adv-x="1408" 
d="M702 -14c-327 0 -492 200 -492 538v889h98v-880c0 -290 126 -451 394 -451c271 0 398 164 398 458v873h98v-879c0 -346 -167 -548 -496 -548z" />
    <glyph glyph-name="Uacute" unicode="&#xda;" horiz-adv-x="1408" 
d="M657 1541l216 285h103l-243 -285h-76zM702 -14c-327 0 -492 200 -492 538v889h98v-880c0 -290 126 -451 394 -451c271 0 398 164 398 458v873h98v-879c0 -346 -167 -548 -496 -548z" />
    <glyph glyph-name="uni01D3" unicode="&#x1d3;" horiz-adv-x="1408" 
d="M704 1526l-296 300h85l211 -216l213 216h84zM702 -14c-327 0 -492 200 -492 538v889h98v-880c0 -290 126 -451 394 -451c271 0 398 164 398 458v873h98v-879c0 -346 -167 -548 -496 -548z" />
    <glyph glyph-name="Ucircumflex" unicode="&#xdb;" horiz-adv-x="1408" 
d="M408 1531l297 307l297 -307h-85l-212 219l-212 -219h-85zM702 -14c-327 0 -492 200 -492 538v889h98v-880c0 -290 126 -451 394 -451c271 0 398 164 398 458v873h98v-879c0 -346 -167 -548 -496 -548z" />
    <glyph glyph-name="Udieresis" unicode="&#xdc;" horiz-adv-x="1408" 
d="M486 1628v198h82v-198h-82zM839 1628v198h82v-198h-82zM702 -14c-327 0 -492 200 -492 538v889h98v-880c0 -290 126 -451 394 -451c271 0 398 164 398 458v873h98v-879c0 -346 -167 -548 -496 -548z" />
    <glyph glyph-name="uni01D7" unicode="&#x1d7;" horiz-adv-x="1408" 
d="M657 1955l216 285h103l-243 -285h-76zM486 1628v198h82v-198h-82zM839 1628v198h82v-198h-82zM702 -14c-327 0 -492 200 -492 538v889h98v-880c0 -290 126 -451 394 -451c271 0 398 164 398 458v873h98v-879c0 -346 -167 -548 -496 -548z" />
    <glyph glyph-name="uni01D9" unicode="&#x1d9;" horiz-adv-x="1408" 
d="M704 1940l-296 300h85l211 -216l213 216h84zM486 1628v198h82v-198h-82zM839 1628v198h82v-198h-82zM702 -14c-327 0 -492 200 -492 538v889h98v-880c0 -290 126 -451 394 -451c271 0 398 164 398 458v873h98v-879c0 -346 -167 -548 -496 -548z" />
    <glyph glyph-name="uni01DB" unicode="&#x1db;" horiz-adv-x="1408" 
d="M666 1955l-236 285h103l211 -285h-78zM486 1628v198h82v-198h-82zM839 1628v198h82v-198h-82zM702 -14c-327 0 -492 200 -492 538v889h98v-880c0 -290 126 -451 394 -451c271 0 398 164 398 458v873h98v-879c0 -346 -167 -548 -496 -548z" />
    <glyph glyph-name="uni01D5" unicode="&#x1d5;" horiz-adv-x="1408" 
d="M434 2071v61h544v-61h-544zM486 1628v198h82v-198h-82zM839 1628v198h82v-198h-82zM702 -14c-327 0 -492 200 -492 538v889h98v-880c0 -290 126 -451 394 -451c271 0 398 164 398 458v873h98v-879c0 -346 -167 -548 -496 -548z" />
    <glyph glyph-name="Ugrave" unicode="&#xd9;" horiz-adv-x="1408" 
d="M666 1541l-236 285h103l211 -285h-78zM702 -14c-327 0 -492 200 -492 538v889h98v-880c0 -290 126 -451 394 -451c271 0 398 164 398 458v873h98v-879c0 -346 -167 -548 -496 -548z" />
    <glyph glyph-name="Uhungarumlaut" unicode="&#x170;" horiz-adv-x="1408" 
d="M491 1528l216 298h89l-229 -298h-76zM817 1528l216 298h103l-243 -298h-76zM702 -14c-327 0 -492 200 -492 538v889h98v-880c0 -290 126 -451 394 -451c271 0 398 164 398 458v873h98v-879c0 -346 -167 -548 -496 -548z" />
    <glyph glyph-name="Umacron" unicode="&#x16a;" horiz-adv-x="1408" 
d="M434 1657v61h544v-61h-544zM702 -14c-327 0 -492 200 -492 538v889h98v-880c0 -290 126 -451 394 -451c271 0 398 164 398 458v873h98v-879c0 -346 -167 -548 -496 -548z" />
    <glyph glyph-name="Uogonek" unicode="&#x172;" horiz-adv-x="1408" 
d="M1100 1413h98v-879c0 -294 -120 -483 -358 -534c-99 -49 -177 -130 -177 -227c0 -90 52 -132 138 -132c71 0 120 29 163 90l52 -36c-52 -77 -118 -117 -213 -117c-124 0 -202 69 -202 184c0 95 61 174 136 225c-12 -1 -23 -1 -35 -1c-327 0 -492 200 -492 538v889h98
v-880c0 -290 126 -451 394 -451c271 0 398 164 398 458v873z" />
    <glyph glyph-name="Uring" unicode="&#x16e;" horiz-adv-x="1408" 
d="M703 1516c-102 0 -182 82 -182 182c0 101 81 182 182 182c99 0 182 -81 182 -182s-80 -182 -182 -182zM703 1574c70 0 125 55 125 125c0 69 -53 124 -125 124c-70 0 -124 -55 -124 -124c0 -72 54 -125 124 -125zM702 -14c-327 0 -492 200 -492 538v889h98v-880
c0 -290 126 -451 394 -451c271 0 398 164 398 458v873h98v-879c0 -346 -167 -548 -496 -548z" />
    <glyph glyph-name="Utilde" unicode="&#x168;" horiz-adv-x="1408" 
d="M850 1575c-170 0 -162 191 -285 190c-71 1 -115 -63 -115 -169h-60c0 146 68 233 178 232c159 1 155 -189 282 -189c62 0 107 70 107 180h62c0 -149 -68 -244 -169 -244zM702 -14c-327 0 -492 200 -492 538v889h98v-880c0 -290 126 -451 394 -451c271 0 398 164 398 458
v873h98v-879c0 -346 -167 -548 -496 -548z" />
    <glyph glyph-name="V" unicode="V" horiz-adv-x="1369" 
d="M1177 1413h108l-557 -1413h-85l-558 1413h108l493 -1270z" />
    <glyph glyph-name="W" unicode="W" horiz-adv-x="1972" 
d="M499 0l-402 1413h103l357 -1276l387 1202h83l387 -1202l358 1276h103l-402 -1413h-104l-383 1185l-383 -1185h-104z" />
    <glyph glyph-name="Wacute" unicode="&#x1e82;" horiz-adv-x="1972" 
d="M944 1521l216 285h103l-243 -285h-76zM499 0l-402 1413h103l357 -1276l387 1202h83l387 -1202l358 1276h103l-402 -1413h-104l-383 1185l-383 -1185h-104z" />
    <glyph glyph-name="Wcircumflex" unicode="&#x174;" horiz-adv-x="1972" 
d="M695 1511l297 307l297 -307h-85l-212 219l-212 -219h-85zM499 0l-402 1413h103l357 -1276l387 1202h83l387 -1202l358 1276h103l-402 -1413h-104l-383 1185l-383 -1185h-104z" />
    <glyph glyph-name="Wdieresis" unicode="&#x1e84;" horiz-adv-x="1972" 
d="M773 1608v198h82v-198h-82zM1126 1608v198h82v-198h-82zM499 0l-402 1413h103l357 -1276l387 1202h83l387 -1202l358 1276h103l-402 -1413h-104l-383 1185l-383 -1185h-104z" />
    <glyph glyph-name="Wgrave" unicode="&#x1e80;" horiz-adv-x="1972" 
d="M953 1521l-236 285h103l211 -285h-78zM499 0l-402 1413h103l357 -1276l387 1202h83l387 -1202l358 1276h103l-402 -1413h-104l-383 1185l-383 -1185h-104z" />
    <glyph glyph-name="X" unicode="X" horiz-adv-x="1319" 
d="M93 0l500 715l-489 698h118l437 -633l438 633h117l-488 -698l500 -715h-117l-450 646l-449 -646h-117z" />
    <glyph glyph-name="Y" unicode="Y" horiz-adv-x="1331" 
d="M614 0v536l-540 877h119l471 -779l473 779h120l-541 -877v-536h-102z" />
    <glyph glyph-name="Yacute" unicode="&#xdd;" horiz-adv-x="1331" 
d="M616 1542l216 285h103l-243 -285h-76zM614 0v536l-540 877h119l471 -779l473 779h120l-541 -877v-536h-102z" />
    <glyph glyph-name="Ycircumflex" unicode="&#x176;" horiz-adv-x="1331" 
d="M367 1532l297 307l297 -307h-85l-212 219l-212 -219h-85zM614 0v536l-540 877h119l471 -779l473 779h120l-541 -877v-536h-102z" />
    <glyph glyph-name="Ydieresis" unicode="&#x178;" horiz-adv-x="1331" 
d="M445 1629v198h82v-198h-82zM798 1629v198h82v-198h-82zM614 0v536l-540 877h119l471 -779l473 779h120l-541 -877v-536h-102z" />
    <glyph glyph-name="Ygrave" unicode="&#x1ef2;" horiz-adv-x="1331" 
d="M625 1542l-236 285h103l211 -285h-78zM614 0v536l-540 877h119l471 -779l473 779h120l-541 -877v-536h-102z" />
    <glyph glyph-name="uni1EF8" unicode="&#x1ef8;" horiz-adv-x="1331" 
d="M809 1576c-170 0 -162 191 -285 190c-71 1 -115 -63 -115 -169h-60c0 146 68 233 178 232c159 1 155 -189 282 -189c62 0 107 70 107 180h62c0 -149 -68 -244 -169 -244zM614 0v536l-540 877h119l471 -779l473 779h120l-541 -877v-536h-102z" />
    <glyph glyph-name="Z" unicode="Z" horiz-adv-x="1317" 
d="M1206 1413v-82l-975 -1241h971v-90h-1100v81l975 1241h-927v91h1056z" />
    <glyph glyph-name="Zacute" unicode="&#x179;" horiz-adv-x="1317" 
d="M931 1826l-243 -285h-76l216 285h103zM1206 1413v-82l-975 -1241h971v-90h-1100v81l975 1241h-927v91h1056z" />
    <glyph glyph-name="Zcaron" unicode="&#x17d;" horiz-adv-x="1317" 
d="M956 1826l-297 -300l-296 300h85l211 -216l213 216h84zM1206 1413v-82l-975 -1241h971v-90h-1100v81l975 1241h-927v91h1056z" />
    <glyph glyph-name="Zdotaccent" unicode="&#x17b;" horiz-adv-x="1317" 
d="M709 1826v-198h-99v198h99zM1206 1413v-82l-975 -1241h971v-90h-1100v81l975 1241h-927v91h1056z" />
    <glyph glyph-name="a" unicode="a" horiz-adv-x="1068" 
d="M517 1013c250 0 387 -148 387 -401v-612h-81l-6 225c-80 -158 -220 -239 -380 -239c-202 0 -339 112 -339 298c0 198 156 285 426 285h292v27c0 223 -90 332 -299 332c-139 0 -230 -58 -307 -170l-73 54c97 135 209 201 380 201zM453 69c179 0 301 107 363 283v144h-288
c-225 0 -333 -76 -333 -215c0 -129 95 -212 258 -212z" />
    <glyph glyph-name="aacute" unicode="&#xe1;" horiz-adv-x="1068" 
d="M791 1413l-243 -285h-76l216 285h103zM517 1013c250 0 387 -148 387 -401v-612h-81l-6 225c-80 -158 -220 -239 -380 -239c-202 0 -339 112 -339 298c0 198 156 285 426 285h292v27c0 223 -90 332 -299 332c-139 0 -230 -58 -307 -170l-73 54c97 135 209 201 380 201z
M453 69c179 0 301 107 363 283v144h-288c-225 0 -333 -76 -333 -215c0 -129 95 -212 258 -212z" />
    <glyph glyph-name="abreve" unicode="&#x103;" horiz-adv-x="1068" 
d="M520 1150c-200 0 -302 93 -302 263h71c0 -133 85 -202 231 -202c147 0 229 70 229 202h71c0 -173 -105 -263 -300 -263zM517 1013c250 0 387 -148 387 -401v-612h-81l-6 225c-80 -158 -220 -239 -380 -239c-202 0 -339 112 -339 298c0 198 156 285 426 285h292v27
c0 223 -90 332 -299 332c-139 0 -230 -58 -307 -170l-73 54c97 135 209 201 380 201zM453 69c179 0 301 107 363 283v144h-288c-225 0 -333 -76 -333 -215c0 -129 95 -212 258 -212z" />
    <glyph glyph-name="uni1EAF" unicode="&#x1eaf;" horiz-adv-x="1068" 
d="M791 1827l-243 -285h-76l216 285h103zM520 1150c-200 0 -302 93 -302 263h71c0 -133 85 -202 231 -202c147 0 229 70 229 202h71c0 -173 -105 -263 -300 -263zM517 1013c250 0 387 -148 387 -401v-612h-81l-6 225c-80 -158 -220 -239 -380 -239c-202 0 -339 112 -339 298
c0 198 156 285 426 285h292v27c0 223 -90 332 -299 332c-139 0 -230 -58 -307 -170l-73 54c97 135 209 201 380 201zM453 69c179 0 301 107 363 283v144h-288c-225 0 -333 -76 -333 -215c0 -129 95 -212 258 -212z" />
    <glyph glyph-name="uni1EB1" unicode="&#x1eb1;" horiz-adv-x="1068" 
d="M559 1542h-78l-236 285h103zM520 1150c-200 0 -302 93 -302 263h71c0 -133 85 -202 231 -202c147 0 229 70 229 202h71c0 -173 -105 -263 -300 -263zM517 1013c250 0 387 -148 387 -401v-612h-81l-6 225c-80 -158 -220 -239 -380 -239c-202 0 -339 112 -339 298
c0 198 156 285 426 285h292v27c0 223 -90 332 -299 332c-139 0 -230 -58 -307 -170l-73 54c97 135 209 201 380 201zM453 69c179 0 301 107 363 283v144h-288c-225 0 -333 -76 -333 -215c0 -129 95 -212 258 -212z" />
    <glyph glyph-name="uni1EB5" unicode="&#x1eb5;" horiz-adv-x="1068" 
d="M380 1766c-71 1 -115 -63 -115 -169h-60c0 146 68 233 178 232c159 1 155 -189 282 -189c62 0 107 70 107 180h62c0 -149 -68 -244 -169 -244c-170 0 -162 191 -285 190zM520 1211c147 0 229 70 229 202h71c0 -173 -105 -263 -300 -263c-200 0 -302 93 -302 263h71
c0 -133 85 -202 231 -202zM517 1013c250 0 387 -148 387 -401v-612h-81l-6 225c-80 -158 -220 -239 -380 -239c-202 0 -339 112 -339 298c0 198 156 285 426 285h292v27c0 223 -90 332 -299 332c-139 0 -230 -58 -307 -170l-73 54c97 135 209 201 380 201zM453 69
c179 0 301 107 363 283v144h-288c-225 0 -333 -76 -333 -215c0 -129 95 -212 258 -212z" />
    <glyph glyph-name="uni01CE" unicode="&#x1ce;" horiz-adv-x="1068" 
d="M816 1413l-297 -300l-296 300h85l211 -216l213 216h84zM517 1013c250 0 387 -148 387 -401v-612h-81l-6 225c-80 -158 -220 -239 -380 -239c-202 0 -339 112 -339 298c0 198 156 285 426 285h292v27c0 223 -90 332 -299 332c-139 0 -230 -58 -307 -170l-73 54
c97 135 209 201 380 201zM453 69c179 0 301 107 363 283v144h-288c-225 0 -333 -76 -333 -215c0 -129 95 -212 258 -212z" />
    <glyph glyph-name="acircumflex" unicode="&#xe2;" horiz-adv-x="1068" 
d="M520 1337l-212 -219h-85l297 307l297 -307h-85zM517 1013c250 0 387 -148 387 -401v-612h-81l-6 225c-80 -158 -220 -239 -380 -239c-202 0 -339 112 -339 298c0 198 156 285 426 285h292v27c0 223 -90 332 -299 332c-139 0 -230 -58 -307 -170l-73 54
c97 135 209 201 380 201zM453 69c179 0 301 107 363 283v144h-288c-225 0 -333 -76 -333 -215c0 -129 95 -212 258 -212z" />
    <glyph glyph-name="uni1EA5" unicode="&#x1ea5;" horiz-adv-x="1068" 
d="M791 1826l-243 -285h-76l216 285h103zM520 1337l-212 -219h-85l297 307l297 -307h-85zM517 1013c250 0 387 -148 387 -401v-612h-81l-6 225c-80 -158 -220 -239 -380 -239c-202 0 -339 112 -339 298c0 198 156 285 426 285h292v27c0 223 -90 332 -299 332
c-139 0 -230 -58 -307 -170l-73 54c97 135 209 201 380 201zM453 69c179 0 301 107 363 283v144h-288c-225 0 -333 -76 -333 -215c0 -129 95 -212 258 -212z" />
    <glyph glyph-name="uni1EA7" unicode="&#x1ea7;" horiz-adv-x="1068" 
d="M559 1541h-78l-236 285h103zM520 1337l-212 -219h-85l297 307l297 -307h-85zM517 1013c250 0 387 -148 387 -401v-612h-81l-6 225c-80 -158 -220 -239 -380 -239c-202 0 -339 112 -339 298c0 198 156 285 426 285h292v27c0 223 -90 332 -299 332
c-139 0 -230 -58 -307 -170l-73 54c97 135 209 201 380 201zM453 69c179 0 301 107 363 283v144h-288c-225 0 -333 -76 -333 -215c0 -129 95 -212 258 -212z" />
    <glyph glyph-name="uni1EAB" unicode="&#x1eab;" horiz-adv-x="1068" 
d="M380 1765c-71 1 -115 -63 -115 -169h-60c0 146 68 233 178 232c159 1 155 -189 282 -189c62 0 107 70 107 180h62c0 -149 -68 -244 -169 -244c-170 0 -162 191 -285 190zM223 1118l297 307l297 -307h-85l-212 219l-212 -219h-85zM517 1013c250 0 387 -148 387 -401v-612
h-81l-6 225c-80 -158 -220 -239 -380 -239c-202 0 -339 112 -339 298c0 198 156 285 426 285h292v27c0 223 -90 332 -299 332c-139 0 -230 -58 -307 -170l-73 54c97 135 209 201 380 201zM453 69c179 0 301 107 363 283v144h-288c-225 0 -333 -76 -333 -215
c0 -129 95 -212 258 -212z" />
    <glyph glyph-name="adieresis" unicode="&#xe4;" horiz-adv-x="1068" 
d="M383 1413v-198h-82v198h82zM736 1413v-198h-82v198h82zM517 1013c250 0 387 -148 387 -401v-612h-81l-6 225c-80 -158 -220 -239 -380 -239c-202 0 -339 112 -339 298c0 198 156 285 426 285h292v27c0 223 -90 332 -299 332c-139 0 -230 -58 -307 -170l-73 54
c97 135 209 201 380 201zM453 69c179 0 301 107 363 283v144h-288c-225 0 -333 -76 -333 -215c0 -129 95 -212 258 -212z" />
    <glyph glyph-name="agrave" unicode="&#xe0;" horiz-adv-x="1068" 
d="M559 1128h-78l-236 285h103zM517 1013c250 0 387 -148 387 -401v-612h-81l-6 225c-80 -158 -220 -239 -380 -239c-202 0 -339 112 -339 298c0 198 156 285 426 285h292v27c0 223 -90 332 -299 332c-139 0 -230 -58 -307 -170l-73 54c97 135 209 201 380 201zM453 69
c179 0 301 107 363 283v144h-288c-225 0 -333 -76 -333 -215c0 -129 95 -212 258 -212z" />
    <glyph glyph-name="amacron" unicode="&#x101;" horiz-adv-x="1068" 
d="M793 1305v-61h-544v61h544zM517 1013c250 0 387 -148 387 -401v-612h-81l-6 225c-80 -158 -220 -239 -380 -239c-202 0 -339 112 -339 298c0 198 156 285 426 285h292v27c0 223 -90 332 -299 332c-139 0 -230 -58 -307 -170l-73 54c97 135 209 201 380 201zM453 69
c179 0 301 107 363 283v144h-288c-225 0 -333 -76 -333 -215c0 -129 95 -212 258 -212z" />
    <glyph glyph-name="aogonek" unicode="&#x105;" horiz-adv-x="1068" 
d="M935 -304l52 -36c-52 -77 -118 -117 -213 -117c-124 0 -202 69 -202 184c0 142 136 248 251 277l-6 221c-80 -158 -220 -239 -380 -239c-202 0 -339 112 -339 298c0 198 156 285 426 285h292v27c0 223 -90 332 -299 332c-139 0 -230 -58 -307 -170l-73 54
c97 135 209 201 380 201c250 0 387 -148 387 -401v-612c-138 -38 -270 -136 -270 -262c0 -90 52 -132 138 -132c71 0 120 29 163 90zM453 69c179 0 301 107 363 283v144h-288c-225 0 -333 -76 -333 -215c0 -129 95 -212 258 -212z" />
    <glyph glyph-name="aring" unicode="&#xe5;" horiz-adv-x="1068" 
d="M518 1103c-102 0 -182 82 -182 182c0 101 81 182 182 182c99 0 182 -81 182 -182s-80 -182 -182 -182zM518 1410c-70 0 -124 -55 -124 -124c0 -72 54 -125 124 -125s125 55 125 125c0 69 -53 124 -125 124zM517 1013c250 0 387 -148 387 -401v-612h-81l-6 225
c-80 -158 -220 -239 -380 -239c-202 0 -339 112 -339 298c0 198 156 285 426 285h292v27c0 223 -90 332 -299 332c-139 0 -230 -58 -307 -170l-73 54c97 135 209 201 380 201zM453 69c179 0 301 107 363 283v144h-288c-225 0 -333 -76 -333 -215c0 -129 95 -212 258 -212z
" />
    <glyph glyph-name="atilde" unicode="&#xe3;" horiz-adv-x="1068" 
d="M380 1352c-71 1 -115 -63 -115 -169h-60c0 146 68 233 178 232c159 1 155 -189 282 -189c62 0 107 70 107 180h62c0 -149 -68 -244 -169 -244c-170 0 -162 191 -285 190zM517 1013c250 0 387 -148 387 -401v-612h-81l-6 225c-80 -158 -220 -239 -380 -239
c-202 0 -339 112 -339 298c0 198 156 285 426 285h292v27c0 223 -90 332 -299 332c-139 0 -230 -58 -307 -170l-73 54c97 135 209 201 380 201zM453 69c179 0 301 107 363 283v144h-288c-225 0 -333 -76 -333 -215c0 -129 95 -212 258 -212z" />
    <glyph glyph-name="uni0250" unicode="&#x250;" horiz-adv-x="1068" 
d="M551 71c139 0 230 58 307 170l73 -54c-97 -135 -209 -201 -380 -201c-250 0 -387 148 -387 401v612h81l6 -225c80 158 220 239 380 239c202 0 339 -112 339 -298c0 -198 -156 -285 -426 -285h-292v-27c0 -223 90 -332 299 -332zM615 930c-179 0 -301 -107 -363 -283v-144
h288c225 0 333 76 333 215c0 129 -95 212 -258 212z" />
    <glyph glyph-name="ae" unicode="&#xe6;" horiz-adv-x="1761" 
d="M431 -14c-197 0 -337 113 -337 293c0 201 157 272 427 272h292c0 26 -1 49 -3 72c-8 208 -107 306 -299 306c-136 0 -230 -56 -308 -165l-68 50c99 137 212 198 379 198c201 0 322 -103 354 -292c58 176 189 290 369 290c316 0 419 -251 419 -452c0 -28 -5 -69 -7 -79
h-745c4 -252 130 -404 343 -404c135 0 216 34 313 133l67 -61c-117 -116 -222 -158 -380 -158c-192 0 -329 102 -388 268c-88 -170 -220 -271 -428 -271zM903 551h657c1 21 1 45 -1 65c-8 142 -96 312 -329 312c-193 0 -319 -159 -327 -377zM444 60c179 0 300 94 385 272
c-10 47 -15 95 -16 147h-287c-227 0 -342 -58 -342 -199c0 -134 100 -220 260 -220z" />
    <glyph glyph-name="b" unicode="b" horiz-adv-x="1207" 
d="M673 -14c-175 0 -323 108 -383 275v-261h-97v1413h97v-674c60 167 206 274 382 274c267 0 422 -227 422 -512c0 -286 -155 -515 -421 -515zM653 75c222 0 346 185 346 426c0 240 -124 425 -346 425s-370 -183 -370 -425c0 -243 148 -426 370 -426z" />
    <glyph glyph-name="c" unicode="c" horiz-adv-x="1020" 
d="M549 -14c-274 0 -438 223 -438 512c0 262 144 515 436 515c177 0 319 -95 392 -268l-90 -35c-54 134 -165 216 -302 216c-231 0 -340 -206 -340 -428c0 -224 110 -424 341 -424c141 0 249 80 294 214l87 -33c-60 -170 -201 -269 -380 -269z" />
    <glyph glyph-name="cacute" unicode="&#x107;" horiz-adv-x="1020" 
d="M500 1128l216 285h103l-243 -285h-76zM549 -14c-274 0 -438 223 -438 512c0 262 144 515 436 515c177 0 319 -95 392 -268l-90 -35c-54 134 -165 216 -302 216c-231 0 -340 -206 -340 -428c0 -224 110 -424 341 -424c141 0 249 80 294 214l87 -33
c-60 -170 -201 -269 -380 -269z" />
    <glyph glyph-name="ccaron" unicode="&#x10d;" horiz-adv-x="1020" 
d="M547 1113l-296 300h85l211 -216l213 216h84zM549 -14c-274 0 -438 223 -438 512c0 262 144 515 436 515c177 0 319 -95 392 -268l-90 -35c-54 134 -165 216 -302 216c-231 0 -340 -206 -340 -428c0 -224 110 -424 341 -424c141 0 249 80 294 214l87 -33
c-60 -170 -201 -269 -380 -269z" />
    <glyph glyph-name="ccedilla" unicode="&#xe7;" horiz-adv-x="1020" 
d="M548 74c141 0 249 80 294 214l87 -33c-57 -162 -189 -260 -356 -268l-77 -131c24 -1 47 -3 67 -7c122 -20 187 -82 187 -176c0 -113 -78 -187 -200 -187c-83 0 -162 53 -192 129l59 25c20 -56 74 -94 135 -94c86 0 137 45 137 124c0 77 -66 127 -186 138
c-28 2 -57 3 -93 3l100 177c-250 19 -399 235 -399 510c0 262 144 515 436 515c177 0 319 -95 392 -268l-90 -35c-54 134 -165 216 -302 216c-231 0 -340 -206 -340 -428c0 -224 110 -424 341 -424z" />
    <glyph glyph-name="cdotaccent" unicode="&#x10b;" horiz-adv-x="1020" 
d="M498 1215v198h99v-198h-99zM549 -14c-274 0 -438 223 -438 512c0 262 144 515 436 515c177 0 319 -95 392 -268l-90 -35c-54 134 -165 216 -302 216c-231 0 -340 -206 -340 -428c0 -224 110 -424 341 -424c141 0 249 80 294 214l87 -33c-60 -170 -201 -269 -380 -269z
" />
    <glyph glyph-name="d" unicode="d" horiz-adv-x="1229" 
d="M558 -14c-267 0 -449 228 -449 515c0 285 182 512 448 512c176 0 323 -107 383 -274v674h96v-1413h-89l-4 266c-60 -171 -207 -280 -385 -280zM578 74c221 0 369 183 369 427c0 242 -148 425 -369 425c-222 0 -373 -185 -373 -425c0 -242 151 -427 373 -427z" />
    <glyph glyph-name="eth" unicode="&#xf0;" horiz-adv-x="1142" 
d="M562 -14c-262 0 -467 211 -467 462c0 252 212 452 466 452c80 0 154 -30 210 -77l-210 357l-133 -151h-61l169 192l-117 192h104l74 -124l108 124h62l-142 -161l334 -569c44 -72 69 -149 69 -238c0 -254 -209 -459 -466 -459zM561 79c205 0 371 164 371 368
c0 202 -167 367 -371 367c-203 0 -370 -165 -370 -367c0 -203 167 -368 370 -368z" />
    <glyph glyph-name="dcaron" unicode="&#x10f;" horiz-adv-x="1858" 
d="M558 -14c-267 0 -449 228 -449 515c0 285 182 512 448 512c176 0 323 -107 383 -274v674h96v-1413h-89l-4 266c-60 -171 -207 -280 -385 -280zM1442 1005l119 408h100l-156 -408h-63zM578 74c221 0 369 183 369 427c0 242 -148 425 -369 425c-222 0 -373 -185 -373 -425
c0 -242 151 -427 373 -427z" />
    <glyph glyph-name="dcroat" unicode="&#x111;" horiz-adv-x="1229" 
d="M1175 1252v-68h-139v-1184h-89l-4 266c-60 -171 -207 -280 -385 -280c-267 0 -449 228 -449 515c0 285 182 512 448 512c176 0 323 -107 383 -274v445h-400v68h400v161h96v-161h139zM578 74c221 0 369 183 369 427c0 242 -148 425 -369 425c-222 0 -373 -185 -373 -425
c0 -242 151 -427 373 -427z" />
    <glyph glyph-name="uni01F3" unicode="&#x1f3;" horiz-adv-x="2200" 
d="M940 739v674h96v-1413h-89l-4 266c-60 -171 -207 -280 -385 -280c-267 0 -449 228 -449 515c0 285 182 512 448 512c176 0 323 -107 383 -274zM2116 999v-84l-692 -833h686v-82h-809v76l703 842h-667v81h779zM578 74c221 0 369 183 369 427c0 242 -148 425 -369 425
c-222 0 -373 -185 -373 -425c0 -242 151 -427 373 -427z" />
    <glyph glyph-name="uni01C6" unicode="&#x1c6;" horiz-adv-x="2200" 
d="M940 739v674h96v-1413h-89l-4 266c-60 -171 -207 -280 -385 -280c-267 0 -449 228 -449 515c0 285 182 512 448 512c176 0 323 -107 383 -274zM2004 1413l-297 -300l-296 300h85l211 -216l213 216h84zM2116 999v-84l-692 -833h686v-82h-809v76l703 842h-667v81h779z
M578 74c221 0 369 183 369 427c0 242 -148 425 -369 425c-222 0 -373 -185 -373 -425c0 -242 151 -427 373 -427z" />
    <glyph glyph-name="e" unicode="e" horiz-adv-x="1076" 
d="M565 -14c-287 0 -453 215 -453 508c0 290 161 519 436 519c319 0 423 -259 423 -448c0 -31 -2 -71 -6 -86h-753c6 -254 137 -405 353 -405c130 0 214 34 311 134l67 -61c-114 -115 -220 -161 -378 -161zM212 551h663c2 20 2 43 0 62c-8 146 -98 318 -328 318
c-195 0 -320 -155 -335 -380z" />
    <glyph glyph-name="eacute" unicode="&#xe9;" horiz-adv-x="1076" 
d="M489 1128l216 285h103l-243 -285h-76zM565 -14c-287 0 -453 215 -453 508c0 290 161 519 436 519c319 0 423 -259 423 -448c0 -31 -2 -71 -6 -86h-753c6 -254 137 -405 353 -405c130 0 214 34 311 134l67 -61c-114 -115 -220 -161 -378 -161zM212 551h663c2 20 2 43 0 62
c-8 146 -98 318 -328 318c-195 0 -320 -155 -335 -380z" />
    <glyph glyph-name="ecaron" unicode="&#x11b;" horiz-adv-x="1076" 
d="M536 1113l-296 300h85l211 -216l213 216h84zM565 -14c-287 0 -453 215 -453 508c0 290 161 519 436 519c319 0 423 -259 423 -448c0 -31 -2 -71 -6 -86h-753c6 -254 137 -405 353 -405c130 0 214 34 311 134l67 -61c-114 -115 -220 -161 -378 -161zM212 551h663
c2 20 2 43 0 62c-8 146 -98 318 -328 318c-195 0 -320 -155 -335 -380z" />
    <glyph glyph-name="ecircumflex" unicode="&#xea;" horiz-adv-x="1076" 
d="M240 1118l297 307l297 -307h-85l-212 219l-212 -219h-85zM565 -14c-287 0 -453 215 -453 508c0 290 161 519 436 519c319 0 423 -259 423 -448c0 -31 -2 -71 -6 -86h-753c6 -254 137 -405 353 -405c130 0 214 34 311 134l67 -61c-114 -115 -220 -161 -378 -161zM212 551
h663c2 20 2 43 0 62c-8 146 -98 318 -328 318c-195 0 -320 -155 -335 -380z" />
    <glyph glyph-name="uni1EBF" unicode="&#x1ebf;" horiz-adv-x="1076" 
d="M489 1541l216 285h103l-243 -285h-76zM240 1118l297 307l297 -307h-85l-212 219l-212 -219h-85zM565 -14c-287 0 -453 215 -453 508c0 290 161 519 436 519c319 0 423 -259 423 -448c0 -31 -2 -71 -6 -86h-753c6 -254 137 -405 353 -405c130 0 214 34 311 134l67 -61
c-114 -115 -220 -161 -378 -161zM212 551h663c2 20 2 43 0 62c-8 146 -98 318 -328 318c-195 0 -320 -155 -335 -380z" />
    <glyph glyph-name="uni1EC1" unicode="&#x1ec1;" horiz-adv-x="1076" 
d="M498 1541l-236 285h103l211 -285h-78zM240 1118l297 307l297 -307h-85l-212 219l-212 -219h-85zM565 -14c-287 0 -453 215 -453 508c0 290 161 519 436 519c319 0 423 -259 423 -448c0 -31 -2 -71 -6 -86h-753c6 -254 137 -405 353 -405c130 0 214 34 311 134l67 -61
c-114 -115 -220 -161 -378 -161zM212 551h663c2 20 2 43 0 62c-8 146 -98 318 -328 318c-195 0 -320 -155 -335 -380z" />
    <glyph glyph-name="uni1EC5" unicode="&#x1ec5;" horiz-adv-x="1076" 
d="M682 1575c-170 0 -162 191 -285 190c-71 1 -115 -63 -115 -169h-60c0 146 68 233 178 232c159 1 155 -189 282 -189c62 0 107 70 107 180h62c0 -149 -68 -244 -169 -244zM240 1118l297 307l297 -307h-85l-212 219l-212 -219h-85zM565 -14c-287 0 -453 215 -453 508
c0 290 161 519 436 519c319 0 423 -259 423 -448c0 -31 -2 -71 -6 -86h-753c6 -254 137 -405 353 -405c130 0 214 34 311 134l67 -61c-114 -115 -220 -161 -378 -161zM212 551h663c2 20 2 43 0 62c-8 146 -98 318 -328 318c-195 0 -320 -155 -335 -380z" />
    <glyph glyph-name="edieresis" unicode="&#xeb;" horiz-adv-x="1076" 
d="M318 1215v198h82v-198h-82zM671 1215v198h82v-198h-82zM565 -14c-287 0 -453 215 -453 508c0 290 161 519 436 519c319 0 423 -259 423 -448c0 -31 -2 -71 -6 -86h-753c6 -254 137 -405 353 -405c130 0 214 34 311 134l67 -61c-114 -115 -220 -161 -378 -161zM212 551
h663c2 20 2 43 0 62c-8 146 -98 318 -328 318c-195 0 -320 -155 -335 -380z" />
    <glyph glyph-name="edotaccent" unicode="&#x117;" horiz-adv-x="1076" 
d="M487 1215v198h99v-198h-99zM565 -14c-287 0 -453 215 -453 508c0 290 161 519 436 519c319 0 423 -259 423 -448c0 -31 -2 -71 -6 -86h-753c6 -254 137 -405 353 -405c130 0 214 34 311 134l67 -61c-114 -115 -220 -161 -378 -161zM212 551h663c2 20 2 43 0 62
c-8 146 -98 318 -328 318c-195 0 -320 -155 -335 -380z" />
    <glyph glyph-name="egrave" unicode="&#xe8;" horiz-adv-x="1076" 
d="M498 1128l-236 285h103l211 -285h-78zM565 -14c-287 0 -453 215 -453 508c0 290 161 519 436 519c319 0 423 -259 423 -448c0 -31 -2 -71 -6 -86h-753c6 -254 137 -405 353 -405c130 0 214 34 311 134l67 -61c-114 -115 -220 -161 -378 -161zM212 551h663c2 20 2 43 0 62
c-8 146 -98 318 -328 318c-195 0 -320 -155 -335 -380z" />
    <glyph glyph-name="emacron" unicode="&#x113;" horiz-adv-x="1076" 
d="M266 1244v61h544v-61h-544zM565 -14c-287 0 -453 215 -453 508c0 290 161 519 436 519c319 0 423 -259 423 -448c0 -31 -2 -71 -6 -86h-753c6 -254 137 -405 353 -405c130 0 214 34 311 134l67 -61c-114 -115 -220 -161 -378 -161zM212 551h663c2 20 2 43 0 62
c-8 146 -98 318 -328 318c-195 0 -320 -155 -335 -380z" />
    <glyph glyph-name="eogonek" unicode="&#x119;" horiz-adv-x="1076" 
d="M971 565c0 -31 -2 -71 -6 -86h-753c6 -254 137 -405 353 -405c130 0 214 34 311 134l67 -61c-78 -79 -152 -125 -242 -147c-90 -49 -158 -125 -158 -216c0 -90 52 -132 138 -132c71 0 120 29 163 90l52 -36c-52 -77 -118 -117 -213 -117c-124 0 -202 69 -202 184
c0 89 53 163 120 214c-12 -1 -24 -1 -36 -1c-287 0 -453 215 -453 508c0 290 161 519 436 519c319 0 423 -259 423 -448zM875 551c2 20 2 43 0 62c-8 146 -98 318 -328 318c-195 0 -320 -155 -335 -380h663z" />
    <glyph glyph-name="uni0258" unicode="&#x258;" horiz-adv-x="1076" 
d="M511 -14c-158 0 -264 46 -378 161l67 61c97 -100 181 -134 311 -134c216 0 347 151 353 405h-753c-4 15 -6 55 -6 86c0 189 104 448 423 448c275 0 436 -229 436 -519c0 -293 -166 -508 -453 -508zM864 551c-15 225 -140 380 -335 380c-230 0 -320 -172 -328 -318
c-2 -19 -2 -42 0 -62h663z" />
    <glyph glyph-name="uni1EBD" unicode="&#x1ebd;" horiz-adv-x="1076" 
d="M682 1162c-170 0 -162 191 -285 190c-71 1 -115 -63 -115 -169h-60c0 146 68 233 178 232c159 1 155 -189 282 -189c62 0 107 70 107 180h62c0 -149 -68 -244 -169 -244zM565 -14c-287 0 -453 215 -453 508c0 290 161 519 436 519c319 0 423 -259 423 -448
c0 -31 -2 -71 -6 -86h-753c6 -254 137 -405 353 -405c130 0 214 34 311 134l67 -61c-114 -115 -220 -161 -378 -161zM212 551h663c2 20 2 43 0 62c-8 146 -98 318 -328 318c-195 0 -320 -155 -335 -380z" />
    <glyph glyph-name="uni01DD" unicode="&#x1dd;" horiz-adv-x="1076" 
d="M511 1013c287 0 453 -215 453 -508c0 -290 -161 -519 -436 -519c-319 0 -423 259 -423 448c0 31 2 71 6 86h753c-6 254 -137 405 -353 405c-130 0 -214 -34 -311 -134l-67 61c114 115 220 161 378 161zM864 448h-663c-2 -20 -2 -43 0 -62c8 -146 98 -318 328 -318
c195 0 320 155 335 380z" />
    <glyph glyph-name="uni0259" unicode="&#x259;" horiz-adv-x="1076" 
d="M511 1013c287 0 453 -215 453 -508c0 -290 -161 -519 -436 -519c-319 0 -423 259 -423 448c0 31 2 71 6 86h753c-6 254 -137 405 -353 405c-130 0 -214 -34 -311 -134l-67 61c114 115 220 161 378 161zM864 448h-663c-2 -20 -2 -43 0 -62c8 -146 98 -318 328 -318
c195 0 320 155 335 380z" />
    <glyph glyph-name="f" unicode="f" horiz-adv-x="713" 
d="M263 0v918h-217v81h218v162c0 176 105 266 271 266c48 0 94 -14 138 -37l-32 -78c-35 19 -66 29 -98 29c-119 0 -183 -60 -183 -188v-154h313v-81h-313v-918h-97z" />
    <glyph glyph-name="g" unicode="g" horiz-adv-x="1037" 
d="M532 108c206 -33 422 -60 422 -269c0 -186 -168 -293 -409 -293c-273 0 -439 135 -439 330c0 16 0 30 3 45l161 153c-82 32 -142 86 -142 187c0 83 39 142 116 189c-57 58 -90 137 -90 227c0 197 158 336 368 336c102 0 191 -33 256 -90l132 117l51 -63l-130 -113
c36 -54 57 -119 57 -193c0 -199 -156 -330 -364 -330c-83 0 -158 21 -218 58c-65 -29 -94 -68 -94 -123c0 -120 142 -140 320 -168zM525 937c-163 0 -274 -109 -274 -261c0 -150 107 -255 273 -255c164 0 270 103 270 253c0 155 -107 263 -269 263zM545 -378
c193 0 318 79 318 208c0 144 -164 164 -363 194c-56 8 -114 17 -167 30l-140 -155c0 -12 0 -23 1 -33c9 -153 149 -244 351 -244z" />
    <glyph glyph-name="g.ss01" horiz-adv-x="1222" 
d="M569 -460c-199 0 -348 107 -425 264l73 53c58 -135 187 -232 354 -232c213 0 365 165 365 416v227c-60 -168 -206 -275 -382 -275c-267 0 -450 228 -450 511c0 282 183 509 449 509c175 0 323 -107 383 -274v260h96v-958c0 -298 -190 -501 -463 -501zM574 82
c221 0 369 182 369 422c0 239 -148 422 -369 422c-222 0 -373 -185 -373 -422c0 -238 151 -422 373 -422z" />
    <glyph glyph-name="g.ss02" horiz-adv-x="1049" 
d="M668 119c198 0 304 -101 304 -265c0 -189 -149 -310 -410 -310c-283 0 -466 123 -466 332c0 20 2 39 7 58l161 129c-73 31 -127 92 -130 190c-2 75 30 142 106 202c-53 57 -83 134 -83 222c0 197 154 336 363 336c108 0 198 -37 261 -100l154 138l49 -62l-154 -138
c30 -51 47 -112 47 -179c0 -198 -152 -329 -359 -329c-85 0 -160 22 -219 62c-57 -46 -78 -90 -75 -144c3 -103 86 -142 217 -142h227zM521 935c-161 0 -269 -110 -269 -260c0 -149 106 -254 268 -254c161 0 265 104 265 253c0 153 -104 261 -264 261zM556 -380
c181 0 325 67 325 227c0 112 -71 191 -247 191h-238c-24 0 -48 2 -71 6l-139 -137v-29c0 -137 94 -258 370 -258z" />
    <glyph glyph-name="gbreve" unicode="&#x11f;" horiz-adv-x="1037" 
d="M510 1150c-200 0 -302 93 -302 263h71c0 -133 85 -202 231 -202c147 0 229 70 229 202h71c0 -173 -105 -263 -300 -263zM532 108c206 -33 422 -60 422 -269c0 -186 -168 -293 -409 -293c-273 0 -439 135 -439 330c0 16 0 30 3 45l161 153c-82 32 -142 86 -142 187
c0 83 39 142 116 189c-57 58 -90 137 -90 227c0 197 158 336 368 336c102 0 191 -33 256 -90l132 117l51 -63l-130 -113c36 -54 57 -119 57 -193c0 -199 -156 -330 -364 -330c-83 0 -158 21 -218 58c-65 -29 -94 -68 -94 -123c0 -120 142 -140 320 -168zM525 937
c-163 0 -274 -109 -274 -261c0 -150 107 -255 273 -255c164 0 270 103 270 253c0 155 -107 263 -269 263zM545 -378c193 0 318 79 318 208c0 144 -164 164 -363 194c-56 8 -114 17 -167 30l-140 -155c0 -12 0 -23 1 -33c9 -153 149 -244 351 -244z" />
    <glyph glyph-name="gbreve.ss01" horiz-adv-x="1222" 
d="M609 1150c-200 0 -302 93 -302 263h71c0 -133 85 -202 231 -202c147 0 229 70 229 202h71c0 -173 -105 -263 -300 -263zM569 -460c-199 0 -348 107 -425 264l73 53c58 -135 187 -232 354 -232c213 0 365 165 365 416v227c-60 -168 -206 -275 -382 -275
c-267 0 -450 228 -450 511c0 282 183 509 449 509c175 0 323 -107 383 -274v260h96v-958c0 -298 -190 -501 -463 -501zM574 82c221 0 369 182 369 422c0 239 -148 422 -369 422c-222 0 -373 -185 -373 -422c0 -238 151 -422 373 -422z" />
    <glyph glyph-name="gbreve.ss02" horiz-adv-x="1049" 
d="M526 1150c-200 0 -302 93 -302 263h71c0 -133 85 -202 231 -202c147 0 229 70 229 202h71c0 -173 -105 -263 -300 -263zM668 119c198 0 304 -101 304 -265c0 -189 -149 -310 -410 -310c-283 0 -466 123 -466 332c0 20 2 39 7 58l161 129c-73 31 -127 92 -130 190
c-2 75 30 142 106 202c-53 57 -83 134 -83 222c0 197 154 336 363 336c108 0 198 -37 261 -100l154 138l49 -62l-154 -138c30 -51 47 -112 47 -179c0 -198 -152 -329 -359 -329c-85 0 -160 22 -219 62c-57 -46 -78 -90 -75 -144c3 -103 86 -142 217 -142h227zM521 935
c-161 0 -269 -110 -269 -260c0 -149 106 -254 268 -254c161 0 265 104 265 253c0 153 -104 261 -264 261zM556 -380c181 0 325 67 325 227c0 112 -71 191 -247 191h-238c-24 0 -48 2 -71 6l-139 -137v-29c0 -137 94 -258 370 -258z" />
    <glyph glyph-name="uni0123" unicode="&#x123;" horiz-adv-x="1037" 
d="M745 1421l-198 -294h-102l234 294h66zM532 108c206 -33 422 -60 422 -269c0 -186 -168 -293 -409 -293c-273 0 -439 135 -439 330c0 16 0 30 3 45l161 153c-82 32 -142 86 -142 187c0 83 39 142 116 189c-57 58 -90 137 -90 227c0 197 158 336 368 336
c102 0 191 -33 256 -90l132 117l51 -63l-130 -113c36 -54 57 -119 57 -193c0 -199 -156 -330 -364 -330c-83 0 -158 21 -218 58c-65 -29 -94 -68 -94 -123c0 -120 142 -140 320 -168zM525 937c-163 0 -274 -109 -274 -261c0 -150 107 -255 273 -255c164 0 270 103 270 253
c0 155 -107 263 -269 263zM545 -378c193 0 318 79 318 208c0 144 -164 164 -363 194c-56 8 -114 17 -167 30l-140 -155c0 -12 0 -23 1 -33c9 -153 149 -244 351 -244z" />
    <glyph glyph-name="uni0123.ss01" horiz-adv-x="1222" 
d="M851 1396l-198 -294h-102l234 294h66zM569 -460c-199 0 -348 107 -425 264l73 53c58 -135 187 -232 354 -232c213 0 365 165 365 416v227c-60 -168 -206 -275 -382 -275c-267 0 -450 228 -450 511c0 282 183 509 449 509c175 0 323 -107 383 -274v260h96v-958
c0 -298 -190 -501 -463 -501zM574 82c221 0 369 182 369 422c0 239 -148 422 -369 422c-222 0 -373 -185 -373 -422c0 -238 151 -422 373 -422z" />
    <glyph glyph-name="uni0123.ss02" horiz-adv-x="1049" 
d="M773 1421l-198 -294h-102l234 294h66zM668 119c198 0 304 -101 304 -265c0 -189 -149 -310 -410 -310c-283 0 -466 123 -466 332c0 20 2 39 7 58l161 129c-73 31 -127 92 -130 190c-2 75 30 142 106 202c-53 57 -83 134 -83 222c0 197 154 336 363 336
c108 0 198 -37 261 -100l154 138l49 -62l-154 -138c30 -51 47 -112 47 -179c0 -198 -152 -329 -359 -329c-85 0 -160 22 -219 62c-57 -46 -78 -90 -75 -144c3 -103 86 -142 217 -142h227zM521 935c-161 0 -269 -110 -269 -260c0 -149 106 -254 268 -254
c161 0 265 104 265 253c0 153 -104 261 -264 261zM556 -380c181 0 325 67 325 227c0 112 -71 191 -247 191h-238c-24 0 -48 2 -71 6l-139 -137v-29c0 -137 94 -258 370 -258z" />
    <glyph glyph-name="gdotaccent" unicode="&#x121;" horiz-adv-x="1037" 
d="M559 1413v-198h-99v198h99zM532 108c206 -33 422 -60 422 -269c0 -186 -168 -293 -409 -293c-273 0 -439 135 -439 330c0 16 0 30 3 45l161 153c-82 32 -142 86 -142 187c0 83 39 142 116 189c-57 58 -90 137 -90 227c0 197 158 336 368 336c102 0 191 -33 256 -90
l132 117l51 -63l-130 -113c36 -54 57 -119 57 -193c0 -199 -156 -330 -364 -330c-83 0 -158 21 -218 58c-65 -29 -94 -68 -94 -123c0 -120 142 -140 320 -168zM525 937c-163 0 -274 -109 -274 -261c0 -150 107 -255 273 -255c164 0 270 103 270 253c0 155 -107 263 -269 263
zM545 -378c193 0 318 79 318 208c0 144 -164 164 -363 194c-56 8 -114 17 -167 30l-140 -155c0 -12 0 -23 1 -33c9 -153 149 -244 351 -244z" />
    <glyph glyph-name="gdotaccent.ss01" horiz-adv-x="1222" 
d="M559 1215v198h99v-198h-99zM569 -460c-199 0 -348 107 -425 264l73 53c58 -135 187 -232 354 -232c213 0 365 165 365 416v227c-60 -168 -206 -275 -382 -275c-267 0 -450 228 -450 511c0 282 183 509 449 509c175 0 323 -107 383 -274v260h96v-958
c0 -298 -190 -501 -463 -501zM574 82c221 0 369 182 369 422c0 239 -148 422 -369 422c-222 0 -373 -185 -373 -422c0 -238 151 -422 373 -422z" />
    <glyph glyph-name="gdotaccent.ss02" horiz-adv-x="1049" 
d="M575 1413v-198h-99v198h99zM668 119c198 0 304 -101 304 -265c0 -189 -149 -310 -410 -310c-283 0 -466 123 -466 332c0 20 2 39 7 58l161 129c-73 31 -127 92 -130 190c-2 75 30 142 106 202c-53 57 -83 134 -83 222c0 197 154 336 363 336c108 0 198 -37 261 -100
l154 138l49 -62l-154 -138c30 -51 47 -112 47 -179c0 -198 -152 -329 -359 -329c-85 0 -160 22 -219 62c-57 -46 -78 -90 -75 -144c3 -103 86 -142 217 -142h227zM521 935c-161 0 -269 -110 -269 -260c0 -149 106 -254 268 -254c161 0 265 104 265 253
c0 153 -104 261 -264 261zM556 -380c181 0 325 67 325 227c0 112 -71 191 -247 191h-238c-24 0 -48 2 -71 6l-139 -137v-29c0 -137 94 -258 370 -258z" />
    <glyph glyph-name="uni0261" unicode="&#x261;" horiz-adv-x="1222" 
d="M569 -460c-199 0 -348 107 -425 264l73 53c58 -135 187 -232 354 -232c213 0 365 165 365 416v227c-60 -168 -206 -275 -382 -275c-267 0 -450 228 -450 511c0 282 183 509 449 509c175 0 323 -107 383 -274v260h96v-958c0 -298 -190 -501 -463 -501zM574 82
c221 0 369 182 369 422c0 239 -148 422 -369 422c-222 0 -373 -185 -373 -422c0 -238 151 -422 373 -422z" />
    <glyph glyph-name="h" unicode="h" horiz-adv-x="1115" 
d="M193 0v1413h96v-601c56 129 174 201 317 201c224 0 337 -151 343 -369v-644h-96v613c0 197 -82 313 -267 313s-297 -135 -297 -334v-592h-96z" />
    <glyph glyph-name="hbar" unicode="&#x127;" horiz-adv-x="1115" 
d="M606 1013c224 0 337 -151 343 -369v-644h-96v613c0 197 -82 313 -267 313s-297 -135 -297 -334v-592h-96v1153h-195v68h195v192h96v-192h344v-68h-344v-341c56 129 174 201 317 201z" />
    <glyph glyph-name="i" unicode="i" horiz-adv-x="474" 
d="M188 1215v198h99v-198h-99zM190 0v999h94v-999h-94z" />
    <glyph glyph-name="dotlessi" unicode="&#x131;" horiz-adv-x="476" 
d="M190 0v999h95v-999h-95z" />
    <glyph glyph-name="iacute" unicode="&#xed;" horiz-adv-x="476" 
d="M189 1128l216 285h103l-243 -285h-76zM190 0v999h95v-999h-95z" />
    <glyph glyph-name="uni01D0" unicode="&#x1d0;" horiz-adv-x="476" 
d="M236 1113l-296 300h85l211 -216l213 216h84zM190 0v999h95v-999h-95z" />
    <glyph glyph-name="icircumflex" unicode="&#xee;" horiz-adv-x="476" 
d="M-60 1118l297 307l297 -307h-85l-212 219l-212 -219h-85zM190 0v999h95v-999h-95z" />
    <glyph glyph-name="idieresis" unicode="&#xef;" horiz-adv-x="476" 
d="M18 1215v198h82v-198h-82zM371 1215v198h82v-198h-82zM190 0v999h95v-999h-95z" />
    <glyph glyph-name="i.loclTRK" horiz-adv-x="476" 
d="M187 1215v198h99v-198h-99zM190 0v999h95v-999h-95z" />
    <glyph glyph-name="igrave" unicode="&#xec;" horiz-adv-x="476" 
d="M198 1128l-236 285h103l211 -285h-78zM190 0v999h95v-999h-95z" />
    <glyph glyph-name="imacron" unicode="&#x12b;" horiz-adv-x="476" 
d="M-34 1244v61h544v-61h-544zM190 0v999h95v-999h-95z" />
    <glyph glyph-name="iogonek" unicode="&#x12f;" horiz-adv-x="476" 
d="M286 1413v-198h-99v198h99zM316 -304l52 -36c-52 -77 -118 -117 -213 -117c-124 0 -202 69 -202 184c0 137 125 240 237 273v999h95v-999c-138 -38 -270 -136 -270 -262c0 -90 52 -132 138 -132c71 0 120 29 163 90z" />
    <glyph glyph-name="itilde" unicode="&#x129;" horiz-adv-x="476" 
d="M382 1162c-170 0 -162 191 -285 190c-71 1 -115 -63 -115 -169h-60c0 146 68 233 178 232c159 1 155 -189 282 -189c62 0 107 70 107 180h62c0 -149 -68 -244 -169 -244zM190 0v999h95v-999h-95z" />
    <glyph glyph-name="j" unicode="j" horiz-adv-x="479" 
d="M190 1215v198h99v-198h-99zM32 -431c-46 0 -114 15 -158 31l26 84c42 -17 93 -28 124 -28c115 0 168 65 168 205v1138h95v-1132c0 -188 -80 -298 -255 -298z" />
    <glyph glyph-name="uni0237" unicode="&#x237;" horiz-adv-x="479" 
d="M32 -431c-46 0 -114 15 -158 31l26 84c42 -17 93 -28 124 -28c115 0 168 65 168 205v1138h95v-1132c0 -188 -80 -298 -255 -298z" />
    <glyph glyph-name="k" unicode="k" horiz-adv-x="1083" 
d="M193 0v1413h94v-1000l560 586h125l-358 -369l422 -630h-112l-375 569l-262 -272v-297h-94z" />
    <glyph glyph-name="uni0137" unicode="&#x137;" horiz-adv-x="1083" 
d="M193 0v1413h94v-1000l560 586h125l-358 -369l422 -630h-112l-375 569l-262 -272v-297h-94zM366 -444l198 329h102l-234 -329h-66z" />
    <glyph glyph-name="kgreenlandic" unicode="&#x138;" horiz-adv-x="1081" 
d="M191 0v999h95v-586l560 586h125l-359 -369l423 -630h-113l-375 569l-261 -272v-297h-95z" />
    <glyph glyph-name="l" unicode="l" horiz-adv-x="542" 
d="M362 -14c-152 0 -176 99 -176 229v1198h95v-1175c0 -87 3 -165 119 -165c24 0 55 3 85 10l3 -82c-42 -9 -88 -15 -126 -15z" />
    <glyph glyph-name="lacute" unicode="&#x13a;" horiz-adv-x="542" 
d="M214 1541l216 285h103l-243 -285h-76zM362 -14c-152 0 -176 99 -176 229v1198h95v-1175c0 -87 3 -165 119 -165c24 0 55 3 85 10l3 -82c-42 -9 -88 -15 -126 -15z" />
    <glyph glyph-name="lcaron" unicode="&#x13e;" horiz-adv-x="1171" 
d="M362 -14c-152 0 -176 99 -176 229v1198h95v-1175c0 -87 3 -165 119 -165c24 0 55 3 85 10l3 -82c-42 -9 -88 -15 -126 -15zM755 1005l119 408h100l-156 -408h-63z" />
    <glyph glyph-name="uni013C" unicode="&#x13c;" horiz-adv-x="542" 
d="M362 -14c-152 0 -176 99 -176 229v1198h95v-1175c0 -87 3 -165 119 -165c24 0 55 3 85 10l3 -82c-42 -9 -88 -15 -126 -15zM130 -444l198 329h102l-234 -329h-66z" />
    <glyph glyph-name="uni01C9" unicode="&#x1c9;" horiz-adv-x="1021" 
d="M362 -14c-152 0 -176 99 -176 229v1198h95v-1175c0 -87 3 -165 119 -165c24 0 55 3 85 10l3 -82c-42 -9 -88 -15 -126 -15zM732 1215v198h99v-198h-99zM574 -431c-46 0 -114 15 -158 31l26 84c42 -17 93 -28 124 -28c115 0 168 65 168 205v1138h95v-1132
c0 -188 -80 -298 -255 -298z" />
    <glyph glyph-name="lslash" unicode="&#x142;" horiz-adv-x="564" 
d="M494 83l2 -82c-41 -9 -88 -15 -126 -15c-152 0 -176 99 -176 229v320l-94 -100v97l94 100v781h95v-681l175 186l1 -95l-176 -187v-398c0 -87 3 -165 119 -165c24 0 55 3 86 10z" />
    <glyph glyph-name="m" unicode="m" horiz-adv-x="1744" 
d="M191 0l-1 999h93v-190c52 134 166 204 311 204c158 0 272 -76 313 -236c51 152 175 236 333 236c235 0 339 -164 339 -435v-578h-95v568c0 235 -76 356 -261 356c-177 0 -290 -130 -290 -318v-606h-95v614c0 196 -84 310 -260 310c-179 0 -292 -130 -292 -318v-606h-95z
" />
    <glyph glyph-name="n" unicode="n" 
d="M190 0v999h95v-187c57 129 176 201 319 201c224 0 336 -151 341 -369v-644h-94v613c0 199 -93 311 -270 311c-180 0 -296 -117 -296 -318v-606h-95z" />
    <glyph glyph-name="nacute" unicode="&#x144;" 
d="M514 1128l216 285h103l-243 -285h-76zM190 0v999h95v-187c57 129 176 201 319 201c224 0 336 -151 341 -369v-644h-94v613c0 199 -93 311 -270 311c-180 0 -296 -117 -296 -318v-606h-95z" />
    <glyph glyph-name="ncaron" unicode="&#x148;" 
d="M561 1113l-296 300h85l211 -216l213 216h84zM190 0v999h95v-187c57 129 176 201 319 201c224 0 336 -151 341 -369v-644h-94v613c0 199 -93 311 -270 311c-180 0 -296 -117 -296 -318v-606h-95z" />
    <glyph glyph-name="uni0146" unicode="&#x146;" 
d="M190 0v999h95v-187c57 129 176 201 319 201c224 0 336 -151 341 -369v-644h-94v613c0 199 -93 311 -270 311c-180 0 -296 -117 -296 -318v-606h-95zM320 -444l198 329h102l-234 -329h-66z" />
    <glyph glyph-name="eng" unicode="&#x14b;" horiz-adv-x="1133" 
d="M673 -431c-43 0 -100 13 -140 25l24 74c38 -12 83 -20 114 -20c122 0 180 74 180 211v754c0 199 -93 311 -270 311c-180 0 -296 -117 -296 -318v-606h-95v999h95v-187c56 129 176 201 319 201c224 0 335 -151 341 -369v-775c0 -183 -92 -300 -272 -300z" />
    <glyph glyph-name="uni01CC" unicode="&#x1cc;" horiz-adv-x="1590" 
d="M1301 1215v198h99v-198h-99zM190 0v999h95v-187c57 129 176 201 319 201c224 0 336 -151 341 -369v-644h-94v613c0 199 -93 311 -270 311c-180 0 -296 -117 -296 -318v-606h-95zM1143 -431c-46 0 -114 15 -158 31l26 84c42 -17 93 -28 124 -28c115 0 168 65 168 205v1138
h95v-1132c0 -188 -80 -298 -255 -298z" />
    <glyph glyph-name="ntilde" unicode="&#xf1;" 
d="M707 1162c-170 0 -162 191 -285 190c-71 1 -115 -63 -115 -169h-60c0 146 68 233 178 232c159 1 155 -189 282 -189c62 0 107 70 107 180h62c0 -149 -68 -244 -169 -244zM190 0v999h95v-187c57 129 176 201 319 201c224 0 336 -151 341 -369v-644h-94v613
c0 199 -93 311 -270 311c-180 0 -296 -117 -296 -318v-606h-95z" />
    <glyph glyph-name="o" unicode="o" horiz-adv-x="1158" 
d="M577 -14c-277 0 -473 226 -473 516c0 286 196 511 473 511c276 0 476 -225 476 -511c0 -288 -200 -516 -476 -516zM577 70c228 0 378 191 378 432c0 239 -150 427 -378 427c-227 0 -374 -187 -374 -427c0 -242 147 -432 374 -432z" />
    <glyph glyph-name="oacute" unicode="&#xf3;" horiz-adv-x="1158" 
d="M530 1128l216 285h103l-243 -285h-76zM577 -14c-277 0 -473 226 -473 516c0 286 196 511 473 511c276 0 476 -225 476 -511c0 -288 -200 -516 -476 -516zM577 70c228 0 378 191 378 432c0 239 -150 427 -378 427c-227 0 -374 -187 -374 -427c0 -242 147 -432 374 -432z
" />
    <glyph glyph-name="uni01D2" unicode="&#x1d2;" horiz-adv-x="1158" 
d="M577 1113l-296 300h85l211 -216l213 216h84zM577 -14c-277 0 -473 226 -473 516c0 286 196 511 473 511c276 0 476 -225 476 -511c0 -288 -200 -516 -476 -516zM577 70c228 0 378 191 378 432c0 239 -150 427 -378 427c-227 0 -374 -187 -374 -427
c0 -242 147 -432 374 -432z" />
    <glyph glyph-name="ocircumflex" unicode="&#xf4;" horiz-adv-x="1158" 
d="M281 1118l297 307l297 -307h-85l-212 219l-212 -219h-85zM577 -14c-277 0 -473 226 -473 516c0 286 196 511 473 511c276 0 476 -225 476 -511c0 -288 -200 -516 -476 -516zM577 70c228 0 378 191 378 432c0 239 -150 427 -378 427c-227 0 -374 -187 -374 -427
c0 -242 147 -432 374 -432z" />
    <glyph glyph-name="uni1ED1" unicode="&#x1ed1;" horiz-adv-x="1158" 
d="M530 1541l216 285h103l-243 -285h-76zM281 1118l297 307l297 -307h-85l-212 219l-212 -219h-85zM577 -14c-277 0 -473 226 -473 516c0 286 196 511 473 511c276 0 476 -225 476 -511c0 -288 -200 -516 -476 -516zM577 70c228 0 378 191 378 432c0 239 -150 427 -378 427
c-227 0 -374 -187 -374 -427c0 -242 147 -432 374 -432z" />
    <glyph glyph-name="uni1ED3" unicode="&#x1ed3;" horiz-adv-x="1158" 
d="M539 1541l-236 285h103l211 -285h-78zM281 1118l297 307l297 -307h-85l-212 219l-212 -219h-85zM577 -14c-277 0 -473 226 -473 516c0 286 196 511 473 511c276 0 476 -225 476 -511c0 -288 -200 -516 -476 -516zM577 70c228 0 378 191 378 432c0 239 -150 427 -378 427
c-227 0 -374 -187 -374 -427c0 -242 147 -432 374 -432z" />
    <glyph glyph-name="uni1ED7" unicode="&#x1ed7;" horiz-adv-x="1158" 
d="M723 1575c-170 0 -162 191 -285 190c-71 1 -115 -63 -115 -169h-60c0 146 68 233 178 232c159 1 155 -189 282 -189c62 0 107 70 107 180h62c0 -149 -68 -244 -169 -244zM281 1118l297 307l297 -307h-85l-212 219l-212 -219h-85zM577 -14c-277 0 -473 226 -473 516
c0 286 196 511 473 511c276 0 476 -225 476 -511c0 -288 -200 -516 -476 -516zM577 70c228 0 378 191 378 432c0 239 -150 427 -378 427c-227 0 -374 -187 -374 -427c0 -242 147 -432 374 -432z" />
    <glyph glyph-name="odieresis" unicode="&#xf6;" horiz-adv-x="1158" 
d="M359 1215v198h82v-198h-82zM712 1215v198h82v-198h-82zM577 -14c-277 0 -473 226 -473 516c0 286 196 511 473 511c276 0 476 -225 476 -511c0 -288 -200 -516 -476 -516zM577 70c228 0 378 191 378 432c0 239 -150 427 -378 427c-227 0 -374 -187 -374 -427
c0 -242 147 -432 374 -432z" />
    <glyph glyph-name="ograve" unicode="&#xf2;" horiz-adv-x="1158" 
d="M539 1128l-236 285h103l211 -285h-78zM577 -14c-277 0 -473 226 -473 516c0 286 196 511 473 511c276 0 476 -225 476 -511c0 -288 -200 -516 -476 -516zM577 70c228 0 378 191 378 432c0 239 -150 427 -378 427c-227 0 -374 -187 -374 -427c0 -242 147 -432 374 -432z
" />
    <glyph glyph-name="ohungarumlaut" unicode="&#x151;" horiz-adv-x="1158" 
d="M364 1115l216 298h89l-229 -298h-76zM690 1115l216 298h103l-243 -298h-76zM577 -14c-277 0 -473 226 -473 516c0 286 196 511 473 511c276 0 476 -225 476 -511c0 -288 -200 -516 -476 -516zM577 70c228 0 378 191 378 432c0 239 -150 427 -378 427
c-227 0 -374 -187 -374 -427c0 -242 147 -432 374 -432z" />
    <glyph glyph-name="omacron" unicode="&#x14d;" horiz-adv-x="1158" 
d="M307 1244v61h544v-61h-544zM577 -14c-277 0 -473 226 -473 516c0 286 196 511 473 511c276 0 476 -225 476 -511c0 -288 -200 -516 -476 -516zM577 70c228 0 378 191 378 432c0 239 -150 427 -378 427c-227 0 -374 -187 -374 -427c0 -242 147 -432 374 -432z" />
    <glyph glyph-name="uni01EB" unicode="&#x1eb;" horiz-adv-x="1158" 
d="M667 -6c-131 -41 -251 -136 -251 -256c0 -90 52 -132 138 -132c71 0 120 29 163 90l52 -36c-52 -77 -118 -117 -213 -117c-124 0 -202 69 -202 184c0 121 99 217 199 260c-264 12 -449 233 -449 515c0 286 196 511 473 511c276 0 476 -225 476 -511
c0 -256 -157 -464 -386 -508zM203 502c0 -242 147 -432 374 -432c228 0 378 191 378 432c0 239 -150 427 -378 427c-227 0 -374 -187 -374 -427z" />
    <glyph glyph-name="uni0254" unicode="&#x254;" horiz-adv-x="1020" 
d="M471 -14c-179 0 -320 99 -380 269l87 33c45 -134 153 -214 294 -214c231 0 341 200 341 424c0 222 -109 428 -340 428c-137 0 -248 -82 -302 -216l-90 35c73 173 215 268 392 268c292 0 436 -253 436 -515c0 -289 -164 -512 -438 -512z" />
    <glyph glyph-name="oslash" unicode="&#xf8;" horiz-adv-x="1158" 
d="M865 915c116 -93 188 -242 188 -413c0 -288 -200 -516 -476 -516c-94 0 -179 26 -250 72l-36 -58h-53l53 84c-116 93 -187 244 -187 418c0 286 196 511 473 511c94 0 180 -26 251 -72l36 57h53zM203 502c0 -140 50 -263 135 -342l444 708c-57 39 -126 61 -205 61
c-227 0 -374 -187 -374 -427zM577 70c228 0 378 191 378 432c0 139 -50 260 -137 338l-444 -708c56 -39 125 -62 203 -62z" />
    <glyph glyph-name="oslashacute" unicode="&#x1ff;" horiz-adv-x="1158" 
d="M849 1413l-243 -285h-76l216 285h103zM865 915c116 -93 188 -242 188 -413c0 -288 -200 -516 -476 -516c-94 0 -179 26 -250 72l-36 -58h-53l53 84c-116 93 -187 244 -187 418c0 286 196 511 473 511c94 0 180 -26 251 -72l36 57h53zM203 502c0 -140 50 -263 135 -342
l444 708c-57 39 -126 61 -205 61c-227 0 -374 -187 -374 -427zM577 70c228 0 378 191 378 432c0 139 -50 260 -137 338l-444 -708c56 -39 125 -62 203 -62z" />
    <glyph glyph-name="otilde" unicode="&#xf5;" horiz-adv-x="1158" 
d="M723 1162c-170 0 -162 191 -285 190c-71 1 -115 -63 -115 -169h-60c0 146 68 233 178 232c159 1 155 -189 282 -189c62 0 107 70 107 180h62c0 -149 -68 -244 -169 -244zM577 -14c-277 0 -473 226 -473 516c0 286 196 511 473 511c276 0 476 -225 476 -511
c0 -288 -200 -516 -476 -516zM577 70c228 0 378 191 378 432c0 239 -150 427 -378 427c-227 0 -374 -187 -374 -427c0 -242 147 -432 374 -432z" />
    <glyph glyph-name="oe" unicode="&#x153;" horiz-adv-x="1922" 
d="M1817 565c0 -31 -2 -71 -6 -86h-753c6 -254 137 -405 353 -405c130 0 214 34 311 134l67 -61c-114 -115 -220 -161 -378 -161c-202 0 -345 107 -411 273c-77 -163 -232 -273 -423 -273c-277 0 -473 226 -473 516c0 286 196 511 473 511c193 0 349 -110 425 -274
c66 164 201 274 392 274c319 0 423 -259 423 -448zM1721 551c2 20 2 43 0 62c-8 146 -98 318 -328 318c-195 0 -320 -155 -335 -380h663zM577 70c228 0 378 191 378 432c0 239 -150 427 -378 427c-227 0 -374 -187 -374 -427c0 -242 147 -432 374 -432z" />
    <glyph glyph-name="p" unicode="p" horiz-adv-x="1207" 
d="M193 -414v1413h97v-261c60 168 208 275 383 275c266 0 421 -229 421 -515c0 -285 -155 -512 -422 -512c-176 0 -322 108 -382 274v-674h-97zM653 74c222 0 346 185 346 424c0 241 -124 426 -346 426s-370 -183 -370 -426c0 -241 148 -424 370 -424z" />
    <glyph glyph-name="thorn" unicode="&#xfe;" horiz-adv-x="1207" 
d="M673 1013c266 0 421 -229 421 -515c0 -285 -155 -512 -422 -512c-176 0 -322 108 -382 274v-674h-97v1827h97v-675c60 168 208 275 383 275zM653 924c-222 0 -370 -183 -370 -426c0 -241 148 -424 370 -424s346 185 346 424c0 241 -124 426 -346 426z" />
    <glyph glyph-name="q" unicode="q" horiz-adv-x="1207" 
d="M1014 -414h-97v674c-60 -166 -206 -274 -382 -274c-267 0 -422 227 -422 512c0 286 155 515 421 515c175 0 323 -107 383 -275v261h97v-1413zM554 74c222 0 370 183 370 424c0 243 -148 426 -370 426s-346 -185 -346 -426c0 -239 124 -424 346 -424z" />
    <glyph glyph-name="r" unicode="r" horiz-adv-x="785" 
d="M190 0v999h93v-223c53 165 200 237 322 237c52 0 105 -13 147 -40l-44 -79c-36 17 -75 26 -115 26c-140 0 -310 -104 -310 -381v-539h-93z" />
    <glyph glyph-name="racute" unicode="&#x155;" horiz-adv-x="785" 
d="M388 1128l216 285h103l-243 -285h-76zM190 0v999h93v-223c53 165 200 237 322 237c52 0 105 -13 147 -40l-44 -79c-36 17 -75 26 -115 26c-140 0 -310 -104 -310 -381v-539h-93z" />
    <glyph glyph-name="rcaron" unicode="&#x159;" horiz-adv-x="785" 
d="M435 1113l-296 300h85l211 -216l213 216h84zM190 0v999h93v-223c53 165 200 237 322 237c52 0 105 -13 147 -40l-44 -79c-36 17 -75 26 -115 26c-140 0 -310 -104 -310 -381v-539h-93z" />
    <glyph glyph-name="uni0157" unicode="&#x157;" horiz-adv-x="785" 
d="M190 0v999h93v-223c53 165 200 237 322 237c52 0 105 -13 147 -40l-44 -79c-36 17 -75 26 -115 26c-140 0 -310 -104 -310 -381v-539h-93zM151 -444l198 329h102l-234 -329h-66z" />
    <glyph glyph-name="s" unicode="s" horiz-adv-x="934" 
d="M486 -14c-193 0 -349 107 -401 258l79 34c41 -118 156 -210 318 -210c163 0 255 83 255 204c0 306 -607 114 -607 479c0 166 142 262 332 262c153 0 275 -75 342 -206l-74 -40c-52 100 -144 168 -271 168c-145 0 -238 -70 -238 -173c0 -280 609 -97 609 -486
c0 -189 -147 -290 -344 -290z" />
    <glyph glyph-name="sacute" unicode="&#x15b;" horiz-adv-x="934" 
d="M408 1128l216 285h103l-243 -285h-76zM486 -14c-193 0 -349 107 -401 258l79 34c41 -118 156 -210 318 -210c163 0 255 83 255 204c0 306 -607 114 -607 479c0 166 142 262 332 262c153 0 275 -75 342 -206l-74 -40c-52 100 -144 168 -271 168c-145 0 -238 -70 -238 -173
c0 -280 609 -97 609 -486c0 -189 -147 -290 -344 -290z" />
    <glyph glyph-name="scaron" unicode="&#x161;" horiz-adv-x="934" 
d="M455 1113l-296 300h85l211 -216l213 216h84zM486 -14c-193 0 -349 107 -401 258l79 34c41 -118 156 -210 318 -210c163 0 255 83 255 204c0 306 -607 114 -607 479c0 166 142 262 332 262c153 0 275 -75 342 -206l-74 -40c-52 100 -144 168 -271 168
c-145 0 -238 -70 -238 -173c0 -280 609 -97 609 -486c0 -189 -147 -290 -344 -290z" />
    <glyph glyph-name="scedilla" unicode="&#x15f;" horiz-adv-x="934" 
d="M830 276c0 -177 -129 -277 -308 -289l-77 -131c24 -1 47 -3 67 -7c122 -20 187 -82 187 -176c0 -113 -78 -187 -200 -187c-83 0 -162 53 -192 129l59 25c20 -56 74 -94 135 -94c86 0 137 45 137 124c0 77 -66 127 -186 138c-28 2 -57 3 -93 3l100 176
c-180 9 -324 113 -374 257l79 34c41 -118 156 -210 318 -210c163 0 255 83 255 204c0 306 -607 114 -607 479c0 166 142 262 332 262c153 0 275 -75 342 -206l-74 -40c-52 100 -144 168 -271 168c-145 0 -238 -70 -238 -173c0 -280 609 -97 609 -486z" />
    <glyph glyph-name="uni0219" unicode="&#x219;" horiz-adv-x="934" 
d="M486 -14c-193 0 -349 107 -401 258l79 34c41 -118 156 -210 318 -210c163 0 255 83 255 204c0 306 -607 114 -607 479c0 166 142 262 332 262c153 0 275 -75 342 -206l-74 -40c-52 100 -144 168 -271 168c-145 0 -238 -70 -238 -173c0 -280 609 -97 609 -486
c0 -189 -147 -290 -344 -290zM255 -444l198 329h102l-234 -329h-66z" />
    <glyph glyph-name="germandbls" unicode="&#xdf;" horiz-adv-x="1209" 
d="M725 -13c-91 0 -175 25 -257 61l33 83c75 -34 147 -57 222 -57c153 0 246 93 246 235c0 226 -308 269 -308 460c0 170 225 155 225 326c0 154 -134 248 -300 248c-204 0 -301 -148 -301 -457v-886h-94v886c0 363 147 541 391 541c217 0 398 -137 398 -337
c0 -215 -230 -206 -230 -325c0 -135 315 -181 315 -456c0 -195 -138 -322 -340 -322z" />
    <glyph glyph-name="t" unicode="t" horiz-adv-x="685" 
d="M479 -14c-172 0 -260 101 -260 295v637h-167v81h169v303l93 72v-375h289v-81h-289v-623c0 -156 59 -223 179 -223c42 0 83 9 109 19l3 -88c-29 -8 -77 -17 -126 -17z" />
    <glyph glyph-name="tbar" unicode="&#x167;" horiz-adv-x="685" 
d="M655 466h-341v-171c0 -156 59 -223 179 -223c42 0 83 9 109 19l3 -88c-29 -8 -77 -17 -126 -17c-172 0 -260 101 -260 295v185h-199v68h199v384h-167v81h169v303l93 72v-375h289v-81h-289v-384h341v-68z" />
    <glyph glyph-name="tcaron" unicode="&#x165;" horiz-adv-x="1314" 
d="M898 1005l119 408h100l-156 -408h-63zM479 -14c-172 0 -260 101 -260 295v637h-167v81h169v303l93 72v-375h289v-81h-289v-623c0 -156 59 -223 179 -223c42 0 83 9 109 19l3 -88c-29 -8 -77 -17 -126 -17z" />
    <glyph glyph-name="uni0163" unicode="&#x163;" horiz-adv-x="685" 
d="M492 -151c122 -20 187 -82 187 -176c0 -113 -78 -187 -200 -187c-83 0 -162 53 -192 129l59 25c20 -56 74 -94 135 -94c86 0 137 45 137 124c0 77 -66 127 -186 138c-28 2 -57 3 -93 3l101 177c-146 15 -221 114 -221 293v637h-167v81h169v303l93 72v-375h289v-81h-289
v-623c0 -156 59 -223 179 -223c42 0 83 9 109 19l3 -88c-24 -7 -63 -14 -103 -16l-77 -131c24 -1 47 -3 67 -7z" />
    <glyph glyph-name="uni021B" unicode="&#x21b;" horiz-adv-x="685" 
d="M479 -14c-172 0 -260 101 -260 295v637h-167v81h169v303l93 72v-375h289v-81h-289v-623c0 -156 59 -223 179 -223c42 0 83 9 109 19l3 -88c-29 -8 -77 -17 -126 -17zM235 -444l198 329h102l-234 -329h-66z" />
    <glyph glyph-name="u" unicode="u" 
d="M507 -14c-224 0 -336 151 -341 370v643h94v-613c0 -199 93 -311 270 -311c179 0 296 118 296 319v605h94v-999h-94v188c-57 -130 -176 -202 -319 -202z" />
    <glyph glyph-name="uacute" unicode="&#xfa;" 
d="M504 1128l216 285h103l-243 -285h-76zM507 -14c-224 0 -336 151 -341 370v643h94v-613c0 -199 93 -311 270 -311c179 0 296 118 296 319v605h94v-999h-94v188c-57 -130 -176 -202 -319 -202z" />
    <glyph glyph-name="uni01D4" unicode="&#x1d4;" 
d="M551 1113l-296 300h85l211 -216l213 216h84zM507 -14c-224 0 -336 151 -341 370v643h94v-613c0 -199 93 -311 270 -311c179 0 296 118 296 319v605h94v-999h-94v188c-57 -130 -176 -202 -319 -202z" />
    <glyph glyph-name="ucircumflex" unicode="&#xfb;" 
d="M255 1118l297 307l297 -307h-85l-212 219l-212 -219h-85zM507 -14c-224 0 -336 151 -341 370v643h94v-613c0 -199 93 -311 270 -311c179 0 296 118 296 319v605h94v-999h-94v188c-57 -130 -176 -202 -319 -202z" />
    <glyph glyph-name="udieresis" unicode="&#xfc;" 
d="M333 1215v198h82v-198h-82zM686 1215v198h82v-198h-82zM507 -14c-224 0 -336 151 -341 370v643h94v-613c0 -199 93 -311 270 -311c179 0 296 118 296 319v605h94v-999h-94v188c-57 -130 -176 -202 -319 -202z" />
    <glyph glyph-name="uni01D8" unicode="&#x1d8;" 
d="M504 1542l216 285h103l-243 -285h-76zM333 1215v198h82v-198h-82zM686 1215v198h82v-198h-82zM507 -14c-224 0 -336 151 -341 370v643h94v-613c0 -199 93 -311 270 -311c179 0 296 118 296 319v605h94v-999h-94v188c-57 -130 -176 -202 -319 -202z" />
    <glyph glyph-name="uni01DA" unicode="&#x1da;" 
d="M551 1527l-296 300h85l211 -216l213 216h84zM333 1215v198h82v-198h-82zM686 1215v198h82v-198h-82zM507 -14c-224 0 -336 151 -341 370v643h94v-613c0 -199 93 -311 270 -311c179 0 296 118 296 319v605h94v-999h-94v188c-57 -130 -176 -202 -319 -202z" />
    <glyph glyph-name="uni01DC" unicode="&#x1dc;" 
d="M513 1542l-236 285h103l211 -285h-78zM333 1215v198h82v-198h-82zM686 1215v198h82v-198h-82zM507 -14c-224 0 -336 151 -341 370v643h94v-613c0 -199 93 -311 270 -311c179 0 296 118 296 319v605h94v-999h-94v188c-57 -130 -176 -202 -319 -202z" />
    <glyph glyph-name="uni01D6" unicode="&#x1d6;" 
d="M281 1658v61h544v-61h-544zM333 1215v198h82v-198h-82zM686 1215v198h82v-198h-82zM507 -14c-224 0 -336 151 -341 370v643h94v-613c0 -199 93 -311 270 -311c179 0 296 118 296 319v605h94v-999h-94v188c-57 -130 -176 -202 -319 -202z" />
    <glyph glyph-name="ugrave" unicode="&#xf9;" 
d="M513 1128l-236 285h103l211 -285h-78zM507 -14c-224 0 -336 151 -341 370v643h94v-613c0 -199 93 -311 270 -311c179 0 296 118 296 319v605h94v-999h-94v188c-57 -130 -176 -202 -319 -202z" />
    <glyph glyph-name="uhungarumlaut" unicode="&#x171;" 
d="M338 1115l216 298h89l-229 -298h-76zM664 1115l216 298h103l-243 -298h-76zM507 -14c-224 0 -336 151 -341 370v643h94v-613c0 -199 93 -311 270 -311c179 0 296 118 296 319v605h94v-999h-94v188c-57 -130 -176 -202 -319 -202z" />
    <glyph glyph-name="umacron" unicode="&#x16b;" 
d="M281 1244v61h544v-61h-544zM507 -14c-224 0 -336 151 -341 370v643h94v-613c0 -199 93 -311 270 -311c179 0 296 118 296 319v605h94v-999h-94v188c-57 -130 -176 -202 -319 -202z" />
    <glyph glyph-name="uogonek" unicode="&#x173;" 
d="M951 -304l52 -36c-52 -77 -118 -117 -213 -117c-124 0 -202 69 -202 184c0 137 126 241 238 274v187c-57 -130 -176 -202 -319 -202c-224 0 -336 151 -341 370v643h94v-613c0 -199 93 -311 270 -311c179 0 296 118 296 319v605h94v-999c-138 -38 -270 -136 -270 -262
c0 -90 52 -132 138 -132c71 0 120 29 163 90z" />
    <glyph glyph-name="uring" unicode="&#x16f;" 
d="M550 1103c-102 0 -182 82 -182 182c0 101 81 182 182 182c99 0 182 -81 182 -182s-80 -182 -182 -182zM550 1161c70 0 125 55 125 125c0 69 -53 124 -125 124c-70 0 -124 -55 -124 -124c0 -72 54 -125 124 -125zM507 -14c-224 0 -336 151 -341 370v643h94v-613
c0 -199 93 -311 270 -311c179 0 296 118 296 319v605h94v-999h-94v188c-57 -130 -176 -202 -319 -202z" />
    <glyph glyph-name="utilde" unicode="&#x169;" 
d="M697 1162c-170 0 -162 191 -285 190c-71 1 -115 -63 -115 -169h-60c0 146 68 233 178 232c159 1 155 -189 282 -189c62 0 107 70 107 180h62c0 -149 -68 -244 -169 -244zM507 -14c-224 0 -336 151 -341 370v643h94v-613c0 -199 93 -311 270 -311c179 0 296 118 296 319
v605h94v-999h-94v188c-57 -130 -176 -202 -319 -202z" />
    <glyph glyph-name="v" unicode="v" horiz-adv-x="1002" 
d="M459 0l-408 999h103l347 -880l346 880h105l-409 -999h-84z" />
    <glyph glyph-name="w" unicode="w" horiz-adv-x="1492" 
d="M354 0l-285 999h102l235 -858l295 858h92l293 -858l236 858h102l-286 -999h-94l-297 871l-299 -871h-94z" />
    <glyph glyph-name="wacute" unicode="&#x1e83;" horiz-adv-x="1492" 
d="M701 1128l216 285h103l-243 -285h-76zM354 0l-285 999h102l235 -858l295 858h92l293 -858l236 858h102l-286 -999h-94l-297 871l-299 -871h-94z" />
    <glyph glyph-name="wcircumflex" unicode="&#x175;" horiz-adv-x="1492" 
d="M452 1118l297 307l297 -307h-85l-212 219l-212 -219h-85zM354 0l-285 999h102l235 -858l295 858h92l293 -858l236 858h102l-286 -999h-94l-297 871l-299 -871h-94z" />
    <glyph glyph-name="wdieresis" unicode="&#x1e85;" horiz-adv-x="1492" 
d="M530 1215v198h82v-198h-82zM883 1215v198h82v-198h-82zM354 0l-285 999h102l235 -858l295 858h92l293 -858l236 858h102l-286 -999h-94l-297 871l-299 -871h-94z" />
    <glyph glyph-name="wgrave" unicode="&#x1e81;" horiz-adv-x="1492" 
d="M710 1128l-236 285h103l211 -285h-78zM354 0l-285 999h102l235 -858l295 858h92l293 -858l236 858h102l-286 -999h-94l-297 871l-299 -871h-94z" />
    <glyph glyph-name="x" unicode="x" horiz-adv-x="997" 
d="M61 0l375 501l-375 498h115l322 -432l320 432h117l-375 -498l377 -501h-118l-321 434l-321 -434h-116z" />
    <glyph glyph-name="y" unicode="y" horiz-adv-x="1016" 
d="M319 -427l166 435l-437 991h105l383 -878l324 878h103l-540 -1426h-104z" />
    <glyph glyph-name="yacute" unicode="&#xfd;" horiz-adv-x="1016" 
d="M454 1128l216 285h103l-243 -285h-76zM319 -427l166 435l-437 991h105l383 -878l324 878h103l-540 -1426h-104z" />
    <glyph glyph-name="ycircumflex" unicode="&#x177;" horiz-adv-x="1016" 
d="M205 1118l297 307l297 -307h-85l-212 219l-212 -219h-85zM319 -427l166 435l-437 991h105l383 -878l324 878h103l-540 -1426h-104z" />
    <glyph glyph-name="ydieresis" unicode="&#xff;" horiz-adv-x="1016" 
d="M283 1215v198h82v-198h-82zM636 1215v198h82v-198h-82zM319 -427l166 435l-437 991h105l383 -878l324 878h103l-540 -1426h-104z" />
    <glyph glyph-name="ygrave" unicode="&#x1ef3;" horiz-adv-x="1016" 
d="M463 1128l-236 285h103l211 -285h-78zM319 -427l166 435l-437 991h105l383 -878l324 878h103l-540 -1426h-104z" />
    <glyph glyph-name="uni1EF9" unicode="&#x1ef9;" horiz-adv-x="1016" 
d="M647 1162c-170 0 -162 191 -285 190c-71 1 -115 -63 -115 -169h-60c0 146 68 233 178 232c159 1 155 -189 282 -189c62 0 107 70 107 180h62c0 -149 -68 -244 -169 -244zM319 -427l166 435l-437 991h105l383 -878l324 878h103l-540 -1426h-104z" />
    <glyph glyph-name="z" unicode="z" horiz-adv-x="971" 
d="M887 999v-84l-692 -833h686v-82h-809v76l703 842h-667v81h779z" />
    <glyph glyph-name="zacute" unicode="&#x17a;" horiz-adv-x="971" 
d="M750 1413l-243 -285h-76l216 285h103zM887 999v-84l-692 -833h686v-82h-809v76l703 842h-667v81h779z" />
    <glyph glyph-name="zcaron" unicode="&#x17e;" horiz-adv-x="971" 
d="M775 1413l-297 -300l-296 300h85l211 -216l213 216h84zM887 999v-84l-692 -833h686v-82h-809v76l703 842h-667v81h779z" />
    <glyph glyph-name="zdotaccent" unicode="&#x17c;" horiz-adv-x="971" 
d="M528 1413v-198h-99v198h99zM887 999v-84l-692 -833h686v-82h-809v76l703 842h-667v81h779z" />
    <glyph glyph-name="T_h" horiz-adv-x="2094" 
d="M590 0v1324h-511v89h1189v-601c56 129 174 201 317 201c224 0 337 -151 343 -369v-644h-96v613c0 197 -82 313 -267 313s-297 -135 -297 -334v-592h-97v1324h-483v-1324h-98z" />
    <glyph glyph-name="f_t" horiz-adv-x="1160" 
d="M954 -14c-172 0 -260 101 -260 295v637h-386v-918h-95v918h-167v81h167v87c0 240 135 341 311 341c107 0 193 -31 264 -84v-344h290v-81h-290v-623c0 -156 60 -223 179 -223c42 0 84 9 110 19l2 -88c-28 -8 -78 -17 -125 -17zM308 999h387v293c-44 36 -102 56 -167 56
c-139 0 -220 -73 -220 -263v-86z" />
    <glyph glyph-name="t_t" horiz-adv-x="1319" 
d="M534 -14c-193 0 -292 101 -292 295v637h-190v81h192v303l93 72v-375h473v303l90 72v-375h337v-81h-337v-623c0 -156 71 -223 213 -223c47 0 94 9 123 19l2 -88c-31 -8 -86 -17 -138 -17c-193 0 -291 101 -291 295v637h-472v-623c0 -156 68 -223 210 -223
c46 0 93 9 122 19l3 -88c-32 -8 -85 -17 -138 -17z" />
    <glyph glyph-name="ordfeminine" unicode="&#xaa;" horiz-adv-x="1069" 
d="M463 703c-138 0 -237 80 -237 207c0 141 111 207 300 207h209c0 16 -1 31 -2 46c-6 137 -76 209 -213 209c-99 0 -164 -42 -222 -123l-47 34c74 102 152 144 271 144c175 0 270 -103 270 -281v-433h-54l-1 153c-66 -109 -156 -163 -274 -163zM472 760
c114 0 202 62 256 179c3 40 6 83 7 124h-205c-161 0 -241 -52 -241 -153c0 -91 74 -150 183 -150z" />
    <glyph glyph-name="ordmasculine" unicode="&#xba;" horiz-adv-x="1024" 
d="M512 717c-195 0 -338 156 -338 356c0 198 143 354 338 354c193 0 336 -156 336 -354c0 -200 -141 -356 -336 -356zM512 780c161 0 266 126 266 293c0 166 -105 292 -266 292c-163 0 -268 -126 -268 -292c0 -167 105 -293 268 -293z" />
    <glyph glyph-name="uni01C3" unicode="&#x1c3;" horiz-adv-x="567" 
d="M247 387l-9 1026h91l-10 -1026h-72zM232 0v204h103v-204h-103z" />
    <glyph glyph-name="uni03BC" unicode="&#x3bc;" horiz-adv-x="1288" 
d="M286 -355v1354h94v-613c0 -199 93 -311 270 -311c179 0 296 118 296 319v605h94v-999h-94v188c-56 -130 -176 -202 -319 -202c-129 0 -218 54 -262 154v-495h-79z" />
    <glyph glyph-name="pi" unicode="&#x3c0;" horiz-adv-x="1099" 
d="M932 -14c-152 0 -225 175 -225 521v411h-418v-918h-81v918h-112v81h810v-81h-118v-401c0 -316 50 -457 149 -457c21 0 51 5 82 17l25 -67c-37 -15 -77 -24 -112 -24z" />
    <glyph glyph-name="zero" unicode="0" horiz-adv-x="1133" 
d="M577 -14c-400 0 -504 412 -504 721c0 312 101 722 490 722c353 0 501 -365 501 -726c0 -357 -145 -717 -487 -717zM575 80c279 0 388 313 388 625c0 316 -111 629 -400 629c-310 0 -393 -343 -393 -627c0 -282 84 -627 405 -627z" />
    <glyph glyph-name="one" unicode="1" horiz-adv-x="1133" 
d="M623 1413h94v-1413h-97v1105h-364v77h258c72 0 109 28 109 97v134z" />
    <glyph glyph-name="two" unicode="2" horiz-adv-x="1133" 
d="M76 0v100c365 230 804 527 804 921c0 192 -114 316 -316 316c-228 0 -341 -156 -343 -386l-96 5c0 278 160 470 438 470c251 0 415 -151 415 -407c0 -396 -414 -710 -762 -925l-23 -4h862v-90h-979z" />
    <glyph glyph-name="three" unicode="3" horiz-adv-x="1133" 
d="M556 -14c-282 0 -484 157 -484 426l95 5c0 -211 155 -339 390 -339c225 0 386 123 386 324c0 260 -262 301 -458 300v87c194 -1 383 55 383 272c0 164 -133 274 -315 274c-192 0 -320 -116 -321 -293l-93 6c0 232 176 379 413 379c228 0 411 -144 411 -356
c0 -199 -151 -288 -311 -319c198 -28 386 -127 386 -357c0 -254 -207 -409 -482 -409z" />
    <glyph glyph-name="four" unicode="4" horiz-adv-x="1133" 
d="M862 429h232v-90h-232v-339h-97v339h-725v68l727 1006h95v-984zM162 429h603v844z" />
    <glyph glyph-name="five" unicode="5" horiz-adv-x="1133" 
d="M595 934c253 0 447 -202 447 -465c0 -267 -211 -483 -479 -483c-232 0 -415 163 -467 398l92 24c41 -192 177 -332 375 -332c217 0 379 177 379 394c0 213 -147 374 -360 374c-130 0 -254 -65 -336 -184l-105 32l126 721h706v-91h-628l-93 -540c102 102 218 152 343 152z
" />
    <glyph glyph-name="six" unicode="6" horiz-adv-x="1133" 
d="M630 895c224 -23 405 -216 405 -449c0 -252 -208 -460 -466 -460s-467 207 -467 458c0 94 29 175 72 248l426 721h111l-336 -568c76 40 164 59 255 50zM569 79c203 0 370 165 370 368c0 202 -167 367 -370 367s-371 -164 -371 -368c0 -203 165 -367 371 -367z" />
    <glyph glyph-name="seven" unicode="7" horiz-adv-x="1133" 
d="M60 1413h1008v-67l-714 -1346h-109l710 1322h-895v91z" />
    <glyph glyph-name="eight" unicode="8" horiz-adv-x="1133" 
d="M566 -14c-229 0 -458 135 -458 406c0 187 115 327 289 375c-126 50 -204 167 -204 317c0 220 190 343 376 343c210 0 375 -140 375 -353c0 -144 -82 -260 -207 -307c174 -51 284 -191 284 -374c0 -273 -225 -407 -455 -407zM571 797c162 0 279 110 279 270
c0 167 -117 276 -280 276c-142 0 -280 -92 -280 -264c0 -169 113 -282 281 -282zM565 72c188 0 359 108 359 329c0 197 -150 327 -359 327c-212 0 -361 -130 -361 -327c0 -221 176 -329 361 -329z" />
    <glyph glyph-name="nine" unicode="9" horiz-adv-x="1133" 
d="M583 1427c258 0 467 -207 467 -458c0 -94 -29 -175 -72 -248l-426 -721h-111l336 568c-76 -40 -164 -59 -255 -50c-224 23 -405 216 -405 449c0 252 208 460 466 460zM583 599c203 0 371 164 371 368c0 203 -165 367 -371 367c-203 0 -370 -165 -370 -368
c0 -202 167 -367 370 -367z" />
    <glyph glyph-name="fraction" unicode="&#x2044;" horiz-adv-x="273" 
d="M-287 0l776 1413h71l-776 -1413h-71z" />
    <glyph glyph-name="period" unicode="." horiz-adv-x="620" 
d="M262 0v205h96v-205h-96z" />
    <glyph glyph-name="comma" unicode="," horiz-adv-x="658" 
d="M167 -319l233 580h109l-273 -580h-69z" />
    <glyph glyph-name="colon" unicode=":" horiz-adv-x="638" 
d="M268 749v205h102v-205h-102zM268 0v205h102v-205h-102z" />
    <glyph glyph-name="semicolon" unicode=";" horiz-adv-x="677" 
d="M344 749v205h102v-205h-102zM134 -319l234 580h109l-274 -580h-69z" />
    <glyph glyph-name="ellipsis" unicode="&#x2026;" horiz-adv-x="1447" 
d="M262 0v205h96v-205h-96zM676 0v205h95v-205h-95zM1090 0v205h95v-205h-95z" />
    <glyph glyph-name="exclam" unicode="!" horiz-adv-x="624" 
d="M274 388l-9 1025h94l-9 -1025h-76zM261 0v205h102v-205h-102z" />
    <glyph glyph-name="exclamdown" unicode="&#xa1;" horiz-adv-x="624" 
d="M261 1413h102v-205h-102v205zM274 1025h76l9 -1025h-94z" />
    <glyph glyph-name="question" unicode="?" horiz-adv-x="1074" 
d="M488 384v173c0 294 364 215 364 509c0 182 -122 280 -328 280c-200 0 -317 -114 -319 -296h-85c2 233 161 377 401 377c248 0 416 -129 416 -363c0 -351 -366 -291 -366 -508v-172h-83zM479 0v205h103v-205h-103z" />
    <glyph glyph-name="questiondown" unicode="&#xbf;" horiz-adv-x="1074" 
d="M595 1413v-205h-103v205h103zM586 1029v-173c0 -294 -364 -215 -364 -509c0 -182 122 -280 328 -280c200 0 317 114 319 296h85c-2 -233 -161 -377 -401 -377c-248 0 -416 129 -416 363c0 351 366 291 366 508v172h83z" />
    <glyph glyph-name="periodcentered" unicode="&#xb7;" horiz-adv-x="708" 
d="M354 602c-72 0 -129 58 -129 129c0 74 56 128 129 128c72 0 129 -55 129 -128c0 -71 -58 -129 -129 -129z" />
    <glyph glyph-name="bullet" unicode="&#x2022;" horiz-adv-x="883" 
d="M442 244c-131 0 -238 106 -238 237s107 238 238 238s237 -107 237 -238s-106 -237 -237 -237z" />
    <glyph glyph-name="asterisk" unicode="*" horiz-adv-x="948" 
d="M351 847l-102 73l180 196l-256 36l41 122l232 -107l-34 246h125l-36 -246l234 107l40 -122l-256 -36l179 -196l-104 -73l-120 242z" />
    <glyph glyph-name="numbersign" unicode="#" horiz-adv-x="1434" 
d="M291 0l91 434h-254v71h269l88 430h-271v74h286l88 404h78l-86 -407h389l86 407h78l-86 -407h260v-71h-275l-91 -430h280v-71h-295l-89 -434h-79l91 434h-390l-89 -434h-79zM475 505h391l87 430h-389z" />
    <glyph glyph-name="slash" unicode="/" horiz-adv-x="868" 
d="M29 -426l718 1839h92l-717 -1839h-93z" />
    <glyph glyph-name="backslash" unicode="\" horiz-adv-x="901" 
d="M782 -427l-755 1940h92l755 -1940h-92z" />
    <glyph glyph-name="twodotenleader" unicode="&#x2025;" horiz-adv-x="1034" 
d="M262 0v205h96v-205h-96zM676 0v205h95v-205h-95z" />
    <glyph glyph-name="uni2023" unicode="&#x2023;" horiz-adv-x="888" 
d="M266 221v550l483 -274z" />
    <glyph glyph-name="parenleft" unicode="(" horiz-adv-x="565" 
d="M387 -42c-147 171 -232 509 -232 747c0 272 75 557 232 748h91c-173 -211 -245 -497 -245 -749c0 -262 86 -555 243 -746h-89z" />
    <glyph glyph-name="parenright" unicode=")" horiz-adv-x="565" 
d="M178 -42h-89c157 191 243 484 243 746c0 252 -72 538 -245 749h91c157 -191 232 -476 232 -748c0 -238 -85 -576 -232 -747z" />
    <glyph glyph-name="braceleft" unicode="{" horiz-adv-x="627" 
d="M433 -132c-130 0 -201 94 -201 241v373c0 76 -50 111 -117 134v79c73 18 117 53 117 154v413c0 155 70 236 215 236h88v-66h-60c-115 0 -160 -58 -160 -172v-412c0 -109 -41 -163 -121 -189v-8c76 -30 121 -82 121 -168v-372c0 -110 52 -177 146 -177h73v-66h-101z" />
    <glyph glyph-name="braceright" unicode="}" horiz-adv-x="627" 
d="M194 -132h-101v66h73c94 0 146 67 146 177v372c0 86 45 138 121 168v8c-80 26 -121 80 -121 189v412c0 114 -45 172 -160 172h-60v66h88c145 0 215 -81 215 -236v-413c0 -101 44 -136 117 -154v-79c-67 -23 -117 -58 -117 -134v-373c0 -147 -71 -241 -201 -241z" />
    <glyph glyph-name="bracketleft" unicode="[" horiz-adv-x="667" 
d="M229 -112v1634h353v-67h-273v-1499h273v-68h-353z" />
    <glyph glyph-name="bracketright" unicode="]" horiz-adv-x="667" 
d="M438 -112h-353v68h273v1499h-273v67h353v-1634z" />
    <glyph glyph-name="hyphen" unicode="-" horiz-adv-x="884" 
d="M180 593v75h525v-75h-525z" />
    <glyph glyph-name="uni00AD" unicode="&#xad;" horiz-adv-x="1027" 
d="M180 593v75h668v-75h-668z" />
    <glyph glyph-name="endash" unicode="&#x2013;" horiz-adv-x="1068" 
d="M180 593v75h709v-75h-709z" />
    <glyph glyph-name="emdash" unicode="&#x2014;" horiz-adv-x="2313" 
d="M132 593v75h2048v-75h-2048z" />
    <glyph glyph-name="underscore" unicode="_" horiz-adv-x="1303" 
d="M256 -75v75h791v-75h-791z" />
    <glyph glyph-name="uni2015" unicode="&#x2015;" horiz-adv-x="1560" 
d="M180 593v75h1200v-75h-1200z" />
    <glyph glyph-name="quotesinglbase" unicode="&#x201a;" horiz-adv-x="573" 
d="M147 -319l233 580h109l-273 -580h-69z" />
    <glyph glyph-name="quotedblbase" unicode="&#x201e;" horiz-adv-x="909" 
d="M137 -319l233 580h109l-273 -580h-69zM465 -319l233 580h109l-273 -580h-69z" />
    <glyph glyph-name="quotedblleft" unicode="&#x201c;" horiz-adv-x="902" 
d="M452 833h-69l-273 580h109zM773 833h-69l-273 580h109z" />
    <glyph glyph-name="quotedblright" unicode="&#x201d;" horiz-adv-x="902" 
d="M129 833l233 580h109l-273 -580h-69zM450 833l233 580h109l-273 -580h-69z" />
    <glyph glyph-name="quoteleft" unicode="&#x2018;" horiz-adv-x="582" 
d="M453 833h-69l-273 580h109z" />
    <glyph glyph-name="quoteright" unicode="&#x2019;" horiz-adv-x="582" 
d="M129 833l233 580h109l-273 -580h-69z" />
    <glyph glyph-name="guillemotleft" unicode="&#xab;" horiz-adv-x="979" 
d="M473 175l-384 336l384 336v-88l-282 -248l282 -248v-88zM829 175l-384 336l384 336v-88l-282 -248l282 -248v-88z" />
    <glyph glyph-name="guillemotright" unicode="&#xbb;" horiz-adv-x="979" 
d="M150 175v88l282 248l-282 248v88l384 -336zM506 175v88l282 248l-282 248v88l384 -336z" />
    <glyph glyph-name="guilsinglleft" unicode="&#x2039;" horiz-adv-x="623" 
d="M473 175l-384 336l384 336v-88l-282 -248l282 -248v-88z" />
    <glyph glyph-name="guilsinglright" unicode="&#x203a;" horiz-adv-x="623" 
d="M150 175v88l282 248l-282 248v88l384 -336z" />
    <glyph glyph-name="quotedbl" unicode="&#x22;" horiz-adv-x="922" 
d="M266 965v448h81v-448h-81zM574 965v448h82v-448h-82z" />
    <glyph glyph-name="quotesingle" unicode="'" horiz-adv-x="610" 
d="M264 993v420h82v-420h-82z" />
    <glyph glyph-name="space" unicode=" " horiz-adv-x="533" 
 />
    <glyph glyph-name="uni00A0" unicode="&#xa0;" horiz-adv-x="563" 
 />
    <glyph glyph-name="cent" unicode="&#xa2;" horiz-adv-x="1199" 
d="M599 -213v201c-252 17 -404 231 -404 510c0 252 134 497 404 514v188h55v-188c167 -7 300 -102 370 -267l-91 -35c-51 126 -153 205 -279 214v-848c130 7 229 85 272 212l88 -33c-59 -164 -191 -261 -360 -268v-198zM599 78v844c-208 -17 -308 -213 -308 -424
c0 -213 102 -404 308 -420z" />
    <glyph glyph-name="currency" unicode="&#xa4;" horiz-adv-x="1432" 
d="M325 190l-53 55l99 98c-146 166 -145 417 0 584l-98 97l53 55l98 -99c167 145 418 146 584 0l99 98l53 -53l-98 -97c145 -168 145 -419 0 -586l98 -97l-53 -55l-99 99c-166 -145 -417 -145 -585 0zM447 367c148 -149 389 -149 537 0c148 148 149 389 0 535
c-148 149 -389 149 -536 0c-148 -147 -148 -389 -1 -535z" />
    <glyph glyph-name="dollar" unicode="$" horiz-adv-x="1153" 
d="M1031 380c0 -230 -185 -387 -432 -392v-248l-48 -2v251c-224 13 -400 149 -439 378l98 23c28 -189 159 -299 341 -313v638c-181 70 -358 148 -358 361c0 201 155 339 358 350v233h48v-232c163 -6 286 -74 370 -221l-82 -51c-67 118 -159 176 -288 182v-543
c203 -79 432 -155 432 -414zM291 1080c0 -143 118 -210 260 -267v524c-151 -10 -260 -115 -260 -257zM599 76c200 4 334 129 334 297c0 185 -162 256 -334 323v-620z" />
    <glyph glyph-name="Euro" unicode="&#x20ac;" horiz-adv-x="1376" 
d="M840 -14c-293 0 -452 230 -500 520h-170l40 74h119c-5 41 -6 84 -6 127c0 46 3 92 7 136h-160l40 76h131c52 287 213 508 497 508c154 0 283 -67 372 -192l-62 -49c-76 103 -183 155 -310 155c-235 0 -370 -181 -411 -422h536l-40 -75h-508c-5 -43 -8 -86 -8 -132
c0 -44 2 -89 7 -130h549l-40 -73h-496c39 -251 170 -436 413 -436c123 0 226 51 298 147l60 -57c-87 -114 -213 -177 -358 -177z" />
    <glyph glyph-name="florin" unicode="&#x192;" horiz-adv-x="1054" 
d="M145 -461v75c214 0 304 86 304 305v1006h-172v74h172v131c0 183 102 302 251 302c77 0 150 -30 210 -82l-53 -63c-47 41 -99 63 -157 63c-101 0 -170 -79 -170 -220v-131h287v-74h-287v-1013c0 -256 -130 -373 -385 -373z" />
    <glyph glyph-name="sterling" unicode="&#xa3;" horiz-adv-x="1294" 
d="M304 82h910v-82h-1026v106c168 41 284 166 284 305c0 100 -49 192 -85 290h-191v82h169c-20 59 -39 140 -39 229c0 235 159 412 402 412c184 0 323 -116 390 -294l-78 -28c-57 152 -168 240 -312 240c-190 0 -320 -133 -320 -332c0 -84 19 -163 43 -227h466v-82h-445
c35 -95 80 -184 80 -289c0 -204 -157 -294 -248 -330z" />
    <glyph glyph-name="uni20B1" unicode="&#x20b1;" horiz-adv-x="1414" 
d="M1266 1049v-48h-105c-9 -239 -186 -372 -467 -372h-272v-629h-98v1001h-140v48h140v364h370c272 0 452 -134 466 -364h106zM422 1320v-271h641c-14 171 -144 271 -369 271h-272zM694 722c235 0 362 99 370 279h-642v-279h272z" />
    <glyph glyph-name="uni20B3" unicode="&#x20b3;" horiz-adv-x="1595" 
d="M241 0l119 332h-161v86h194l80 227h-274v86h309l245 682h89l245 -682h309v-86h-274l80 -227h194v-86h-161l119 -332h-107l-116 332h-665l-116 -332h-109zM608 731h381l-190 550zM497 418h603l-79 227h-445z" />
    <glyph glyph-name="uni20B4" unicode="&#x20b4;" horiz-adv-x="1492" 
d="M1068 883h225v-71h-1103v71h744c70 47 117 107 117 197c0 149 -121 258 -284 258c-142 0 -241 -58 -312 -183l-82 51c88 153 218 221 391 221c216 0 386 -141 386 -351c0 -84 -33 -145 -82 -193zM190 559v70h1103v-70h-789c-56 -46 -94 -104 -94 -190
c0 -173 144 -293 346 -293c196 0 336 108 373 295l97 -22c-48 -231 -236 -361 -475 -361c-249 0 -440 152 -440 371c0 91 36 154 78 200h-199z" />
    <glyph glyph-name="uni20B8" unicode="&#x20b8;" horiz-adv-x="1484" 
d="M183 1329v83h1118v-83h-1118zM694 0v1026h-511v83h1118v-83h-509v-1026h-98z" />
    <glyph glyph-name="uni20BD" unicode="&#x20bd;" horiz-adv-x="1385" 
d="M369 0v332h-183v79h183v225h-183v86h183v691h370c284 0 467 -146 467 -394c0 -250 -179 -383 -467 -383h-272v-225h320v-79h-320v-332h-98zM467 722h272c243 0 370 106 370 297c0 189 -132 301 -370 301h-272v-598z" />
    <glyph glyph-name="yen" unicode="&#xa5;" horiz-adv-x="1470" 
d="M684 0v229h-378v79h378v220h-378v80h334l-496 805h119l471 -779l473 779h119l-497 -805h334v-80h-377v-220h377v-79h-377v-229h-102z" />
    <glyph glyph-name="plus" unicode="+" horiz-adv-x="1303" 
d="M614 116v472h-472v76h472v472h75v-472h472v-76h-472v-472h-75z" />
    <glyph glyph-name="minus" unicode="&#x2212;" horiz-adv-x="1227" 
d="M275 591v75h677v-75h-677z" />
    <glyph glyph-name="multiply" unicode="&#xd7;" horiz-adv-x="1120" 
d="M893 258l-334 334l-333 -334l-54 54l334 334l-334 333l53 53l334 -333l333 333l54 -53l-334 -334l334 -334z" />
    <glyph glyph-name="divide" unicode="&#xf7;" horiz-adv-x="987" 
d="M437 891v205h102v-205h-102zM145 591v75h684v-75h-684zM437 142v205h102v-205h-102z" />
    <glyph glyph-name="equal" unicode="=" horiz-adv-x="1340" 
d="M285 817v83h770v-83h-770zM285 444v82h770v-82h-770z" />
    <glyph glyph-name="notequal" unicode="&#x2260;" horiz-adv-x="1183" 
d="M169 0l241 444h-205v82h253l158 291h-411v83h461l278 513h71l-278 -513h239v-83h-289l-158 -291h447v-82h-495l-241 -444h-71z" />
    <glyph glyph-name="greater" unicode="&#x3e;" horiz-adv-x="1277" 
d="M192 74l-37 64l843 481l-843 481l37 65l957 -546z" />
    <glyph glyph-name="less" unicode="&#x3c;" horiz-adv-x="1277" 
d="M1085 74l-957 545l957 546l37 -65l-843 -481l843 -481z" />
    <glyph glyph-name="greaterequal" unicode="&#x2265;" horiz-adv-x="1350" 
d="M251 258l-37 64l843 481l-843 481l37 65l957 -546zM1140 0v-75h-973v75h973z" />
    <glyph glyph-name="lessequal" unicode="&#x2264;" horiz-adv-x="1350" 
d="M1099 258l-957 545l957 546l37 -65l-843 -481l843 -481zM210 0h973v-75h-973v75z" />
    <glyph glyph-name="plusminus" unicode="&#xb1;" horiz-adv-x="1364" 
d="M646 188v482h-482v75h482v480h76v-480h481v-75h-481v-482h-76zM164 -75v75h1024v-75h-1024z" />
    <glyph glyph-name="approxequal" unicode="&#x2248;" horiz-adv-x="1271" 
d="M810 716c-202 0 -195 257 -356 257c-92 0 -145 -81 -145 -213h-75c0 172 85 281 220 281c210 0 204 -257 356 -257c90 0 149 95 149 236h75c0 -181 -89 -304 -224 -304zM810 291c-202 0 -195 256 -356 256c-92 0 -145 -81 -145 -212h-75c0 170 85 281 220 281
c210 0 204 -257 356 -257c90 0 149 94 149 236h75c0 -183 -89 -304 -224 -304z" />
    <glyph glyph-name="asciitilde" unicode="~" horiz-adv-x="1268" 
d="M810 386c-202 0 -195 257 -356 257c-92 0 -145 -81 -145 -213h-75c0 171 85 281 220 281c210 0 204 -256 356 -256c90 0 149 94 149 235h75c0 -182 -89 -304 -224 -304z" />
    <glyph glyph-name="logicalnot" unicode="&#xac;" horiz-adv-x="1343" 
d="M967 291v420h-798v86h890v-506h-92z" />
    <glyph glyph-name="asciicircum" unicode="^" horiz-adv-x="1139" 
d="M143 469l425 983l428 -983h-102l-326 793l-322 -793h-103z" />
    <glyph glyph-name="infinity" unicode="&#x221e;" horiz-adv-x="2086" 
d="M582 357c-218 0 -377 162 -377 371s159 370 377 370c176 0 334 -128 454 -302c133 175 291 302 467 302c218 0 376 -161 376 -370s-158 -371 -376 -371c-177 0 -334 128 -467 304c-121 -176 -278 -304 -454 -304zM593 436c135 0 276 98 398 292
c-123 196 -265 291 -398 291c-170 0 -302 -125 -302 -291s132 -292 302 -292zM1492 436c170 0 301 126 301 292s-131 291 -301 291c-151 0 -293 -122 -412 -291c120 -170 261 -292 412 -292z" />
    <glyph glyph-name="integral" unicode="&#x222b;" horiz-adv-x="1051" 
d="M117 -481v82c237 0 331 86 331 305v1224c0 173 121 302 278 302c71 0 145 -28 209 -81l-52 -63c-51 41 -106 62 -157 62c-110 0 -196 -89 -196 -223v-1223c0 -261 -142 -385 -413 -385z" />
    <glyph glyph-name="uni2126" unicode="&#x2126;" horiz-adv-x="1661" 
d="M167 0v81h430l2 55c-215 119 -352 358 -352 614c0 143 56 294 146 393c109 121 279 200 437 200s330 -78 438 -200c88 -99 145 -252 145 -395c0 -279 -134 -519 -345 -616v-53h424v-79h-527v156c221 60 363 290 363 591c0 125 -47 258 -119 339
c-95 107 -244 175 -379 175c-136 0 -283 -69 -377 -175c-74 -84 -121 -214 -121 -339c0 -281 141 -510 362 -593v-154h-527z" />
    <glyph glyph-name="uni2206" unicode="&#x2206;" horiz-adv-x="1397" 
d="M132 0l567 1451l566 -1451h-1133zM251 82h895l-447 1165z" />
    <glyph glyph-name="product" unicode="&#x220f;" horiz-adv-x="1350" 
d="M301 0v1331h-115v82h978v-82h-113v-1331h-82v1331h-586v-1331h-82z" />
    <glyph glyph-name="summation" unicode="&#x2211;" horiz-adv-x="1335" 
d="M1184 1413v-91h-906l576 -615l-576 -616h906v-91h-1034v83l575 624l-575 624v82h1034z" />
    <glyph glyph-name="radical" unicode="&#x221a;" horiz-adv-x="1300" 
d="M539 -98l-264 662h-147v82h204l211 -533l539 1300h89z" />
    <glyph glyph-name="uni00B5" unicode="&#xb5;" horiz-adv-x="1288" 
d="M286 -355v1354h94v-613c0 -199 93 -311 270 -311c179 0 296 118 296 319v605h94v-999h-94v188c-56 -130 -176 -202 -319 -202c-129 0 -218 54 -262 154v-495h-79z" />
    <glyph glyph-name="partialdiff" unicode="&#x2202;" horiz-adv-x="1382" 
d="M603 -11c-260 0 -426 182 -426 445c0 350 240 591 553 591c213 0 313 -171 348 -327c4 50 3 97 -1 142c-13 345 -142 512 -375 512c-146 0 -274 -64 -331 -212l-73 24c65 166 214 261 411 261c320 0 469 -252 469 -684c0 -395 -181 -752 -575 -752zM608 72
c269 0 417 200 458 424c21 183 -60 449 -325 449c-292 0 -475 -221 -475 -510c0 -225 144 -363 342 -363z" />
    <glyph glyph-name="percent" unicode="%" horiz-adv-x="1564" 
d="M418 795c-180 0 -258 168 -258 316c0 149 77 316 252 316c152 0 258 -133 258 -317c0 -183 -104 -315 -252 -315zM357 0l776 1413h71l-776 -1413h-71zM418 864c108 0 184 101 184 246c0 130 -63 249 -190 249c-133 0 -184 -132 -184 -248s52 -247 190 -247zM1152 -14
c-181 0 -258 168 -258 316c0 149 77 316 252 316c152 0 258 -133 258 -317c0 -183 -104 -315 -252 -315zM1152 55c108 0 184 101 184 246c0 130 -64 249 -190 249c-133 0 -184 -132 -184 -248s52 -247 190 -247z" />
    <glyph glyph-name="perthousand" unicode="&#x2030;" horiz-adv-x="2180" 
d="M418 795c-180 0 -258 168 -258 316c0 149 77 316 252 316c152 0 258 -133 258 -317c0 -183 -104 -315 -252 -315zM357 0l776 1413h71l-776 -1413h-71zM418 864c108 0 184 101 184 246c0 130 -63 249 -190 249c-133 0 -184 -132 -184 -248s52 -247 190 -247zM1152 -14
c-181 0 -258 168 -258 316c0 149 77 316 252 316c152 0 258 -133 258 -317c0 -183 -104 -315 -252 -315zM1768 -14c-181 0 -259 168 -259 316c0 149 78 316 253 316c152 0 258 -133 258 -317c0 -183 -104 -315 -252 -315zM1152 55c108 0 184 101 184 246
c0 130 -64 249 -190 249c-133 0 -184 -132 -184 -248s52 -247 190 -247zM1768 55c108 0 184 101 184 246c0 130 -64 249 -190 249c-133 0 -184 -132 -184 -248s52 -247 190 -247z" />
    <glyph glyph-name="uni2031" unicode="&#x2031;" horiz-adv-x="2796" 
d="M418 795c-180 0 -258 168 -258 316c0 149 77 316 252 316c152 0 258 -133 258 -317c0 -183 -104 -315 -252 -315zM357 0l776 1413h71l-776 -1413h-71zM418 864c108 0 184 101 184 246c0 130 -63 249 -190 249c-133 0 -184 -132 -184 -248s52 -247 190 -247zM1152 -14
c-181 0 -258 168 -258 316c0 149 77 316 252 316c152 0 258 -133 258 -317c0 -183 -104 -315 -252 -315zM1768 -14c-181 0 -259 168 -259 316c0 149 78 316 253 316c152 0 258 -133 258 -317c0 -183 -104 -315 -252 -315zM2384 -14c-181 0 -259 168 -259 316
c0 149 77 316 253 316c151 0 258 -133 258 -317c0 -183 -105 -315 -252 -315zM1152 55c108 0 184 101 184 246c0 130 -64 249 -190 249c-133 0 -184 -132 -184 -248s52 -247 190 -247zM1768 55c108 0 184 101 184 246c0 130 -64 249 -190 249c-133 0 -184 -132 -184 -248
s52 -247 190 -247zM2384 55c108 0 184 101 184 246c0 130 -64 249 -190 249c-133 0 -185 -132 -185 -248s52 -247 191 -247z" />
    <glyph glyph-name="arrowright" unicode="&#x2192;" horiz-adv-x="2301" 
d="M1220 108l-33 65l764 428l-1810 -2v75l1810 3l-764 424l33 65l952 -527z" />
    <glyph glyph-name="arrowleft" unicode="&#x2190;" horiz-adv-x="2301" 
d="M1081 108l-952 531l952 527l33 -65l-764 -424l1810 -3v-75l-1810 2l764 -428z" />
    <glyph glyph-name="lozenge" unicode="&#x25ca;" horiz-adv-x="1181" 
d="M516 0l-373 707l373 706h149l373 -706l-373 -707h-149zM574 56h33l334 651l-334 650h-33l-334 -650z" />
    <glyph glyph-name="uniF8FF" unicode="&#xf8ff;" horiz-adv-x="1843" 
d="M922 -61c-428 0 -775 346 -775 774s347 774 775 774s774 -346 774 -774s-346 -774 -774 -774zM922 10c389 0 702 314 702 703s-313 702 -702 702c-390 0 -703 -313 -703 -702s313 -703 703 -703zM518 410c-18 0 -35 14 -35 34v537c0 20 17 37 35 37c21 0 37 -17 37 -37
v-537c0 -20 -16 -34 -37 -34zM922 410c-21 0 -35 14 -35 34v537c0 20 14 37 35 37c20 0 34 -17 34 -37v-537c0 -20 -14 -34 -34 -34zM1323 410c-8 0 -16 2 -23 10l-270 268c-6 8 -8 17 -8 25c0 10 2 18 8 24l272 269c5 8 13 12 21 12c18 0 37 -19 37 -37
c0 -8 -2 -16 -10 -25l-244 -243l244 -244c8 -8 10 -16 10 -25c0 -18 -19 -34 -37 -34zM653 678c-20 0 -35 14 -35 35c0 20 15 35 35 35h133c21 0 37 -15 37 -35c0 -21 -16 -35 -37 -35h-133z" />
    <glyph glyph-name="at" unicode="@" horiz-adv-x="2145" 
d="M1065 -355c-484 0 -887 327 -887 871c0 528 374 922 906 922c528 0 887 -383 887 -881c0 -306 -140 -620 -457 -620c-141 0 -215 90 -209 249c0 39 2 84 9 135c-80 -146 -212 -263 -390 -263c-198 0 -304 143 -304 352c0 269 172 636 499 636c163 0 259 -93 278 -254
l41 202l80 -3c-38 -199 -130 -558 -148 -750c-15 -130 14 -225 142 -225c272 0 382 276 382 542c0 457 -326 805 -809 805c-490 0 -830 -360 -830 -846c0 -503 368 -793 811 -793c101 0 187 16 278 47l28 -74c-102 -35 -196 -52 -307 -52zM930 137c287 0 431 324 431 562
c0 173 -77 268 -233 268c-287 0 -433 -321 -433 -559c0 -175 80 -271 235 -271z" />
    <glyph glyph-name="ampersand" unicode="&#x26;" horiz-adv-x="1426" 
d="M1275 -3l-68 -59l-192 225c-111 -113 -261 -177 -438 -177c-250 0 -421 125 -421 334c0 223 176 332 359 424c-58 68 -199 213 -199 363c0 191 161 318 357 318c187 0 334 -137 334 -317c0 -197 -172 -295 -352 -386l359 -420c67 101 108 232 119 382l92 -8
c-14 -177 -67 -328 -151 -444zM408 1106c0 -123 136 -262 186 -323c170 84 324 165 324 324c0 135 -100 241 -244 241c-154 0 -266 -97 -266 -242zM575 68c158 0 289 59 384 162l-384 451c-171 -87 -327 -181 -327 -362c0 -157 127 -251 327 -251z" />
    <glyph glyph-name="paragraph" unicode="&#xb6;" horiz-adv-x="1252" 
d="M601 -246v869c-233 0 -452 145 -452 395s219 395 452 395h71v-1659h-71zM893 -246v1659h71v-1659h-71z" />
    <glyph glyph-name="section" unicode="&#xa7;" horiz-adv-x="1220" 
d="M617 -13c-197 0 -349 82 -426 270l89 29c72 -155 175 -220 343 -220c183 0 318 79 318 195c0 271 -711 153 -711 526c0 80 32 146 89 199c-58 43 -88 97 -88 167c0 166 162 274 362 274c172 0 293 -61 368 -170l-76 -46c-62 94 -152 139 -295 139
c-166 0 -278 -88 -278 -198c0 -267 711 -148 711 -525c0 -75 -27 -143 -86 -198c55 -42 86 -97 86 -168c0 -173 -186 -274 -406 -274zM856 466c56 39 85 94 85 159c0 217 -348 227 -544 327c-58 -41 -85 -101 -85 -162c0 -215 351 -224 544 -324z" />
    <glyph glyph-name="copyright" unicode="&#xa9;" horiz-adv-x="1739" 
d="M870 -16c-399 0 -723 323 -723 723c0 399 324 723 723 723c398 0 721 -324 721 -723c0 -400 -323 -723 -721 -723zM870 48c362 0 657 296 657 659c0 362 -295 658 -657 658c-364 0 -658 -295 -658 -658c0 -364 294 -659 658 -659zM892 224c-255 0 -410 207 -410 481
c0 246 135 484 408 484c165 0 298 -89 367 -250l-77 -30c-53 128 -159 206 -290 206c-221 0 -327 -197 -327 -410c0 -216 107 -407 328 -407c135 0 239 77 282 205l74 -29c-56 -159 -188 -250 -355 -250z" />
    <glyph glyph-name="registered" unicode="&#xae;" horiz-adv-x="1739" 
d="M870 -16c-399 0 -723 323 -723 723c0 399 324 723 723 723c398 0 721 -324 721 -723c0 -400 -323 -723 -721 -723zM870 48c362 0 657 296 657 659c0 362 -295 658 -657 658c-364 0 -658 -295 -658 -658c0 -364 294 -659 658 -659zM650 263v887h236
c180 0 292 -93 292 -245c0 -117 -67 -199 -188 -226l243 -416h-77l-234 407c-18 -1 -38 -2 -58 -2h-146v-405h-68zM718 725h173c143 1 220 65 220 180c0 117 -82 182 -224 182h-169v-362z" />
    <glyph glyph-name="trademark" unicode="&#x2122;" horiz-adv-x="1220" 
d="M265 877v476h-161v60h384v-60h-159v-476h-64zM610 877v536h104l150 -394l150 394h101v-536h-64v464l-166 -417h-42l-169 424v-471h-64z" />
    <glyph glyph-name="degree" unicode="&#xb0;" horiz-adv-x="1001" 
d="M501 855c-157 0 -286 128 -286 286c0 157 129 286 286 286c156 0 285 -129 285 -286c0 -158 -129 -286 -285 -286zM501 923c120 0 217 97 217 218s-97 218 -217 218c-121 0 -218 -97 -218 -218s97 -218 218 -218z" />
    <glyph glyph-name="bar" unicode="|" horiz-adv-x="650" 
d="M288 -512v2046h74v-2046h-74z" />
    <glyph glyph-name="brokenbar" unicode="&#xa6;" horiz-adv-x="657" 
d="M288 731v744h81v-744h-81zM288 -307v727h81v-727h-81z" />
    <glyph glyph-name="dagger" unicode="&#x2020;" horiz-adv-x="862" 
d="M388 -205v1118h-260v87h260v413h87v-413h258v-87h-258v-1118h-87z" />
    <glyph glyph-name="daggerdbl" unicode="&#x2021;" horiz-adv-x="924" 
d="M419 -205v412h-259v87h259v619h-259v87h259v413h88v-413h258v-87h-258v-619h258v-87h-258v-412h-88z" />
    <glyph glyph-name="uni2116" unicode="&#x2116;" horiz-adv-x="2370" 
d="M1087 151v1262h95v-1413h-110l-739 1264v-1264h-95v1413h109zM1819 310c-235 0 -401 191 -401 438c0 243 166 434 401 434c233 0 404 -191 404 -434c0 -246 -171 -438 -404 -438zM1819 1112c-194 0 -321 -160 -321 -364c0 -207 127 -369 321 -369s322 163 322 369
c0 203 -128 364 -322 364zM1444 0v75h721v-75h-721z" />
    <glyph glyph-name="uni02F5" unicode="&#x2f5;" horiz-adv-x="1106" 
d="M424 705l-249 294h104l222 -294h-77zM849 705l-257 294h104l230 -294h-77z" />
    <glyph glyph-name="uni02F6" unicode="&#x2f6;" horiz-adv-x="1106" 
d="M257 705h-77l230 294h104zM682 705h-77l222 294h104z" />
    <glyph glyph-name="uni02D0" unicode="&#x2d0;" horiz-adv-x="586" 
d="M309 618l-234 381l419 32zM91 -31l185 413l235 -382z" />
    <glyph glyph-name="uni02D1" unicode="&#x2d1;" horiz-adv-x="606" 
d="M320 256l-234 382l419 32z" />
    <glyph glyph-name="uni0308" unicode="&#x308;" horiz-adv-x="0" 
d="M-620 1215v198h82v-198h-82zM-267 1215v198h82v-198h-82z" />
    <glyph glyph-name="uni0307" unicode="&#x307;" horiz-adv-x="0" 
d="M-284 1215v198h99v-198h-99z" />
    <glyph glyph-name="gravecomb" unicode="&#x300;" horiz-adv-x="0" 
d="M-167 1128l-236 285h103l211 -285h-78z" />
    <glyph glyph-name="acutecomb" unicode="&#x301;" horiz-adv-x="0" 
d="M-403 1128l216 285h103l-243 -285h-76z" />
    <glyph glyph-name="uni030B" unicode="&#x30b;" horiz-adv-x="0" 
d="M-728 1115l216 298h89l-229 -298h-76zM-402 1115l216 298h103l-243 -298h-76z" />
    <glyph glyph-name="uni0302" unicode="&#x302;" horiz-adv-x="0" 
d="M-664 1118l297 307l297 -307h-85l-212 219l-212 -219h-85z" />
    <glyph glyph-name="uni030C" unicode="&#x30c;" horiz-adv-x="0" 
d="M-370 1113l-296 300h85l211 -216l213 216h84z" />
    <glyph glyph-name="uni0306" unicode="&#x306;" horiz-adv-x="0" 
d="M-435 1150c-200 0 -302 93 -302 263h71c0 -133 85 -202 231 -202c147 0 229 70 229 202h71c0 -173 -105 -263 -300 -263z" />
    <glyph glyph-name="uni030A" unicode="&#x30a;" horiz-adv-x="0" 
d="M-321 1103c-102 0 -182 82 -182 182c0 101 81 182 182 182c99 0 182 -81 182 -182s-80 -182 -182 -182zM-321 1161c70 0 125 55 125 125c0 69 -53 124 -125 124c-70 0 -124 -55 -124 -124c0 -72 54 -125 124 -125z" />
    <glyph glyph-name="tildecomb" unicode="&#x303;" horiz-adv-x="0" 
d="M-318 1169c-170 0 -162 191 -285 190c-71 1 -115 -63 -115 -169h-60c0 146 68 233 178 232c159 1 155 -189 282 -189c62 0 107 70 107 180h62c0 -149 -68 -244 -169 -244z" />
    <glyph glyph-name="uni0304" unicode="&#x304;" horiz-adv-x="0" 
d="M-723 1244v61h544v-61h-544z" />
    <glyph glyph-name="uni030F" unicode="&#x30f;" horiz-adv-x="0" 
d="M-414 1115h-76l-243 298h103zM-88 1115h-76l-229 298h89z" />
    <glyph glyph-name="uni0312" unicode="&#x312;" horiz-adv-x="0" 
d="M-107 1421l-198 -294h-102l234 294h66z" />
    <glyph glyph-name="uni031B" unicode="&#x31b;" horiz-adv-x="0" 
d="M-413 1010v67c136 0 188 86 188 226v110h75v-104c0 -188 -80 -299 -263 -299z" />
    <glyph glyph-name="uni0326" unicode="&#x326;" horiz-adv-x="0" 
d="M-384 -444l198 329h102l-234 -329h-66z" />
    <glyph glyph-name="uni0327" unicode="&#x327;" horiz-adv-x="0" 
d="M-312 -514c-83 0 -162 53 -192 129l59 25c20 -56 74 -94 135 -94c86 0 137 45 137 124c0 77 -66 127 -186 138c-28 2 -57 3 -93 3l107 188h63l-84 -143c24 -1 47 -3 67 -7c122 -20 187 -82 187 -176c0 -113 -78 -187 -200 -187z" />
    <glyph glyph-name="uni0328" unicode="&#x328;" horiz-adv-x="0" 
d="M-303 -457c-124 0 -202 69 -202 184c0 144 139 251 255 278l77 -5c-138 -38 -270 -136 -270 -262c0 -90 52 -132 138 -132c71 0 120 29 163 90l52 -36c-52 -77 -118 -117 -213 -117z" />
    <glyph glyph-name="uni0337" unicode="&#x337;" horiz-adv-x="0" 
d="M-791 319v111l613 696v-110z" />
    <glyph glyph-name="acute" unicode="&#xb4;" horiz-adv-x="490" 
d="M87 1128l216 285h103l-243 -285h-76z" />
    <glyph glyph-name="breve" unicode="&#x2d8;" horiz-adv-x="872" 
d="M442 1150c-200 0 -302 93 -302 263h71c0 -133 85 -202 231 -202c147 0 229 70 229 202h71c0 -173 -105 -263 -300 -263z" />
    <glyph glyph-name="caron" unicode="&#x2c7;" horiz-adv-x="739" 
d="M374 1113l-296 300h85l211 -216l213 216h84z" />
    <glyph glyph-name="cedilla" unicode="&#xb8;" horiz-adv-x="608" 
d="M296 -514c-83 0 -162 53 -192 129l59 25c20 -56 74 -94 135 -94c86 0 137 45 137 124c0 77 -66 127 -186 138c-28 2 -57 3 -93 3l107 188h63l-84 -143c24 -1 47 -3 67 -7c122 -20 187 -82 187 -176c0 -113 -78 -187 -200 -187z" />
    <glyph glyph-name="circumflex" unicode="&#x2c6;" horiz-adv-x="734" 
d="M70 1118l297 307l297 -307h-85l-212 219l-212 -219h-85z" />
    <glyph glyph-name="dieresis" unicode="&#xa8;" horiz-adv-x="791" 
d="M185 1215v198h82v-198h-82zM538 1215v198h82v-198h-82z" />
    <glyph glyph-name="dotaccent" unicode="&#x2d9;" horiz-adv-x="469" 
d="M194 1215v198h99v-198h-99z" />
    <glyph glyph-name="grave" unicode="`" horiz-adv-x="489" 
d="M325 1128l-236 285h103l211 -285h-78z" />
    <glyph glyph-name="hungarumlaut" unicode="&#x2dd;" horiz-adv-x="802" 
d="M95 1115l216 298h89l-229 -298h-76zM421 1115l216 298h103l-243 -298h-76z" />
    <glyph glyph-name="macron" unicode="&#xaf;" horiz-adv-x="902" 
d="M184 1244v61h544v-61h-544z" />
    <glyph glyph-name="ogonek" unicode="&#x2db;" horiz-adv-x="631" 
d="M328 -457c-124 0 -202 69 -202 184c0 144 139 251 255 278l77 -5c-138 -38 -270 -136 -270 -262c0 -90 52 -132 138 -132c71 0 120 29 163 90l52 -36c-52 -77 -118 -117 -213 -117z" />
    <glyph glyph-name="ring" unicode="&#x2da;" horiz-adv-x="642" 
d="M326 1103c-102 0 -182 82 -182 182c0 101 81 182 182 182c99 0 182 -81 182 -182s-80 -182 -182 -182zM326 1161c70 0 125 55 125 125c0 69 -53 124 -125 124c-70 0 -124 -55 -124 -124c0 -72 54 -125 124 -125z" />
    <glyph glyph-name="tilde" unicode="&#x2dc;" horiz-adv-x="924" 
d="M618 1169c-170 0 -162 191 -285 190c-71 1 -115 -63 -115 -169h-60c0 146 68 233 178 232c159 1 155 -189 282 -189c62 0 107 70 107 180h62c0 -149 -68 -244 -169 -244z" />
    <glyph glyph-name="tonos" unicode="&#x384;" horiz-adv-x="444" 
d="M143 1128l88 285h82l-116 -285h-54z" />
    <glyph glyph-name="dieresistonos" unicode="&#x385;" horiz-adv-x="664" 
d="M279 1542l88 285h82l-116 -285h-54zM98 1215v198h82v-198h-82zM451 1215v198h82v-198h-82z" />
    <glyph glyph-name="uni0483" unicode="&#x483;" horiz-adv-x="0" 
d="M-968 1552v258h727v153h97v-244h-729v-167h-95z" />
    </font>
</defs>
</svg>
